<?xml version="1.0" encoding="UTF-8" standalone="no"?>
<svg
   xmlns:dc="http://purl.org/dc/elements/1.1/"
   xmlns:cc="http://creativecommons.org/ns#"
   xmlns:rdf="http://www.w3.org/1999/02/22-rdf-syntax-ns#"
   xmlns:svg="http://www.w3.org/2000/svg"
   xmlns="http://www.w3.org/2000/svg"
   xmlns:sodipodi="http://sodipodi.sourceforge.net/DTD/sodipodi-0.dtd"
   xmlns:inkscape="http://www.inkscape.org/namespaces/inkscape"
   width="242"
   height="242"
   viewBox="-81 -161 242 242"
   version="1.1"
   id="svg819"
   sodipodi:docname="SimpleBox.svg"
   inkscape:version="0.92.2 5c3e80d, 2017-08-06">
  <metadata
     id="metadata825">
    <rdf:RDF>
      <cc:Work
         rdf:about="">
        <dc:format>image/svg+xml</dc:format>
        <dc:type
           rdf:resource="http://purl.org/dc/dcmitype/StillImage" />
      </cc:Work>
    </rdf:RDF>
  </metadata>
  <defs
     id="defs823" />
  <sodipodi:namedview
     pagecolor="#ffffff"
     bordercolor="#666666"
     borderopacity="1"
     objecttolerance="10"
     gridtolerance="10"
     guidetolerance="10"
     inkscape:pageopacity="0"
     inkscape:pageshadow="2"
     inkscape:window-width="1920"
     inkscape:window-height="1051"
     id="namedview821"
     showgrid="false"
     inkscape:zoom="2.4807176"
     inkscape:cx="179.50266"
     inkscape:cy="120.23256"
     inkscape:window-x="0"
     inkscape:window-y="0"
     inkscape:window-maximized="1"
     inkscape:current-layer="svg819" />
  <title
     id="title815">OpenSCAD Model</title>
  <path
     d="m 9.02719,-81.377 0.08153,-0.3763 0.13571,-0.3749 0.18968,-0.373 0.2433,-0.3704 0.2965,-0.3671 0.34919,-0.3632 0.4012,-0.3585 0.4526,-0.3534 0.5032,-0.3476 0.5528,-0.3412 0.6016,-0.3341 0.6492,-0.3266 0.6957,-0.3183 0.7411,-0.3096 0.785,-0.3004 0.8276,-0.2905 0.8689,-0.2802 0.9084,-0.2694 0.9465,-0.2581 0.983,-0.2463 1.0175,-0.2342 1.0505,-0.2217 1.0815,-0.2086 1.1106,-0.1953 1.1378,-0.1817 1.163,-0.1676 1.1862,-0.1534 1.2073,-0.1388 1.2262,-0.124 1.243,-0.109 1.2576,-0.0937 1.2701,-0.0784 1.2802,-0.0629 1.2882,-0.0473 1.2939,-0.0315 L 39.3508,-90 h 1.2984 l 1.2973,0.0158 1.2939,0.0315 1.2882,0.0473 1.2802,0.0629 1.2701,0.0784 1.2576,0.0937 1.243,0.109 1.2262,0.124 1.2073,0.1388 1.1862,0.1534 1.163,0.1676 1.1378,0.1817 1.1106,0.1953 1.0815,0.2086 1.0505,0.2217 1.0175,0.2342 0.9829,0.2463 0.9466,0.2581 0.9084,0.2694 0.8688,0.2802 0.8277,0.2905 0.785,0.3004 0.7411,0.3096 0.6957,0.3183 0.6492,0.3266 0.6016,0.3341 0.5528,0.3412 0.5032,0.3476 0.4526,0.3534 0.4012,0.3585 0.3492,0.3632 0.2965,0.3671 0.2433,0.3704 0.1897,0.373 0.1357,0.3749 0.0815,0.3763 L 71,-81 h 9 v -8 h -3 v -10 h 3 v -8 h -3 v -10 h 3 v -8 h -3 v -10 h 3 v -8 h -3 v -10 h 3 v -8 H 0 v 8 h 3 v 10 H 0 v 8 h 3 v 10 H 0 v 8 h 3 v 10 H 0 v 8 h 3 v 10 H 0 v 8 H 9 Z M 8,-93 v -3 h 10 v 3 z m 36,0 v -3 h 10 v 3 z m -18,0 v -3 h 10 v 3 z m 36,0 v -3 h 10 v 3 z m 37,90 h 8 v 3 h 10 v -3 h 8 v 3 h 10 v -3 h 8 v 3 h 10 v -3 h 8 v -74 h -8 v -3 h -10 v 3 h -8 v -3 h -10 v 3 h -8 v -3 h -10 v 3 h -8 v -3 H 89 v 3 h -8 v 6 h 0.1885 l 0.3766,0.0544 0.3757,0.1087 0.3739,0.1627 0.3717,0.2166 0.3687,0.27 0.3652,0.323 0.3608,0.3754 0.356,0.4271 0.3505,0.4781 0.3444,0.5282 0.3377,0.5775 0.3303,0.6256 0.3224,0.6728 0.314,0.7187 0.305,0.7634 0.2954,0.8067 0.2854,0.8486 0.2748,0.889 0.2637,0.9279 0.2522,0.9651 0.2403,1.0007 0.2279,1.0345 0.2152,1.0664 0.202,1.0966 0.1884,1.1247 0.1747,1.1509 0.1605,1.1751 0.1461,1.1972 0.1314,1.2173 0.1165,1.2352 0.1013,1.2508 0.0861,1.2644 0.0707,1.2757 0.055,1.2848 0.0394,1.2916 0.0237,1.2962 L 90,-40 l -0.0079,1.2984 -0.0237,1.2962 -0.0394,1.2916 -0.055,1.2848 -0.0707,1.2757 -0.0861,1.2644 -0.1013,1.2509 -0.1165,1.2351 -0.1314,1.2173 -0.1461,1.1972 -0.1605,1.1751 -0.1747,1.151 -0.1884,1.1247 -0.202,1.0965 -0.2152,1.0664 -0.2279,1.0345 -0.2403,1.0007 -0.2522,0.9651 -0.2637,0.9279 -0.2748,0.8891 -0.2854,0.8486 -0.2954,0.8066 -0.305,0.7634 -0.314,0.7187 -0.3224,0.6728 -0.3303,0.6256 -0.3377,0.5775 -0.3444,0.5282 -0.3505,0.4781 -0.356,0.4271 -0.3608,0.3754 -0.3652,0.32298 -0.3687,0.27002 -0.3717,0.21658 -0.3739,0.16276 -0.3757,0.10868 L 81.1885,-9 H 81 v 6 h 8 v 3 h 10 z m -6,-59 v -10 h 3 v 10 z m 0,18 v -10 h 3 v 10 z m 0,18 v -10 h 3 v 10 z m 0,18 v -10 h 3 v 10 z m -75,5 h 8 v 3 h 10 v -3 h 8 v 3 h 10 v -3 h 8 v 3 h 10 v -3 h 5 v -5 h 3 v -10 h -3 v -8 h 3 v -10 h -3 v -8 h 3 v -10 h -3 v -8 h 3 v -10 h -3 v -5 h -5 v -3 H 62 v 3 h -8 v -3 H 44 v 3 h -8 v -3 H 26 v 3 h -8 v -3 H 8 v 3 H 3 v 5 H 0 v 10 h 3 v 8 H 0 v 10 h 3 v 8 H 0 v 10 h 3 v 8 H 0 v 10 h 3 v 5 h 5 v 3 h 10 z m -81,0 h 8 v 3 h 10 v -3 h 8 v 3 h 10 v -3 h 8 v 3 h 10 v -3 h 8 v -74 h -8 v -3 h -10 v 3 h -8 v -3 h -10 v 3 h -8 v -3 h -10 v 3 h -8 v -3 h -10 v 3 h -8 v 6 h 0.1885 l 0.3766,0.0544 0.3757,0.1087 0.3739,0.1627 0.3717,0.2166 0.3687,0.27 0.3652,0.323 0.3608,0.3754 0.356,0.4271 0.3505,0.4781 0.3444,0.5282 0.3377,0.5775 0.3303,0.6256 0.3224,0.6728 0.314,0.7187 0.305,0.7634 0.2954,0.8067 0.2854,0.8486 0.2748,0.889 0.2637,0.9279 0.2522,0.9651 0.2403,1.0007 0.2279,1.0345 0.2152,1.0664 0.202,1.0966 0.1884,1.1247 0.1747,1.1509 0.1605,1.1751 0.1461,1.1972 0.1314,1.2173 0.1165,1.2352 0.1013,1.2508 0.0861,1.2644 0.0707,1.2757 0.055,1.2848 0.0394,1.2916 0.0237,1.2962 L -72,-40 l -0.0079,1.2984 -0.0237,1.2962 -0.0394,1.2916 -0.055,1.2848 -0.0707,1.2757 -0.0861,1.2644 -0.1013,1.2509 -0.1165,1.2351 -0.1314,1.2173 -0.1461,1.1972 -0.1605,1.1751 -0.1747,1.151 -0.1884,1.1247 -0.202,1.0965 -0.2152,1.0664 -0.2279,1.0345 -0.2403,1.0007 -0.2522,0.9651 -0.2637,0.9279 -0.2748,0.8891 -0.2854,0.8486 -0.2954,0.8066 -0.305,0.7634 -0.314,0.7187 -0.3224,0.6728 -0.3303,0.6256 -0.3377,0.5775 -0.3444,0.5282 -0.3505,0.4781 -0.356,0.4271 -0.3608,0.3754 -0.3652,0.32298 -0.3687,0.27002 -0.3717,0.21658 -0.3739,0.16276 -0.3757,0.10868 L -80.8115,-9 H -81 v 6 h 8 v 3 h 10 z m -6,-59 v -10 h 3 v 10 z m 0,18 v -10 h 3 v 10 z m 0,18 v -10 h 3 v 10 z m 0,18 v -10 h 3 V -8 Z M 80,73 H 77 V 63 h 3 V 55 H 77 V 45 h 3 V 37 H 77 V 27 h 3 V 19 H 77 V 9 h 3 V 1 l -9,-1.5e-5 -0.0272,0.376955 -0.0815,0.37631 -0.1357,0.37497 -0.1897,0.373 -0.2433,0.37038 -0.2965,0.36708 -0.3492,0.36316 -0.4012,0.35858 -0.4526,0.35341 -0.5032,0.34758 -0.5528,0.34117 -0.6016,0.33414 -0.6492,0.32652 -0.6957,0.31836 -0.7411,0.3096 -0.785,0.30034 -0.8276,0.29051 -0.8689,0.2802 -0.9084,0.26939 -0.9465,0.2581 -0.983,0.24637 L 58.7426,8.17032 57.6921,8.39194 56.6106,8.6006 55.5,8.79591 54.3622,8.97755 53.1992,9.1452 52.013,9.29857 50.8057,9.43736 49.5795,9.56137 48.3365,9.67035 47.0789,9.76411 45.8088,9.8425 44.5286,9.90538 43.2404,9.95264 41.9465,9.98419 40.6492,9.99998 H 39.3508 L 38.0535,9.98419 36.7596,9.95264 35.4714,9.90538 34.1912,9.8425 32.9211,9.76411 31.6635,9.67035 30.4205,9.56137 29.1943,9.43736 27.987,9.29857 26.8008,9.1452 25.6378,8.97755 24.5,8.79591 23.3894,8.6006 22.3079,8.39194 21.2574,8.17032 20.2399,7.93611 19.257,7.68974 18.3104,7.43164 17.402,7.16225 16.5332,6.88205 15.7055,6.59154 14.9205,6.2912 14.1794,5.9816 13.4837,5.66324 12.8345,5.33672 12.2329,5.00258 11.6801,4.66141 11.1769,4.31383 10.7243,3.96042 10.3231,3.60184 9.97392,3.23868 9.67743,2.8716 9.43413,2.50122 9.24445,2.12822 9.10873,1.75325 9.02721,1.37694 9,0.999985 H 0 V 8.99998 H 3 V 19 H 0 v 8 H 3 V 37 H 0 v 8 H 3 V 55 H 0 v 8 H 2.99998 V 73 H 0 v 8 H 80 Z M 44,16 v -3 h 10 v 3 z M 8,16 v -3 h 10 v 3 z m 18,0 v -3 h 10 v 3 z m 36,0 v -3 h 10 v 3 z"
     id="path817"
     inkscape:connector-curvature="0"
     style="fill:#d3d3d3;stroke:#000000;stroke-width:0.5"
     sodipodi:nodetypes="ccccccccccccccccccccccccccccccccccccccccccccccccccccccccccccccccccccccccccccccccccccccccccccccccccccccccccccccccccccccccccccccccccccccccccccccccccccccccccccccccccccccccccccccccccccccccccccccccccccccccccccccccccccccccccccccccccccccccccccccccccccccccccccccccccccccccccccccccccccccccccccccccccccccccccccccccccccccccccccccccccccccccccccccccccccccccccccccccccccccccccccccccccccccccccccccccccccccccccccccccccccccccccccccccccccccccccccccccccccccccccccccccccccccccccccccccccccccccccccccccccccccccccccccccccccccccccccccccccccccccccccccccccccccccccccccccccccccccccccccccccccccccccccccccccccccccccccccccccccccccccc" />
</svg>
