  0
SECTION
  2
HEADER
  9
$ACADVER
  1
AC1014
  9
$EXTMIN
 10
70.16401489310567
 20
112.369642808922
 30
0.0
  9
$EXTMAX
 10
277.0834797641999
 20
227.1366601424358
 30
0.0
  9
$HANDSEED
  5
56
  9
$MEASUREMENT
 70
1
  0
ENDSEC
  0
SECTION
  2
TABLES
  0
TABLE
  2
VPORT
  5
8
330
0
100
AcDbSymbolTable
 70
     4
  0
VPORT
  5
2E
330
8
100
AcDbSymbolTableRecord
100
AcDbViewportTableRecord
  2
*ACTIVE
 70
     0
 10
0.0
 20
0.0
 11
1.0
 21
1.0
 12
209.9999999999999
 22
148.4999999999999
 13
0.0
 23
0.0
 14
10.0
 24
10.0
 15
10.0
 25
10.0
 16
0.0
 26
0.0
 36
1.0
 17
0.0
 27
0.0
 37
0.0
 40
340.9950045922664
 41
1.239944521497919
 42
50.0
 43
0.0
 44
0.0
 50
0.0
 51
0.0
 71
     0
 72
   100
 73
     1
 74
     3
 75
     0
 76
     0
 77
     0
 78
     0
  0
ENDTAB
  0
TABLE
  2
LTYPE
  5
5
330
0
100
AcDbSymbolTable
 70
     1
  0
LTYPE
  5
14
330
5
100
AcDbSymbolTableRecord
100
AcDbLinetypeTableRecord
  2
BYBLOCK
 70
     0
  3

 72
    65
 73
     0
 40
0.0
  0
LTYPE
  5
15
330
5
100
AcDbSymbolTableRecord
100
AcDbLinetypeTableRecord
  2
BYLAYER
 70
     0
  3

 72
    65
 73
     0
 40
0.0
  0
LTYPE
  5
16
330
5
100
AcDbSymbolTableRecord
100
AcDbLinetypeTableRecord
  2
CONTINUOUS
 70
     0
  3
Solid line
 72
    65
 73
     0
 40
0.0
  0
ENDTAB
  0
TABLE
  2
LAYER
  5
2
330
0
100
AcDbSymbolTable
 70
1
  0
LAYER
  5
10
330
2
100
AcDbSymbolTableRecord
100
AcDbLayerTableRecord
  2
0
 70
     0
 62
     7
  6
CONTINUOUS
  0
ENDTAB
  0
TABLE
  2
STYLE
  5
3
330
0
100
AcDbSymbolTable
 70
     1
  0
STYLE
  5
11
330
3
100
AcDbSymbolTableRecord
100
AcDbTextStyleTableRecord
  2
STANDARD
 70
     0
 40
0.0
 41
1.0
 50
0.0
 71
     0
 42
2.5
  3
txt
  4

  0
ENDTAB
  0
TABLE
  2
VIEW
  5
6
330
0
100
AcDbSymbolTable
 70
     0
  0
ENDTAB
  0
TABLE
  2
UCS
  5
7
330
0
100
AcDbSymbolTable
 70
     0
  0
ENDTAB
  0
TABLE
  2
APPID
  5
9
330
0
100
AcDbSymbolTable
 70
     2
  0
APPID
  5
12
330
9
100
AcDbSymbolTableRecord
100
AcDbRegAppTableRecord
  2
ACAD
 70
     0
  0
APPID
  5
2B
330
9
100
AcDbSymbolTableRecord
100
AcDbRegAppTableRecord
  2
URBANX
 70
     0
  0
ENDTAB
  0
TABLE
  2
DIMSTYLE
  5
A
330
0
100
AcDbSymbolTable
 70
     1
  0
DIMSTYLE
105
27
330
A
100
AcDbSymbolTableRecord
100
AcDbDimStyleTableRecord
  2
ISO-25
 70
     0
  3

  4

  5

  6

  7

 40
1.0
 41
2.5
 42
0.625
 43
3.75
 44
1.25
 45
0.0
 46
0.0
 47
0.0
 48
0.0
140
2.5
141
2.5
142
0.0
143
0.03937007874016
144
1.0
145
0.0
146
1.0
147
0.625
 71
     0
 72
     0
 73
     0
 74
     0
 75
     0
 76
     0
 77
     1
 78
     8
170
     0
171
     3
172
     1
173
     0
174
     0
175
     0
176
     0
177
     0
178
     0
270
     2
271
     2
272
     2
273
     2
274
     3
340
11
275
     0
280
     0
281
     0
282
     0
283
     0
284
     8
285
     0
286
     0
287
     3
288
     0
  0
ENDTAB
  0
TABLE
  2
BLOCK_RECORD
  5
1
330
0
100
AcDbSymbolTable
 70
     1
  0
BLOCK_RECORD
  5
1F
102
{ACAD_XDICTIONARY
360
52
102
}
330
1
100
AcDbSymbolTableRecord
100
AcDbBlockTableRecord
  2
*MODEL_SPACE
  0
BLOCK_RECORD
  5
1B
102
{ACAD_XDICTIONARY
360
50
102
}
330
1
100
AcDbSymbolTableRecord
100
AcDbBlockTableRecord
  2
*PAPER_SPACE
  0
ENDTAB
  0
ENDSEC
  0
SECTION
  2
BLOCKS
  0
BLOCK
  5
20
330
1F
100
AcDbEntity
  8
0
100
AcDbBlockBegin
  2
*MODEL_SPACE
 70
     0
 10
0.0
 20
0.0
 30
0.0
  3
*MODEL_SPACE
  1

  0
ENDBLK
  5
21
330
1F
100
AcDbEntity
  8
0
100
AcDbBlockEnd
  0
BLOCK
  5
1C
330
1B
100
AcDbEntity
 67
     1
  8
0
100
AcDbBlockBegin
  2
*PAPER_SPACE
  1

  0
ENDBLK
  5
1D
330
1B
100
AcDbEntity
 67
     1
  8
0
100
AcDbBlockEnd
  0
ENDSEC
  0
SECTION
  2
ENTITIES
  0
LINE
  5
ff
100
AcDbEntity
  8
0
100
AcDbLine
 62
     254
 10
90.2628
 20
162.602
 30
0.0
 11
90.3443
 21
162.978
 31
0.0
  0
LINE
  5
100
100
AcDbEntity
  8
0
100
AcDbLine
 62
     254
 10
90.3443
 20
162.978
 30
0.0
 11
90.4804
 21
163.353
 31
0.0
  0
LINE
  5
101
100
AcDbEntity
  8
0
100
AcDbLine
 62
     254
 10
90.4804
 20
163.353
 30
0.0
 11
90.6695
 21
163.725
 31
0.0
  0
LINE
  5
102
100
AcDbEntity
  8
0
100
AcDbLine
 62
     254
 10
90.6695
 20
163.725
 30
0.0
 11
90.9133
 21
164.095
 31
0.0
  0
LINE
  5
103
100
AcDbEntity
  8
0
100
AcDbLine
 62
     254
 10
90.9133
 20
164.095
 30
0.0
 11
91.2096
 21
164.463
 31
0.0
  0
LINE
  5
104
100
AcDbEntity
  8
0
100
AcDbLine
 62
     254
 10
91.2096
 20
164.463
 30
0.0
 11
91.5582
 21
164.826
 31
0.0
  0
LINE
  5
105
100
AcDbEntity
  8
0
100
AcDbLine
 62
     254
 10
91.5582
 20
164.826
 30
0.0
 11
91.9593
 21
165.184
 31
0.0
  0
LINE
  5
106
100
AcDbEntity
  8
0
100
AcDbLine
 62
     254
 10
91.9593
 20
165.184
 30
0.0
 11
92.4126
 21
165.538
 31
0.0
  0
LINE
  5
107
100
AcDbEntity
  8
0
100
AcDbLine
 62
     254
 10
92.4126
 20
165.538
 30
0.0
 11
92.9157
 21
165.886
 31
0.0
  0
LINE
  5
108
100
AcDbEntity
  8
0
100
AcDbLine
 62
     254
 10
92.9157
 20
165.886
 30
0.0
 11
93.4681
 21
166.226
 31
0.0
  0
LINE
  5
109
100
AcDbEntity
  8
0
100
AcDbLine
 62
     254
 10
93.4681
 20
166.226
 30
0.0
 11
94.0689
 21
166.561
 31
0.0
  0
LINE
  5
10a
100
AcDbEntity
  8
0
100
AcDbLine
 62
     254
 10
94.0689
 20
166.561
 30
0.0
 11
94.7194
 21
166.887
 31
0.0
  0
LINE
  5
10b
100
AcDbEntity
  8
0
100
AcDbLine
 62
     254
 10
94.7194
 20
166.887
 30
0.0
 11
95.414
 21
167.206
 31
0.0
  0
LINE
  5
10c
100
AcDbEntity
  8
0
100
AcDbLine
 62
     254
 10
95.414
 20
167.206
 30
0.0
 11
96.1552
 21
167.514
 31
0.0
  0
LINE
  5
10d
100
AcDbEntity
  8
0
100
AcDbLine
 62
     254
 10
96.1552
 20
167.514
 30
0.0
 11
96.9409
 21
167.815
 31
0.0
  0
LINE
  5
10e
100
AcDbEntity
  8
0
100
AcDbLine
 62
     254
 10
96.9409
 20
167.815
 30
0.0
 11
97.7678
 21
168.106
 31
0.0
  0
LINE
  5
10f
100
AcDbEntity
  8
0
100
AcDbLine
 62
     254
 10
97.7678
 20
168.106
 30
0.0
 11
98.636
 21
168.385
 31
0.0
  0
LINE
  5
110
100
AcDbEntity
  8
0
100
AcDbLine
 62
     254
 10
98.636
 20
168.385
 30
0.0
 11
99.5454
 21
168.655
 31
0.0
  0
LINE
  5
111
100
AcDbEntity
  8
0
100
AcDbLine
 62
     254
 10
99.5454
 20
168.655
 30
0.0
 11
100.491
 21
168.913
 31
0.0
  0
LINE
  5
112
100
AcDbEntity
  8
0
100
AcDbLine
 62
     254
 10
100.491
 20
168.913
 30
0.0
 11
101.475
 21
169.16
 31
0.0
  0
LINE
  5
113
100
AcDbEntity
  8
0
100
AcDbLine
 62
     254
 10
101.475
 20
169.16
 30
0.0
 11
102.491
 21
169.394
 31
0.0
  0
LINE
  5
114
100
AcDbEntity
  8
0
100
AcDbLine
 62
     254
 10
102.491
 20
169.394
 30
0.0
 11
103.542
 21
169.616
 31
0.0
  0
LINE
  5
115
100
AcDbEntity
  8
0
100
AcDbLine
 62
     254
 10
103.542
 20
169.616
 30
0.0
 11
104.623
 21
169.824
 31
0.0
  0
LINE
  5
116
100
AcDbEntity
  8
0
100
AcDbLine
 62
     254
 10
104.623
 20
169.824
 30
0.0
 11
105.733
 21
170.019
 31
0.0
  0
LINE
  5
117
100
AcDbEntity
  8
0
100
AcDbLine
 62
     254
 10
105.733
 20
170.019
 30
0.0
 11
106.871
 21
170.2
 31
0.0
  0
LINE
  5
118
100
AcDbEntity
  8
0
100
AcDbLine
 62
     254
 10
106.871
 20
170.2
 30
0.0
 11
108.034
 21
170.368
 31
0.0
  0
LINE
  5
119
100
AcDbEntity
  8
0
100
AcDbLine
 62
     254
 10
108.034
 20
170.368
 30
0.0
 11
109.219
 21
170.521
 31
0.0
  0
LINE
  5
11a
100
AcDbEntity
  8
0
100
AcDbLine
 62
     254
 10
109.219
 20
170.521
 30
0.0
 11
110.426
 21
170.66
 31
0.0
  0
LINE
  5
11b
100
AcDbEntity
  8
0
100
AcDbLine
 62
     254
 10
110.426
 20
170.66
 30
0.0
 11
111.653
 21
170.784
 31
0.0
  0
LINE
  5
11c
100
AcDbEntity
  8
0
100
AcDbLine
 62
     254
 10
111.653
 20
170.784
 30
0.0
 11
112.896
 21
170.893
 31
0.0
  0
LINE
  5
11d
100
AcDbEntity
  8
0
100
AcDbLine
 62
     254
 10
112.896
 20
170.893
 30
0.0
 11
114.153
 21
170.987
 31
0.0
  0
LINE
  5
11e
100
AcDbEntity
  8
0
100
AcDbLine
 62
     254
 10
114.153
 20
170.987
 30
0.0
 11
115.423
 21
171.065
 31
0.0
  0
LINE
  5
11f
100
AcDbEntity
  8
0
100
AcDbLine
 62
     254
 10
115.423
 20
171.065
 30
0.0
 11
116.703
 21
171.129
 31
0.0
  0
LINE
  5
120
100
AcDbEntity
  8
0
100
AcDbLine
 62
     254
 10
116.703
 20
171.129
 30
0.0
 11
117.99
 21
171.176
 31
0.0
  0
LINE
  5
121
100
AcDbEntity
  8
0
100
AcDbLine
 62
     254
 10
117.99
 20
171.176
 30
0.0
 11
119.284
 21
171.208
 31
0.0
  0
LINE
  5
122
100
AcDbEntity
  8
0
100
AcDbLine
 62
     254
 10
119.284
 20
171.208
 30
0.0
 11
120.583
 21
171.222
 31
0.0
  0
LINE
  5
123
100
AcDbEntity
  8
0
100
AcDbLine
 62
     254
 10
120.583
 20
171.222
 30
0.0
 11
121.88
 21
171.222
 31
0.0
  0
LINE
  5
124
100
AcDbEntity
  8
0
100
AcDbLine
 62
     254
 10
121.88
 20
171.222
 30
0.0
 11
123.177
 21
171.208
 31
0.0
  0
LINE
  5
125
100
AcDbEntity
  8
0
100
AcDbLine
 62
     254
 10
123.177
 20
171.208
 30
0.0
 11
124.471
 21
171.176
 31
0.0
  0
LINE
  5
126
100
AcDbEntity
  8
0
100
AcDbLine
 62
     254
 10
124.471
 20
171.176
 30
0.0
 11
125.758
 21
171.129
 31
0.0
  0
LINE
  5
127
100
AcDbEntity
  8
0
100
AcDbLine
 62
     254
 10
125.758
 20
171.129
 30
0.0
 11
127.038
 21
171.065
 31
0.0
  0
LINE
  5
128
100
AcDbEntity
  8
0
100
AcDbLine
 62
     254
 10
127.038
 20
171.065
 30
0.0
 11
128.309
 21
170.987
 31
0.0
  0
LINE
  5
129
100
AcDbEntity
  8
0
100
AcDbLine
 62
     254
 10
128.309
 20
170.987
 30
0.0
 11
129.566
 21
170.893
 31
0.0
  0
LINE
  5
12a
100
AcDbEntity
  8
0
100
AcDbLine
 62
     254
 10
129.566
 20
170.893
 30
0.0
 11
130.809
 21
170.784
 31
0.0
  0
LINE
  5
12b
100
AcDbEntity
  8
0
100
AcDbLine
 62
     254
 10
130.809
 20
170.784
 30
0.0
 11
132.035
 21
170.66
 31
0.0
  0
LINE
  5
12c
100
AcDbEntity
  8
0
100
AcDbLine
 62
     254
 10
132.035
 20
170.66
 30
0.0
 11
133.242
 21
170.521
 31
0.0
  0
LINE
  5
12d
100
AcDbEntity
  8
0
100
AcDbLine
 62
     254
 10
133.242
 20
170.521
 30
0.0
 11
134.428
 21
170.368
 31
0.0
  0
LINE
  5
12e
100
AcDbEntity
  8
0
100
AcDbLine
 62
     254
 10
134.428
 20
170.368
 30
0.0
 11
135.591
 21
170.2
 31
0.0
  0
LINE
  5
12f
100
AcDbEntity
  8
0
100
AcDbLine
 62
     254
 10
135.591
 20
170.2
 30
0.0
 11
136.729
 21
170.019
 31
0.0
  0
LINE
  5
130
100
AcDbEntity
  8
0
100
AcDbLine
 62
     254
 10
136.729
 20
170.019
 30
0.0
 11
137.838
 21
169.824
 31
0.0
  0
LINE
  5
131
100
AcDbEntity
  8
0
100
AcDbLine
 62
     254
 10
137.838
 20
169.824
 30
0.0
 11
138.92
 21
169.616
 31
0.0
  0
LINE
  5
132
100
AcDbEntity
  8
0
100
AcDbLine
 62
     254
 10
138.92
 20
169.616
 30
0.0
 11
139.97
 21
169.394
 31
0.0
  0
LINE
  5
133
100
AcDbEntity
  8
0
100
AcDbLine
 62
     254
 10
139.97
 20
169.394
 30
0.0
 11
140.988
 21
169.16
 31
0.0
  0
LINE
  5
134
100
AcDbEntity
  8
0
100
AcDbLine
 62
     254
 10
140.988
 20
169.16
 30
0.0
 11
141.971
 21
168.913
 31
0.0
  0
LINE
  5
135
100
AcDbEntity
  8
0
100
AcDbLine
 62
     254
 10
141.971
 20
168.913
 30
0.0
 11
142.918
 21
168.655
 31
0.0
  0
LINE
  5
136
100
AcDbEntity
  8
0
100
AcDbLine
 62
     254
 10
142.918
 20
168.655
 30
0.0
 11
143.826
 21
168.385
 31
0.0
  0
LINE
  5
137
100
AcDbEntity
  8
0
100
AcDbLine
 62
     254
 10
143.826
 20
168.385
 30
0.0
 11
144.694
 21
168.106
 31
0.0
  0
LINE
  5
138
100
AcDbEntity
  8
0
100
AcDbLine
 62
     254
 10
144.694
 20
168.106
 30
0.0
 11
145.522
 21
167.815
 31
0.0
  0
LINE
  5
139
100
AcDbEntity
  8
0
100
AcDbLine
 62
     254
 10
145.522
 20
167.815
 30
0.0
 11
146.306
 21
167.514
 31
0.0
  0
LINE
  5
13a
100
AcDbEntity
  8
0
100
AcDbLine
 62
     254
 10
146.306
 20
167.514
 30
0.0
 11
147.048
 21
167.206
 31
0.0
  0
LINE
  5
13b
100
AcDbEntity
  8
0
100
AcDbLine
 62
     254
 10
147.048
 20
167.206
 30
0.0
 11
147.744
 21
166.887
 31
0.0
  0
LINE
  5
13c
100
AcDbEntity
  8
0
100
AcDbLine
 62
     254
 10
147.744
 20
166.887
 30
0.0
 11
148.393
 21
166.561
 31
0.0
  0
LINE
  5
13d
100
AcDbEntity
  8
0
100
AcDbLine
 62
     254
 10
148.393
 20
166.561
 30
0.0
 11
148.994
 21
166.226
 31
0.0
  0
LINE
  5
13e
100
AcDbEntity
  8
0
100
AcDbLine
 62
     254
 10
148.994
 20
166.226
 30
0.0
 11
149.546
 21
165.886
 31
0.0
  0
LINE
  5
13f
100
AcDbEntity
  8
0
100
AcDbLine
 62
     254
 10
149.546
 20
165.886
 30
0.0
 11
150.049
 21
165.538
 31
0.0
  0
LINE
  5
140
100
AcDbEntity
  8
0
100
AcDbLine
 62
     254
 10
150.049
 20
165.538
 30
0.0
 11
150.502
 21
165.184
 31
0.0
  0
LINE
  5
141
100
AcDbEntity
  8
0
100
AcDbLine
 62
     254
 10
150.502
 20
165.184
 30
0.0
 11
150.904
 21
164.826
 31
0.0
  0
LINE
  5
142
100
AcDbEntity
  8
0
100
AcDbLine
 62
     254
 10
150.904
 20
164.826
 30
0.0
 11
151.252
 21
164.463
 31
0.0
  0
LINE
  5
143
100
AcDbEntity
  8
0
100
AcDbLine
 62
     254
 10
151.252
 20
164.463
 30
0.0
 11
151.548
 21
164.095
 31
0.0
  0
LINE
  5
144
100
AcDbEntity
  8
0
100
AcDbLine
 62
     254
 10
151.548
 20
164.095
 30
0.0
 11
151.792
 21
163.725
 31
0.0
  0
LINE
  5
145
100
AcDbEntity
  8
0
100
AcDbLine
 62
     254
 10
151.792
 20
163.725
 30
0.0
 11
151.981
 21
163.353
 31
0.0
  0
LINE
  5
146
100
AcDbEntity
  8
0
100
AcDbLine
 62
     254
 10
151.981
 20
163.353
 30
0.0
 11
152.117
 21
162.978
 31
0.0
  0
LINE
  5
147
100
AcDbEntity
  8
0
100
AcDbLine
 62
     254
 10
152.117
 20
162.978
 30
0.0
 11
152.199
 21
162.602
 31
0.0
  0
LINE
  5
148
100
AcDbEntity
  8
0
100
AcDbLine
 62
     254
 10
152.199
 20
162.602
 30
0.0
 11
152.226
 21
162.224
 31
0.0
  0
LINE
  5
149
100
AcDbEntity
  8
0
100
AcDbLine
 62
     254
 10
152.226
 20
162.224
 30
0.0
 11
161.225
 21
162.224
 31
0.0
  0
LINE
  5
14a
100
AcDbEntity
  8
0
100
AcDbLine
 62
     254
 10
161.225
 20
162.224
 30
0.0
 11
161.225
 21
170.223
 31
0.0
  0
LINE
  5
14b
100
AcDbEntity
  8
0
100
AcDbLine
 62
     254
 10
161.225
 20
170.223
 30
0.0
 11
158.225
 21
170.223
 31
0.0
  0
LINE
  5
14c
100
AcDbEntity
  8
0
100
AcDbLine
 62
     254
 10
158.225
 20
170.223
 30
0.0
 11
158.225
 21
180.221
 31
0.0
  0
LINE
  5
14d
100
AcDbEntity
  8
0
100
AcDbLine
 62
     254
 10
158.225
 20
180.221
 30
0.0
 11
161.225
 21
180.221
 31
0.0
  0
LINE
  5
14e
100
AcDbEntity
  8
0
100
AcDbLine
 62
     254
 10
161.225
 20
180.221
 30
0.0
 11
161.225
 21
188.221
 31
0.0
  0
LINE
  5
14f
100
AcDbEntity
  8
0
100
AcDbLine
 62
     254
 10
161.225
 20
188.221
 30
0.0
 11
158.225
 21
188.221
 31
0.0
  0
LINE
  5
150
100
AcDbEntity
  8
0
100
AcDbLine
 62
     254
 10
158.225
 20
188.221
 30
0.0
 11
158.225
 21
198.218
 31
0.0
  0
LINE
  5
151
100
AcDbEntity
  8
0
100
AcDbLine
 62
     254
 10
158.225
 20
198.218
 30
0.0
 11
161.225
 21
198.218
 31
0.0
  0
LINE
  5
152
100
AcDbEntity
  8
0
100
AcDbLine
 62
     254
 10
161.225
 20
198.218
 30
0.0
 11
161.225
 21
206.218
 31
0.0
  0
LINE
  5
153
100
AcDbEntity
  8
0
100
AcDbLine
 62
     254
 10
161.225
 20
206.218
 30
0.0
 11
158.225
 21
206.218
 31
0.0
  0
LINE
  5
154
100
AcDbEntity
  8
0
100
AcDbLine
 62
     254
 10
158.225
 20
206.218
 30
0.0
 11
158.225
 21
216.216
 31
0.0
  0
LINE
  5
155
100
AcDbEntity
  8
0
100
AcDbLine
 62
     254
 10
158.225
 20
216.216
 30
0.0
 11
161.225
 21
216.216
 31
0.0
  0
LINE
  5
156
100
AcDbEntity
  8
0
100
AcDbLine
 62
     254
 10
161.225
 20
216.216
 30
0.0
 11
161.225
 21
224.215
 31
0.0
  0
LINE
  5
157
100
AcDbEntity
  8
0
100
AcDbLine
 62
     254
 10
161.225
 20
224.215
 30
0.0
 11
158.225
 21
224.215
 31
0.0
  0
LINE
  5
158
100
AcDbEntity
  8
0
100
AcDbLine
 62
     254
 10
158.225
 20
224.215
 30
0.0
 11
158.225
 21
234.213
 31
0.0
  0
LINE
  5
159
100
AcDbEntity
  8
0
100
AcDbLine
 62
     254
 10
158.225
 20
234.213
 30
0.0
 11
161.225
 21
234.213
 31
0.0
  0
LINE
  5
15a
100
AcDbEntity
  8
0
100
AcDbLine
 62
     254
 10
161.225
 20
234.213
 30
0.0
 11
161.225
 21
242.212
 31
0.0
  0
LINE
  5
15b
100
AcDbEntity
  8
0
100
AcDbLine
 62
     254
 10
161.225
 20
242.212
 30
0.0
 11
81.2366
 21
242.212
 31
0.0
  0
LINE
  5
15c
100
AcDbEntity
  8
0
100
AcDbLine
 62
     254
 10
81.2366
 20
242.212
 30
0.0
 11
81.2366
 21
234.213
 31
0.0
  0
LINE
  5
15d
100
AcDbEntity
  8
0
100
AcDbLine
 62
     254
 10
81.2366
 20
234.213
 30
0.0
 11
84.2366
 21
234.213
 31
0.0
  0
LINE
  5
15e
100
AcDbEntity
  8
0
100
AcDbLine
 62
     254
 10
84.2366
 20
234.213
 30
0.0
 11
84.2366
 21
224.215
 31
0.0
  0
LINE
  5
15f
100
AcDbEntity
  8
0
100
AcDbLine
 62
     254
 10
84.2366
 20
224.215
 30
0.0
 11
81.2366
 21
224.215
 31
0.0
  0
LINE
  5
160
100
AcDbEntity
  8
0
100
AcDbLine
 62
     254
 10
81.2366
 20
224.215
 30
0.0
 11
81.2366
 21
216.216
 31
0.0
  0
LINE
  5
161
100
AcDbEntity
  8
0
100
AcDbLine
 62
     254
 10
81.2366
 20
216.216
 30
0.0
 11
84.2366
 21
216.216
 31
0.0
  0
LINE
  5
162
100
AcDbEntity
  8
0
100
AcDbLine
 62
     254
 10
84.2366
 20
216.216
 30
0.0
 11
84.2366
 21
206.218
 31
0.0
  0
LINE
  5
163
100
AcDbEntity
  8
0
100
AcDbLine
 62
     254
 10
84.2366
 20
206.218
 30
0.0
 11
81.2366
 21
206.218
 31
0.0
  0
LINE
  5
164
100
AcDbEntity
  8
0
100
AcDbLine
 62
     254
 10
81.2366
 20
206.218
 30
0.0
 11
81.2366
 21
198.218
 31
0.0
  0
LINE
  5
165
100
AcDbEntity
  8
0
100
AcDbLine
 62
     254
 10
81.2366
 20
198.218
 30
0.0
 11
84.2366
 21
198.218
 31
0.0
  0
LINE
  5
166
100
AcDbEntity
  8
0
100
AcDbLine
 62
     254
 10
84.2366
 20
198.218
 30
0.0
 11
84.2366
 21
188.221
 31
0.0
  0
LINE
  5
167
100
AcDbEntity
  8
0
100
AcDbLine
 62
     254
 10
84.2366
 20
188.221
 30
0.0
 11
81.2366
 21
188.221
 31
0.0
  0
LINE
  5
168
100
AcDbEntity
  8
0
100
AcDbLine
 62
     254
 10
81.2366
 20
188.221
 30
0.0
 11
81.2366
 21
180.221
 31
0.0
  0
LINE
  5
169
100
AcDbEntity
  8
0
100
AcDbLine
 62
     254
 10
81.2366
 20
180.221
 30
0.0
 11
84.2366
 21
180.221
 31
0.0
  0
LINE
  5
16a
100
AcDbEntity
  8
0
100
AcDbLine
 62
     254
 10
84.2366
 20
180.221
 30
0.0
 11
84.2366
 21
170.223
 31
0.0
  0
LINE
  5
16b
100
AcDbEntity
  8
0
100
AcDbLine
 62
     254
 10
84.2366
 20
170.223
 30
0.0
 11
81.2366
 21
170.223
 31
0.0
  0
LINE
  5
16c
100
AcDbEntity
  8
0
100
AcDbLine
 62
     254
 10
81.2366
 20
170.223
 30
0.0
 11
81.2366
 21
162.224
 31
0.0
  0
LINE
  5
16d
100
AcDbEntity
  8
0
100
AcDbLine
 62
     254
 10
81.2366
 20
162.224
 30
0.0
 11
90.2353
 21
162.224
 31
0.0
  0
LINE
  5
16e
100
AcDbEntity
  8
0
100
AcDbLine
 62
     254
 10
90.2353
 20
162.224
 30
0.0
 11
90.2628
 21
162.602
 31
0.0
  0
LINE
  5
16f
100
AcDbEntity
  8
0
100
AcDbLine
 62
     254
 10
89.2362
 20
174.222
 30
0.0
 11
89.2362
 21
177.223
 31
0.0
  0
LINE
  5
170
100
AcDbEntity
  8
0
100
AcDbLine
 62
     254
 10
89.2362
 20
177.223
 30
0.0
 11
99.2339
 21
177.223
 31
0.0
  0
LINE
  5
171
100
AcDbEntity
  8
0
100
AcDbLine
 62
     254
 10
99.2339
 20
177.223
 30
0.0
 11
99.2339
 21
174.222
 31
0.0
  0
LINE
  5
172
100
AcDbEntity
  8
0
100
AcDbLine
 62
     254
 10
99.2339
 20
174.222
 30
0.0
 11
89.2362
 21
174.222
 31
0.0
  0
LINE
  5
173
100
AcDbEntity
  8
0
100
AcDbLine
 62
     254
 10
125.23
 20
174.222
 30
0.0
 11
125.23
 21
177.223
 31
0.0
  0
LINE
  5
174
100
AcDbEntity
  8
0
100
AcDbLine
 62
     254
 10
125.23
 20
177.223
 30
0.0
 11
135.228
 21
177.223
 31
0.0
  0
LINE
  5
175
100
AcDbEntity
  8
0
100
AcDbLine
 62
     254
 10
135.228
 20
177.223
 30
0.0
 11
135.228
 21
174.222
 31
0.0
  0
LINE
  5
176
100
AcDbEntity
  8
0
100
AcDbLine
 62
     254
 10
135.228
 20
174.222
 30
0.0
 11
125.23
 21
174.222
 31
0.0
  0
LINE
  5
177
100
AcDbEntity
  8
0
100
AcDbLine
 62
     254
 10
107.234
 20
174.222
 30
0.0
 11
107.234
 21
177.223
 31
0.0
  0
LINE
  5
178
100
AcDbEntity
  8
0
100
AcDbLine
 62
     254
 10
107.234
 20
177.223
 30
0.0
 11
117.231
 21
177.223
 31
0.0
  0
LINE
  5
179
100
AcDbEntity
  8
0
100
AcDbLine
 62
     254
 10
117.231
 20
177.223
 30
0.0
 11
117.231
 21
174.222
 31
0.0
  0
LINE
  5
17a
100
AcDbEntity
  8
0
100
AcDbLine
 62
     254
 10
117.231
 20
174.222
 30
0.0
 11
107.234
 21
174.222
 31
0.0
  0
LINE
  5
17b
100
AcDbEntity
  8
0
100
AcDbLine
 62
     254
 10
143.228
 20
174.222
 30
0.0
 11
143.228
 21
177.223
 31
0.0
  0
LINE
  5
17c
100
AcDbEntity
  8
0
100
AcDbLine
 62
     254
 10
143.228
 20
177.223
 30
0.0
 11
153.225
 21
177.223
 31
0.0
  0
LINE
  5
17d
100
AcDbEntity
  8
0
100
AcDbLine
 62
     254
 10
153.225
 20
177.223
 30
0.0
 11
153.225
 21
174.222
 31
0.0
  0
LINE
  5
17e
100
AcDbEntity
  8
0
100
AcDbLine
 62
     254
 10
153.225
 20
174.222
 30
0.0
 11
143.228
 21
174.222
 31
0.0
  0
LINE
  5
17f
100
AcDbEntity
  8
0
100
AcDbLine
 62
     254
 10
180.221
 20
84.2366
 30
0.0
 11
188.221
 21
84.2366
 31
0.0
  0
LINE
  5
180
100
AcDbEntity
  8
0
100
AcDbLine
 62
     254
 10
188.221
 20
84.2366
 30
0.0
 11
188.221
 21
81.2366
 31
0.0
  0
LINE
  5
181
100
AcDbEntity
  8
0
100
AcDbLine
 62
     254
 10
188.221
 20
81.2366
 30
0.0
 11
198.218
 21
81.2366
 31
0.0
  0
LINE
  5
182
100
AcDbEntity
  8
0
100
AcDbLine
 62
     254
 10
198.218
 20
81.2366
 30
0.0
 11
198.218
 21
84.2366
 31
0.0
  0
LINE
  5
183
100
AcDbEntity
  8
0
100
AcDbLine
 62
     254
 10
198.218
 20
84.2366
 30
0.0
 11
206.218
 21
84.2366
 31
0.0
  0
LINE
  5
184
100
AcDbEntity
  8
0
100
AcDbLine
 62
     254
 10
206.218
 20
84.2366
 30
0.0
 11
206.218
 21
81.2366
 31
0.0
  0
LINE
  5
185
100
AcDbEntity
  8
0
100
AcDbLine
 62
     254
 10
206.218
 20
81.2366
 30
0.0
 11
216.216
 21
81.2366
 31
0.0
  0
LINE
  5
186
100
AcDbEntity
  8
0
100
AcDbLine
 62
     254
 10
216.216
 20
81.2366
 30
0.0
 11
216.216
 21
84.2366
 31
0.0
  0
LINE
  5
187
100
AcDbEntity
  8
0
100
AcDbLine
 62
     254
 10
216.216
 20
84.2366
 30
0.0
 11
224.215
 21
84.2366
 31
0.0
  0
LINE
  5
188
100
AcDbEntity
  8
0
100
AcDbLine
 62
     254
 10
224.215
 20
84.2366
 30
0.0
 11
224.215
 21
81.2366
 31
0.0
  0
LINE
  5
189
100
AcDbEntity
  8
0
100
AcDbLine
 62
     254
 10
224.215
 20
81.2366
 30
0.0
 11
234.213
 21
81.2366
 31
0.0
  0
LINE
  5
18a
100
AcDbEntity
  8
0
100
AcDbLine
 62
     254
 10
234.213
 20
81.2366
 30
0.0
 11
234.213
 21
84.2366
 31
0.0
  0
LINE
  5
18b
100
AcDbEntity
  8
0
100
AcDbLine
 62
     254
 10
234.213
 20
84.2366
 30
0.0
 11
242.212
 21
84.2366
 31
0.0
  0
LINE
  5
18c
100
AcDbEntity
  8
0
100
AcDbLine
 62
     254
 10
242.212
 20
84.2366
 30
0.0
 11
242.212
 21
158.225
 31
0.0
  0
LINE
  5
18d
100
AcDbEntity
  8
0
100
AcDbLine
 62
     254
 10
242.212
 20
158.225
 30
0.0
 11
234.213
 21
158.225
 31
0.0
  0
LINE
  5
18e
100
AcDbEntity
  8
0
100
AcDbLine
 62
     254
 10
234.213
 20
158.225
 30
0.0
 11
234.213
 21
161.225
 31
0.0
  0
LINE
  5
18f
100
AcDbEntity
  8
0
100
AcDbLine
 62
     254
 10
234.213
 20
161.225
 30
0.0
 11
224.215
 21
161.225
 31
0.0
  0
LINE
  5
190
100
AcDbEntity
  8
0
100
AcDbLine
 62
     254
 10
224.215
 20
161.225
 30
0.0
 11
224.215
 21
158.225
 31
0.0
  0
LINE
  5
191
100
AcDbEntity
  8
0
100
AcDbLine
 62
     254
 10
224.215
 20
158.225
 30
0.0
 11
216.216
 21
158.225
 31
0.0
  0
LINE
  5
192
100
AcDbEntity
  8
0
100
AcDbLine
 62
     254
 10
216.216
 20
158.225
 30
0.0
 11
216.216
 21
161.225
 31
0.0
  0
LINE
  5
193
100
AcDbEntity
  8
0
100
AcDbLine
 62
     254
 10
216.216
 20
161.225
 30
0.0
 11
206.218
 21
161.225
 31
0.0
  0
LINE
  5
194
100
AcDbEntity
  8
0
100
AcDbLine
 62
     254
 10
206.218
 20
161.225
 30
0.0
 11
206.218
 21
158.225
 31
0.0
  0
LINE
  5
195
100
AcDbEntity
  8
0
100
AcDbLine
 62
     254
 10
206.218
 20
158.225
 30
0.0
 11
198.218
 21
158.225
 31
0.0
  0
LINE
  5
196
100
AcDbEntity
  8
0
100
AcDbLine
 62
     254
 10
198.218
 20
158.225
 30
0.0
 11
198.218
 21
161.225
 31
0.0
  0
LINE
  5
197
100
AcDbEntity
  8
0
100
AcDbLine
 62
     254
 10
198.218
 20
161.225
 30
0.0
 11
188.221
 21
161.225
 31
0.0
  0
LINE
  5
198
100
AcDbEntity
  8
0
100
AcDbLine
 62
     254
 10
188.221
 20
161.225
 30
0.0
 11
188.221
 21
158.225
 31
0.0
  0
LINE
  5
199
100
AcDbEntity
  8
0
100
AcDbLine
 62
     254
 10
188.221
 20
158.225
 30
0.0
 11
180.221
 21
158.225
 31
0.0
  0
LINE
  5
19a
100
AcDbEntity
  8
0
100
AcDbLine
 62
     254
 10
180.221
 20
158.225
 30
0.0
 11
180.221
 21
161.225
 31
0.0
  0
LINE
  5
19b
100
AcDbEntity
  8
0
100
AcDbLine
 62
     254
 10
180.221
 20
161.225
 30
0.0
 11
170.223
 21
161.225
 31
0.0
  0
LINE
  5
19c
100
AcDbEntity
  8
0
100
AcDbLine
 62
     254
 10
170.223
 20
161.225
 30
0.0
 11
170.223
 21
158.225
 31
0.0
  0
LINE
  5
19d
100
AcDbEntity
  8
0
100
AcDbLine
 62
     254
 10
170.223
 20
158.225
 30
0.0
 11
162.224
 21
158.225
 31
0.0
  0
LINE
  5
19e
100
AcDbEntity
  8
0
100
AcDbLine
 62
     254
 10
162.224
 20
158.225
 30
0.0
 11
162.224
 21
152.226
 31
0.0
  0
LINE
  5
19f
100
AcDbEntity
  8
0
100
AcDbLine
 62
     254
 10
162.224
 20
152.226
 30
0.0
 11
162.413
 21
152.226
 31
0.0
  0
LINE
  5
1a0
100
AcDbEntity
  8
0
100
AcDbLine
 62
     254
 10
162.413
 20
152.226
 30
0.0
 11
162.789
 21
152.171
 31
0.0
  0
LINE
  5
1a1
100
AcDbEntity
  8
0
100
AcDbLine
 62
     254
 10
162.789
 20
152.171
 30
0.0
 11
163.165
 21
152.062
 31
0.0
  0
LINE
  5
1a2
100
AcDbEntity
  8
0
100
AcDbLine
 62
     254
 10
163.165
 20
152.062
 30
0.0
 11
163.539
 21
151.9
 31
0.0
  0
LINE
  5
1a3
100
AcDbEntity
  8
0
100
AcDbLine
 62
     254
 10
163.539
 20
151.9
 30
0.0
 11
163.911
 21
151.684
 31
0.0
  0
LINE
  5
1a4
100
AcDbEntity
  8
0
100
AcDbLine
 62
     254
 10
163.911
 20
151.684
 30
0.0
 11
164.279
 21
151.413
 31
0.0
  0
LINE
  5
1a5
100
AcDbEntity
  8
0
100
AcDbLine
 62
     254
 10
164.279
 20
151.413
 30
0.0
 11
164.644
 21
151.091
 31
0.0
  0
LINE
  5
1a6
100
AcDbEntity
  8
0
100
AcDbLine
 62
     254
 10
164.644
 20
151.091
 30
0.0
 11
165.005
 21
150.715
 31
0.0
  0
LINE
  5
1a7
100
AcDbEntity
  8
0
100
AcDbLine
 62
     254
 10
165.005
 20
150.715
 30
0.0
 11
165.36
 21
150.289
 31
0.0
  0
LINE
  5
1a8
100
AcDbEntity
  8
0
100
AcDbLine
 62
     254
 10
165.36
 20
150.289
 30
0.0
 11
165.712
 21
149.811
 31
0.0
  0
LINE
  5
1a9
100
AcDbEntity
  8
0
100
AcDbLine
 62
     254
 10
165.712
 20
149.811
 30
0.0
 11
166.056
 21
149.281
 31
0.0
  0
LINE
  5
1aa
100
AcDbEntity
  8
0
100
AcDbLine
 62
     254
 10
166.056
 20
149.281
 30
0.0
 11
166.394
 21
148.704
 31
0.0
  0
LINE
  5
1ab
100
AcDbEntity
  8
0
100
AcDbLine
 62
     254
 10
166.394
 20
148.704
 30
0.0
 11
166.723
 21
148.08
 31
0.0
  0
LINE
  5
1ac
100
AcDbEntity
  8
0
100
AcDbLine
 62
     254
 10
166.723
 20
148.08
 30
0.0
 11
167.046
 21
147.406
 31
0.0
  0
LINE
  5
1ad
100
AcDbEntity
  8
0
100
AcDbLine
 62
     254
 10
167.046
 20
147.406
 30
0.0
 11
167.36
 21
146.688
 31
0.0
  0
LINE
  5
1ae
100
AcDbEntity
  8
0
100
AcDbLine
 62
     254
 10
167.36
 20
146.688
 30
0.0
 11
167.665
 21
145.925
 31
0.0
  0
LINE
  5
1af
100
AcDbEntity
  8
0
100
AcDbLine
 62
     254
 10
167.665
 20
145.925
 30
0.0
 11
167.961
 21
145.118
 31
0.0
  0
LINE
  5
1b0
100
AcDbEntity
  8
0
100
AcDbLine
 62
     254
 10
167.961
 20
145.118
 30
0.0
 11
168.246
 21
144.27
 31
0.0
  0
LINE
  5
1b1
100
AcDbEntity
  8
0
100
AcDbLine
 62
     254
 10
168.246
 20
144.27
 30
0.0
 11
168.52
 21
143.381
 31
0.0
  0
LINE
  5
1b2
100
AcDbEntity
  8
0
100
AcDbLine
 62
     254
 10
168.52
 20
143.381
 30
0.0
 11
168.783
 21
142.453
 31
0.0
  0
LINE
  5
1b3
100
AcDbEntity
  8
0
100
AcDbLine
 62
     254
 10
168.783
 20
142.453
 30
0.0
 11
169.036
 21
141.489
 31
0.0
  0
LINE
  5
1b4
100
AcDbEntity
  8
0
100
AcDbLine
 62
     254
 10
169.036
 20
141.489
 30
0.0
 11
169.277
 21
140.487
 31
0.0
  0
LINE
  5
1b5
100
AcDbEntity
  8
0
100
AcDbLine
 62
     254
 10
169.277
 20
140.487
 30
0.0
 11
169.504
 21
139.453
 31
0.0
  0
LINE
  5
1b6
100
AcDbEntity
  8
0
100
AcDbLine
 62
     254
 10
169.504
 20
139.453
 30
0.0
 11
169.719
 21
138.387
 31
0.0
  0
LINE
  5
1b7
100
AcDbEntity
  8
0
100
AcDbLine
 62
     254
 10
169.719
 20
138.387
 30
0.0
 11
169.922
 21
137.291
 31
0.0
  0
LINE
  5
1b8
100
AcDbEntity
  8
0
100
AcDbLine
 62
     254
 10
169.922
 20
137.291
 30
0.0
 11
170.111
 21
136.167
 31
0.0
  0
LINE
  5
1b9
100
AcDbEntity
  8
0
100
AcDbLine
 62
     254
 10
170.111
 20
136.167
 30
0.0
 11
170.284
 21
135.015
 31
0.0
  0
LINE
  5
1ba
100
AcDbEntity
  8
0
100
AcDbLine
 62
     254
 10
170.284
 20
135.015
 30
0.0
 11
170.445
 21
133.841
 31
0.0
  0
LINE
  5
1bb
100
AcDbEntity
  8
0
100
AcDbLine
 62
     254
 10
170.445
 20
133.841
 30
0.0
 11
170.591
 21
132.643
 31
0.0
  0
LINE
  5
1bc
100
AcDbEntity
  8
0
100
AcDbLine
 62
     254
 10
170.591
 20
132.643
 30
0.0
 11
170.723
 21
131.426
 31
0.0
  0
LINE
  5
1bd
100
AcDbEntity
  8
0
100
AcDbLine
 62
     254
 10
170.723
 20
131.426
 30
0.0
 11
170.84
 21
130.192
 31
0.0
  0
LINE
  5
1be
100
AcDbEntity
  8
0
100
AcDbLine
 62
     254
 10
170.84
 20
130.192
 30
0.0
 11
170.94
 21
128.94
 31
0.0
  0
LINE
  5
1bf
100
AcDbEntity
  8
0
100
AcDbLine
 62
     254
 10
170.94
 20
128.94
 30
0.0
 11
171.027
 21
127.677
 31
0.0
  0
LINE
  5
1c0
100
AcDbEntity
  8
0
100
AcDbLine
 62
     254
 10
171.027
 20
127.677
 30
0.0
 11
171.097
 21
126.401
 31
0.0
  0
LINE
  5
1c1
100
AcDbEntity
  8
0
100
AcDbLine
 62
     254
 10
171.097
 20
126.401
 30
0.0
 11
171.152
 21
125.116
 31
0.0
  0
LINE
  5
1c2
100
AcDbEntity
  8
0
100
AcDbLine
 62
     254
 10
171.152
 20
125.116
 30
0.0
 11
171.191
 21
123.825
 31
0.0
  0
LINE
  5
1c3
100
AcDbEntity
  8
0
100
AcDbLine
 62
     254
 10
171.191
 20
123.825
 30
0.0
 11
171.216
 21
122.53
 31
0.0
  0
LINE
  5
1c4
100
AcDbEntity
  8
0
100
AcDbLine
 62
     254
 10
171.216
 20
122.53
 30
0.0
 11
171.222
 21
121.23
 31
0.0
  0
LINE
  5
1c5
100
AcDbEntity
  8
0
100
AcDbLine
 62
     254
 10
171.222
 20
121.23
 30
0.0
 11
171.216
 21
119.932
 31
0.0
  0
LINE
  5
1c6
100
AcDbEntity
  8
0
100
AcDbLine
 62
     254
 10
171.216
 20
119.932
 30
0.0
 11
171.191
 21
118.637
 31
0.0
  0
LINE
  5
1c7
100
AcDbEntity
  8
0
100
AcDbLine
 62
     254
 10
171.191
 20
118.637
 30
0.0
 11
171.152
 21
117.346
 31
0.0
  0
LINE
  5
1c8
100
AcDbEntity
  8
0
100
AcDbLine
 62
     254
 10
171.152
 20
117.346
 30
0.0
 11
171.097
 21
116.061
 31
0.0
  0
LINE
  5
1c9
100
AcDbEntity
  8
0
100
AcDbLine
 62
     254
 10
171.097
 20
116.061
 30
0.0
 11
171.027
 21
114.785
 31
0.0
  0
LINE
  5
1ca
100
AcDbEntity
  8
0
100
AcDbLine
 62
     254
 10
171.027
 20
114.785
 30
0.0
 11
170.94
 21
113.521
 31
0.0
  0
LINE
  5
1cb
100
AcDbEntity
  8
0
100
AcDbLine
 62
     254
 10
170.94
 20
113.521
 30
0.0
 11
170.84
 21
112.27
 31
0.0
  0
LINE
  5
1cc
100
AcDbEntity
  8
0
100
AcDbLine
 62
     254
 10
170.84
 20
112.27
 30
0.0
 11
170.723
 21
111.035
 31
0.0
  0
LINE
  5
1cd
100
AcDbEntity
  8
0
100
AcDbLine
 62
     254
 10
170.723
 20
111.035
 30
0.0
 11
170.591
 21
109.819
 31
0.0
  0
LINE
  5
1ce
100
AcDbEntity
  8
0
100
AcDbLine
 62
     254
 10
170.591
 20
109.819
 30
0.0
 11
170.445
 21
108.621
 31
0.0
  0
LINE
  5
1cf
100
AcDbEntity
  8
0
100
AcDbLine
 62
     254
 10
170.445
 20
108.621
 30
0.0
 11
170.284
 21
107.446
 31
0.0
  0
LINE
  5
1d0
100
AcDbEntity
  8
0
100
AcDbLine
 62
     254
 10
170.284
 20
107.446
 30
0.0
 11
170.111
 21
106.295
 31
0.0
  0
LINE
  5
1d1
100
AcDbEntity
  8
0
100
AcDbLine
 62
     254
 10
170.111
 20
106.295
 30
0.0
 11
169.922
 21
105.17
 31
0.0
  0
LINE
  5
1d2
100
AcDbEntity
  8
0
100
AcDbLine
 62
     254
 10
169.922
 20
105.17
 30
0.0
 11
169.719
 21
104.075
 31
0.0
  0
LINE
  5
1d3
100
AcDbEntity
  8
0
100
AcDbLine
 62
     254
 10
169.719
 20
104.075
 30
0.0
 11
169.504
 21
103.008
 31
0.0
  0
LINE
  5
1d4
100
AcDbEntity
  8
0
100
AcDbLine
 62
     254
 10
169.504
 20
103.008
 30
0.0
 11
169.277
 21
101.974
 31
0.0
  0
LINE
  5
1d5
100
AcDbEntity
  8
0
100
AcDbLine
 62
     254
 10
169.277
 20
101.974
 30
0.0
 11
169.036
 21
100.973
 31
0.0
  0
LINE
  5
1d6
100
AcDbEntity
  8
0
100
AcDbLine
 62
     254
 10
169.036
 20
100.973
 30
0.0
 11
168.783
 21
100.008
 31
0.0
  0
LINE
  5
1d7
100
AcDbEntity
  8
0
100
AcDbLine
 62
     254
 10
168.783
 20
100.008
 30
0.0
 11
168.52
 21
99.0808
 31
0.0
  0
LINE
  5
1d8
100
AcDbEntity
  8
0
100
AcDbLine
 62
     254
 10
168.52
 20
99.0808
 30
0.0
 11
168.246
 21
98.1922
 31
0.0
  0
LINE
  5
1d9
100
AcDbEntity
  8
0
100
AcDbLine
 62
     254
 10
168.246
 20
98.1922
 30
0.0
 11
167.961
 21
97.3434
 31
0.0
  0
LINE
  5
1da
100
AcDbEntity
  8
0
100
AcDbLine
 62
     254
 10
167.961
 20
97.3434
 30
0.0
 11
167.665
 21
96.5369
 31
0.0
  0
LINE
  5
1db
100
AcDbEntity
  8
0
100
AcDbLine
 62
     254
 10
167.665
 20
96.5369
 30
0.0
 11
167.36
 21
95.7735
 31
0.0
  0
LINE
  5
1dc
100
AcDbEntity
  8
0
100
AcDbLine
 62
     254
 10
167.36
 20
95.7735
 30
0.0
 11
167.046
 21
95.0542
 31
0.0
  0
LINE
  5
1dd
100
AcDbEntity
  8
0
100
AcDbLine
 62
     254
 10
167.046
 20
95.0542
 30
0.0
 11
166.723
 21
94.3818
 31
0.0
  0
LINE
  5
1de
100
AcDbEntity
  8
0
100
AcDbLine
 62
     254
 10
166.723
 20
94.3818
 30
0.0
 11
166.394
 21
93.7563
 31
0.0
  0
LINE
  5
1df
100
AcDbEntity
  8
0
100
AcDbLine
 62
     254
 10
166.394
 20
93.7563
 30
0.0
 11
166.056
 21
93.1788
 31
0.0
  0
LINE
  5
1e0
100
AcDbEntity
  8
0
100
AcDbLine
 62
     254
 10
166.056
 20
93.1788
 30
0.0
 11
165.712
 21
92.6511
 31
0.0
  0
LINE
  5
1e1
100
AcDbEntity
  8
0
100
AcDbLine
 62
     254
 10
165.712
 20
92.6511
 30
0.0
 11
165.36
 21
92.1727
 31
0.0
  0
LINE
  5
1e2
100
AcDbEntity
  8
0
100
AcDbLine
 62
     254
 10
165.36
 20
92.1727
 30
0.0
 11
165.005
 21
91.7455
 31
0.0
  0
LINE
  5
1e3
100
AcDbEntity
  8
0
100
AcDbLine
 62
     254
 10
165.005
 20
91.7455
 30
0.0
 11
164.644
 21
91.3709
 31
0.0
  0
LINE
  5
1e4
100
AcDbEntity
  8
0
100
AcDbLine
 62
     254
 10
164.644
 20
91.3709
 30
0.0
 11
164.279
 21
91.0484
 31
0.0
  0
LINE
  5
1e5
100
AcDbEntity
  8
0
100
AcDbLine
 62
     254
 10
164.279
 20
91.0484
 30
0.0
 11
163.911
 21
90.7782
 31
0.0
  0
LINE
  5
1e6
100
AcDbEntity
  8
0
100
AcDbLine
 62
     254
 10
163.911
 20
90.7782
 30
0.0
 11
163.539
 21
90.5619
 31
0.0
  0
LINE
  5
1e7
100
AcDbEntity
  8
0
100
AcDbLine
 62
     254
 10
163.539
 20
90.5619
 30
0.0
 11
163.165
 21
90.3993
 31
0.0
  0
LINE
  5
1e8
100
AcDbEntity
  8
0
100
AcDbLine
 62
     254
 10
163.165
 20
90.3993
 30
0.0
 11
162.789
 21
90.2903
 31
0.0
  0
LINE
  5
1e9
100
AcDbEntity
  8
0
100
AcDbLine
 62
     254
 10
162.789
 20
90.2903
 30
0.0
 11
162.413
 21
90.2353
 31
0.0
  0
LINE
  5
1ea
100
AcDbEntity
  8
0
100
AcDbLine
 62
     254
 10
162.413
 20
90.2353
 30
0.0
 11
162.224
 21
90.2353
 31
0.0
  0
LINE
  5
1eb
100
AcDbEntity
  8
0
100
AcDbLine
 62
     254
 10
162.224
 20
90.2353
 30
0.0
 11
162.224
 21
84.2366
 31
0.0
  0
LINE
  5
1ec
100
AcDbEntity
  8
0
100
AcDbLine
 62
     254
 10
162.224
 20
84.2366
 30
0.0
 11
170.223
 21
84.2366
 31
0.0
  0
LINE
  5
1ed
100
AcDbEntity
  8
0
100
AcDbLine
 62
     254
 10
170.223
 20
84.2366
 30
0.0
 11
170.223
 21
81.2366
 31
0.0
  0
LINE
  5
1ee
100
AcDbEntity
  8
0
100
AcDbLine
 62
     254
 10
170.223
 20
81.2366
 30
0.0
 11
180.221
 21
81.2366
 31
0.0
  0
LINE
  5
1ef
100
AcDbEntity
  8
0
100
AcDbLine
 62
     254
 10
180.221
 20
81.2366
 30
0.0
 11
180.221
 21
84.2366
 31
0.0
  0
LINE
  5
1f0
100
AcDbEntity
  8
0
100
AcDbLine
 62
     254
 10
174.222
 20
143.228
 30
0.0
 11
174.222
 21
153.225
 31
0.0
  0
LINE
  5
1f1
100
AcDbEntity
  8
0
100
AcDbLine
 62
     254
 10
174.222
 20
153.225
 30
0.0
 11
177.223
 21
153.225
 31
0.0
  0
LINE
  5
1f2
100
AcDbEntity
  8
0
100
AcDbLine
 62
     254
 10
177.223
 20
153.225
 30
0.0
 11
177.223
 21
143.228
 31
0.0
  0
LINE
  5
1f3
100
AcDbEntity
  8
0
100
AcDbLine
 62
     254
 10
177.223
 20
143.228
 30
0.0
 11
174.222
 21
143.228
 31
0.0
  0
LINE
  5
1f4
100
AcDbEntity
  8
0
100
AcDbLine
 62
     254
 10
174.222
 20
125.23
 30
0.0
 11
174.222
 21
135.228
 31
0.0
  0
LINE
  5
1f5
100
AcDbEntity
  8
0
100
AcDbLine
 62
     254
 10
174.222
 20
135.228
 30
0.0
 11
177.223
 21
135.228
 31
0.0
  0
LINE
  5
1f6
100
AcDbEntity
  8
0
100
AcDbLine
 62
     254
 10
177.223
 20
135.228
 30
0.0
 11
177.223
 21
125.23
 31
0.0
  0
LINE
  5
1f7
100
AcDbEntity
  8
0
100
AcDbLine
 62
     254
 10
177.223
 20
125.23
 30
0.0
 11
174.222
 21
125.23
 31
0.0
  0
LINE
  5
1f8
100
AcDbEntity
  8
0
100
AcDbLine
 62
     254
 10
174.222
 20
107.234
 30
0.0
 11
174.222
 21
117.231
 31
0.0
  0
LINE
  5
1f9
100
AcDbEntity
  8
0
100
AcDbLine
 62
     254
 10
174.222
 20
117.231
 30
0.0
 11
177.223
 21
117.231
 31
0.0
  0
LINE
  5
1fa
100
AcDbEntity
  8
0
100
AcDbLine
 62
     254
 10
177.223
 20
117.231
 30
0.0
 11
177.223
 21
107.234
 31
0.0
  0
LINE
  5
1fb
100
AcDbEntity
  8
0
100
AcDbLine
 62
     254
 10
177.223
 20
107.234
 30
0.0
 11
174.222
 21
107.234
 31
0.0
  0
LINE
  5
1fc
100
AcDbEntity
  8
0
100
AcDbLine
 62
     254
 10
174.222
 20
89.2362
 30
0.0
 11
174.222
 21
99.2339
 31
0.0
  0
LINE
  5
1fd
100
AcDbEntity
  8
0
100
AcDbLine
 62
     254
 10
174.222
 20
99.2339
 30
0.0
 11
177.223
 21
99.2339
 31
0.0
  0
LINE
  5
1fe
100
AcDbEntity
  8
0
100
AcDbLine
 62
     254
 10
177.223
 20
99.2339
 30
0.0
 11
177.223
 21
89.2362
 31
0.0
  0
LINE
  5
1ff
100
AcDbEntity
  8
0
100
AcDbLine
 62
     254
 10
177.223
 20
89.2362
 30
0.0
 11
174.222
 21
89.2362
 31
0.0
  0
LINE
  5
200
100
AcDbEntity
  8
0
100
AcDbLine
 62
     254
 10
99.2339
 20
84.2366
 30
0.0
 11
107.234
 21
84.2366
 31
0.0
  0
LINE
  5
201
100
AcDbEntity
  8
0
100
AcDbLine
 62
     254
 10
107.234
 20
84.2366
 30
0.0
 11
107.234
 21
81.2366
 31
0.0
  0
LINE
  5
202
100
AcDbEntity
  8
0
100
AcDbLine
 62
     254
 10
107.234
 20
81.2366
 30
0.0
 11
117.231
 21
81.2366
 31
0.0
  0
LINE
  5
203
100
AcDbEntity
  8
0
100
AcDbLine
 62
     254
 10
117.231
 20
81.2366
 30
0.0
 11
117.231
 21
84.2366
 31
0.0
  0
LINE
  5
204
100
AcDbEntity
  8
0
100
AcDbLine
 62
     254
 10
117.231
 20
84.2366
 30
0.0
 11
125.23
 21
84.2366
 31
0.0
  0
LINE
  5
205
100
AcDbEntity
  8
0
100
AcDbLine
 62
     254
 10
125.23
 20
84.2366
 30
0.0
 11
125.23
 21
81.2366
 31
0.0
  0
LINE
  5
206
100
AcDbEntity
  8
0
100
AcDbLine
 62
     254
 10
125.23
 20
81.2366
 30
0.0
 11
135.228
 21
81.2366
 31
0.0
  0
LINE
  5
207
100
AcDbEntity
  8
0
100
AcDbLine
 62
     254
 10
135.228
 20
81.2366
 30
0.0
 11
135.228
 21
84.2366
 31
0.0
  0
LINE
  5
208
100
AcDbEntity
  8
0
100
AcDbLine
 62
     254
 10
135.228
 20
84.2366
 30
0.0
 11
143.228
 21
84.2366
 31
0.0
  0
LINE
  5
209
100
AcDbEntity
  8
0
100
AcDbLine
 62
     254
 10
143.228
 20
84.2366
 30
0.0
 11
143.228
 21
81.2366
 31
0.0
  0
LINE
  5
20a
100
AcDbEntity
  8
0
100
AcDbLine
 62
     254
 10
143.228
 20
81.2366
 30
0.0
 11
153.225
 21
81.2366
 31
0.0
  0
LINE
  5
20b
100
AcDbEntity
  8
0
100
AcDbLine
 62
     254
 10
153.225
 20
81.2366
 30
0.0
 11
153.225
 21
84.2366
 31
0.0
  0
LINE
  5
20c
100
AcDbEntity
  8
0
100
AcDbLine
 62
     254
 10
153.225
 20
84.2366
 30
0.0
 11
158.225
 21
84.2366
 31
0.0
  0
LINE
  5
20d
100
AcDbEntity
  8
0
100
AcDbLine
 62
     254
 10
158.225
 20
84.2366
 30
0.0
 11
158.225
 21
89.2362
 31
0.0
  0
LINE
  5
20e
100
AcDbEntity
  8
0
100
AcDbLine
 62
     254
 10
158.225
 20
89.2362
 30
0.0
 11
161.225
 21
89.2362
 31
0.0
  0
LINE
  5
20f
100
AcDbEntity
  8
0
100
AcDbLine
 62
     254
 10
161.225
 20
89.2362
 30
0.0
 11
161.225
 21
99.2339
 31
0.0
  0
LINE
  5
210
100
AcDbEntity
  8
0
100
AcDbLine
 62
     254
 10
161.225
 20
99.2339
 30
0.0
 11
158.225
 21
99.2339
 31
0.0
  0
LINE
  5
211
100
AcDbEntity
  8
0
100
AcDbLine
 62
     254
 10
158.225
 20
99.2339
 30
0.0
 11
158.225
 21
107.234
 31
0.0
  0
LINE
  5
212
100
AcDbEntity
  8
0
100
AcDbLine
 62
     254
 10
158.225
 20
107.234
 30
0.0
 11
161.225
 21
107.234
 31
0.0
  0
LINE
  5
213
100
AcDbEntity
  8
0
100
AcDbLine
 62
     254
 10
161.225
 20
107.234
 30
0.0
 11
161.225
 21
117.231
 31
0.0
  0
LINE
  5
214
100
AcDbEntity
  8
0
100
AcDbLine
 62
     254
 10
161.225
 20
117.231
 30
0.0
 11
158.225
 21
117.231
 31
0.0
  0
LINE
  5
215
100
AcDbEntity
  8
0
100
AcDbLine
 62
     254
 10
158.225
 20
117.231
 30
0.0
 11
158.225
 21
125.23
 31
0.0
  0
LINE
  5
216
100
AcDbEntity
  8
0
100
AcDbLine
 62
     254
 10
158.225
 20
125.23
 30
0.0
 11
161.225
 21
125.23
 31
0.0
  0
LINE
  5
217
100
AcDbEntity
  8
0
100
AcDbLine
 62
     254
 10
161.225
 20
125.23
 30
0.0
 11
161.225
 21
135.228
 31
0.0
  0
LINE
  5
218
100
AcDbEntity
  8
0
100
AcDbLine
 62
     254
 10
161.225
 20
135.228
 30
0.0
 11
158.225
 21
135.228
 31
0.0
  0
LINE
  5
219
100
AcDbEntity
  8
0
100
AcDbLine
 62
     254
 10
158.225
 20
135.228
 30
0.0
 11
158.225
 21
143.228
 31
0.0
  0
LINE
  5
21a
100
AcDbEntity
  8
0
100
AcDbLine
 62
     254
 10
158.225
 20
143.228
 30
0.0
 11
161.225
 21
143.228
 31
0.0
  0
LINE
  5
21b
100
AcDbEntity
  8
0
100
AcDbLine
 62
     254
 10
161.225
 20
143.228
 30
0.0
 11
161.225
 21
153.225
 31
0.0
  0
LINE
  5
21c
100
AcDbEntity
  8
0
100
AcDbLine
 62
     254
 10
161.225
 20
153.225
 30
0.0
 11
158.225
 21
153.225
 31
0.0
  0
LINE
  5
21d
100
AcDbEntity
  8
0
100
AcDbLine
 62
     254
 10
158.225
 20
153.225
 30
0.0
 11
158.225
 21
158.225
 31
0.0
  0
LINE
  5
21e
100
AcDbEntity
  8
0
100
AcDbLine
 62
     254
 10
158.225
 20
158.225
 30
0.0
 11
153.225
 21
158.225
 31
0.0
  0
LINE
  5
21f
100
AcDbEntity
  8
0
100
AcDbLine
 62
     254
 10
153.225
 20
158.225
 30
0.0
 11
153.225
 21
161.225
 31
0.0
  0
LINE
  5
220
100
AcDbEntity
  8
0
100
AcDbLine
 62
     254
 10
153.225
 20
161.225
 30
0.0
 11
143.228
 21
161.225
 31
0.0
  0
LINE
  5
221
100
AcDbEntity
  8
0
100
AcDbLine
 62
     254
 10
143.228
 20
161.225
 30
0.0
 11
143.228
 21
158.225
 31
0.0
  0
LINE
  5
222
100
AcDbEntity
  8
0
100
AcDbLine
 62
     254
 10
143.228
 20
158.225
 30
0.0
 11
135.228
 21
158.225
 31
0.0
  0
LINE
  5
223
100
AcDbEntity
  8
0
100
AcDbLine
 62
     254
 10
135.228
 20
158.225
 30
0.0
 11
135.228
 21
161.225
 31
0.0
  0
LINE
  5
224
100
AcDbEntity
  8
0
100
AcDbLine
 62
     254
 10
135.228
 20
161.225
 30
0.0
 11
125.23
 21
161.225
 31
0.0
  0
LINE
  5
225
100
AcDbEntity
  8
0
100
AcDbLine
 62
     254
 10
125.23
 20
161.225
 30
0.0
 11
125.23
 21
158.225
 31
0.0
  0
LINE
  5
226
100
AcDbEntity
  8
0
100
AcDbLine
 62
     254
 10
125.23
 20
158.225
 30
0.0
 11
117.231
 21
158.225
 31
0.0
  0
LINE
  5
227
100
AcDbEntity
  8
0
100
AcDbLine
 62
     254
 10
117.231
 20
158.225
 30
0.0
 11
117.231
 21
161.225
 31
0.0
  0
LINE
  5
228
100
AcDbEntity
  8
0
100
AcDbLine
 62
     254
 10
117.231
 20
161.225
 30
0.0
 11
107.234
 21
161.225
 31
0.0
  0
LINE
  5
229
100
AcDbEntity
  8
0
100
AcDbLine
 62
     254
 10
107.234
 20
161.225
 30
0.0
 11
107.234
 21
158.225
 31
0.0
  0
LINE
  5
22a
100
AcDbEntity
  8
0
100
AcDbLine
 62
     254
 10
107.234
 20
158.225
 30
0.0
 11
99.2339
 21
158.225
 31
0.0
  0
LINE
  5
22b
100
AcDbEntity
  8
0
100
AcDbLine
 62
     254
 10
99.2339
 20
158.225
 30
0.0
 11
99.2339
 21
161.225
 31
0.0
  0
LINE
  5
22c
100
AcDbEntity
  8
0
100
AcDbLine
 62
     254
 10
99.2339
 20
161.225
 30
0.0
 11
89.2362
 21
161.225
 31
0.0
  0
LINE
  5
22d
100
AcDbEntity
  8
0
100
AcDbLine
 62
     254
 10
89.2362
 20
161.225
 30
0.0
 11
89.2362
 21
158.225
 31
0.0
  0
LINE
  5
22e
100
AcDbEntity
  8
0
100
AcDbLine
 62
     254
 10
89.2362
 20
158.225
 30
0.0
 11
84.2366
 21
158.225
 31
0.0
  0
LINE
  5
22f
100
AcDbEntity
  8
0
100
AcDbLine
 62
     254
 10
84.2366
 20
158.225
 30
0.0
 11
84.2366
 21
153.225
 31
0.0
  0
LINE
  5
230
100
AcDbEntity
  8
0
100
AcDbLine
 62
     254
 10
84.2366
 20
153.225
 30
0.0
 11
81.2366
 21
153.225
 31
0.0
  0
LINE
  5
231
100
AcDbEntity
  8
0
100
AcDbLine
 62
     254
 10
81.2366
 20
153.225
 30
0.0
 11
81.2366
 21
143.228
 31
0.0
  0
LINE
  5
232
100
AcDbEntity
  8
0
100
AcDbLine
 62
     254
 10
81.2366
 20
143.228
 30
0.0
 11
84.2366
 21
143.228
 31
0.0
  0
LINE
  5
233
100
AcDbEntity
  8
0
100
AcDbLine
 62
     254
 10
84.2366
 20
143.228
 30
0.0
 11
84.2366
 21
135.228
 31
0.0
  0
LINE
  5
234
100
AcDbEntity
  8
0
100
AcDbLine
 62
     254
 10
84.2366
 20
135.228
 30
0.0
 11
81.2366
 21
135.228
 31
0.0
  0
LINE
  5
235
100
AcDbEntity
  8
0
100
AcDbLine
 62
     254
 10
81.2366
 20
135.228
 30
0.0
 11
81.2366
 21
125.23
 31
0.0
  0
LINE
  5
236
100
AcDbEntity
  8
0
100
AcDbLine
 62
     254
 10
81.2366
 20
125.23
 30
0.0
 11
84.2366
 21
125.23
 31
0.0
  0
LINE
  5
237
100
AcDbEntity
  8
0
100
AcDbLine
 62
     254
 10
84.2366
 20
125.23
 30
0.0
 11
84.2366
 21
117.231
 31
0.0
  0
LINE
  5
238
100
AcDbEntity
  8
0
100
AcDbLine
 62
     254
 10
84.2366
 20
117.231
 30
0.0
 11
81.2366
 21
117.231
 31
0.0
  0
LINE
  5
239
100
AcDbEntity
  8
0
100
AcDbLine
 62
     254
 10
81.2366
 20
117.231
 30
0.0
 11
81.2366
 21
107.234
 31
0.0
  0
LINE
  5
23a
100
AcDbEntity
  8
0
100
AcDbLine
 62
     254
 10
81.2366
 20
107.234
 30
0.0
 11
84.2366
 21
107.234
 31
0.0
  0
LINE
  5
23b
100
AcDbEntity
  8
0
100
AcDbLine
 62
     254
 10
84.2366
 20
107.234
 30
0.0
 11
84.2366
 21
99.2339
 31
0.0
  0
LINE
  5
23c
100
AcDbEntity
  8
0
100
AcDbLine
 62
     254
 10
84.2366
 20
99.2339
 30
0.0
 11
81.2366
 21
99.2339
 31
0.0
  0
LINE
  5
23d
100
AcDbEntity
  8
0
100
AcDbLine
 62
     254
 10
81.2366
 20
99.2339
 30
0.0
 11
81.2366
 21
89.2362
 31
0.0
  0
LINE
  5
23e
100
AcDbEntity
  8
0
100
AcDbLine
 62
     254
 10
81.2366
 20
89.2362
 30
0.0
 11
84.2366
 21
89.2362
 31
0.0
  0
LINE
  5
23f
100
AcDbEntity
  8
0
100
AcDbLine
 62
     254
 10
84.2366
 20
89.2362
 30
0.0
 11
84.2366
 21
84.2366
 31
0.0
  0
LINE
  5
240
100
AcDbEntity
  8
0
100
AcDbLine
 62
     254
 10
84.2366
 20
84.2366
 30
0.0
 11
89.2362
 21
84.2366
 31
0.0
  0
LINE
  5
241
100
AcDbEntity
  8
0
100
AcDbLine
 62
     254
 10
89.2362
 20
84.2366
 30
0.0
 11
89.2362
 21
81.2366
 31
0.0
  0
LINE
  5
242
100
AcDbEntity
  8
0
100
AcDbLine
 62
     254
 10
89.2362
 20
81.2366
 30
0.0
 11
99.2339
 21
81.2366
 31
0.0
  0
LINE
  5
243
100
AcDbEntity
  8
0
100
AcDbLine
 62
     254
 10
99.2339
 20
81.2366
 30
0.0
 11
99.2339
 21
84.2366
 31
0.0
  0
LINE
  5
244
100
AcDbEntity
  8
0
100
AcDbLine
 62
     254
 10
18.2466
 20
84.2366
 30
0.0
 11
26.2461
 21
84.2366
 31
0.0
  0
LINE
  5
245
100
AcDbEntity
  8
0
100
AcDbLine
 62
     254
 10
26.2461
 20
84.2366
 30
0.0
 11
26.2461
 21
81.2366
 31
0.0
  0
LINE
  5
246
100
AcDbEntity
  8
0
100
AcDbLine
 62
     254
 10
26.2461
 20
81.2366
 30
0.0
 11
36.2437
 21
81.2366
 31
0.0
  0
LINE
  5
247
100
AcDbEntity
  8
0
100
AcDbLine
 62
     254
 10
36.2437
 20
81.2366
 30
0.0
 11
36.2437
 21
84.2366
 31
0.0
  0
LINE
  5
248
100
AcDbEntity
  8
0
100
AcDbLine
 62
     254
 10
36.2437
 20
84.2366
 30
0.0
 11
44.2433
 21
84.2366
 31
0.0
  0
LINE
  5
249
100
AcDbEntity
  8
0
100
AcDbLine
 62
     254
 10
44.2433
 20
84.2366
 30
0.0
 11
44.2433
 21
81.2366
 31
0.0
  0
LINE
  5
24a
100
AcDbEntity
  8
0
100
AcDbLine
 62
     254
 10
44.2433
 20
81.2366
 30
0.0
 11
54.241
 21
81.2366
 31
0.0
  0
LINE
  5
24b
100
AcDbEntity
  8
0
100
AcDbLine
 62
     254
 10
54.241
 20
81.2366
 30
0.0
 11
54.241
 21
84.2366
 31
0.0
  0
LINE
  5
24c
100
AcDbEntity
  8
0
100
AcDbLine
 62
     254
 10
54.241
 20
84.2366
 30
0.0
 11
62.2406
 21
84.2366
 31
0.0
  0
LINE
  5
24d
100
AcDbEntity
  8
0
100
AcDbLine
 62
     254
 10
62.2406
 20
84.2366
 30
0.0
 11
62.2406
 21
81.2366
 31
0.0
  0
LINE
  5
24e
100
AcDbEntity
  8
0
100
AcDbLine
 62
     254
 10
62.2406
 20
81.2366
 30
0.0
 11
72.2383
 21
81.2366
 31
0.0
  0
LINE
  5
24f
100
AcDbEntity
  8
0
100
AcDbLine
 62
     254
 10
72.2383
 20
81.2366
 30
0.0
 11
72.2383
 21
84.2366
 31
0.0
  0
LINE
  5
250
100
AcDbEntity
  8
0
100
AcDbLine
 62
     254
 10
72.2383
 20
84.2366
 30
0.0
 11
80.2375
 21
84.2366
 31
0.0
  0
LINE
  5
251
100
AcDbEntity
  8
0
100
AcDbLine
 62
     254
 10
80.2375
 20
84.2366
 30
0.0
 11
80.2375
 21
158.225
 31
0.0
  0
LINE
  5
252
100
AcDbEntity
  8
0
100
AcDbLine
 62
     254
 10
80.2375
 20
158.225
 30
0.0
 11
72.2383
 21
158.225
 31
0.0
  0
LINE
  5
253
100
AcDbEntity
  8
0
100
AcDbLine
 62
     254
 10
72.2383
 20
158.225
 30
0.0
 11
72.2383
 21
161.225
 31
0.0
  0
LINE
  5
254
100
AcDbEntity
  8
0
100
AcDbLine
 62
     254
 10
72.2383
 20
161.225
 30
0.0
 11
62.2406
 21
161.225
 31
0.0
  0
LINE
  5
255
100
AcDbEntity
  8
0
100
AcDbLine
 62
     254
 10
62.2406
 20
161.225
 30
0.0
 11
62.2406
 21
158.225
 31
0.0
  0
LINE
  5
256
100
AcDbEntity
  8
0
100
AcDbLine
 62
     254
 10
62.2406
 20
158.225
 30
0.0
 11
54.241
 21
158.225
 31
0.0
  0
LINE
  5
257
100
AcDbEntity
  8
0
100
AcDbLine
 62
     254
 10
54.241
 20
158.225
 30
0.0
 11
54.241
 21
161.225
 31
0.0
  0
LINE
  5
258
100
AcDbEntity
  8
0
100
AcDbLine
 62
     254
 10
54.241
 20
161.225
 30
0.0
 11
44.2433
 21
161.225
 31
0.0
  0
LINE
  5
259
100
AcDbEntity
  8
0
100
AcDbLine
 62
     254
 10
44.2433
 20
161.225
 30
0.0
 11
44.2433
 21
158.225
 31
0.0
  0
LINE
  5
25a
100
AcDbEntity
  8
0
100
AcDbLine
 62
     254
 10
44.2433
 20
158.225
 30
0.0
 11
36.2437
 21
158.225
 31
0.0
  0
LINE
  5
25b
100
AcDbEntity
  8
0
100
AcDbLine
 62
     254
 10
36.2437
 20
158.225
 30
0.0
 11
36.2437
 21
161.225
 31
0.0
  0
LINE
  5
25c
100
AcDbEntity
  8
0
100
AcDbLine
 62
     254
 10
36.2437
 20
161.225
 30
0.0
 11
26.2461
 21
161.225
 31
0.0
  0
LINE
  5
25d
100
AcDbEntity
  8
0
100
AcDbLine
 62
     254
 10
26.2461
 20
161.225
 30
0.0
 11
26.2461
 21
158.225
 31
0.0
  0
LINE
  5
25e
100
AcDbEntity
  8
0
100
AcDbLine
 62
     254
 10
26.2461
 20
158.225
 30
0.0
 11
18.2466
 21
158.225
 31
0.0
  0
LINE
  5
25f
100
AcDbEntity
  8
0
100
AcDbLine
 62
     254
 10
18.2466
 20
158.225
 30
0.0
 11
18.2466
 21
161.225
 31
0.0
  0
LINE
  5
260
100
AcDbEntity
  8
0
100
AcDbLine
 62
     254
 10
18.2466
 20
161.225
 30
0.0
 11
8.24893
 21
161.225
 31
0.0
  0
LINE
  5
261
100
AcDbEntity
  8
0
100
AcDbLine
 62
     254
 10
8.24893
 20
161.225
 30
0.0
 11
8.24893
 21
158.225
 31
0.0
  0
LINE
  5
262
100
AcDbEntity
  8
0
100
AcDbLine
 62
     254
 10
8.24893
 20
158.225
 30
0.0
 11
0.249425
 21
158.225
 31
0.0
  0
LINE
  5
263
100
AcDbEntity
  8
0
100
AcDbLine
 62
     254
 10
0.249425
 20
158.225
 30
0.0
 11
0.249425
 21
152.226
 31
0.0
  0
LINE
  5
264
100
AcDbEntity
  8
0
100
AcDbLine
 62
     254
 10
0.249425
 20
152.226
 30
0.0
 11
0.438217
 21
152.226
 31
0.0
  0
LINE
  5
265
100
AcDbEntity
  8
0
100
AcDbLine
 62
     254
 10
0.438217
 20
152.226
 30
0.0
 11
0.814419
 21
152.171
 31
0.0
  0
LINE
  5
266
100
AcDbEntity
  8
0
100
AcDbLine
 62
     254
 10
0.814419
 20
152.171
 30
0.0
 11
1.19063
 21
152.062
 31
0.0
  0
LINE
  5
267
100
AcDbEntity
  8
0
100
AcDbLine
 62
     254
 10
1.19063
 20
152.062
 30
0.0
 11
1.56407
 21
151.9
 31
0.0
  0
LINE
  5
268
100
AcDbEntity
  8
0
100
AcDbLine
 62
     254
 10
1.56407
 20
151.9
 30
0.0
 11
1.93614
 21
151.684
 31
0.0
  0
LINE
  5
269
100
AcDbEntity
  8
0
100
AcDbLine
 62
     254
 10
1.93614
 20
151.684
 30
0.0
 11
2.30408
 21
151.413
 31
0.0
  0
LINE
  5
26a
100
AcDbEntity
  8
0
100
AcDbLine
 62
     254
 10
2.30408
 20
151.413
 30
0.0
 11
2.66926
 21
151.091
 31
0.0
  0
LINE
  5
26b
100
AcDbEntity
  8
0
100
AcDbLine
 62
     254
 10
2.66926
 20
151.091
 30
0.0
 11
3.0303
 21
150.715
 31
0.0
  0
LINE
  5
26c
100
AcDbEntity
  8
0
100
AcDbLine
 62
     254
 10
3.0303
 20
150.715
 30
0.0
 11
3.38722
 21
150.289
 31
0.0
  0
LINE
  5
26d
100
AcDbEntity
  8
0
100
AcDbLine
 62
     254
 10
3.38722
 20
150.289
 30
0.0
 11
3.73726
 21
149.811
 31
0.0
  0
LINE
  5
26e
100
AcDbEntity
  8
0
100
AcDbLine
 62
     254
 10
3.73726
 20
149.811
 30
0.0
 11
4.08174
 21
149.281
 31
0.0
  0
LINE
  5
26f
100
AcDbEntity
  8
0
100
AcDbLine
 62
     254
 10
4.08174
 20
149.281
 30
0.0
 11
4.41935
 21
148.704
 31
0.0
  0
LINE
  5
270
100
AcDbEntity
  8
0
100
AcDbLine
 62
     254
 10
4.41935
 20
148.704
 30
0.0
 11
4.74871
 21
148.08
 31
0.0
  0
LINE
  5
271
100
AcDbEntity
  8
0
100
AcDbLine
 62
     254
 10
4.74871
 20
148.08
 30
0.0
 11
5.07118
 21
147.406
 31
0.0
  0
LINE
  5
272
100
AcDbEntity
  8
0
100
AcDbLine
 62
     254
 10
5.07118
 20
147.406
 30
0.0
 11
5.38536
 21
146.688
 31
0.0
  0
LINE
  5
273
100
AcDbEntity
  8
0
100
AcDbLine
 62
     254
 10
5.38536
 20
146.688
 30
0.0
 11
5.68992
 21
145.925
 31
0.0
  0
LINE
  5
274
100
AcDbEntity
  8
0
100
AcDbLine
 62
     254
 10
5.68992
 20
145.925
 30
0.0
 11
5.98622
 21
145.118
 31
0.0
  0
LINE
  5
275
100
AcDbEntity
  8
0
100
AcDbLine
 62
     254
 10
5.98622
 20
145.118
 30
0.0
 11
6.27144
 21
144.27
 31
0.0
  0
LINE
  5
276
100
AcDbEntity
  8
0
100
AcDbLine
 62
     254
 10
6.27144
 20
144.27
 30
0.0
 11
6.54569
 21
143.381
 31
0.0
  0
LINE
  5
277
100
AcDbEntity
  8
0
100
AcDbLine
 62
     254
 10
6.54569
 20
143.381
 30
0.0
 11
6.81027
 21
142.453
 31
0.0
  0
LINE
  5
278
100
AcDbEntity
  8
0
100
AcDbLine
 62
     254
 10
6.81027
 20
142.453
 30
0.0
 11
7.06244
 21
141.489
 31
0.0
  0
LINE
  5
279
100
AcDbEntity
  8
0
100
AcDbLine
 62
     254
 10
7.06244
 20
141.489
 30
0.0
 11
7.30222
 21
140.487
 31
0.0
  0
LINE
  5
27a
100
AcDbEntity
  8
0
100
AcDbLine
 62
     254
 10
7.30222
 20
140.487
 30
0.0
 11
7.52962
 21
139.453
 31
0.0
  0
LINE
  5
27b
100
AcDbEntity
  8
0
100
AcDbLine
 62
     254
 10
7.52962
 20
139.453
 30
0.0
 11
7.74457
 21
138.387
 31
0.0
  0
LINE
  5
27c
100
AcDbEntity
  8
0
100
AcDbLine
 62
     254
 10
7.74457
 20
138.387
 30
0.0
 11
7.94713
 21
137.291
 31
0.0
  0
LINE
  5
27d
100
AcDbEntity
  8
0
100
AcDbLine
 62
     254
 10
7.94713
 20
137.291
 30
0.0
 11
8.13594
 21
136.167
 31
0.0
  0
LINE
  5
27e
100
AcDbEntity
  8
0
100
AcDbLine
 62
     254
 10
8.13594
 20
136.167
 30
0.0
 11
8.30958
 21
135.015
 31
0.0
  0
LINE
  5
27f
100
AcDbEntity
  8
0
100
AcDbLine
 62
     254
 10
8.30958
 20
135.015
 30
0.0
 11
8.47079
 21
133.841
 31
0.0
  0
LINE
  5
280
100
AcDbEntity
  8
0
100
AcDbLine
 62
     254
 10
8.47079
 20
133.841
 30
0.0
 11
8.61688
 21
132.643
 31
0.0
  0
LINE
  5
281
100
AcDbEntity
  8
0
100
AcDbLine
 62
     254
 10
8.61688
 20
132.643
 30
0.0
 11
8.7478
 21
131.426
 31
0.0
  0
LINE
  5
282
100
AcDbEntity
  8
0
100
AcDbLine
 62
     254
 10
8.7478
 20
131.426
 30
0.0
 11
8.86492
 21
130.192
 31
0.0
  0
LINE
  5
283
100
AcDbEntity
  8
0
100
AcDbLine
 62
     254
 10
8.86492
 20
130.192
 30
0.0
 11
8.96553
 21
128.94
 31
0.0
  0
LINE
  5
284
100
AcDbEntity
  8
0
100
AcDbLine
 62
     254
 10
8.96553
 20
128.94
 30
0.0
 11
9.05235
 21
127.677
 31
0.0
  0
LINE
  5
285
100
AcDbEntity
  8
0
100
AcDbLine
 62
     254
 10
9.05235
 20
127.677
 30
0.0
 11
9.12262
 21
126.401
 31
0.0
  0
LINE
  5
286
100
AcDbEntity
  8
0
100
AcDbLine
 62
     254
 10
9.12262
 20
126.401
 30
0.0
 11
9.17773
 21
125.116
 31
0.0
  0
LINE
  5
287
100
AcDbEntity
  8
0
100
AcDbLine
 62
     254
 10
9.17773
 20
125.116
 30
0.0
 11
9.21632
 21
123.825
 31
0.0
  0
LINE
  5
288
100
AcDbEntity
  8
0
100
AcDbLine
 62
     254
 10
9.21632
 20
123.825
 30
0.0
 11
9.24112
 21
122.53
 31
0.0
  0
LINE
  5
289
100
AcDbEntity
  8
0
100
AcDbLine
 62
     254
 10
9.24112
 20
122.53
 30
0.0
 11
9.248
 21
121.23
 31
0.0
  0
LINE
  5
28a
100
AcDbEntity
  8
0
100
AcDbLine
 62
     254
 10
9.248
 20
121.23
 30
0.0
 11
9.24112
 21
119.932
 31
0.0
  0
LINE
  5
28b
100
AcDbEntity
  8
0
100
AcDbLine
 62
     254
 10
9.24112
 20
119.932
 30
0.0
 11
9.21632
 21
118.637
 31
0.0
  0
LINE
  5
28c
100
AcDbEntity
  8
0
100
AcDbLine
 62
     254
 10
9.21632
 20
118.637
 30
0.0
 11
9.17773
 21
117.346
 31
0.0
  0
LINE
  5
28d
100
AcDbEntity
  8
0
100
AcDbLine
 62
     254
 10
9.17773
 20
117.346
 30
0.0
 11
9.12262
 21
116.061
 31
0.0
  0
LINE
  5
28e
100
AcDbEntity
  8
0
100
AcDbLine
 62
     254
 10
9.12262
 20
116.061
 30
0.0
 11
9.05235
 21
114.785
 31
0.0
  0
LINE
  5
28f
100
AcDbEntity
  8
0
100
AcDbLine
 62
     254
 10
9.05235
 20
114.785
 30
0.0
 11
8.96553
 21
113.521
 31
0.0
  0
LINE
  5
290
100
AcDbEntity
  8
0
100
AcDbLine
 62
     254
 10
8.96553
 20
113.521
 30
0.0
 11
8.86492
 21
112.27
 31
0.0
  0
LINE
  5
291
100
AcDbEntity
  8
0
100
AcDbLine
 62
     254
 10
8.86492
 20
112.27
 30
0.0
 11
8.7478
 21
111.035
 31
0.0
  0
LINE
  5
292
100
AcDbEntity
  8
0
100
AcDbLine
 62
     254
 10
8.7478
 20
111.035
 30
0.0
 11
8.61688
 21
109.819
 31
0.0
  0
LINE
  5
293
100
AcDbEntity
  8
0
100
AcDbLine
 62
     254
 10
8.61688
 20
109.819
 30
0.0
 11
8.47079
 21
108.621
 31
0.0
  0
LINE
  5
294
100
AcDbEntity
  8
0
100
AcDbLine
 62
     254
 10
8.47079
 20
108.621
 30
0.0
 11
8.30958
 21
107.446
 31
0.0
  0
LINE
  5
295
100
AcDbEntity
  8
0
100
AcDbLine
 62
     254
 10
8.30958
 20
107.446
 30
0.0
 11
8.13594
 21
106.295
 31
0.0
  0
LINE
  5
296
100
AcDbEntity
  8
0
100
AcDbLine
 62
     254
 10
8.13594
 20
106.295
 30
0.0
 11
7.94713
 21
105.17
 31
0.0
  0
LINE
  5
297
100
AcDbEntity
  8
0
100
AcDbLine
 62
     254
 10
7.94713
 20
105.17
 30
0.0
 11
7.74457
 21
104.075
 31
0.0
  0
LINE
  5
298
100
AcDbEntity
  8
0
100
AcDbLine
 62
     254
 10
7.74457
 20
104.075
 30
0.0
 11
7.52962
 21
103.008
 31
0.0
  0
LINE
  5
299
100
AcDbEntity
  8
0
100
AcDbLine
 62
     254
 10
7.52962
 20
103.008
 30
0.0
 11
7.30222
 21
101.974
 31
0.0
  0
LINE
  5
29a
100
AcDbEntity
  8
0
100
AcDbLine
 62
     254
 10
7.30222
 20
101.974
 30
0.0
 11
7.06244
 21
100.973
 31
0.0
  0
LINE
  5
29b
100
AcDbEntity
  8
0
100
AcDbLine
 62
     254
 10
7.06244
 20
100.973
 30
0.0
 11
6.81027
 21
100.008
 31
0.0
  0
LINE
  5
29c
100
AcDbEntity
  8
0
100
AcDbLine
 62
     254
 10
6.81027
 20
100.008
 30
0.0
 11
6.54569
 21
99.0808
 31
0.0
  0
LINE
  5
29d
100
AcDbEntity
  8
0
100
AcDbLine
 62
     254
 10
6.54569
 20
99.0808
 30
0.0
 11
6.27144
 21
98.1922
 31
0.0
  0
LINE
  5
29e
100
AcDbEntity
  8
0
100
AcDbLine
 62
     254
 10
6.27144
 20
98.1922
 30
0.0
 11
5.98622
 21
97.3434
 31
0.0
  0
LINE
  5
29f
100
AcDbEntity
  8
0
100
AcDbLine
 62
     254
 10
5.98622
 20
97.3434
 30
0.0
 11
5.68992
 21
96.5369
 31
0.0
  0
LINE
  5
2a0
100
AcDbEntity
  8
0
100
AcDbLine
 62
     254
 10
5.68992
 20
96.5369
 30
0.0
 11
5.38536
 21
95.7735
 31
0.0
  0
LINE
  5
2a1
100
AcDbEntity
  8
0
100
AcDbLine
 62
     254
 10
5.38536
 20
95.7735
 30
0.0
 11
5.07118
 21
95.0542
 31
0.0
  0
LINE
  5
2a2
100
AcDbEntity
  8
0
100
AcDbLine
 62
     254
 10
5.07118
 20
95.0542
 30
0.0
 11
4.74871
 21
94.3818
 31
0.0
  0
LINE
  5
2a3
100
AcDbEntity
  8
0
100
AcDbLine
 62
     254
 10
4.74871
 20
94.3818
 30
0.0
 11
4.41935
 21
93.7563
 31
0.0
  0
LINE
  5
2a4
100
AcDbEntity
  8
0
100
AcDbLine
 62
     254
 10
4.41935
 20
93.7563
 30
0.0
 11
4.08174
 21
93.1788
 31
0.0
  0
LINE
  5
2a5
100
AcDbEntity
  8
0
100
AcDbLine
 62
     254
 10
4.08174
 20
93.1788
 30
0.0
 11
3.73726
 21
92.6511
 31
0.0
  0
LINE
  5
2a6
100
AcDbEntity
  8
0
100
AcDbLine
 62
     254
 10
3.73726
 20
92.6511
 30
0.0
 11
3.38722
 21
92.1727
 31
0.0
  0
LINE
  5
2a7
100
AcDbEntity
  8
0
100
AcDbLine
 62
     254
 10
3.38722
 20
92.1727
 30
0.0
 11
3.0303
 21
91.7455
 31
0.0
  0
LINE
  5
2a8
100
AcDbEntity
  8
0
100
AcDbLine
 62
     254
 10
3.0303
 20
91.7455
 30
0.0
 11
2.66926
 21
91.3709
 31
0.0
  0
LINE
  5
2a9
100
AcDbEntity
  8
0
100
AcDbLine
 62
     254
 10
2.66926
 20
91.3709
 30
0.0
 11
2.30408
 21
91.0484
 31
0.0
  0
LINE
  5
2aa
100
AcDbEntity
  8
0
100
AcDbLine
 62
     254
 10
2.30408
 20
91.0484
 30
0.0
 11
1.93614
 21
90.7782
 31
0.0
  0
LINE
  5
2ab
100
AcDbEntity
  8
0
100
AcDbLine
 62
     254
 10
1.93614
 20
90.7782
 30
0.0
 11
1.56407
 21
90.5619
 31
0.0
  0
LINE
  5
2ac
100
AcDbEntity
  8
0
100
AcDbLine
 62
     254
 10
1.56407
 20
90.5619
 30
0.0
 11
1.19063
 21
90.3993
 31
0.0
  0
LINE
  5
2ad
100
AcDbEntity
  8
0
100
AcDbLine
 62
     254
 10
1.19063
 20
90.3993
 30
0.0
 11
0.814419
 21
90.2903
 31
0.0
  0
LINE
  5
2ae
100
AcDbEntity
  8
0
100
AcDbLine
 62
     254
 10
0.814419
 20
90.2903
 30
0.0
 11
0.438217
 21
90.2353
 31
0.0
  0
LINE
  5
2af
100
AcDbEntity
  8
0
100
AcDbLine
 62
     254
 10
0.438217
 20
90.2353
 30
0.0
 11
0.249425
 21
90.2353
 31
0.0
  0
LINE
  5
2b0
100
AcDbEntity
  8
0
100
AcDbLine
 62
     254
 10
0.249425
 20
90.2353
 30
0.0
 11
0.249425
 21
84.2366
 31
0.0
  0
LINE
  5
2b1
100
AcDbEntity
  8
0
100
AcDbLine
 62
     254
 10
0.249425
 20
84.2366
 30
0.0
 11
8.24893
 21
84.2366
 31
0.0
  0
LINE
  5
2b2
100
AcDbEntity
  8
0
100
AcDbLine
 62
     254
 10
8.24893
 20
84.2366
 30
0.0
 11
8.24893
 21
81.2366
 31
0.0
  0
LINE
  5
2b3
100
AcDbEntity
  8
0
100
AcDbLine
 62
     254
 10
8.24893
 20
81.2366
 30
0.0
 11
18.2466
 21
81.2366
 31
0.0
  0
LINE
  5
2b4
100
AcDbEntity
  8
0
100
AcDbLine
 62
     254
 10
18.2466
 20
81.2366
 30
0.0
 11
18.2466
 21
84.2366
 31
0.0
  0
LINE
  5
2b5
100
AcDbEntity
  8
0
100
AcDbLine
 62
     254
 10
12.248
 20
143.228
 30
0.0
 11
12.248
 21
153.225
 31
0.0
  0
LINE
  5
2b6
100
AcDbEntity
  8
0
100
AcDbLine
 62
     254
 10
12.248
 20
153.225
 30
0.0
 11
15.248
 21
153.225
 31
0.0
  0
LINE
  5
2b7
100
AcDbEntity
  8
0
100
AcDbLine
 62
     254
 10
15.248
 20
153.225
 30
0.0
 11
15.248
 21
143.228
 31
0.0
  0
LINE
  5
2b8
100
AcDbEntity
  8
0
100
AcDbLine
 62
     254
 10
15.248
 20
143.228
 30
0.0
 11
12.248
 21
143.228
 31
0.0
  0
LINE
  5
2b9
100
AcDbEntity
  8
0
100
AcDbLine
 62
     254
 10
12.248
 20
125.23
 30
0.0
 11
12.248
 21
135.228
 31
0.0
  0
LINE
  5
2ba
100
AcDbEntity
  8
0
100
AcDbLine
 62
     254
 10
12.248
 20
135.228
 30
0.0
 11
15.248
 21
135.228
 31
0.0
  0
LINE
  5
2bb
100
AcDbEntity
  8
0
100
AcDbLine
 62
     254
 10
15.248
 20
135.228
 30
0.0
 11
15.248
 21
125.23
 31
0.0
  0
LINE
  5
2bc
100
AcDbEntity
  8
0
100
AcDbLine
 62
     254
 10
15.248
 20
125.23
 30
0.0
 11
12.248
 21
125.23
 31
0.0
  0
LINE
  5
2bd
100
AcDbEntity
  8
0
100
AcDbLine
 62
     254
 10
12.248
 20
107.234
 30
0.0
 11
12.248
 21
117.231
 31
0.0
  0
LINE
  5
2be
100
AcDbEntity
  8
0
100
AcDbLine
 62
     254
 10
12.248
 20
117.231
 30
0.0
 11
15.248
 21
117.231
 31
0.0
  0
LINE
  5
2bf
100
AcDbEntity
  8
0
100
AcDbLine
 62
     254
 10
15.248
 20
117.231
 30
0.0
 11
15.248
 21
107.234
 31
0.0
  0
LINE
  5
2c0
100
AcDbEntity
  8
0
100
AcDbLine
 62
     254
 10
15.248
 20
107.234
 30
0.0
 11
12.248
 21
107.234
 31
0.0
  0
LINE
  5
2c1
100
AcDbEntity
  8
0
100
AcDbLine
 62
     254
 10
12.248
 20
89.2362
 30
0.0
 11
12.248
 21
99.2339
 31
0.0
  0
LINE
  5
2c2
100
AcDbEntity
  8
0
100
AcDbLine
 62
     254
 10
12.248
 20
99.2339
 30
0.0
 11
15.248
 21
99.2339
 31
0.0
  0
LINE
  5
2c3
100
AcDbEntity
  8
0
100
AcDbLine
 62
     254
 10
15.248
 20
99.2339
 30
0.0
 11
15.248
 21
89.2362
 31
0.0
  0
LINE
  5
2c4
100
AcDbEntity
  8
0
100
AcDbLine
 62
     254
 10
15.248
 20
89.2362
 30
0.0
 11
12.248
 21
89.2362
 31
0.0
  0
LINE
  5
2c5
100
AcDbEntity
  8
0
100
AcDbLine
 62
     254
 10
161.225
 20
8.24893
 30
0.0
 11
158.225
 21
8.24893
 31
0.0
  0
LINE
  5
2c6
100
AcDbEntity
  8
0
100
AcDbLine
 62
     254
 10
158.225
 20
8.24893
 30
0.0
 11
158.225
 21
18.2466
 31
0.0
  0
LINE
  5
2c7
100
AcDbEntity
  8
0
100
AcDbLine
 62
     254
 10
158.225
 20
18.2466
 30
0.0
 11
161.225
 21
18.2466
 31
0.0
  0
LINE
  5
2c8
100
AcDbEntity
  8
0
100
AcDbLine
 62
     254
 10
161.225
 20
18.2466
 30
0.0
 11
161.225
 21
26.2461
 31
0.0
  0
LINE
  5
2c9
100
AcDbEntity
  8
0
100
AcDbLine
 62
     254
 10
161.225
 20
26.2461
 30
0.0
 11
158.225
 21
26.2461
 31
0.0
  0
LINE
  5
2ca
100
AcDbEntity
  8
0
100
AcDbLine
 62
     254
 10
158.225
 20
26.2461
 30
0.0
 11
158.225
 21
36.2437
 31
0.0
  0
LINE
  5
2cb
100
AcDbEntity
  8
0
100
AcDbLine
 62
     254
 10
158.225
 20
36.2437
 30
0.0
 11
161.225
 21
36.2437
 31
0.0
  0
LINE
  5
2cc
100
AcDbEntity
  8
0
100
AcDbLine
 62
     254
 10
161.225
 20
36.2437
 30
0.0
 11
161.225
 21
44.2433
 31
0.0
  0
LINE
  5
2cd
100
AcDbEntity
  8
0
100
AcDbLine
 62
     254
 10
161.225
 20
44.2433
 30
0.0
 11
158.225
 21
44.2433
 31
0.0
  0
LINE
  5
2ce
100
AcDbEntity
  8
0
100
AcDbLine
 62
     254
 10
158.225
 20
44.2433
 30
0.0
 11
158.225
 21
54.241
 31
0.0
  0
LINE
  5
2cf
100
AcDbEntity
  8
0
100
AcDbLine
 62
     254
 10
158.225
 20
54.241
 30
0.0
 11
161.225
 21
54.241
 31
0.0
  0
LINE
  5
2d0
100
AcDbEntity
  8
0
100
AcDbLine
 62
     254
 10
161.225
 20
54.241
 30
0.0
 11
161.225
 21
62.2406
 31
0.0
  0
LINE
  5
2d1
100
AcDbEntity
  8
0
100
AcDbLine
 62
     254
 10
161.225
 20
62.2406
 30
0.0
 11
158.225
 21
62.2406
 31
0.0
  0
LINE
  5
2d2
100
AcDbEntity
  8
0
100
AcDbLine
 62
     254
 10
158.225
 20
62.2406
 30
0.0
 11
158.225
 21
72.2383
 31
0.0
  0
LINE
  5
2d3
100
AcDbEntity
  8
0
100
AcDbLine
 62
     254
 10
158.225
 20
72.2383
 30
0.0
 11
161.225
 21
72.2383
 31
0.0
  0
LINE
  5
2d4
100
AcDbEntity
  8
0
100
AcDbLine
 62
     254
 10
161.225
 20
72.2383
 30
0.0
 11
161.225
 21
80.2375
 31
0.0
  0
LINE
  5
2d5
100
AcDbEntity
  8
0
100
AcDbLine
 62
     254
 10
161.225
 20
80.2375
 30
0.0
 11
152.226
 21
80.2375
 31
0.0
  0
LINE
  5
2d6
100
AcDbEntity
  8
0
100
AcDbLine
 62
     254
 10
152.226
 20
80.2375
 30
0.0
 11
152.199
 21
79.8601
 31
0.0
  0
LINE
  5
2d7
100
AcDbEntity
  8
0
100
AcDbLine
 62
     254
 10
152.199
 20
79.8601
 30
0.0
 11
152.117
 21
79.484
 31
0.0
  0
LINE
  5
2d8
100
AcDbEntity
  8
0
100
AcDbLine
 62
     254
 10
152.117
 20
79.484
 30
0.0
 11
151.981
 21
79.109
 31
0.0
  0
LINE
  5
2d9
100
AcDbEntity
  8
0
100
AcDbLine
 62
     254
 10
151.981
 20
79.109
 30
0.0
 11
151.792
 21
78.7358
 31
0.0
  0
LINE
  5
2da
100
AcDbEntity
  8
0
100
AcDbLine
 62
     254
 10
151.792
 20
78.7358
 30
0.0
 11
151.548
 21
78.3664
 31
0.0
  0
LINE
  5
2db
100
AcDbEntity
  8
0
100
AcDbLine
 62
     254
 10
151.548
 20
78.3664
 30
0.0
 11
151.252
 21
77.9985
 31
0.0
  0
LINE
  5
2dc
100
AcDbEntity
  8
0
100
AcDbLine
 62
     254
 10
151.252
 20
77.9985
 30
0.0
 11
150.904
 21
77.6358
 31
0.0
  0
LINE
  5
2dd
100
AcDbEntity
  8
0
100
AcDbLine
 62
     254
 10
150.904
 20
77.6358
 30
0.0
 11
150.502
 21
77.2777
 31
0.0
  0
LINE
  5
2de
100
AcDbEntity
  8
0
100
AcDbLine
 62
     254
 10
150.502
 20
77.2777
 30
0.0
 11
150.049
 21
76.9235
 31
0.0
  0
LINE
  5
2df
100
AcDbEntity
  8
0
100
AcDbLine
 62
     254
 10
150.049
 20
76.9235
 30
0.0
 11
149.546
 21
76.5761
 31
0.0
  0
LINE
  5
2e0
100
AcDbEntity
  8
0
100
AcDbLine
 62
     254
 10
149.546
 20
76.5761
 30
0.0
 11
148.994
 21
76.236
 31
0.0
  0
LINE
  5
2e1
100
AcDbEntity
  8
0
100
AcDbLine
 62
     254
 10
148.994
 20
76.236
 30
0.0
 11
148.393
 21
75.9008
 31
0.0
  0
LINE
  5
2e2
100
AcDbEntity
  8
0
100
AcDbLine
 62
     254
 10
148.393
 20
75.9008
 30
0.0
 11
147.744
 21
75.5745
 31
0.0
  0
LINE
  5
2e3
100
AcDbEntity
  8
0
100
AcDbLine
 62
     254
 10
147.744
 20
75.5745
 30
0.0
 11
147.048
 21
75.256
 31
0.0
  0
LINE
  5
2e4
100
AcDbEntity
  8
0
100
AcDbLine
 62
     254
 10
147.048
 20
75.256
 30
0.0
 11
146.306
 21
74.9473
 31
0.0
  0
LINE
  5
2e5
100
AcDbEntity
  8
0
100
AcDbLine
 62
     254
 10
146.306
 20
74.9473
 30
0.0
 11
145.522
 21
74.6471
 31
0.0
  0
LINE
  5
2e6
100
AcDbEntity
  8
0
100
AcDbLine
 62
     254
 10
145.522
 20
74.6471
 30
0.0
 11
144.694
 21
74.356
 31
0.0
  0
LINE
  5
2e7
100
AcDbEntity
  8
0
100
AcDbLine
 62
     254
 10
144.694
 20
74.356
 30
0.0
 11
143.826
 21
74.0763
 31
0.0
  0
LINE
  5
2e8
100
AcDbEntity
  8
0
100
AcDbLine
 62
     254
 10
143.826
 20
74.0763
 30
0.0
 11
142.918
 21
73.8064
 31
0.0
  0
LINE
  5
2e9
100
AcDbEntity
  8
0
100
AcDbLine
 62
     254
 10
142.918
 20
73.8064
 30
0.0
 11
141.971
 21
73.5485
 31
0.0
  0
LINE
  5
2ea
100
AcDbEntity
  8
0
100
AcDbLine
 62
     254
 10
141.971
 20
73.5485
 30
0.0
 11
140.988
 21
73.3019
 31
0.0
  0
LINE
  5
2eb
100
AcDbEntity
  8
0
100
AcDbLine
 62
     254
 10
140.988
 20
73.3019
 30
0.0
 11
139.97
 21
73.0677
 31
0.0
  0
LINE
  5
2ec
100
AcDbEntity
  8
0
100
AcDbLine
 62
     254
 10
139.97
 20
73.0677
 30
0.0
 11
138.92
 21
72.8458
 31
0.0
  0
LINE
  5
2ed
100
AcDbEntity
  8
0
100
AcDbLine
 62
     254
 10
138.92
 20
72.8458
 30
0.0
 11
137.838
 21
72.6376
 31
0.0
  0
LINE
  5
2ee
100
AcDbEntity
  8
0
100
AcDbLine
 62
     254
 10
137.838
 20
72.6376
 30
0.0
 11
136.729
 21
72.4422
 31
0.0
  0
LINE
  5
2ef
100
AcDbEntity
  8
0
100
AcDbLine
 62
     254
 10
136.729
 20
72.4422
 30
0.0
 11
135.591
 21
72.2616
 31
0.0
  0
LINE
  5
2f0
100
AcDbEntity
  8
0
100
AcDbLine
 62
     254
 10
135.591
 20
72.2616
 30
0.0
 11
134.428
 21
72.0933
 31
0.0
  0
LINE
  5
2f1
100
AcDbEntity
  8
0
100
AcDbLine
 62
     254
 10
134.428
 20
72.0933
 30
0.0
 11
133.242
 21
71.9406
 31
0.0
  0
LINE
  5
2f2
100
AcDbEntity
  8
0
100
AcDbLine
 62
     254
 10
133.242
 20
71.9406
 30
0.0
 11
132.035
 21
71.8012
 31
0.0
  0
LINE
  5
2f3
100
AcDbEntity
  8
0
100
AcDbLine
 62
     254
 10
132.035
 20
71.8012
 30
0.0
 11
130.809
 21
71.6774
 31
0.0
  0
LINE
  5
2f4
100
AcDbEntity
  8
0
100
AcDbLine
 62
     254
 10
130.809
 20
71.6774
 30
0.0
 11
129.566
 21
71.5684
 31
0.0
  0
LINE
  5
2f5
100
AcDbEntity
  8
0
100
AcDbLine
 62
     254
 10
129.566
 20
71.5684
 30
0.0
 11
128.309
 21
71.4745
 31
0.0
  0
LINE
  5
2f6
100
AcDbEntity
  8
0
100
AcDbLine
 62
     254
 10
128.309
 20
71.4745
 30
0.0
 11
127.038
 21
71.3962
 31
0.0
  0
LINE
  5
2f7
100
AcDbEntity
  8
0
100
AcDbLine
 62
     254
 10
127.038
 20
71.3962
 30
0.0
 11
125.758
 21
71.3327
 31
0.0
  0
LINE
  5
2f8
100
AcDbEntity
  8
0
100
AcDbLine
 62
     254
 10
125.758
 20
71.3327
 30
0.0
 11
124.471
 21
71.2858
 31
0.0
  0
LINE
  5
2f9
100
AcDbEntity
  8
0
100
AcDbLine
 62
     254
 10
124.471
 20
71.2858
 30
0.0
 11
123.177
 21
71.2541
 31
0.0
  0
LINE
  5
2fa
100
AcDbEntity
  8
0
100
AcDbLine
 62
     254
 10
123.177
 20
71.2541
 30
0.0
 11
121.88
 21
71.2392
 31
0.0
  0
LINE
  5
2fb
100
AcDbEntity
  8
0
100
AcDbLine
 62
     254
 10
121.88
 20
71.2392
 30
0.0
 11
120.583
 21
71.2392
 31
0.0
  0
LINE
  5
2fc
100
AcDbEntity
  8
0
100
AcDbLine
 62
     254
 10
120.583
 20
71.2392
 30
0.0
 11
119.284
 21
71.2541
 31
0.0
  0
LINE
  5
2fd
100
AcDbEntity
  8
0
100
AcDbLine
 62
     254
 10
119.284
 20
71.2541
 30
0.0
 11
117.99
 21
71.2858
 31
0.0
  0
LINE
  5
2fe
100
AcDbEntity
  8
0
100
AcDbLine
 62
     254
 10
117.99
 20
71.2858
 30
0.0
 11
116.703
 21
71.3327
 31
0.0
  0
LINE
  5
2ff
100
AcDbEntity
  8
0
100
AcDbLine
 62
     254
 10
116.703
 20
71.3327
 30
0.0
 11
115.423
 21
71.3962
 31
0.0
  0
LINE
  5
300
100
AcDbEntity
  8
0
100
AcDbLine
 62
     254
 10
115.423
 20
71.3962
 30
0.0
 11
114.153
 21
71.4745
 31
0.0
  0
LINE
  5
301
100
AcDbEntity
  8
0
100
AcDbLine
 62
     254
 10
114.153
 20
71.4745
 30
0.0
 11
112.896
 21
71.5684
 31
0.0
  0
LINE
  5
302
100
AcDbEntity
  8
0
100
AcDbLine
 62
     254
 10
112.896
 20
71.5684
 30
0.0
 11
111.653
 21
71.6774
 31
0.0
  0
LINE
  5
303
100
AcDbEntity
  8
0
100
AcDbLine
 62
     254
 10
111.653
 20
71.6774
 30
0.0
 11
110.426
 21
71.8012
 31
0.0
  0
LINE
  5
304
100
AcDbEntity
  8
0
100
AcDbLine
 62
     254
 10
110.426
 20
71.8012
 30
0.0
 11
109.219
 21
71.9406
 31
0.0
  0
LINE
  5
305
100
AcDbEntity
  8
0
100
AcDbLine
 62
     254
 10
109.219
 20
71.9406
 30
0.0
 11
108.034
 21
72.0933
 31
0.0
  0
LINE
  5
306
100
AcDbEntity
  8
0
100
AcDbLine
 62
     254
 10
108.034
 20
72.0933
 30
0.0
 11
106.871
 21
72.2616
 31
0.0
  0
LINE
  5
307
100
AcDbEntity
  8
0
100
AcDbLine
 62
     254
 10
106.871
 20
72.2616
 30
0.0
 11
105.733
 21
72.4422
 31
0.0
  0
LINE
  5
308
100
AcDbEntity
  8
0
100
AcDbLine
 62
     254
 10
105.733
 20
72.4422
 30
0.0
 11
104.623
 21
72.6376
 31
0.0
  0
LINE
  5
309
100
AcDbEntity
  8
0
100
AcDbLine
 62
     254
 10
104.623
 20
72.6376
 30
0.0
 11
103.542
 21
72.8458
 31
0.0
  0
LINE
  5
30a
100
AcDbEntity
  8
0
100
AcDbLine
 62
     254
 10
103.542
 20
72.8458
 30
0.0
 11
102.491
 21
73.0677
 31
0.0
  0
LINE
  5
30b
100
AcDbEntity
  8
0
100
AcDbLine
 62
     254
 10
102.491
 20
73.0677
 30
0.0
 11
101.475
 21
73.3019
 31
0.0
  0
LINE
  5
30c
100
AcDbEntity
  8
0
100
AcDbLine
 62
     254
 10
101.475
 20
73.3019
 30
0.0
 11
100.491
 21
73.5485
 31
0.0
  0
LINE
  5
30d
100
AcDbEntity
  8
0
100
AcDbLine
 62
     254
 10
100.491
 20
73.5485
 30
0.0
 11
99.5454
 21
73.8064
 31
0.0
  0
LINE
  5
30e
100
AcDbEntity
  8
0
100
AcDbLine
 62
     254
 10
99.5454
 20
73.8064
 30
0.0
 11
98.636
 21
74.0763
 31
0.0
  0
LINE
  5
30f
100
AcDbEntity
  8
0
100
AcDbLine
 62
     254
 10
98.636
 20
74.0763
 30
0.0
 11
97.7678
 21
74.356
 31
0.0
  0
LINE
  5
310
100
AcDbEntity
  8
0
100
AcDbLine
 62
     254
 10
97.7678
 20
74.356
 30
0.0
 11
96.9409
 21
74.6471
 31
0.0
  0
LINE
  5
311
100
AcDbEntity
  8
0
100
AcDbLine
 62
     254
 10
96.9409
 20
74.6471
 30
0.0
 11
96.1552
 21
74.9473
 31
0.0
  0
LINE
  5
312
100
AcDbEntity
  8
0
100
AcDbLine
 62
     254
 10
96.1552
 20
74.9473
 30
0.0
 11
95.414
 21
75.256
 31
0.0
  0
LINE
  5
313
100
AcDbEntity
  8
0
100
AcDbLine
 62
     254
 10
95.414
 20
75.256
 30
0.0
 11
94.7194
 21
75.5745
 31
0.0
  0
LINE
  5
314
100
AcDbEntity
  8
0
100
AcDbLine
 62
     254
 10
94.7194
 20
75.5745
 30
0.0
 11
94.0689
 21
75.9008
 31
0.0
  0
LINE
  5
315
100
AcDbEntity
  8
0
100
AcDbLine
 62
     254
 10
94.0689
 20
75.9008
 30
0.0
 11
93.4681
 21
76.236
 31
0.0
  0
LINE
  5
316
100
AcDbEntity
  8
0
100
AcDbLine
 62
     254
 10
93.4681
 20
76.236
 30
0.0
 11
92.9157
 21
76.5761
 31
0.0
  0
LINE
  5
317
100
AcDbEntity
  8
0
100
AcDbLine
 62
     254
 10
92.9157
 20
76.5761
 30
0.0
 11
92.4126
 21
76.9235
 31
0.0
  0
LINE
  5
318
100
AcDbEntity
  8
0
100
AcDbLine
 62
     254
 10
92.4126
 20
76.9235
 30
0.0
 11
91.9593
 21
77.2777
 31
0.0
  0
LINE
  5
319
100
AcDbEntity
  8
0
100
AcDbLine
 62
     254
 10
91.9593
 20
77.2777
 30
0.0
 11
91.5582
 21
77.6358
 31
0.0
  0
LINE
  5
31a
100
AcDbEntity
  8
0
100
AcDbLine
 62
     254
 10
91.5582
 20
77.6358
 30
0.0
 11
91.2096
 21
77.9985
 31
0.0
  0
LINE
  5
31b
100
AcDbEntity
  8
0
100
AcDbLine
 62
     254
 10
91.2096
 20
77.9985
 30
0.0
 11
90.9133
 21
78.3664
 31
0.0
  0
LINE
  5
31c
100
AcDbEntity
  8
0
100
AcDbLine
 62
     254
 10
90.9133
 20
78.3664
 30
0.0
 11
90.6695
 21
78.7358
 31
0.0
  0
LINE
  5
31d
100
AcDbEntity
  8
0
100
AcDbLine
 62
     254
 10
90.6695
 20
78.7358
 30
0.0
 11
90.4804
 21
79.109
 31
0.0
  0
LINE
  5
31e
100
AcDbEntity
  8
0
100
AcDbLine
 62
     254
 10
90.4804
 20
79.109
 30
0.0
 11
90.3443
 21
79.484
 31
0.0
  0
LINE
  5
31f
100
AcDbEntity
  8
0
100
AcDbLine
 62
     254
 10
90.3443
 20
79.484
 30
0.0
 11
90.2628
 21
79.8601
 31
0.0
  0
LINE
  5
320
100
AcDbEntity
  8
0
100
AcDbLine
 62
     254
 10
90.2628
 20
79.8601
 30
0.0
 11
90.2353
 21
80.2375
 31
0.0
  0
LINE
  5
321
100
AcDbEntity
  8
0
100
AcDbLine
 62
     254
 10
90.2353
 20
80.2375
 30
0.0
 11
81.2366
 21
80.2375
 31
0.0
  0
LINE
  5
322
100
AcDbEntity
  8
0
100
AcDbLine
 62
     254
 10
81.2366
 20
80.2375
 30
0.0
 11
81.2366
 21
72.2383
 31
0.0
  0
LINE
  5
323
100
AcDbEntity
  8
0
100
AcDbLine
 62
     254
 10
81.2366
 20
72.2383
 30
0.0
 11
84.2366
 21
72.2383
 31
0.0
  0
LINE
  5
324
100
AcDbEntity
  8
0
100
AcDbLine
 62
     254
 10
84.2366
 20
72.2383
 30
0.0
 11
84.2366
 21
62.2406
 31
0.0
  0
LINE
  5
325
100
AcDbEntity
  8
0
100
AcDbLine
 62
     254
 10
84.2366
 20
62.2406
 30
0.0
 11
81.2366
 21
62.2406
 31
0.0
  0
LINE
  5
326
100
AcDbEntity
  8
0
100
AcDbLine
 62
     254
 10
81.2366
 20
62.2406
 30
0.0
 11
81.2366
 21
54.241
 31
0.0
  0
LINE
  5
327
100
AcDbEntity
  8
0
100
AcDbLine
 62
     254
 10
81.2366
 20
54.241
 30
0.0
 11
84.2366
 21
54.241
 31
0.0
  0
LINE
  5
328
100
AcDbEntity
  8
0
100
AcDbLine
 62
     254
 10
84.2366
 20
54.241
 30
0.0
 11
84.2366
 21
44.2433
 31
0.0
  0
LINE
  5
329
100
AcDbEntity
  8
0
100
AcDbLine
 62
     254
 10
84.2366
 20
44.2433
 30
0.0
 11
81.2366
 21
44.2433
 31
0.0
  0
LINE
  5
32a
100
AcDbEntity
  8
0
100
AcDbLine
 62
     254
 10
81.2366
 20
44.2433
 30
0.0
 11
81.2366
 21
36.2437
 31
0.0
  0
LINE
  5
32b
100
AcDbEntity
  8
0
100
AcDbLine
 62
     254
 10
81.2366
 20
36.2437
 30
0.0
 11
84.2366
 21
36.2437
 31
0.0
  0
LINE
  5
32c
100
AcDbEntity
  8
0
100
AcDbLine
 62
     254
 10
84.2366
 20
36.2437
 30
0.0
 11
84.2366
 21
26.2461
 31
0.0
  0
LINE
  5
32d
100
AcDbEntity
  8
0
100
AcDbLine
 62
     254
 10
84.2366
 20
26.2461
 30
0.0
 11
81.2366
 21
26.2461
 31
0.0
  0
LINE
  5
32e
100
AcDbEntity
  8
0
100
AcDbLine
 62
     254
 10
81.2366
 20
26.2461
 30
0.0
 11
81.2366
 21
18.2466
 31
0.0
  0
LINE
  5
32f
100
AcDbEntity
  8
0
100
AcDbLine
 62
     254
 10
81.2366
 20
18.2466
 30
0.0
 11
84.2366
 21
18.2466
 31
0.0
  0
LINE
  5
330
100
AcDbEntity
  8
0
100
AcDbLine
 62
     254
 10
84.2366
 20
18.2466
 30
0.0
 11
84.2366
 21
8.24893
 31
0.0
  0
LINE
  5
331
100
AcDbEntity
  8
0
100
AcDbLine
 62
     254
 10
84.2366
 20
8.24893
 30
0.0
 11
81.2366
 21
8.24893
 31
0.0
  0
LINE
  5
332
100
AcDbEntity
  8
0
100
AcDbLine
 62
     254
 10
81.2366
 20
8.24893
 30
0.0
 11
81.2366
 21
0.249425
 31
0.0
  0
LINE
  5
333
100
AcDbEntity
  8
0
100
AcDbLine
 62
     254
 10
81.2366
 20
0.249425
 30
0.0
 11
161.225
 21
0.249425
 31
0.0
  0
LINE
  5
334
100
AcDbEntity
  8
0
100
AcDbLine
 62
     254
 10
161.225
 20
0.249425
 30
0.0
 11
161.225
 21
8.24893
 31
0.0
  0
LINE
  5
335
100
AcDbEntity
  8
0
100
AcDbLine
 62
     254
 10
125.23
 20
65.2392
 30
0.0
 11
125.23
 21
68.2392
 31
0.0
  0
LINE
  5
336
100
AcDbEntity
  8
0
100
AcDbLine
 62
     254
 10
125.23
 20
68.2392
 30
0.0
 11
135.228
 21
68.2392
 31
0.0
  0
LINE
  5
337
100
AcDbEntity
  8
0
100
AcDbLine
 62
     254
 10
135.228
 20
68.2392
 30
0.0
 11
135.228
 21
65.2392
 31
0.0
  0
LINE
  5
338
100
AcDbEntity
  8
0
100
AcDbLine
 62
     254
 10
135.228
 20
65.2392
 30
0.0
 11
125.23
 21
65.2392
 31
0.0
  0
LINE
  5
339
100
AcDbEntity
  8
0
100
AcDbLine
 62
     254
 10
89.2362
 20
65.2392
 30
0.0
 11
89.2362
 21
68.2392
 31
0.0
  0
LINE
  5
33a
100
AcDbEntity
  8
0
100
AcDbLine
 62
     254
 10
89.2362
 20
68.2392
 30
0.0
 11
99.2339
 21
68.2392
 31
0.0
  0
LINE
  5
33b
100
AcDbEntity
  8
0
100
AcDbLine
 62
     254
 10
99.2339
 20
68.2392
 30
0.0
 11
99.2339
 21
65.2392
 31
0.0
  0
LINE
  5
33c
100
AcDbEntity
  8
0
100
AcDbLine
 62
     254
 10
99.2339
 20
65.2392
 30
0.0
 11
89.2362
 21
65.2392
 31
0.0
  0
LINE
  5
33d
100
AcDbEntity
  8
0
100
AcDbLine
 62
     254
 10
107.234
 20
65.2392
 30
0.0
 11
107.234
 21
68.2392
 31
0.0
  0
LINE
  5
33e
100
AcDbEntity
  8
0
100
AcDbLine
 62
     254
 10
107.234
 20
68.2392
 30
0.0
 11
117.231
 21
68.2392
 31
0.0
  0
LINE
  5
33f
100
AcDbEntity
  8
0
100
AcDbLine
 62
     254
 10
117.231
 20
68.2392
 30
0.0
 11
117.231
 21
65.2392
 31
0.0
  0
LINE
  5
340
100
AcDbEntity
  8
0
100
AcDbLine
 62
     254
 10
117.231
 20
65.2392
 30
0.0
 11
107.234
 21
65.2392
 31
0.0
  0
LINE
  5
341
100
AcDbEntity
  8
0
100
AcDbLine
 62
     254
 10
143.228
 20
65.2392
 30
0.0
 11
143.228
 21
68.2392
 31
0.0
  0
LINE
  5
342
100
AcDbEntity
  8
0
100
AcDbLine
 62
     254
 10
143.228
 20
68.2392
 30
0.0
 11
153.225
 21
68.2392
 31
0.0
  0
LINE
  5
343
100
AcDbEntity
  8
0
100
AcDbLine
 62
     254
 10
153.225
 20
68.2392
 30
0.0
 11
153.225
 21
65.2392
 31
0.0
  0
LINE
  5
344
100
AcDbEntity
  8
0
100
AcDbLine
 62
     254
 10
153.225
 20
65.2392
 30
0.0
 11
143.228
 21
65.2392
 31
0.0
  0
LINE
  5
345
100
AcDbEntity
  8
0
100
AcDbLine
 62
     0
 10
90.2628
 20
162.602
 30
0.0
 11
90.3443
 21
162.978
 31
0.0
  0
LINE
  5
346
100
AcDbEntity
  8
0
100
AcDbLine
 62
     0
 10
90.3443
 20
162.978
 30
0.0
 11
90.4804
 21
163.353
 31
0.0
  0
LINE
  5
347
100
AcDbEntity
  8
0
100
AcDbLine
 62
     0
 10
90.4804
 20
163.353
 30
0.0
 11
90.6695
 21
163.725
 31
0.0
  0
LINE
  5
348
100
AcDbEntity
  8
0
100
AcDbLine
 62
     0
 10
90.6695
 20
163.725
 30
0.0
 11
90.9133
 21
164.095
 31
0.0
  0
LINE
  5
349
100
AcDbEntity
  8
0
100
AcDbLine
 62
     0
 10
90.9133
 20
164.095
 30
0.0
 11
91.2096
 21
164.463
 31
0.0
  0
LINE
  5
34a
100
AcDbEntity
  8
0
100
AcDbLine
 62
     0
 10
91.2096
 20
164.463
 30
0.0
 11
91.5582
 21
164.826
 31
0.0
  0
LINE
  5
34b
100
AcDbEntity
  8
0
100
AcDbLine
 62
     0
 10
91.5582
 20
164.826
 30
0.0
 11
91.9593
 21
165.184
 31
0.0
  0
LINE
  5
34c
100
AcDbEntity
  8
0
100
AcDbLine
 62
     0
 10
91.9593
 20
165.184
 30
0.0
 11
92.4126
 21
165.538
 31
0.0
  0
LINE
  5
34d
100
AcDbEntity
  8
0
100
AcDbLine
 62
     0
 10
92.4126
 20
165.538
 30
0.0
 11
92.9157
 21
165.886
 31
0.0
  0
LINE
  5
34e
100
AcDbEntity
  8
0
100
AcDbLine
 62
     0
 10
92.9157
 20
165.886
 30
0.0
 11
93.4681
 21
166.226
 31
0.0
  0
LINE
  5
34f
100
AcDbEntity
  8
0
100
AcDbLine
 62
     0
 10
93.4681
 20
166.226
 30
0.0
 11
94.0689
 21
166.561
 31
0.0
  0
LINE
  5
350
100
AcDbEntity
  8
0
100
AcDbLine
 62
     0
 10
94.0689
 20
166.561
 30
0.0
 11
94.7194
 21
166.887
 31
0.0
  0
LINE
  5
351
100
AcDbEntity
  8
0
100
AcDbLine
 62
     0
 10
94.7194
 20
166.887
 30
0.0
 11
95.414
 21
167.206
 31
0.0
  0
LINE
  5
352
100
AcDbEntity
  8
0
100
AcDbLine
 62
     0
 10
95.414
 20
167.206
 30
0.0
 11
96.1552
 21
167.514
 31
0.0
  0
LINE
  5
353
100
AcDbEntity
  8
0
100
AcDbLine
 62
     0
 10
96.1552
 20
167.514
 30
0.0
 11
96.9409
 21
167.815
 31
0.0
  0
LINE
  5
354
100
AcDbEntity
  8
0
100
AcDbLine
 62
     0
 10
96.9409
 20
167.815
 30
0.0
 11
97.7678
 21
168.106
 31
0.0
  0
LINE
  5
355
100
AcDbEntity
  8
0
100
AcDbLine
 62
     0
 10
97.7678
 20
168.106
 30
0.0
 11
98.636
 21
168.385
 31
0.0
  0
LINE
  5
356
100
AcDbEntity
  8
0
100
AcDbLine
 62
     0
 10
98.636
 20
168.385
 30
0.0
 11
99.5454
 21
168.655
 31
0.0
  0
LINE
  5
357
100
AcDbEntity
  8
0
100
AcDbLine
 62
     0
 10
99.5454
 20
168.655
 30
0.0
 11
100.491
 21
168.913
 31
0.0
  0
LINE
  5
358
100
AcDbEntity
  8
0
100
AcDbLine
 62
     0
 10
100.491
 20
168.913
 30
0.0
 11
101.475
 21
169.16
 31
0.0
  0
LINE
  5
359
100
AcDbEntity
  8
0
100
AcDbLine
 62
     0
 10
101.475
 20
169.16
 30
0.0
 11
102.491
 21
169.394
 31
0.0
  0
LINE
  5
35a
100
AcDbEntity
  8
0
100
AcDbLine
 62
     0
 10
102.491
 20
169.394
 30
0.0
 11
103.542
 21
169.616
 31
0.0
  0
LINE
  5
35b
100
AcDbEntity
  8
0
100
AcDbLine
 62
     0
 10
103.542
 20
169.616
 30
0.0
 11
104.623
 21
169.824
 31
0.0
  0
LINE
  5
35c
100
AcDbEntity
  8
0
100
AcDbLine
 62
     0
 10
104.623
 20
169.824
 30
0.0
 11
105.733
 21
170.019
 31
0.0
  0
LINE
  5
35d
100
AcDbEntity
  8
0
100
AcDbLine
 62
     0
 10
105.733
 20
170.019
 30
0.0
 11
106.871
 21
170.2
 31
0.0
  0
LINE
  5
35e
100
AcDbEntity
  8
0
100
AcDbLine
 62
     0
 10
106.871
 20
170.2
 30
0.0
 11
108.034
 21
170.368
 31
0.0
  0
LINE
  5
35f
100
AcDbEntity
  8
0
100
AcDbLine
 62
     0
 10
108.034
 20
170.368
 30
0.0
 11
109.219
 21
170.521
 31
0.0
  0
LINE
  5
360
100
AcDbEntity
  8
0
100
AcDbLine
 62
     0
 10
109.219
 20
170.521
 30
0.0
 11
110.426
 21
170.66
 31
0.0
  0
LINE
  5
361
100
AcDbEntity
  8
0
100
AcDbLine
 62
     0
 10
110.426
 20
170.66
 30
0.0
 11
111.653
 21
170.784
 31
0.0
  0
LINE
  5
362
100
AcDbEntity
  8
0
100
AcDbLine
 62
     0
 10
111.653
 20
170.784
 30
0.0
 11
112.896
 21
170.893
 31
0.0
  0
LINE
  5
363
100
AcDbEntity
  8
0
100
AcDbLine
 62
     0
 10
112.896
 20
170.893
 30
0.0
 11
114.153
 21
170.987
 31
0.0
  0
LINE
  5
364
100
AcDbEntity
  8
0
100
AcDbLine
 62
     0
 10
114.153
 20
170.987
 30
0.0
 11
115.423
 21
171.065
 31
0.0
  0
LINE
  5
365
100
AcDbEntity
  8
0
100
AcDbLine
 62
     0
 10
115.423
 20
171.065
 30
0.0
 11
116.703
 21
171.129
 31
0.0
  0
LINE
  5
366
100
AcDbEntity
  8
0
100
AcDbLine
 62
     0
 10
116.703
 20
171.129
 30
0.0
 11
117.99
 21
171.176
 31
0.0
  0
LINE
  5
367
100
AcDbEntity
  8
0
100
AcDbLine
 62
     0
 10
117.99
 20
171.176
 30
0.0
 11
119.284
 21
171.208
 31
0.0
  0
LINE
  5
368
100
AcDbEntity
  8
0
100
AcDbLine
 62
     0
 10
119.284
 20
171.208
 30
0.0
 11
120.583
 21
171.222
 31
0.0
  0
LINE
  5
369
100
AcDbEntity
  8
0
100
AcDbLine
 62
     0
 10
120.583
 20
171.222
 30
0.0
 11
121.88
 21
171.222
 31
0.0
  0
LINE
  5
36a
100
AcDbEntity
  8
0
100
AcDbLine
 62
     0
 10
121.88
 20
171.222
 30
0.0
 11
123.177
 21
171.208
 31
0.0
  0
LINE
  5
36b
100
AcDbEntity
  8
0
100
AcDbLine
 62
     0
 10
123.177
 20
171.208
 30
0.0
 11
124.471
 21
171.176
 31
0.0
  0
LINE
  5
36c
100
AcDbEntity
  8
0
100
AcDbLine
 62
     0
 10
124.471
 20
171.176
 30
0.0
 11
125.758
 21
171.129
 31
0.0
  0
LINE
  5
36d
100
AcDbEntity
  8
0
100
AcDbLine
 62
     0
 10
125.758
 20
171.129
 30
0.0
 11
127.038
 21
171.065
 31
0.0
  0
LINE
  5
36e
100
AcDbEntity
  8
0
100
AcDbLine
 62
     0
 10
127.038
 20
171.065
 30
0.0
 11
128.309
 21
170.987
 31
0.0
  0
LINE
  5
36f
100
AcDbEntity
  8
0
100
AcDbLine
 62
     0
 10
128.309
 20
170.987
 30
0.0
 11
129.566
 21
170.893
 31
0.0
  0
LINE
  5
370
100
AcDbEntity
  8
0
100
AcDbLine
 62
     0
 10
129.566
 20
170.893
 30
0.0
 11
130.809
 21
170.784
 31
0.0
  0
LINE
  5
371
100
AcDbEntity
  8
0
100
AcDbLine
 62
     0
 10
130.809
 20
170.784
 30
0.0
 11
132.035
 21
170.66
 31
0.0
  0
LINE
  5
372
100
AcDbEntity
  8
0
100
AcDbLine
 62
     0
 10
132.035
 20
170.66
 30
0.0
 11
133.242
 21
170.521
 31
0.0
  0
LINE
  5
373
100
AcDbEntity
  8
0
100
AcDbLine
 62
     0
 10
133.242
 20
170.521
 30
0.0
 11
134.428
 21
170.368
 31
0.0
  0
LINE
  5
374
100
AcDbEntity
  8
0
100
AcDbLine
 62
     0
 10
134.428
 20
170.368
 30
0.0
 11
135.591
 21
170.2
 31
0.0
  0
LINE
  5
375
100
AcDbEntity
  8
0
100
AcDbLine
 62
     0
 10
135.591
 20
170.2
 30
0.0
 11
136.729
 21
170.019
 31
0.0
  0
LINE
  5
376
100
AcDbEntity
  8
0
100
AcDbLine
 62
     0
 10
136.729
 20
170.019
 30
0.0
 11
137.838
 21
169.824
 31
0.0
  0
LINE
  5
377
100
AcDbEntity
  8
0
100
AcDbLine
 62
     0
 10
137.838
 20
169.824
 30
0.0
 11
138.92
 21
169.616
 31
0.0
  0
LINE
  5
378
100
AcDbEntity
  8
0
100
AcDbLine
 62
     0
 10
138.92
 20
169.616
 30
0.0
 11
139.97
 21
169.394
 31
0.0
  0
LINE
  5
379
100
AcDbEntity
  8
0
100
AcDbLine
 62
     0
 10
139.97
 20
169.394
 30
0.0
 11
140.988
 21
169.16
 31
0.0
  0
LINE
  5
37a
100
AcDbEntity
  8
0
100
AcDbLine
 62
     0
 10
140.988
 20
169.16
 30
0.0
 11
141.971
 21
168.913
 31
0.0
  0
LINE
  5
37b
100
AcDbEntity
  8
0
100
AcDbLine
 62
     0
 10
141.971
 20
168.913
 30
0.0
 11
142.918
 21
168.655
 31
0.0
  0
LINE
  5
37c
100
AcDbEntity
  8
0
100
AcDbLine
 62
     0
 10
142.918
 20
168.655
 30
0.0
 11
143.826
 21
168.385
 31
0.0
  0
LINE
  5
37d
100
AcDbEntity
  8
0
100
AcDbLine
 62
     0
 10
143.826
 20
168.385
 30
0.0
 11
144.694
 21
168.106
 31
0.0
  0
LINE
  5
37e
100
AcDbEntity
  8
0
100
AcDbLine
 62
     0
 10
144.694
 20
168.106
 30
0.0
 11
145.522
 21
167.815
 31
0.0
  0
LINE
  5
37f
100
AcDbEntity
  8
0
100
AcDbLine
 62
     0
 10
145.522
 20
167.815
 30
0.0
 11
146.306
 21
167.514
 31
0.0
  0
LINE
  5
380
100
AcDbEntity
  8
0
100
AcDbLine
 62
     0
 10
146.306
 20
167.514
 30
0.0
 11
147.048
 21
167.206
 31
0.0
  0
LINE
  5
381
100
AcDbEntity
  8
0
100
AcDbLine
 62
     0
 10
147.048
 20
167.206
 30
0.0
 11
147.744
 21
166.887
 31
0.0
  0
LINE
  5
382
100
AcDbEntity
  8
0
100
AcDbLine
 62
     0
 10
147.744
 20
166.887
 30
0.0
 11
148.393
 21
166.561
 31
0.0
  0
LINE
  5
383
100
AcDbEntity
  8
0
100
AcDbLine
 62
     0
 10
148.393
 20
166.561
 30
0.0
 11
148.994
 21
166.226
 31
0.0
  0
LINE
  5
384
100
AcDbEntity
  8
0
100
AcDbLine
 62
     0
 10
148.994
 20
166.226
 30
0.0
 11
149.546
 21
165.886
 31
0.0
  0
LINE
  5
385
100
AcDbEntity
  8
0
100
AcDbLine
 62
     0
 10
149.546
 20
165.886
 30
0.0
 11
150.049
 21
165.538
 31
0.0
  0
LINE
  5
386
100
AcDbEntity
  8
0
100
AcDbLine
 62
     0
 10
150.049
 20
165.538
 30
0.0
 11
150.502
 21
165.184
 31
0.0
  0
LINE
  5
387
100
AcDbEntity
  8
0
100
AcDbLine
 62
     0
 10
150.502
 20
165.184
 30
0.0
 11
150.904
 21
164.826
 31
0.0
  0
LINE
  5
388
100
AcDbEntity
  8
0
100
AcDbLine
 62
     0
 10
150.904
 20
164.826
 30
0.0
 11
151.252
 21
164.463
 31
0.0
  0
LINE
  5
389
100
AcDbEntity
  8
0
100
AcDbLine
 62
     0
 10
151.252
 20
164.463
 30
0.0
 11
151.548
 21
164.095
 31
0.0
  0
LINE
  5
38a
100
AcDbEntity
  8
0
100
AcDbLine
 62
     0
 10
151.548
 20
164.095
 30
0.0
 11
151.792
 21
163.725
 31
0.0
  0
LINE
  5
38b
100
AcDbEntity
  8
0
100
AcDbLine
 62
     0
 10
151.792
 20
163.725
 30
0.0
 11
151.981
 21
163.353
 31
0.0
  0
LINE
  5
38c
100
AcDbEntity
  8
0
100
AcDbLine
 62
     0
 10
151.981
 20
163.353
 30
0.0
 11
152.117
 21
162.978
 31
0.0
  0
LINE
  5
38d
100
AcDbEntity
  8
0
100
AcDbLine
 62
     0
 10
152.117
 20
162.978
 30
0.0
 11
152.199
 21
162.602
 31
0.0
  0
LINE
  5
38e
100
AcDbEntity
  8
0
100
AcDbLine
 62
     0
 10
152.199
 20
162.602
 30
0.0
 11
152.226
 21
162.224
 31
0.0
  0
LINE
  5
38f
100
AcDbEntity
  8
0
100
AcDbLine
 62
     0
 10
152.226
 20
162.224
 30
0.0
 11
161.225
 21
162.224
 31
0.0
  0
LINE
  5
390
100
AcDbEntity
  8
0
100
AcDbLine
 62
     0
 10
161.225
 20
162.224
 30
0.0
 11
161.225
 21
170.223
 31
0.0
  0
LINE
  5
391
100
AcDbEntity
  8
0
100
AcDbLine
 62
     0
 10
161.225
 20
170.223
 30
0.0
 11
158.225
 21
170.223
 31
0.0
  0
LINE
  5
392
100
AcDbEntity
  8
0
100
AcDbLine
 62
     0
 10
158.225
 20
170.223
 30
0.0
 11
158.225
 21
180.221
 31
0.0
  0
LINE
  5
393
100
AcDbEntity
  8
0
100
AcDbLine
 62
     0
 10
158.225
 20
180.221
 30
0.0
 11
161.225
 21
180.221
 31
0.0
  0
LINE
  5
394
100
AcDbEntity
  8
0
100
AcDbLine
 62
     0
 10
161.225
 20
180.221
 30
0.0
 11
161.225
 21
188.221
 31
0.0
  0
LINE
  5
395
100
AcDbEntity
  8
0
100
AcDbLine
 62
     0
 10
161.225
 20
188.221
 30
0.0
 11
158.225
 21
188.221
 31
0.0
  0
LINE
  5
396
100
AcDbEntity
  8
0
100
AcDbLine
 62
     0
 10
158.225
 20
188.221
 30
0.0
 11
158.225
 21
198.218
 31
0.0
  0
LINE
  5
397
100
AcDbEntity
  8
0
100
AcDbLine
 62
     0
 10
158.225
 20
198.218
 30
0.0
 11
161.225
 21
198.218
 31
0.0
  0
LINE
  5
398
100
AcDbEntity
  8
0
100
AcDbLine
 62
     0
 10
161.225
 20
198.218
 30
0.0
 11
161.225
 21
206.218
 31
0.0
  0
LINE
  5
399
100
AcDbEntity
  8
0
100
AcDbLine
 62
     0
 10
161.225
 20
206.218
 30
0.0
 11
158.225
 21
206.218
 31
0.0
  0
LINE
  5
39a
100
AcDbEntity
  8
0
100
AcDbLine
 62
     0
 10
158.225
 20
206.218
 30
0.0
 11
158.225
 21
216.216
 31
0.0
  0
LINE
  5
39b
100
AcDbEntity
  8
0
100
AcDbLine
 62
     0
 10
158.225
 20
216.216
 30
0.0
 11
161.225
 21
216.216
 31
0.0
  0
LINE
  5
39c
100
AcDbEntity
  8
0
100
AcDbLine
 62
     0
 10
161.225
 20
216.216
 30
0.0
 11
161.225
 21
224.215
 31
0.0
  0
LINE
  5
39d
100
AcDbEntity
  8
0
100
AcDbLine
 62
     0
 10
161.225
 20
224.215
 30
0.0
 11
158.225
 21
224.215
 31
0.0
  0
LINE
  5
39e
100
AcDbEntity
  8
0
100
AcDbLine
 62
     0
 10
158.225
 20
224.215
 30
0.0
 11
158.225
 21
234.213
 31
0.0
  0
LINE
  5
39f
100
AcDbEntity
  8
0
100
AcDbLine
 62
     0
 10
158.225
 20
234.213
 30
0.0
 11
161.225
 21
234.213
 31
0.0
  0
LINE
  5
3a0
100
AcDbEntity
  8
0
100
AcDbLine
 62
     0
 10
161.225
 20
234.213
 30
0.0
 11
161.225
 21
242.212
 31
0.0
  0
LINE
  5
3a1
100
AcDbEntity
  8
0
100
AcDbLine
 62
     0
 10
161.225
 20
242.212
 30
0.0
 11
81.2366
 21
242.212
 31
0.0
  0
LINE
  5
3a2
100
AcDbEntity
  8
0
100
AcDbLine
 62
     0
 10
81.2366
 20
242.212
 30
0.0
 11
81.2366
 21
234.213
 31
0.0
  0
LINE
  5
3a3
100
AcDbEntity
  8
0
100
AcDbLine
 62
     0
 10
81.2366
 20
234.213
 30
0.0
 11
84.2366
 21
234.213
 31
0.0
  0
LINE
  5
3a4
100
AcDbEntity
  8
0
100
AcDbLine
 62
     0
 10
84.2366
 20
234.213
 30
0.0
 11
84.2366
 21
224.215
 31
0.0
  0
LINE
  5
3a5
100
AcDbEntity
  8
0
100
AcDbLine
 62
     0
 10
84.2366
 20
224.215
 30
0.0
 11
81.2366
 21
224.215
 31
0.0
  0
LINE
  5
3a6
100
AcDbEntity
  8
0
100
AcDbLine
 62
     0
 10
81.2366
 20
224.215
 30
0.0
 11
81.2366
 21
216.216
 31
0.0
  0
LINE
  5
3a7
100
AcDbEntity
  8
0
100
AcDbLine
 62
     0
 10
81.2366
 20
216.216
 30
0.0
 11
84.2366
 21
216.216
 31
0.0
  0
LINE
  5
3a8
100
AcDbEntity
  8
0
100
AcDbLine
 62
     0
 10
84.2366
 20
216.216
 30
0.0
 11
84.2366
 21
206.218
 31
0.0
  0
LINE
  5
3a9
100
AcDbEntity
  8
0
100
AcDbLine
 62
     0
 10
84.2366
 20
206.218
 30
0.0
 11
81.2366
 21
206.218
 31
0.0
  0
LINE
  5
3aa
100
AcDbEntity
  8
0
100
AcDbLine
 62
     0
 10
81.2366
 20
206.218
 30
0.0
 11
81.2366
 21
198.218
 31
0.0
  0
LINE
  5
3ab
100
AcDbEntity
  8
0
100
AcDbLine
 62
     0
 10
81.2366
 20
198.218
 30
0.0
 11
84.2366
 21
198.218
 31
0.0
  0
LINE
  5
3ac
100
AcDbEntity
  8
0
100
AcDbLine
 62
     0
 10
84.2366
 20
198.218
 30
0.0
 11
84.2366
 21
188.221
 31
0.0
  0
LINE
  5
3ad
100
AcDbEntity
  8
0
100
AcDbLine
 62
     0
 10
84.2366
 20
188.221
 30
0.0
 11
81.2366
 21
188.221
 31
0.0
  0
LINE
  5
3ae
100
AcDbEntity
  8
0
100
AcDbLine
 62
     0
 10
81.2366
 20
188.221
 30
0.0
 11
81.2366
 21
180.221
 31
0.0
  0
LINE
  5
3af
100
AcDbEntity
  8
0
100
AcDbLine
 62
     0
 10
81.2366
 20
180.221
 30
0.0
 11
84.2366
 21
180.221
 31
0.0
  0
LINE
  5
3b0
100
AcDbEntity
  8
0
100
AcDbLine
 62
     0
 10
84.2366
 20
180.221
 30
0.0
 11
84.2366
 21
170.223
 31
0.0
  0
LINE
  5
3b1
100
AcDbEntity
  8
0
100
AcDbLine
 62
     0
 10
84.2366
 20
170.223
 30
0.0
 11
81.2366
 21
170.223
 31
0.0
  0
LINE
  5
3b2
100
AcDbEntity
  8
0
100
AcDbLine
 62
     0
 10
81.2366
 20
170.223
 30
0.0
 11
81.2366
 21
162.224
 31
0.0
  0
LINE
  5
3b3
100
AcDbEntity
  8
0
100
AcDbLine
 62
     0
 10
81.2366
 20
162.224
 30
0.0
 11
90.2353
 21
162.224
 31
0.0
  0
LINE
  5
3b4
100
AcDbEntity
  8
0
100
AcDbLine
 62
     0
 10
90.2353
 20
162.224
 30
0.0
 11
90.2628
 21
162.602
 31
0.0
  0
LINE
  5
3b5
100
AcDbEntity
  8
0
100
AcDbLine
 62
     0
 10
89.2362
 20
174.222
 30
0.0
 11
89.2362
 21
177.223
 31
0.0
  0
LINE
  5
3b6
100
AcDbEntity
  8
0
100
AcDbLine
 62
     0
 10
89.2362
 20
177.223
 30
0.0
 11
99.2339
 21
177.223
 31
0.0
  0
LINE
  5
3b7
100
AcDbEntity
  8
0
100
AcDbLine
 62
     0
 10
99.2339
 20
177.223
 30
0.0
 11
99.2339
 21
174.222
 31
0.0
  0
LINE
  5
3b8
100
AcDbEntity
  8
0
100
AcDbLine
 62
     0
 10
99.2339
 20
174.222
 30
0.0
 11
89.2362
 21
174.222
 31
0.0
  0
LINE
  5
3b9
100
AcDbEntity
  8
0
100
AcDbLine
 62
     0
 10
125.23
 20
174.222
 30
0.0
 11
125.23
 21
177.223
 31
0.0
  0
LINE
  5
3ba
100
AcDbEntity
  8
0
100
AcDbLine
 62
     0
 10
125.23
 20
177.223
 30
0.0
 11
135.228
 21
177.223
 31
0.0
  0
LINE
  5
3bb
100
AcDbEntity
  8
0
100
AcDbLine
 62
     0
 10
135.228
 20
177.223
 30
0.0
 11
135.228
 21
174.222
 31
0.0
  0
LINE
  5
3bc
100
AcDbEntity
  8
0
100
AcDbLine
 62
     0
 10
135.228
 20
174.222
 30
0.0
 11
125.23
 21
174.222
 31
0.0
  0
LINE
  5
3bd
100
AcDbEntity
  8
0
100
AcDbLine
 62
     0
 10
107.234
 20
174.222
 30
0.0
 11
107.234
 21
177.223
 31
0.0
  0
LINE
  5
3be
100
AcDbEntity
  8
0
100
AcDbLine
 62
     0
 10
107.234
 20
177.223
 30
0.0
 11
117.231
 21
177.223
 31
0.0
  0
LINE
  5
3bf
100
AcDbEntity
  8
0
100
AcDbLine
 62
     0
 10
117.231
 20
177.223
 30
0.0
 11
117.231
 21
174.222
 31
0.0
  0
LINE
  5
3c0
100
AcDbEntity
  8
0
100
AcDbLine
 62
     0
 10
117.231
 20
174.222
 30
0.0
 11
107.234
 21
174.222
 31
0.0
  0
LINE
  5
3c1
100
AcDbEntity
  8
0
100
AcDbLine
 62
     0
 10
143.228
 20
174.222
 30
0.0
 11
143.228
 21
177.223
 31
0.0
  0
LINE
  5
3c2
100
AcDbEntity
  8
0
100
AcDbLine
 62
     0
 10
143.228
 20
177.223
 30
0.0
 11
153.225
 21
177.223
 31
0.0
  0
LINE
  5
3c3
100
AcDbEntity
  8
0
100
AcDbLine
 62
     0
 10
153.225
 20
177.223
 30
0.0
 11
153.225
 21
174.222
 31
0.0
  0
LINE
  5
3c4
100
AcDbEntity
  8
0
100
AcDbLine
 62
     0
 10
153.225
 20
174.222
 30
0.0
 11
143.228
 21
174.222
 31
0.0
  0
LINE
  5
3c5
100
AcDbEntity
  8
0
100
AcDbLine
 62
     0
 10
180.221
 20
84.2366
 30
0.0
 11
188.221
 21
84.2366
 31
0.0
  0
LINE
  5
3c6
100
AcDbEntity
  8
0
100
AcDbLine
 62
     0
 10
188.221
 20
84.2366
 30
0.0
 11
188.221
 21
81.2366
 31
0.0
  0
LINE
  5
3c7
100
AcDbEntity
  8
0
100
AcDbLine
 62
     0
 10
188.221
 20
81.2366
 30
0.0
 11
198.218
 21
81.2366
 31
0.0
  0
LINE
  5
3c8
100
AcDbEntity
  8
0
100
AcDbLine
 62
     0
 10
198.218
 20
81.2366
 30
0.0
 11
198.218
 21
84.2366
 31
0.0
  0
LINE
  5
3c9
100
AcDbEntity
  8
0
100
AcDbLine
 62
     0
 10
198.218
 20
84.2366
 30
0.0
 11
206.218
 21
84.2366
 31
0.0
  0
LINE
  5
3ca
100
AcDbEntity
  8
0
100
AcDbLine
 62
     0
 10
206.218
 20
84.2366
 30
0.0
 11
206.218
 21
81.2366
 31
0.0
  0
LINE
  5
3cb
100
AcDbEntity
  8
0
100
AcDbLine
 62
     0
 10
206.218
 20
81.2366
 30
0.0
 11
216.216
 21
81.2366
 31
0.0
  0
LINE
  5
3cc
100
AcDbEntity
  8
0
100
AcDbLine
 62
     0
 10
216.216
 20
81.2366
 30
0.0
 11
216.216
 21
84.2366
 31
0.0
  0
LINE
  5
3cd
100
AcDbEntity
  8
0
100
AcDbLine
 62
     0
 10
216.216
 20
84.2366
 30
0.0
 11
224.215
 21
84.2366
 31
0.0
  0
LINE
  5
3ce
100
AcDbEntity
  8
0
100
AcDbLine
 62
     0
 10
224.215
 20
84.2366
 30
0.0
 11
224.215
 21
81.2366
 31
0.0
  0
LINE
  5
3cf
100
AcDbEntity
  8
0
100
AcDbLine
 62
     0
 10
224.215
 20
81.2366
 30
0.0
 11
234.213
 21
81.2366
 31
0.0
  0
LINE
  5
3d0
100
AcDbEntity
  8
0
100
AcDbLine
 62
     0
 10
234.213
 20
81.2366
 30
0.0
 11
234.213
 21
84.2366
 31
0.0
  0
LINE
  5
3d1
100
AcDbEntity
  8
0
100
AcDbLine
 62
     0
 10
234.213
 20
84.2366
 30
0.0
 11
242.212
 21
84.2366
 31
0.0
  0
LINE
  5
3d2
100
AcDbEntity
  8
0
100
AcDbLine
 62
     0
 10
242.212
 20
84.2366
 30
0.0
 11
242.212
 21
158.225
 31
0.0
  0
LINE
  5
3d3
100
AcDbEntity
  8
0
100
AcDbLine
 62
     0
 10
242.212
 20
158.225
 30
0.0
 11
234.213
 21
158.225
 31
0.0
  0
LINE
  5
3d4
100
AcDbEntity
  8
0
100
AcDbLine
 62
     0
 10
234.213
 20
158.225
 30
0.0
 11
234.213
 21
161.225
 31
0.0
  0
LINE
  5
3d5
100
AcDbEntity
  8
0
100
AcDbLine
 62
     0
 10
234.213
 20
161.225
 30
0.0
 11
224.215
 21
161.225
 31
0.0
  0
LINE
  5
3d6
100
AcDbEntity
  8
0
100
AcDbLine
 62
     0
 10
224.215
 20
161.225
 30
0.0
 11
224.215
 21
158.225
 31
0.0
  0
LINE
  5
3d7
100
AcDbEntity
  8
0
100
AcDbLine
 62
     0
 10
224.215
 20
158.225
 30
0.0
 11
216.216
 21
158.225
 31
0.0
  0
LINE
  5
3d8
100
AcDbEntity
  8
0
100
AcDbLine
 62
     0
 10
216.216
 20
158.225
 30
0.0
 11
216.216
 21
161.225
 31
0.0
  0
LINE
  5
3d9
100
AcDbEntity
  8
0
100
AcDbLine
 62
     0
 10
216.216
 20
161.225
 30
0.0
 11
206.218
 21
161.225
 31
0.0
  0
LINE
  5
3da
100
AcDbEntity
  8
0
100
AcDbLine
 62
     0
 10
206.218
 20
161.225
 30
0.0
 11
206.218
 21
158.225
 31
0.0
  0
LINE
  5
3db
100
AcDbEntity
  8
0
100
AcDbLine
 62
     0
 10
206.218
 20
158.225
 30
0.0
 11
198.218
 21
158.225
 31
0.0
  0
LINE
  5
3dc
100
AcDbEntity
  8
0
100
AcDbLine
 62
     0
 10
198.218
 20
158.225
 30
0.0
 11
198.218
 21
161.225
 31
0.0
  0
LINE
  5
3dd
100
AcDbEntity
  8
0
100
AcDbLine
 62
     0
 10
198.218
 20
161.225
 30
0.0
 11
188.221
 21
161.225
 31
0.0
  0
LINE
  5
3de
100
AcDbEntity
  8
0
100
AcDbLine
 62
     0
 10
188.221
 20
161.225
 30
0.0
 11
188.221
 21
158.225
 31
0.0
  0
LINE
  5
3df
100
AcDbEntity
  8
0
100
AcDbLine
 62
     0
 10
188.221
 20
158.225
 30
0.0
 11
180.221
 21
158.225
 31
0.0
  0
LINE
  5
3e0
100
AcDbEntity
  8
0
100
AcDbLine
 62
     0
 10
180.221
 20
158.225
 30
0.0
 11
180.221
 21
161.225
 31
0.0
  0
LINE
  5
3e1
100
AcDbEntity
  8
0
100
AcDbLine
 62
     0
 10
180.221
 20
161.225
 30
0.0
 11
170.223
 21
161.225
 31
0.0
  0
LINE
  5
3e2
100
AcDbEntity
  8
0
100
AcDbLine
 62
     0
 10
170.223
 20
161.225
 30
0.0
 11
170.223
 21
158.225
 31
0.0
  0
LINE
  5
3e3
100
AcDbEntity
  8
0
100
AcDbLine
 62
     0
 10
170.223
 20
158.225
 30
0.0
 11
162.224
 21
158.225
 31
0.0
  0
LINE
  5
3e4
100
AcDbEntity
  8
0
100
AcDbLine
 62
     0
 10
162.224
 20
158.225
 30
0.0
 11
162.224
 21
152.226
 31
0.0
  0
LINE
  5
3e5
100
AcDbEntity
  8
0
100
AcDbLine
 62
     0
 10
162.224
 20
152.226
 30
0.0
 11
162.413
 21
152.226
 31
0.0
  0
LINE
  5
3e6
100
AcDbEntity
  8
0
100
AcDbLine
 62
     0
 10
162.413
 20
152.226
 30
0.0
 11
162.789
 21
152.171
 31
0.0
  0
LINE
  5
3e7
100
AcDbEntity
  8
0
100
AcDbLine
 62
     0
 10
162.789
 20
152.171
 30
0.0
 11
163.165
 21
152.062
 31
0.0
  0
LINE
  5
3e8
100
AcDbEntity
  8
0
100
AcDbLine
 62
     0
 10
163.165
 20
152.062
 30
0.0
 11
163.539
 21
151.9
 31
0.0
  0
LINE
  5
3e9
100
AcDbEntity
  8
0
100
AcDbLine
 62
     0
 10
163.539
 20
151.9
 30
0.0
 11
163.911
 21
151.684
 31
0.0
  0
LINE
  5
3ea
100
AcDbEntity
  8
0
100
AcDbLine
 62
     0
 10
163.911
 20
151.684
 30
0.0
 11
164.279
 21
151.413
 31
0.0
  0
LINE
  5
3eb
100
AcDbEntity
  8
0
100
AcDbLine
 62
     0
 10
164.279
 20
151.413
 30
0.0
 11
164.644
 21
151.091
 31
0.0
  0
LINE
  5
3ec
100
AcDbEntity
  8
0
100
AcDbLine
 62
     0
 10
164.644
 20
151.091
 30
0.0
 11
165.005
 21
150.715
 31
0.0
  0
LINE
  5
3ed
100
AcDbEntity
  8
0
100
AcDbLine
 62
     0
 10
165.005
 20
150.715
 30
0.0
 11
165.36
 21
150.289
 31
0.0
  0
LINE
  5
3ee
100
AcDbEntity
  8
0
100
AcDbLine
 62
     0
 10
165.36
 20
150.289
 30
0.0
 11
165.712
 21
149.811
 31
0.0
  0
LINE
  5
3ef
100
AcDbEntity
  8
0
100
AcDbLine
 62
     0
 10
165.712
 20
149.811
 30
0.0
 11
166.056
 21
149.281
 31
0.0
  0
LINE
  5
3f0
100
AcDbEntity
  8
0
100
AcDbLine
 62
     0
 10
166.056
 20
149.281
 30
0.0
 11
166.394
 21
148.704
 31
0.0
  0
LINE
  5
3f1
100
AcDbEntity
  8
0
100
AcDbLine
 62
     0
 10
166.394
 20
148.704
 30
0.0
 11
166.723
 21
148.08
 31
0.0
  0
LINE
  5
3f2
100
AcDbEntity
  8
0
100
AcDbLine
 62
     0
 10
166.723
 20
148.08
 30
0.0
 11
167.046
 21
147.406
 31
0.0
  0
LINE
  5
3f3
100
AcDbEntity
  8
0
100
AcDbLine
 62
     0
 10
167.046
 20
147.406
 30
0.0
 11
167.36
 21
146.688
 31
0.0
  0
LINE
  5
3f4
100
AcDbEntity
  8
0
100
AcDbLine
 62
     0
 10
167.36
 20
146.688
 30
0.0
 11
167.665
 21
145.925
 31
0.0
  0
LINE
  5
3f5
100
AcDbEntity
  8
0
100
AcDbLine
 62
     0
 10
167.665
 20
145.925
 30
0.0
 11
167.961
 21
145.118
 31
0.0
  0
LINE
  5
3f6
100
AcDbEntity
  8
0
100
AcDbLine
 62
     0
 10
167.961
 20
145.118
 30
0.0
 11
168.246
 21
144.27
 31
0.0
  0
LINE
  5
3f7
100
AcDbEntity
  8
0
100
AcDbLine
 62
     0
 10
168.246
 20
144.27
 30
0.0
 11
168.52
 21
143.381
 31
0.0
  0
LINE
  5
3f8
100
AcDbEntity
  8
0
100
AcDbLine
 62
     0
 10
168.52
 20
143.381
 30
0.0
 11
168.783
 21
142.453
 31
0.0
  0
LINE
  5
3f9
100
AcDbEntity
  8
0
100
AcDbLine
 62
     0
 10
168.783
 20
142.453
 30
0.0
 11
169.036
 21
141.489
 31
0.0
  0
LINE
  5
3fa
100
AcDbEntity
  8
0
100
AcDbLine
 62
     0
 10
169.036
 20
141.489
 30
0.0
 11
169.277
 21
140.487
 31
0.0
  0
LINE
  5
3fb
100
AcDbEntity
  8
0
100
AcDbLine
 62
     0
 10
169.277
 20
140.487
 30
0.0
 11
169.504
 21
139.453
 31
0.0
  0
LINE
  5
3fc
100
AcDbEntity
  8
0
100
AcDbLine
 62
     0
 10
169.504
 20
139.453
 30
0.0
 11
169.719
 21
138.387
 31
0.0
  0
LINE
  5
3fd
100
AcDbEntity
  8
0
100
AcDbLine
 62
     0
 10
169.719
 20
138.387
 30
0.0
 11
169.922
 21
137.291
 31
0.0
  0
LINE
  5
3fe
100
AcDbEntity
  8
0
100
AcDbLine
 62
     0
 10
169.922
 20
137.291
 30
0.0
 11
170.111
 21
136.167
 31
0.0
  0
LINE
  5
3ff
100
AcDbEntity
  8
0
100
AcDbLine
 62
     0
 10
170.111
 20
136.167
 30
0.0
 11
170.284
 21
135.015
 31
0.0
  0
LINE
  5
400
100
AcDbEntity
  8
0
100
AcDbLine
 62
     0
 10
170.284
 20
135.015
 30
0.0
 11
170.445
 21
133.841
 31
0.0
  0
LINE
  5
401
100
AcDbEntity
  8
0
100
AcDbLine
 62
     0
 10
170.445
 20
133.841
 30
0.0
 11
170.591
 21
132.643
 31
0.0
  0
LINE
  5
402
100
AcDbEntity
  8
0
100
AcDbLine
 62
     0
 10
170.591
 20
132.643
 30
0.0
 11
170.723
 21
131.426
 31
0.0
  0
LINE
  5
403
100
AcDbEntity
  8
0
100
AcDbLine
 62
     0
 10
170.723
 20
131.426
 30
0.0
 11
170.84
 21
130.192
 31
0.0
  0
LINE
  5
404
100
AcDbEntity
  8
0
100
AcDbLine
 62
     0
 10
170.84
 20
130.192
 30
0.0
 11
170.94
 21
128.94
 31
0.0
  0
LINE
  5
405
100
AcDbEntity
  8
0
100
AcDbLine
 62
     0
 10
170.94
 20
128.94
 30
0.0
 11
171.027
 21
127.677
 31
0.0
  0
LINE
  5
406
100
AcDbEntity
  8
0
100
AcDbLine
 62
     0
 10
171.027
 20
127.677
 30
0.0
 11
171.097
 21
126.401
 31
0.0
  0
LINE
  5
407
100
AcDbEntity
  8
0
100
AcDbLine
 62
     0
 10
171.097
 20
126.401
 30
0.0
 11
171.152
 21
125.116
 31
0.0
  0
LINE
  5
408
100
AcDbEntity
  8
0
100
AcDbLine
 62
     0
 10
171.152
 20
125.116
 30
0.0
 11
171.191
 21
123.825
 31
0.0
  0
LINE
  5
409
100
AcDbEntity
  8
0
100
AcDbLine
 62
     0
 10
171.191
 20
123.825
 30
0.0
 11
171.216
 21
122.53
 31
0.0
  0
LINE
  5
40a
100
AcDbEntity
  8
0
100
AcDbLine
 62
     0
 10
171.216
 20
122.53
 30
0.0
 11
171.222
 21
121.23
 31
0.0
  0
LINE
  5
40b
100
AcDbEntity
  8
0
100
AcDbLine
 62
     0
 10
171.222
 20
121.23
 30
0.0
 11
171.216
 21
119.932
 31
0.0
  0
LINE
  5
40c
100
AcDbEntity
  8
0
100
AcDbLine
 62
     0
 10
171.216
 20
119.932
 30
0.0
 11
171.191
 21
118.637
 31
0.0
  0
LINE
  5
40d
100
AcDbEntity
  8
0
100
AcDbLine
 62
     0
 10
171.191
 20
118.637
 30
0.0
 11
171.152
 21
117.346
 31
0.0
  0
LINE
  5
40e
100
AcDbEntity
  8
0
100
AcDbLine
 62
     0
 10
171.152
 20
117.346
 30
0.0
 11
171.097
 21
116.061
 31
0.0
  0
LINE
  5
40f
100
AcDbEntity
  8
0
100
AcDbLine
 62
     0
 10
171.097
 20
116.061
 30
0.0
 11
171.027
 21
114.785
 31
0.0
  0
LINE
  5
410
100
AcDbEntity
  8
0
100
AcDbLine
 62
     0
 10
171.027
 20
114.785
 30
0.0
 11
170.94
 21
113.521
 31
0.0
  0
LINE
  5
411
100
AcDbEntity
  8
0
100
AcDbLine
 62
     0
 10
170.94
 20
113.521
 30
0.0
 11
170.84
 21
112.27
 31
0.0
  0
LINE
  5
412
100
AcDbEntity
  8
0
100
AcDbLine
 62
     0
 10
170.84
 20
112.27
 30
0.0
 11
170.723
 21
111.035
 31
0.0
  0
LINE
  5
413
100
AcDbEntity
  8
0
100
AcDbLine
 62
     0
 10
170.723
 20
111.035
 30
0.0
 11
170.591
 21
109.819
 31
0.0
  0
LINE
  5
414
100
AcDbEntity
  8
0
100
AcDbLine
 62
     0
 10
170.591
 20
109.819
 30
0.0
 11
170.445
 21
108.621
 31
0.0
  0
LINE
  5
415
100
AcDbEntity
  8
0
100
AcDbLine
 62
     0
 10
170.445
 20
108.621
 30
0.0
 11
170.284
 21
107.446
 31
0.0
  0
LINE
  5
416
100
AcDbEntity
  8
0
100
AcDbLine
 62
     0
 10
170.284
 20
107.446
 30
0.0
 11
170.111
 21
106.295
 31
0.0
  0
LINE
  5
417
100
AcDbEntity
  8
0
100
AcDbLine
 62
     0
 10
170.111
 20
106.295
 30
0.0
 11
169.922
 21
105.17
 31
0.0
  0
LINE
  5
418
100
AcDbEntity
  8
0
100
AcDbLine
 62
     0
 10
169.922
 20
105.17
 30
0.0
 11
169.719
 21
104.075
 31
0.0
  0
LINE
  5
419
100
AcDbEntity
  8
0
100
AcDbLine
 62
     0
 10
169.719
 20
104.075
 30
0.0
 11
169.504
 21
103.008
 31
0.0
  0
LINE
  5
41a
100
AcDbEntity
  8
0
100
AcDbLine
 62
     0
 10
169.504
 20
103.008
 30
0.0
 11
169.277
 21
101.974
 31
0.0
  0
LINE
  5
41b
100
AcDbEntity
  8
0
100
AcDbLine
 62
     0
 10
169.277
 20
101.974
 30
0.0
 11
169.036
 21
100.973
 31
0.0
  0
LINE
  5
41c
100
AcDbEntity
  8
0
100
AcDbLine
 62
     0
 10
169.036
 20
100.973
 30
0.0
 11
168.783
 21
100.008
 31
0.0
  0
LINE
  5
41d
100
AcDbEntity
  8
0
100
AcDbLine
 62
     0
 10
168.783
 20
100.008
 30
0.0
 11
168.52
 21
99.0808
 31
0.0
  0
LINE
  5
41e
100
AcDbEntity
  8
0
100
AcDbLine
 62
     0
 10
168.52
 20
99.0808
 30
0.0
 11
168.246
 21
98.1922
 31
0.0
  0
LINE
  5
41f
100
AcDbEntity
  8
0
100
AcDbLine
 62
     0
 10
168.246
 20
98.1922
 30
0.0
 11
167.961
 21
97.3434
 31
0.0
  0
LINE
  5
420
100
AcDbEntity
  8
0
100
AcDbLine
 62
     0
 10
167.961
 20
97.3434
 30
0.0
 11
167.665
 21
96.5369
 31
0.0
  0
LINE
  5
421
100
AcDbEntity
  8
0
100
AcDbLine
 62
     0
 10
167.665
 20
96.5369
 30
0.0
 11
167.36
 21
95.7735
 31
0.0
  0
LINE
  5
422
100
AcDbEntity
  8
0
100
AcDbLine
 62
     0
 10
167.36
 20
95.7735
 30
0.0
 11
167.046
 21
95.0542
 31
0.0
  0
LINE
  5
423
100
AcDbEntity
  8
0
100
AcDbLine
 62
     0
 10
167.046
 20
95.0542
 30
0.0
 11
166.723
 21
94.3818
 31
0.0
  0
LINE
  5
424
100
AcDbEntity
  8
0
100
AcDbLine
 62
     0
 10
166.723
 20
94.3818
 30
0.0
 11
166.394
 21
93.7563
 31
0.0
  0
LINE
  5
425
100
AcDbEntity
  8
0
100
AcDbLine
 62
     0
 10
166.394
 20
93.7563
 30
0.0
 11
166.056
 21
93.1788
 31
0.0
  0
LINE
  5
426
100
AcDbEntity
  8
0
100
AcDbLine
 62
     0
 10
166.056
 20
93.1788
 30
0.0
 11
165.712
 21
92.6511
 31
0.0
  0
LINE
  5
427
100
AcDbEntity
  8
0
100
AcDbLine
 62
     0
 10
165.712
 20
92.6511
 30
0.0
 11
165.36
 21
92.1727
 31
0.0
  0
LINE
  5
428
100
AcDbEntity
  8
0
100
AcDbLine
 62
     0
 10
165.36
 20
92.1727
 30
0.0
 11
165.005
 21
91.7455
 31
0.0
  0
LINE
  5
429
100
AcDbEntity
  8
0
100
AcDbLine
 62
     0
 10
165.005
 20
91.7455
 30
0.0
 11
164.644
 21
91.3709
 31
0.0
  0
LINE
  5
42a
100
AcDbEntity
  8
0
100
AcDbLine
 62
     0
 10
164.644
 20
91.3709
 30
0.0
 11
164.279
 21
91.0484
 31
0.0
  0
LINE
  5
42b
100
AcDbEntity
  8
0
100
AcDbLine
 62
     0
 10
164.279
 20
91.0484
 30
0.0
 11
163.911
 21
90.7782
 31
0.0
  0
LINE
  5
42c
100
AcDbEntity
  8
0
100
AcDbLine
 62
     0
 10
163.911
 20
90.7782
 30
0.0
 11
163.539
 21
90.5619
 31
0.0
  0
LINE
  5
42d
100
AcDbEntity
  8
0
100
AcDbLine
 62
     0
 10
163.539
 20
90.5619
 30
0.0
 11
163.165
 21
90.3993
 31
0.0
  0
LINE
  5
42e
100
AcDbEntity
  8
0
100
AcDbLine
 62
     0
 10
163.165
 20
90.3993
 30
0.0
 11
162.789
 21
90.2903
 31
0.0
  0
LINE
  5
42f
100
AcDbEntity
  8
0
100
AcDbLine
 62
     0
 10
162.789
 20
90.2903
 30
0.0
 11
162.413
 21
90.2353
 31
0.0
  0
LINE
  5
430
100
AcDbEntity
  8
0
100
AcDbLine
 62
     0
 10
162.413
 20
90.2353
 30
0.0
 11
162.224
 21
90.2353
 31
0.0
  0
LINE
  5
431
100
AcDbEntity
  8
0
100
AcDbLine
 62
     0
 10
162.224
 20
90.2353
 30
0.0
 11
162.224
 21
84.2366
 31
0.0
  0
LINE
  5
432
100
AcDbEntity
  8
0
100
AcDbLine
 62
     0
 10
162.224
 20
84.2366
 30
0.0
 11
170.223
 21
84.2366
 31
0.0
  0
LINE
  5
433
100
AcDbEntity
  8
0
100
AcDbLine
 62
     0
 10
170.223
 20
84.2366
 30
0.0
 11
170.223
 21
81.2366
 31
0.0
  0
LINE
  5
434
100
AcDbEntity
  8
0
100
AcDbLine
 62
     0
 10
170.223
 20
81.2366
 30
0.0
 11
180.221
 21
81.2366
 31
0.0
  0
LINE
  5
435
100
AcDbEntity
  8
0
100
AcDbLine
 62
     0
 10
180.221
 20
81.2366
 30
0.0
 11
180.221
 21
84.2366
 31
0.0
  0
LINE
  5
436
100
AcDbEntity
  8
0
100
AcDbLine
 62
     0
 10
174.222
 20
143.228
 30
0.0
 11
174.222
 21
153.225
 31
0.0
  0
LINE
  5
437
100
AcDbEntity
  8
0
100
AcDbLine
 62
     0
 10
174.222
 20
153.225
 30
0.0
 11
177.223
 21
153.225
 31
0.0
  0
LINE
  5
438
100
AcDbEntity
  8
0
100
AcDbLine
 62
     0
 10
177.223
 20
153.225
 30
0.0
 11
177.223
 21
143.228
 31
0.0
  0
LINE
  5
439
100
AcDbEntity
  8
0
100
AcDbLine
 62
     0
 10
177.223
 20
143.228
 30
0.0
 11
174.222
 21
143.228
 31
0.0
  0
LINE
  5
43a
100
AcDbEntity
  8
0
100
AcDbLine
 62
     0
 10
174.222
 20
125.23
 30
0.0
 11
174.222
 21
135.228
 31
0.0
  0
LINE
  5
43b
100
AcDbEntity
  8
0
100
AcDbLine
 62
     0
 10
174.222
 20
135.228
 30
0.0
 11
177.223
 21
135.228
 31
0.0
  0
LINE
  5
43c
100
AcDbEntity
  8
0
100
AcDbLine
 62
     0
 10
177.223
 20
135.228
 30
0.0
 11
177.223
 21
125.23
 31
0.0
  0
LINE
  5
43d
100
AcDbEntity
  8
0
100
AcDbLine
 62
     0
 10
177.223
 20
125.23
 30
0.0
 11
174.222
 21
125.23
 31
0.0
  0
LINE
  5
43e
100
AcDbEntity
  8
0
100
AcDbLine
 62
     0
 10
174.222
 20
107.234
 30
0.0
 11
174.222
 21
117.231
 31
0.0
  0
LINE
  5
43f
100
AcDbEntity
  8
0
100
AcDbLine
 62
     0
 10
174.222
 20
117.231
 30
0.0
 11
177.223
 21
117.231
 31
0.0
  0
LINE
  5
440
100
AcDbEntity
  8
0
100
AcDbLine
 62
     0
 10
177.223
 20
117.231
 30
0.0
 11
177.223
 21
107.234
 31
0.0
  0
LINE
  5
441
100
AcDbEntity
  8
0
100
AcDbLine
 62
     0
 10
177.223
 20
107.234
 30
0.0
 11
174.222
 21
107.234
 31
0.0
  0
LINE
  5
442
100
AcDbEntity
  8
0
100
AcDbLine
 62
     0
 10
174.222
 20
89.2362
 30
0.0
 11
174.222
 21
99.2339
 31
0.0
  0
LINE
  5
443
100
AcDbEntity
  8
0
100
AcDbLine
 62
     0
 10
174.222
 20
99.2339
 30
0.0
 11
177.223
 21
99.2339
 31
0.0
  0
LINE
  5
444
100
AcDbEntity
  8
0
100
AcDbLine
 62
     0
 10
177.223
 20
99.2339
 30
0.0
 11
177.223
 21
89.2362
 31
0.0
  0
LINE
  5
445
100
AcDbEntity
  8
0
100
AcDbLine
 62
     0
 10
177.223
 20
89.2362
 30
0.0
 11
174.222
 21
89.2362
 31
0.0
  0
LINE
  5
446
100
AcDbEntity
  8
0
100
AcDbLine
 62
     0
 10
99.2339
 20
84.2366
 30
0.0
 11
107.234
 21
84.2366
 31
0.0
  0
LINE
  5
447
100
AcDbEntity
  8
0
100
AcDbLine
 62
     0
 10
107.234
 20
84.2366
 30
0.0
 11
107.234
 21
81.2366
 31
0.0
  0
LINE
  5
448
100
AcDbEntity
  8
0
100
AcDbLine
 62
     0
 10
107.234
 20
81.2366
 30
0.0
 11
117.231
 21
81.2366
 31
0.0
  0
LINE
  5
449
100
AcDbEntity
  8
0
100
AcDbLine
 62
     0
 10
117.231
 20
81.2366
 30
0.0
 11
117.231
 21
84.2366
 31
0.0
  0
LINE
  5
44a
100
AcDbEntity
  8
0
100
AcDbLine
 62
     0
 10
117.231
 20
84.2366
 30
0.0
 11
125.23
 21
84.2366
 31
0.0
  0
LINE
  5
44b
100
AcDbEntity
  8
0
100
AcDbLine
 62
     0
 10
125.23
 20
84.2366
 30
0.0
 11
125.23
 21
81.2366
 31
0.0
  0
LINE
  5
44c
100
AcDbEntity
  8
0
100
AcDbLine
 62
     0
 10
125.23
 20
81.2366
 30
0.0
 11
135.228
 21
81.2366
 31
0.0
  0
LINE
  5
44d
100
AcDbEntity
  8
0
100
AcDbLine
 62
     0
 10
135.228
 20
81.2366
 30
0.0
 11
135.228
 21
84.2366
 31
0.0
  0
LINE
  5
44e
100
AcDbEntity
  8
0
100
AcDbLine
 62
     0
 10
135.228
 20
84.2366
 30
0.0
 11
143.228
 21
84.2366
 31
0.0
  0
LINE
  5
44f
100
AcDbEntity
  8
0
100
AcDbLine
 62
     0
 10
143.228
 20
84.2366
 30
0.0
 11
143.228
 21
81.2366
 31
0.0
  0
LINE
  5
450
100
AcDbEntity
  8
0
100
AcDbLine
 62
     0
 10
143.228
 20
81.2366
 30
0.0
 11
153.225
 21
81.2366
 31
0.0
  0
LINE
  5
451
100
AcDbEntity
  8
0
100
AcDbLine
 62
     0
 10
153.225
 20
81.2366
 30
0.0
 11
153.225
 21
84.2366
 31
0.0
  0
LINE
  5
452
100
AcDbEntity
  8
0
100
AcDbLine
 62
     0
 10
153.225
 20
84.2366
 30
0.0
 11
158.225
 21
84.2366
 31
0.0
  0
LINE
  5
453
100
AcDbEntity
  8
0
100
AcDbLine
 62
     0
 10
158.225
 20
84.2366
 30
0.0
 11
158.225
 21
89.2362
 31
0.0
  0
LINE
  5
454
100
AcDbEntity
  8
0
100
AcDbLine
 62
     0
 10
158.225
 20
89.2362
 30
0.0
 11
161.225
 21
89.2362
 31
0.0
  0
LINE
  5
455
100
AcDbEntity
  8
0
100
AcDbLine
 62
     0
 10
161.225
 20
89.2362
 30
0.0
 11
161.225
 21
99.2339
 31
0.0
  0
LINE
  5
456
100
AcDbEntity
  8
0
100
AcDbLine
 62
     0
 10
161.225
 20
99.2339
 30
0.0
 11
158.225
 21
99.2339
 31
0.0
  0
LINE
  5
457
100
AcDbEntity
  8
0
100
AcDbLine
 62
     0
 10
158.225
 20
99.2339
 30
0.0
 11
158.225
 21
107.234
 31
0.0
  0
LINE
  5
458
100
AcDbEntity
  8
0
100
AcDbLine
 62
     0
 10
158.225
 20
107.234
 30
0.0
 11
161.225
 21
107.234
 31
0.0
  0
LINE
  5
459
100
AcDbEntity
  8
0
100
AcDbLine
 62
     0
 10
161.225
 20
107.234
 30
0.0
 11
161.225
 21
117.231
 31
0.0
  0
LINE
  5
45a
100
AcDbEntity
  8
0
100
AcDbLine
 62
     0
 10
161.225
 20
117.231
 30
0.0
 11
158.225
 21
117.231
 31
0.0
  0
LINE
  5
45b
100
AcDbEntity
  8
0
100
AcDbLine
 62
     0
 10
158.225
 20
117.231
 30
0.0
 11
158.225
 21
125.23
 31
0.0
  0
LINE
  5
45c
100
AcDbEntity
  8
0
100
AcDbLine
 62
     0
 10
158.225
 20
125.23
 30
0.0
 11
161.225
 21
125.23
 31
0.0
  0
LINE
  5
45d
100
AcDbEntity
  8
0
100
AcDbLine
 62
     0
 10
161.225
 20
125.23
 30
0.0
 11
161.225
 21
135.228
 31
0.0
  0
LINE
  5
45e
100
AcDbEntity
  8
0
100
AcDbLine
 62
     0
 10
161.225
 20
135.228
 30
0.0
 11
158.225
 21
135.228
 31
0.0
  0
LINE
  5
45f
100
AcDbEntity
  8
0
100
AcDbLine
 62
     0
 10
158.225
 20
135.228
 30
0.0
 11
158.225
 21
143.228
 31
0.0
  0
LINE
  5
460
100
AcDbEntity
  8
0
100
AcDbLine
 62
     0
 10
158.225
 20
143.228
 30
0.0
 11
161.225
 21
143.228
 31
0.0
  0
LINE
  5
461
100
AcDbEntity
  8
0
100
AcDbLine
 62
     0
 10
161.225
 20
143.228
 30
0.0
 11
161.225
 21
153.225
 31
0.0
  0
LINE
  5
462
100
AcDbEntity
  8
0
100
AcDbLine
 62
     0
 10
161.225
 20
153.225
 30
0.0
 11
158.225
 21
153.225
 31
0.0
  0
LINE
  5
463
100
AcDbEntity
  8
0
100
AcDbLine
 62
     0
 10
158.225
 20
153.225
 30
0.0
 11
158.225
 21
158.225
 31
0.0
  0
LINE
  5
464
100
AcDbEntity
  8
0
100
AcDbLine
 62
     0
 10
158.225
 20
158.225
 30
0.0
 11
153.225
 21
158.225
 31
0.0
  0
LINE
  5
465
100
AcDbEntity
  8
0
100
AcDbLine
 62
     0
 10
153.225
 20
158.225
 30
0.0
 11
153.225
 21
161.225
 31
0.0
  0
LINE
  5
466
100
AcDbEntity
  8
0
100
AcDbLine
 62
     0
 10
153.225
 20
161.225
 30
0.0
 11
143.228
 21
161.225
 31
0.0
  0
LINE
  5
467
100
AcDbEntity
  8
0
100
AcDbLine
 62
     0
 10
143.228
 20
161.225
 30
0.0
 11
143.228
 21
158.225
 31
0.0
  0
LINE
  5
468
100
AcDbEntity
  8
0
100
AcDbLine
 62
     0
 10
143.228
 20
158.225
 30
0.0
 11
135.228
 21
158.225
 31
0.0
  0
LINE
  5
469
100
AcDbEntity
  8
0
100
AcDbLine
 62
     0
 10
135.228
 20
158.225
 30
0.0
 11
135.228
 21
161.225
 31
0.0
  0
LINE
  5
46a
100
AcDbEntity
  8
0
100
AcDbLine
 62
     0
 10
135.228
 20
161.225
 30
0.0
 11
125.23
 21
161.225
 31
0.0
  0
LINE
  5
46b
100
AcDbEntity
  8
0
100
AcDbLine
 62
     0
 10
125.23
 20
161.225
 30
0.0
 11
125.23
 21
158.225
 31
0.0
  0
LINE
  5
46c
100
AcDbEntity
  8
0
100
AcDbLine
 62
     0
 10
125.23
 20
158.225
 30
0.0
 11
117.231
 21
158.225
 31
0.0
  0
LINE
  5
46d
100
AcDbEntity
  8
0
100
AcDbLine
 62
     0
 10
117.231
 20
158.225
 30
0.0
 11
117.231
 21
161.225
 31
0.0
  0
LINE
  5
46e
100
AcDbEntity
  8
0
100
AcDbLine
 62
     0
 10
117.231
 20
161.225
 30
0.0
 11
107.234
 21
161.225
 31
0.0
  0
LINE
  5
46f
100
AcDbEntity
  8
0
100
AcDbLine
 62
     0
 10
107.234
 20
161.225
 30
0.0
 11
107.234
 21
158.225
 31
0.0
  0
LINE
  5
470
100
AcDbEntity
  8
0
100
AcDbLine
 62
     0
 10
107.234
 20
158.225
 30
0.0
 11
99.2339
 21
158.225
 31
0.0
  0
LINE
  5
471
100
AcDbEntity
  8
0
100
AcDbLine
 62
     0
 10
99.2339
 20
158.225
 30
0.0
 11
99.2339
 21
161.225
 31
0.0
  0
LINE
  5
472
100
AcDbEntity
  8
0
100
AcDbLine
 62
     0
 10
99.2339
 20
161.225
 30
0.0
 11
89.2362
 21
161.225
 31
0.0
  0
LINE
  5
473
100
AcDbEntity
  8
0
100
AcDbLine
 62
     0
 10
89.2362
 20
161.225
 30
0.0
 11
89.2362
 21
158.225
 31
0.0
  0
LINE
  5
474
100
AcDbEntity
  8
0
100
AcDbLine
 62
     0
 10
89.2362
 20
158.225
 30
0.0
 11
84.2366
 21
158.225
 31
0.0
  0
LINE
  5
475
100
AcDbEntity
  8
0
100
AcDbLine
 62
     0
 10
84.2366
 20
158.225
 30
0.0
 11
84.2366
 21
153.225
 31
0.0
  0
LINE
  5
476
100
AcDbEntity
  8
0
100
AcDbLine
 62
     0
 10
84.2366
 20
153.225
 30
0.0
 11
81.2366
 21
153.225
 31
0.0
  0
LINE
  5
477
100
AcDbEntity
  8
0
100
AcDbLine
 62
     0
 10
81.2366
 20
153.225
 30
0.0
 11
81.2366
 21
143.228
 31
0.0
  0
LINE
  5
478
100
AcDbEntity
  8
0
100
AcDbLine
 62
     0
 10
81.2366
 20
143.228
 30
0.0
 11
84.2366
 21
143.228
 31
0.0
  0
LINE
  5
479
100
AcDbEntity
  8
0
100
AcDbLine
 62
     0
 10
84.2366
 20
143.228
 30
0.0
 11
84.2366
 21
135.228
 31
0.0
  0
LINE
  5
47a
100
AcDbEntity
  8
0
100
AcDbLine
 62
     0
 10
84.2366
 20
135.228
 30
0.0
 11
81.2366
 21
135.228
 31
0.0
  0
LINE
  5
47b
100
AcDbEntity
  8
0
100
AcDbLine
 62
     0
 10
81.2366
 20
135.228
 30
0.0
 11
81.2366
 21
125.23
 31
0.0
  0
LINE
  5
47c
100
AcDbEntity
  8
0
100
AcDbLine
 62
     0
 10
81.2366
 20
125.23
 30
0.0
 11
84.2366
 21
125.23
 31
0.0
  0
LINE
  5
47d
100
AcDbEntity
  8
0
100
AcDbLine
 62
     0
 10
84.2366
 20
125.23
 30
0.0
 11
84.2366
 21
117.231
 31
0.0
  0
LINE
  5
47e
100
AcDbEntity
  8
0
100
AcDbLine
 62
     0
 10
84.2366
 20
117.231
 30
0.0
 11
81.2366
 21
117.231
 31
0.0
  0
LINE
  5
47f
100
AcDbEntity
  8
0
100
AcDbLine
 62
     0
 10
81.2366
 20
117.231
 30
0.0
 11
81.2366
 21
107.234
 31
0.0
  0
LINE
  5
480
100
AcDbEntity
  8
0
100
AcDbLine
 62
     0
 10
81.2366
 20
107.234
 30
0.0
 11
84.2366
 21
107.234
 31
0.0
  0
LINE
  5
481
100
AcDbEntity
  8
0
100
AcDbLine
 62
     0
 10
84.2366
 20
107.234
 30
0.0
 11
84.2366
 21
99.2339
 31
0.0
  0
LINE
  5
482
100
AcDbEntity
  8
0
100
AcDbLine
 62
     0
 10
84.2366
 20
99.2339
 30
0.0
 11
81.2366
 21
99.2339
 31
0.0
  0
LINE
  5
483
100
AcDbEntity
  8
0
100
AcDbLine
 62
     0
 10
81.2366
 20
99.2339
 30
0.0
 11
81.2366
 21
89.2362
 31
0.0
  0
LINE
  5
484
100
AcDbEntity
  8
0
100
AcDbLine
 62
     0
 10
81.2366
 20
89.2362
 30
0.0
 11
84.2366
 21
89.2362
 31
0.0
  0
LINE
  5
485
100
AcDbEntity
  8
0
100
AcDbLine
 62
     0
 10
84.2366
 20
89.2362
 30
0.0
 11
84.2366
 21
84.2366
 31
0.0
  0
LINE
  5
486
100
AcDbEntity
  8
0
100
AcDbLine
 62
     0
 10
84.2366
 20
84.2366
 30
0.0
 11
89.2362
 21
84.2366
 31
0.0
  0
LINE
  5
487
100
AcDbEntity
  8
0
100
AcDbLine
 62
     0
 10
89.2362
 20
84.2366
 30
0.0
 11
89.2362
 21
81.2366
 31
0.0
  0
LINE
  5
488
100
AcDbEntity
  8
0
100
AcDbLine
 62
     0
 10
89.2362
 20
81.2366
 30
0.0
 11
99.2339
 21
81.2366
 31
0.0
  0
LINE
  5
489
100
AcDbEntity
  8
0
100
AcDbLine
 62
     0
 10
99.2339
 20
81.2366
 30
0.0
 11
99.2339
 21
84.2366
 31
0.0
  0
LINE
  5
48a
100
AcDbEntity
  8
0
100
AcDbLine
 62
     0
 10
18.2466
 20
84.2366
 30
0.0
 11
26.2461
 21
84.2366
 31
0.0
  0
LINE
  5
48b
100
AcDbEntity
  8
0
100
AcDbLine
 62
     0
 10
26.2461
 20
84.2366
 30
0.0
 11
26.2461
 21
81.2366
 31
0.0
  0
LINE
  5
48c
100
AcDbEntity
  8
0
100
AcDbLine
 62
     0
 10
26.2461
 20
81.2366
 30
0.0
 11
36.2437
 21
81.2366
 31
0.0
  0
LINE
  5
48d
100
AcDbEntity
  8
0
100
AcDbLine
 62
     0
 10
36.2437
 20
81.2366
 30
0.0
 11
36.2437
 21
84.2366
 31
0.0
  0
LINE
  5
48e
100
AcDbEntity
  8
0
100
AcDbLine
 62
     0
 10
36.2437
 20
84.2366
 30
0.0
 11
44.2433
 21
84.2366
 31
0.0
  0
LINE
  5
48f
100
AcDbEntity
  8
0
100
AcDbLine
 62
     0
 10
44.2433
 20
84.2366
 30
0.0
 11
44.2433
 21
81.2366
 31
0.0
  0
LINE
  5
490
100
AcDbEntity
  8
0
100
AcDbLine
 62
     0
 10
44.2433
 20
81.2366
 30
0.0
 11
54.241
 21
81.2366
 31
0.0
  0
LINE
  5
491
100
AcDbEntity
  8
0
100
AcDbLine
 62
     0
 10
54.241
 20
81.2366
 30
0.0
 11
54.241
 21
84.2366
 31
0.0
  0
LINE
  5
492
100
AcDbEntity
  8
0
100
AcDbLine
 62
     0
 10
54.241
 20
84.2366
 30
0.0
 11
62.2406
 21
84.2366
 31
0.0
  0
LINE
  5
493
100
AcDbEntity
  8
0
100
AcDbLine
 62
     0
 10
62.2406
 20
84.2366
 30
0.0
 11
62.2406
 21
81.2366
 31
0.0
  0
LINE
  5
494
100
AcDbEntity
  8
0
100
AcDbLine
 62
     0
 10
62.2406
 20
81.2366
 30
0.0
 11
72.2383
 21
81.2366
 31
0.0
  0
LINE
  5
495
100
AcDbEntity
  8
0
100
AcDbLine
 62
     0
 10
72.2383
 20
81.2366
 30
0.0
 11
72.2383
 21
84.2366
 31
0.0
  0
LINE
  5
496
100
AcDbEntity
  8
0
100
AcDbLine
 62
     0
 10
72.2383
 20
84.2366
 30
0.0
 11
80.2375
 21
84.2366
 31
0.0
  0
LINE
  5
497
100
AcDbEntity
  8
0
100
AcDbLine
 62
     0
 10
80.2375
 20
84.2366
 30
0.0
 11
80.2375
 21
158.225
 31
0.0
  0
LINE
  5
498
100
AcDbEntity
  8
0
100
AcDbLine
 62
     0
 10
80.2375
 20
158.225
 30
0.0
 11
72.2383
 21
158.225
 31
0.0
  0
LINE
  5
499
100
AcDbEntity
  8
0
100
AcDbLine
 62
     0
 10
72.2383
 20
158.225
 30
0.0
 11
72.2383
 21
161.225
 31
0.0
  0
LINE
  5
49a
100
AcDbEntity
  8
0
100
AcDbLine
 62
     0
 10
72.2383
 20
161.225
 30
0.0
 11
62.2406
 21
161.225
 31
0.0
  0
LINE
  5
49b
100
AcDbEntity
  8
0
100
AcDbLine
 62
     0
 10
62.2406
 20
161.225
 30
0.0
 11
62.2406
 21
158.225
 31
0.0
  0
LINE
  5
49c
100
AcDbEntity
  8
0
100
AcDbLine
 62
     0
 10
62.2406
 20
158.225
 30
0.0
 11
54.241
 21
158.225
 31
0.0
  0
LINE
  5
49d
100
AcDbEntity
  8
0
100
AcDbLine
 62
     0
 10
54.241
 20
158.225
 30
0.0
 11
54.241
 21
161.225
 31
0.0
  0
LINE
  5
49e
100
AcDbEntity
  8
0
100
AcDbLine
 62
     0
 10
54.241
 20
161.225
 30
0.0
 11
44.2433
 21
161.225
 31
0.0
  0
LINE
  5
49f
100
AcDbEntity
  8
0
100
AcDbLine
 62
     0
 10
44.2433
 20
161.225
 30
0.0
 11
44.2433
 21
158.225
 31
0.0
  0
LINE
  5
4a0
100
AcDbEntity
  8
0
100
AcDbLine
 62
     0
 10
44.2433
 20
158.225
 30
0.0
 11
36.2437
 21
158.225
 31
0.0
  0
LINE
  5
4a1
100
AcDbEntity
  8
0
100
AcDbLine
 62
     0
 10
36.2437
 20
158.225
 30
0.0
 11
36.2437
 21
161.225
 31
0.0
  0
LINE
  5
4a2
100
AcDbEntity
  8
0
100
AcDbLine
 62
     0
 10
36.2437
 20
161.225
 30
0.0
 11
26.2461
 21
161.225
 31
0.0
  0
LINE
  5
4a3
100
AcDbEntity
  8
0
100
AcDbLine
 62
     0
 10
26.2461
 20
161.225
 30
0.0
 11
26.2461
 21
158.225
 31
0.0
  0
LINE
  5
4a4
100
AcDbEntity
  8
0
100
AcDbLine
 62
     0
 10
26.2461
 20
158.225
 30
0.0
 11
18.2466
 21
158.225
 31
0.0
  0
LINE
  5
4a5
100
AcDbEntity
  8
0
100
AcDbLine
 62
     0
 10
18.2466
 20
158.225
 30
0.0
 11
18.2466
 21
161.225
 31
0.0
  0
LINE
  5
4a6
100
AcDbEntity
  8
0
100
AcDbLine
 62
     0
 10
18.2466
 20
161.225
 30
0.0
 11
8.24893
 21
161.225
 31
0.0
  0
LINE
  5
4a7
100
AcDbEntity
  8
0
100
AcDbLine
 62
     0
 10
8.24893
 20
161.225
 30
0.0
 11
8.24893
 21
158.225
 31
0.0
  0
LINE
  5
4a8
100
AcDbEntity
  8
0
100
AcDbLine
 62
     0
 10
8.24893
 20
158.225
 30
0.0
 11
0.249425
 21
158.225
 31
0.0
  0
LINE
  5
4a9
100
AcDbEntity
  8
0
100
AcDbLine
 62
     0
 10
0.249425
 20
158.225
 30
0.0
 11
0.249425
 21
152.226
 31
0.0
  0
LINE
  5
4aa
100
AcDbEntity
  8
0
100
AcDbLine
 62
     0
 10
0.249425
 20
152.226
 30
0.0
 11
0.438217
 21
152.226
 31
0.0
  0
LINE
  5
4ab
100
AcDbEntity
  8
0
100
AcDbLine
 62
     0
 10
0.438217
 20
152.226
 30
0.0
 11
0.814419
 21
152.171
 31
0.0
  0
LINE
  5
4ac
100
AcDbEntity
  8
0
100
AcDbLine
 62
     0
 10
0.814419
 20
152.171
 30
0.0
 11
1.19063
 21
152.062
 31
0.0
  0
LINE
  5
4ad
100
AcDbEntity
  8
0
100
AcDbLine
 62
     0
 10
1.19063
 20
152.062
 30
0.0
 11
1.56407
 21
151.9
 31
0.0
  0
LINE
  5
4ae
100
AcDbEntity
  8
0
100
AcDbLine
 62
     0
 10
1.56407
 20
151.9
 30
0.0
 11
1.93614
 21
151.684
 31
0.0
  0
LINE
  5
4af
100
AcDbEntity
  8
0
100
AcDbLine
 62
     0
 10
1.93614
 20
151.684
 30
0.0
 11
2.30408
 21
151.413
 31
0.0
  0
LINE
  5
4b0
100
AcDbEntity
  8
0
100
AcDbLine
 62
     0
 10
2.30408
 20
151.413
 30
0.0
 11
2.66926
 21
151.091
 31
0.0
  0
LINE
  5
4b1
100
AcDbEntity
  8
0
100
AcDbLine
 62
     0
 10
2.66926
 20
151.091
 30
0.0
 11
3.0303
 21
150.715
 31
0.0
  0
LINE
  5
4b2
100
AcDbEntity
  8
0
100
AcDbLine
 62
     0
 10
3.0303
 20
150.715
 30
0.0
 11
3.38722
 21
150.289
 31
0.0
  0
LINE
  5
4b3
100
AcDbEntity
  8
0
100
AcDbLine
 62
     0
 10
3.38722
 20
150.289
 30
0.0
 11
3.73726
 21
149.811
 31
0.0
  0
LINE
  5
4b4
100
AcDbEntity
  8
0
100
AcDbLine
 62
     0
 10
3.73726
 20
149.811
 30
0.0
 11
4.08174
 21
149.281
 31
0.0
  0
LINE
  5
4b5
100
AcDbEntity
  8
0
100
AcDbLine
 62
     0
 10
4.08174
 20
149.281
 30
0.0
 11
4.41935
 21
148.704
 31
0.0
  0
LINE
  5
4b6
100
AcDbEntity
  8
0
100
AcDbLine
 62
     0
 10
4.41935
 20
148.704
 30
0.0
 11
4.74871
 21
148.08
 31
0.0
  0
LINE
  5
4b7
100
AcDbEntity
  8
0
100
AcDbLine
 62
     0
 10
4.74871
 20
148.08
 30
0.0
 11
5.07118
 21
147.406
 31
0.0
  0
LINE
  5
4b8
100
AcDbEntity
  8
0
100
AcDbLine
 62
     0
 10
5.07118
 20
147.406
 30
0.0
 11
5.38536
 21
146.688
 31
0.0
  0
LINE
  5
4b9
100
AcDbEntity
  8
0
100
AcDbLine
 62
     0
 10
5.38536
 20
146.688
 30
0.0
 11
5.68992
 21
145.925
 31
0.0
  0
LINE
  5
4ba
100
AcDbEntity
  8
0
100
AcDbLine
 62
     0
 10
5.68992
 20
145.925
 30
0.0
 11
5.98622
 21
145.118
 31
0.0
  0
LINE
  5
4bb
100
AcDbEntity
  8
0
100
AcDbLine
 62
     0
 10
5.98622
 20
145.118
 30
0.0
 11
6.27144
 21
144.27
 31
0.0
  0
LINE
  5
4bc
100
AcDbEntity
  8
0
100
AcDbLine
 62
     0
 10
6.27144
 20
144.27
 30
0.0
 11
6.54569
 21
143.381
 31
0.0
  0
LINE
  5
4bd
100
AcDbEntity
  8
0
100
AcDbLine
 62
     0
 10
6.54569
 20
143.381
 30
0.0
 11
6.81027
 21
142.453
 31
0.0
  0
LINE
  5
4be
100
AcDbEntity
  8
0
100
AcDbLine
 62
     0
 10
6.81027
 20
142.453
 30
0.0
 11
7.06244
 21
141.489
 31
0.0
  0
LINE
  5
4bf
100
AcDbEntity
  8
0
100
AcDbLine
 62
     0
 10
7.06244
 20
141.489
 30
0.0
 11
7.30222
 21
140.487
 31
0.0
  0
LINE
  5
4c0
100
AcDbEntity
  8
0
100
AcDbLine
 62
     0
 10
7.30222
 20
140.487
 30
0.0
 11
7.52962
 21
139.453
 31
0.0
  0
LINE
  5
4c1
100
AcDbEntity
  8
0
100
AcDbLine
 62
     0
 10
7.52962
 20
139.453
 30
0.0
 11
7.74457
 21
138.387
 31
0.0
  0
LINE
  5
4c2
100
AcDbEntity
  8
0
100
AcDbLine
 62
     0
 10
7.74457
 20
138.387
 30
0.0
 11
7.94713
 21
137.291
 31
0.0
  0
LINE
  5
4c3
100
AcDbEntity
  8
0
100
AcDbLine
 62
     0
 10
7.94713
 20
137.291
 30
0.0
 11
8.13594
 21
136.167
 31
0.0
  0
LINE
  5
4c4
100
AcDbEntity
  8
0
100
AcDbLine
 62
     0
 10
8.13594
 20
136.167
 30
0.0
 11
8.30958
 21
135.015
 31
0.0
  0
LINE
  5
4c5
100
AcDbEntity
  8
0
100
AcDbLine
 62
     0
 10
8.30958
 20
135.015
 30
0.0
 11
8.47079
 21
133.841
 31
0.0
  0
LINE
  5
4c6
100
AcDbEntity
  8
0
100
AcDbLine
 62
     0
 10
8.47079
 20
133.841
 30
0.0
 11
8.61688
 21
132.643
 31
0.0
  0
LINE
  5
4c7
100
AcDbEntity
  8
0
100
AcDbLine
 62
     0
 10
8.61688
 20
132.643
 30
0.0
 11
8.7478
 21
131.426
 31
0.0
  0
LINE
  5
4c8
100
AcDbEntity
  8
0
100
AcDbLine
 62
     0
 10
8.7478
 20
131.426
 30
0.0
 11
8.86492
 21
130.192
 31
0.0
  0
LINE
  5
4c9
100
AcDbEntity
  8
0
100
AcDbLine
 62
     0
 10
8.86492
 20
130.192
 30
0.0
 11
8.96553
 21
128.94
 31
0.0
  0
LINE
  5
4ca
100
AcDbEntity
  8
0
100
AcDbLine
 62
     0
 10
8.96553
 20
128.94
 30
0.0
 11
9.05235
 21
127.677
 31
0.0
  0
LINE
  5
4cb
100
AcDbEntity
  8
0
100
AcDbLine
 62
     0
 10
9.05235
 20
127.677
 30
0.0
 11
9.12262
 21
126.401
 31
0.0
  0
LINE
  5
4cc
100
AcDbEntity
  8
0
100
AcDbLine
 62
     0
 10
9.12262
 20
126.401
 30
0.0
 11
9.17773
 21
125.116
 31
0.0
  0
LINE
  5
4cd
100
AcDbEntity
  8
0
100
AcDbLine
 62
     0
 10
9.17773
 20
125.116
 30
0.0
 11
9.21632
 21
123.825
 31
0.0
  0
LINE
  5
4ce
100
AcDbEntity
  8
0
100
AcDbLine
 62
     0
 10
9.21632
 20
123.825
 30
0.0
 11
9.24112
 21
122.53
 31
0.0
  0
LINE
  5
4cf
100
AcDbEntity
  8
0
100
AcDbLine
 62
     0
 10
9.24112
 20
122.53
 30
0.0
 11
9.248
 21
121.23
 31
0.0
  0
LINE
  5
4d0
100
AcDbEntity
  8
0
100
AcDbLine
 62
     0
 10
9.248
 20
121.23
 30
0.0
 11
9.24112
 21
119.932
 31
0.0
  0
LINE
  5
4d1
100
AcDbEntity
  8
0
100
AcDbLine
 62
     0
 10
9.24112
 20
119.932
 30
0.0
 11
9.21632
 21
118.637
 31
0.0
  0
LINE
  5
4d2
100
AcDbEntity
  8
0
100
AcDbLine
 62
     0
 10
9.21632
 20
118.637
 30
0.0
 11
9.17773
 21
117.346
 31
0.0
  0
LINE
  5
4d3
100
AcDbEntity
  8
0
100
AcDbLine
 62
     0
 10
9.17773
 20
117.346
 30
0.0
 11
9.12262
 21
116.061
 31
0.0
  0
LINE
  5
4d4
100
AcDbEntity
  8
0
100
AcDbLine
 62
     0
 10
9.12262
 20
116.061
 30
0.0
 11
9.05235
 21
114.785
 31
0.0
  0
LINE
  5
4d5
100
AcDbEntity
  8
0
100
AcDbLine
 62
     0
 10
9.05235
 20
114.785
 30
0.0
 11
8.96553
 21
113.521
 31
0.0
  0
LINE
  5
4d6
100
AcDbEntity
  8
0
100
AcDbLine
 62
     0
 10
8.96553
 20
113.521
 30
0.0
 11
8.86492
 21
112.27
 31
0.0
  0
LINE
  5
4d7
100
AcDbEntity
  8
0
100
AcDbLine
 62
     0
 10
8.86492
 20
112.27
 30
0.0
 11
8.7478
 21
111.035
 31
0.0
  0
LINE
  5
4d8
100
AcDbEntity
  8
0
100
AcDbLine
 62
     0
 10
8.7478
 20
111.035
 30
0.0
 11
8.61688
 21
109.819
 31
0.0
  0
LINE
  5
4d9
100
AcDbEntity
  8
0
100
AcDbLine
 62
     0
 10
8.61688
 20
109.819
 30
0.0
 11
8.47079
 21
108.621
 31
0.0
  0
LINE
  5
4da
100
AcDbEntity
  8
0
100
AcDbLine
 62
     0
 10
8.47079
 20
108.621
 30
0.0
 11
8.30958
 21
107.446
 31
0.0
  0
LINE
  5
4db
100
AcDbEntity
  8
0
100
AcDbLine
 62
     0
 10
8.30958
 20
107.446
 30
0.0
 11
8.13594
 21
106.295
 31
0.0
  0
LINE
  5
4dc
100
AcDbEntity
  8
0
100
AcDbLine
 62
     0
 10
8.13594
 20
106.295
 30
0.0
 11
7.94713
 21
105.17
 31
0.0
  0
LINE
  5
4dd
100
AcDbEntity
  8
0
100
AcDbLine
 62
     0
 10
7.94713
 20
105.17
 30
0.0
 11
7.74457
 21
104.075
 31
0.0
  0
LINE
  5
4de
100
AcDbEntity
  8
0
100
AcDbLine
 62
     0
 10
7.74457
 20
104.075
 30
0.0
 11
7.52962
 21
103.008
 31
0.0
  0
LINE
  5
4df
100
AcDbEntity
  8
0
100
AcDbLine
 62
     0
 10
7.52962
 20
103.008
 30
0.0
 11
7.30222
 21
101.974
 31
0.0
  0
LINE
  5
4e0
100
AcDbEntity
  8
0
100
AcDbLine
 62
     0
 10
7.30222
 20
101.974
 30
0.0
 11
7.06244
 21
100.973
 31
0.0
  0
LINE
  5
4e1
100
AcDbEntity
  8
0
100
AcDbLine
 62
     0
 10
7.06244
 20
100.973
 30
0.0
 11
6.81027
 21
100.008
 31
0.0
  0
LINE
  5
4e2
100
AcDbEntity
  8
0
100
AcDbLine
 62
     0
 10
6.81027
 20
100.008
 30
0.0
 11
6.54569
 21
99.0808
 31
0.0
  0
LINE
  5
4e3
100
AcDbEntity
  8
0
100
AcDbLine
 62
     0
 10
6.54569
 20
99.0808
 30
0.0
 11
6.27144
 21
98.1922
 31
0.0
  0
LINE
  5
4e4
100
AcDbEntity
  8
0
100
AcDbLine
 62
     0
 10
6.27144
 20
98.1922
 30
0.0
 11
5.98622
 21
97.3434
 31
0.0
  0
LINE
  5
4e5
100
AcDbEntity
  8
0
100
AcDbLine
 62
     0
 10
5.98622
 20
97.3434
 30
0.0
 11
5.68992
 21
96.5369
 31
0.0
  0
LINE
  5
4e6
100
AcDbEntity
  8
0
100
AcDbLine
 62
     0
 10
5.68992
 20
96.5369
 30
0.0
 11
5.38536
 21
95.7735
 31
0.0
  0
LINE
  5
4e7
100
AcDbEntity
  8
0
100
AcDbLine
 62
     0
 10
5.38536
 20
95.7735
 30
0.0
 11
5.07118
 21
95.0542
 31
0.0
  0
LINE
  5
4e8
100
AcDbEntity
  8
0
100
AcDbLine
 62
     0
 10
5.07118
 20
95.0542
 30
0.0
 11
4.74871
 21
94.3818
 31
0.0
  0
LINE
  5
4e9
100
AcDbEntity
  8
0
100
AcDbLine
 62
     0
 10
4.74871
 20
94.3818
 30
0.0
 11
4.41935
 21
93.7563
 31
0.0
  0
LINE
  5
4ea
100
AcDbEntity
  8
0
100
AcDbLine
 62
     0
 10
4.41935
 20
93.7563
 30
0.0
 11
4.08174
 21
93.1788
 31
0.0
  0
LINE
  5
4eb
100
AcDbEntity
  8
0
100
AcDbLine
 62
     0
 10
4.08174
 20
93.1788
 30
0.0
 11
3.73726
 21
92.6511
 31
0.0
  0
LINE
  5
4ec
100
AcDbEntity
  8
0
100
AcDbLine
 62
     0
 10
3.73726
 20
92.6511
 30
0.0
 11
3.38722
 21
92.1727
 31
0.0
  0
LINE
  5
4ed
100
AcDbEntity
  8
0
100
AcDbLine
 62
     0
 10
3.38722
 20
92.1727
 30
0.0
 11
3.0303
 21
91.7455
 31
0.0
  0
LINE
  5
4ee
100
AcDbEntity
  8
0
100
AcDbLine
 62
     0
 10
3.0303
 20
91.7455
 30
0.0
 11
2.66926
 21
91.3709
 31
0.0
  0
LINE
  5
4ef
100
AcDbEntity
  8
0
100
AcDbLine
 62
     0
 10
2.66926
 20
91.3709
 30
0.0
 11
2.30408
 21
91.0484
 31
0.0
  0
LINE
  5
4f0
100
AcDbEntity
  8
0
100
AcDbLine
 62
     0
 10
2.30408
 20
91.0484
 30
0.0
 11
1.93614
 21
90.7782
 31
0.0
  0
LINE
  5
4f1
100
AcDbEntity
  8
0
100
AcDbLine
 62
     0
 10
1.93614
 20
90.7782
 30
0.0
 11
1.56407
 21
90.5619
 31
0.0
  0
LINE
  5
4f2
100
AcDbEntity
  8
0
100
AcDbLine
 62
     0
 10
1.56407
 20
90.5619
 30
0.0
 11
1.19063
 21
90.3993
 31
0.0
  0
LINE
  5
4f3
100
AcDbEntity
  8
0
100
AcDbLine
 62
     0
 10
1.19063
 20
90.3993
 30
0.0
 11
0.814419
 21
90.2903
 31
0.0
  0
LINE
  5
4f4
100
AcDbEntity
  8
0
100
AcDbLine
 62
     0
 10
0.814419
 20
90.2903
 30
0.0
 11
0.438217
 21
90.2353
 31
0.0
  0
LINE
  5
4f5
100
AcDbEntity
  8
0
100
AcDbLine
 62
     0
 10
0.438217
 20
90.2353
 30
0.0
 11
0.249425
 21
90.2353
 31
0.0
  0
LINE
  5
4f6
100
AcDbEntity
  8
0
100
AcDbLine
 62
     0
 10
0.249425
 20
90.2353
 30
0.0
 11
0.249425
 21
84.2366
 31
0.0
  0
LINE
  5
4f7
100
AcDbEntity
  8
0
100
AcDbLine
 62
     0
 10
0.249425
 20
84.2366
 30
0.0
 11
8.24893
 21
84.2366
 31
0.0
  0
LINE
  5
4f8
100
AcDbEntity
  8
0
100
AcDbLine
 62
     0
 10
8.24893
 20
84.2366
 30
0.0
 11
8.24893
 21
81.2366
 31
0.0
  0
LINE
  5
4f9
100
AcDbEntity
  8
0
100
AcDbLine
 62
     0
 10
8.24893
 20
81.2366
 30
0.0
 11
18.2466
 21
81.2366
 31
0.0
  0
LINE
  5
4fa
100
AcDbEntity
  8
0
100
AcDbLine
 62
     0
 10
18.2466
 20
81.2366
 30
0.0
 11
18.2466
 21
84.2366
 31
0.0
  0
LINE
  5
4fb
100
AcDbEntity
  8
0
100
AcDbLine
 62
     0
 10
12.248
 20
143.228
 30
0.0
 11
12.248
 21
153.225
 31
0.0
  0
LINE
  5
4fc
100
AcDbEntity
  8
0
100
AcDbLine
 62
     0
 10
12.248
 20
153.225
 30
0.0
 11
15.248
 21
153.225
 31
0.0
  0
LINE
  5
4fd
100
AcDbEntity
  8
0
100
AcDbLine
 62
     0
 10
15.248
 20
153.225
 30
0.0
 11
15.248
 21
143.228
 31
0.0
  0
LINE
  5
4fe
100
AcDbEntity
  8
0
100
AcDbLine
 62
     0
 10
15.248
 20
143.228
 30
0.0
 11
12.248
 21
143.228
 31
0.0
  0
LINE
  5
4ff
100
AcDbEntity
  8
0
100
AcDbLine
 62
     0
 10
12.248
 20
125.23
 30
0.0
 11
12.248
 21
135.228
 31
0.0
  0
LINE
  5
500
100
AcDbEntity
  8
0
100
AcDbLine
 62
     0
 10
12.248
 20
135.228
 30
0.0
 11
15.248
 21
135.228
 31
0.0
  0
LINE
  5
501
100
AcDbEntity
  8
0
100
AcDbLine
 62
     0
 10
15.248
 20
135.228
 30
0.0
 11
15.248
 21
125.23
 31
0.0
  0
LINE
  5
502
100
AcDbEntity
  8
0
100
AcDbLine
 62
     0
 10
15.248
 20
125.23
 30
0.0
 11
12.248
 21
125.23
 31
0.0
  0
LINE
  5
503
100
AcDbEntity
  8
0
100
AcDbLine
 62
     0
 10
12.248
 20
107.234
 30
0.0
 11
12.248
 21
117.231
 31
0.0
  0
LINE
  5
504
100
AcDbEntity
  8
0
100
AcDbLine
 62
     0
 10
12.248
 20
117.231
 30
0.0
 11
15.248
 21
117.231
 31
0.0
  0
LINE
  5
505
100
AcDbEntity
  8
0
100
AcDbLine
 62
     0
 10
15.248
 20
117.231
 30
0.0
 11
15.248
 21
107.234
 31
0.0
  0
LINE
  5
506
100
AcDbEntity
  8
0
100
AcDbLine
 62
     0
 10
15.248
 20
107.234
 30
0.0
 11
12.248
 21
107.234
 31
0.0
  0
LINE
  5
507
100
AcDbEntity
  8
0
100
AcDbLine
 62
     0
 10
12.248
 20
89.2362
 30
0.0
 11
12.248
 21
99.2339
 31
0.0
  0
LINE
  5
508
100
AcDbEntity
  8
0
100
AcDbLine
 62
     0
 10
12.248
 20
99.2339
 30
0.0
 11
15.248
 21
99.2339
 31
0.0
  0
LINE
  5
509
100
AcDbEntity
  8
0
100
AcDbLine
 62
     0
 10
15.248
 20
99.2339
 30
0.0
 11
15.248
 21
89.2362
 31
0.0
  0
LINE
  5
50a
100
AcDbEntity
  8
0
100
AcDbLine
 62
     0
 10
15.248
 20
89.2362
 30
0.0
 11
12.248
 21
89.2362
 31
0.0
  0
LINE
  5
50b
100
AcDbEntity
  8
0
100
AcDbLine
 62
     0
 10
161.225
 20
8.24893
 30
0.0
 11
158.225
 21
8.24893
 31
0.0
  0
LINE
  5
50c
100
AcDbEntity
  8
0
100
AcDbLine
 62
     0
 10
158.225
 20
8.24893
 30
0.0
 11
158.225
 21
18.2466
 31
0.0
  0
LINE
  5
50d
100
AcDbEntity
  8
0
100
AcDbLine
 62
     0
 10
158.225
 20
18.2466
 30
0.0
 11
161.225
 21
18.2466
 31
0.0
  0
LINE
  5
50e
100
AcDbEntity
  8
0
100
AcDbLine
 62
     0
 10
161.225
 20
18.2466
 30
0.0
 11
161.225
 21
26.2461
 31
0.0
  0
LINE
  5
50f
100
AcDbEntity
  8
0
100
AcDbLine
 62
     0
 10
161.225
 20
26.2461
 30
0.0
 11
158.225
 21
26.2461
 31
0.0
  0
LINE
  5
510
100
AcDbEntity
  8
0
100
AcDbLine
 62
     0
 10
158.225
 20
26.2461
 30
0.0
 11
158.225
 21
36.2437
 31
0.0
  0
LINE
  5
511
100
AcDbEntity
  8
0
100
AcDbLine
 62
     0
 10
158.225
 20
36.2437
 30
0.0
 11
161.225
 21
36.2437
 31
0.0
  0
LINE
  5
512
100
AcDbEntity
  8
0
100
AcDbLine
 62
     0
 10
161.225
 20
36.2437
 30
0.0
 11
161.225
 21
44.2433
 31
0.0
  0
LINE
  5
513
100
AcDbEntity
  8
0
100
AcDbLine
 62
     0
 10
161.225
 20
44.2433
 30
0.0
 11
158.225
 21
44.2433
 31
0.0
  0
LINE
  5
514
100
AcDbEntity
  8
0
100
AcDbLine
 62
     0
 10
158.225
 20
44.2433
 30
0.0
 11
158.225
 21
54.241
 31
0.0
  0
LINE
  5
515
100
AcDbEntity
  8
0
100
AcDbLine
 62
     0
 10
158.225
 20
54.241
 30
0.0
 11
161.225
 21
54.241
 31
0.0
  0
LINE
  5
516
100
AcDbEntity
  8
0
100
AcDbLine
 62
     0
 10
161.225
 20
54.241
 30
0.0
 11
161.225
 21
62.2406
 31
0.0
  0
LINE
  5
517
100
AcDbEntity
  8
0
100
AcDbLine
 62
     0
 10
161.225
 20
62.2406
 30
0.0
 11
158.225
 21
62.2406
 31
0.0
  0
LINE
  5
518
100
AcDbEntity
  8
0
100
AcDbLine
 62
     0
 10
158.225
 20
62.2406
 30
0.0
 11
158.225
 21
72.2383
 31
0.0
  0
LINE
  5
519
100
AcDbEntity
  8
0
100
AcDbLine
 62
     0
 10
158.225
 20
72.2383
 30
0.0
 11
161.225
 21
72.2383
 31
0.0
  0
LINE
  5
51a
100
AcDbEntity
  8
0
100
AcDbLine
 62
     0
 10
161.225
 20
72.2383
 30
0.0
 11
161.225
 21
80.2375
 31
0.0
  0
LINE
  5
51b
100
AcDbEntity
  8
0
100
AcDbLine
 62
     0
 10
161.225
 20
80.2375
 30
0.0
 11
152.226
 21
80.2375
 31
0.0
  0
LINE
  5
51c
100
AcDbEntity
  8
0
100
AcDbLine
 62
     0
 10
152.226
 20
80.2375
 30
0.0
 11
152.199
 21
79.8601
 31
0.0
  0
LINE
  5
51d
100
AcDbEntity
  8
0
100
AcDbLine
 62
     0
 10
152.199
 20
79.8601
 30
0.0
 11
152.117
 21
79.484
 31
0.0
  0
LINE
  5
51e
100
AcDbEntity
  8
0
100
AcDbLine
 62
     0
 10
152.117
 20
79.484
 30
0.0
 11
151.981
 21
79.109
 31
0.0
  0
LINE
  5
51f
100
AcDbEntity
  8
0
100
AcDbLine
 62
     0
 10
151.981
 20
79.109
 30
0.0
 11
151.792
 21
78.7358
 31
0.0
  0
LINE
  5
520
100
AcDbEntity
  8
0
100
AcDbLine
 62
     0
 10
151.792
 20
78.7358
 30
0.0
 11
151.548
 21
78.3664
 31
0.0
  0
LINE
  5
521
100
AcDbEntity
  8
0
100
AcDbLine
 62
     0
 10
151.548
 20
78.3664
 30
0.0
 11
151.252
 21
77.9985
 31
0.0
  0
LINE
  5
522
100
AcDbEntity
  8
0
100
AcDbLine
 62
     0
 10
151.252
 20
77.9985
 30
0.0
 11
150.904
 21
77.6358
 31
0.0
  0
LINE
  5
523
100
AcDbEntity
  8
0
100
AcDbLine
 62
     0
 10
150.904
 20
77.6358
 30
0.0
 11
150.502
 21
77.2777
 31
0.0
  0
LINE
  5
524
100
AcDbEntity
  8
0
100
AcDbLine
 62
     0
 10
150.502
 20
77.2777
 30
0.0
 11
150.049
 21
76.9235
 31
0.0
  0
LINE
  5
525
100
AcDbEntity
  8
0
100
AcDbLine
 62
     0
 10
150.049
 20
76.9235
 30
0.0
 11
149.546
 21
76.5761
 31
0.0
  0
LINE
  5
526
100
AcDbEntity
  8
0
100
AcDbLine
 62
     0
 10
149.546
 20
76.5761
 30
0.0
 11
148.994
 21
76.236
 31
0.0
  0
LINE
  5
527
100
AcDbEntity
  8
0
100
AcDbLine
 62
     0
 10
148.994
 20
76.236
 30
0.0
 11
148.393
 21
75.9008
 31
0.0
  0
LINE
  5
528
100
AcDbEntity
  8
0
100
AcDbLine
 62
     0
 10
148.393
 20
75.9008
 30
0.0
 11
147.744
 21
75.5745
 31
0.0
  0
LINE
  5
529
100
AcDbEntity
  8
0
100
AcDbLine
 62
     0
 10
147.744
 20
75.5745
 30
0.0
 11
147.048
 21
75.256
 31
0.0
  0
LINE
  5
52a
100
AcDbEntity
  8
0
100
AcDbLine
 62
     0
 10
147.048
 20
75.256
 30
0.0
 11
146.306
 21
74.9473
 31
0.0
  0
LINE
  5
52b
100
AcDbEntity
  8
0
100
AcDbLine
 62
     0
 10
146.306
 20
74.9473
 30
0.0
 11
145.522
 21
74.6471
 31
0.0
  0
LINE
  5
52c
100
AcDbEntity
  8
0
100
AcDbLine
 62
     0
 10
145.522
 20
74.6471
 30
0.0
 11
144.694
 21
74.356
 31
0.0
  0
LINE
  5
52d
100
AcDbEntity
  8
0
100
AcDbLine
 62
     0
 10
144.694
 20
74.356
 30
0.0
 11
143.826
 21
74.0763
 31
0.0
  0
LINE
  5
52e
100
AcDbEntity
  8
0
100
AcDbLine
 62
     0
 10
143.826
 20
74.0763
 30
0.0
 11
142.918
 21
73.8064
 31
0.0
  0
LINE
  5
52f
100
AcDbEntity
  8
0
100
AcDbLine
 62
     0
 10
142.918
 20
73.8064
 30
0.0
 11
141.971
 21
73.5485
 31
0.0
  0
LINE
  5
530
100
AcDbEntity
  8
0
100
AcDbLine
 62
     0
 10
141.971
 20
73.5485
 30
0.0
 11
140.988
 21
73.3019
 31
0.0
  0
LINE
  5
531
100
AcDbEntity
  8
0
100
AcDbLine
 62
     0
 10
140.988
 20
73.3019
 30
0.0
 11
139.97
 21
73.0677
 31
0.0
  0
LINE
  5
532
100
AcDbEntity
  8
0
100
AcDbLine
 62
     0
 10
139.97
 20
73.0677
 30
0.0
 11
138.92
 21
72.8458
 31
0.0
  0
LINE
  5
533
100
AcDbEntity
  8
0
100
AcDbLine
 62
     0
 10
138.92
 20
72.8458
 30
0.0
 11
137.838
 21
72.6376
 31
0.0
  0
LINE
  5
534
100
AcDbEntity
  8
0
100
AcDbLine
 62
     0
 10
137.838
 20
72.6376
 30
0.0
 11
136.729
 21
72.4422
 31
0.0
  0
LINE
  5
535
100
AcDbEntity
  8
0
100
AcDbLine
 62
     0
 10
136.729
 20
72.4422
 30
0.0
 11
135.591
 21
72.2616
 31
0.0
  0
LINE
  5
536
100
AcDbEntity
  8
0
100
AcDbLine
 62
     0
 10
135.591
 20
72.2616
 30
0.0
 11
134.428
 21
72.0933
 31
0.0
  0
LINE
  5
537
100
AcDbEntity
  8
0
100
AcDbLine
 62
     0
 10
134.428
 20
72.0933
 30
0.0
 11
133.242
 21
71.9406
 31
0.0
  0
LINE
  5
538
100
AcDbEntity
  8
0
100
AcDbLine
 62
     0
 10
133.242
 20
71.9406
 30
0.0
 11
132.035
 21
71.8012
 31
0.0
  0
LINE
  5
539
100
AcDbEntity
  8
0
100
AcDbLine
 62
     0
 10
132.035
 20
71.8012
 30
0.0
 11
130.809
 21
71.6774
 31
0.0
  0
LINE
  5
53a
100
AcDbEntity
  8
0
100
AcDbLine
 62
     0
 10
130.809
 20
71.6774
 30
0.0
 11
129.566
 21
71.5684
 31
0.0
  0
LINE
  5
53b
100
AcDbEntity
  8
0
100
AcDbLine
 62
     0
 10
129.566
 20
71.5684
 30
0.0
 11
128.309
 21
71.4745
 31
0.0
  0
LINE
  5
53c
100
AcDbEntity
  8
0
100
AcDbLine
 62
     0
 10
128.309
 20
71.4745
 30
0.0
 11
127.038
 21
71.3962
 31
0.0
  0
LINE
  5
53d
100
AcDbEntity
  8
0
100
AcDbLine
 62
     0
 10
127.038
 20
71.3962
 30
0.0
 11
125.758
 21
71.3327
 31
0.0
  0
LINE
  5
53e
100
AcDbEntity
  8
0
100
AcDbLine
 62
     0
 10
125.758
 20
71.3327
 30
0.0
 11
124.471
 21
71.2858
 31
0.0
  0
LINE
  5
53f
100
AcDbEntity
  8
0
100
AcDbLine
 62
     0
 10
124.471
 20
71.2858
 30
0.0
 11
123.177
 21
71.2541
 31
0.0
  0
LINE
  5
540
100
AcDbEntity
  8
0
100
AcDbLine
 62
     0
 10
123.177
 20
71.2541
 30
0.0
 11
121.88
 21
71.2392
 31
0.0
  0
LINE
  5
541
100
AcDbEntity
  8
0
100
AcDbLine
 62
     0
 10
121.88
 20
71.2392
 30
0.0
 11
120.583
 21
71.2392
 31
0.0
  0
LINE
  5
542
100
AcDbEntity
  8
0
100
AcDbLine
 62
     0
 10
120.583
 20
71.2392
 30
0.0
 11
119.284
 21
71.2541
 31
0.0
  0
LINE
  5
543
100
AcDbEntity
  8
0
100
AcDbLine
 62
     0
 10
119.284
 20
71.2541
 30
0.0
 11
117.99
 21
71.2858
 31
0.0
  0
LINE
  5
544
100
AcDbEntity
  8
0
100
AcDbLine
 62
     0
 10
117.99
 20
71.2858
 30
0.0
 11
116.703
 21
71.3327
 31
0.0
  0
LINE
  5
545
100
AcDbEntity
  8
0
100
AcDbLine
 62
     0
 10
116.703
 20
71.3327
 30
0.0
 11
115.423
 21
71.3962
 31
0.0
  0
LINE
  5
546
100
AcDbEntity
  8
0
100
AcDbLine
 62
     0
 10
115.423
 20
71.3962
 30
0.0
 11
114.153
 21
71.4745
 31
0.0
  0
LINE
  5
547
100
AcDbEntity
  8
0
100
AcDbLine
 62
     0
 10
114.153
 20
71.4745
 30
0.0
 11
112.896
 21
71.5684
 31
0.0
  0
LINE
  5
548
100
AcDbEntity
  8
0
100
AcDbLine
 62
     0
 10
112.896
 20
71.5684
 30
0.0
 11
111.653
 21
71.6774
 31
0.0
  0
LINE
  5
549
100
AcDbEntity
  8
0
100
AcDbLine
 62
     0
 10
111.653
 20
71.6774
 30
0.0
 11
110.426
 21
71.8012
 31
0.0
  0
LINE
  5
54a
100
AcDbEntity
  8
0
100
AcDbLine
 62
     0
 10
110.426
 20
71.8012
 30
0.0
 11
109.219
 21
71.9406
 31
0.0
  0
LINE
  5
54b
100
AcDbEntity
  8
0
100
AcDbLine
 62
     0
 10
109.219
 20
71.9406
 30
0.0
 11
108.034
 21
72.0933
 31
0.0
  0
LINE
  5
54c
100
AcDbEntity
  8
0
100
AcDbLine
 62
     0
 10
108.034
 20
72.0933
 30
0.0
 11
106.871
 21
72.2616
 31
0.0
  0
LINE
  5
54d
100
AcDbEntity
  8
0
100
AcDbLine
 62
     0
 10
106.871
 20
72.2616
 30
0.0
 11
105.733
 21
72.4422
 31
0.0
  0
LINE
  5
54e
100
AcDbEntity
  8
0
100
AcDbLine
 62
     0
 10
105.733
 20
72.4422
 30
0.0
 11
104.623
 21
72.6376
 31
0.0
  0
LINE
  5
54f
100
AcDbEntity
  8
0
100
AcDbLine
 62
     0
 10
104.623
 20
72.6376
 30
0.0
 11
103.542
 21
72.8458
 31
0.0
  0
LINE
  5
550
100
AcDbEntity
  8
0
100
AcDbLine
 62
     0
 10
103.542
 20
72.8458
 30
0.0
 11
102.491
 21
73.0677
 31
0.0
  0
LINE
  5
551
100
AcDbEntity
  8
0
100
AcDbLine
 62
     0
 10
102.491
 20
73.0677
 30
0.0
 11
101.475
 21
73.3019
 31
0.0
  0
LINE
  5
552
100
AcDbEntity
  8
0
100
AcDbLine
 62
     0
 10
101.475
 20
73.3019
 30
0.0
 11
100.491
 21
73.5485
 31
0.0
  0
LINE
  5
553
100
AcDbEntity
  8
0
100
AcDbLine
 62
     0
 10
100.491
 20
73.5485
 30
0.0
 11
99.5454
 21
73.8064
 31
0.0
  0
LINE
  5
554
100
AcDbEntity
  8
0
100
AcDbLine
 62
     0
 10
99.5454
 20
73.8064
 30
0.0
 11
98.636
 21
74.0763
 31
0.0
  0
LINE
  5
555
100
AcDbEntity
  8
0
100
AcDbLine
 62
     0
 10
98.636
 20
74.0763
 30
0.0
 11
97.7678
 21
74.356
 31
0.0
  0
LINE
  5
556
100
AcDbEntity
  8
0
100
AcDbLine
 62
     0
 10
97.7678
 20
74.356
 30
0.0
 11
96.9409
 21
74.6471
 31
0.0
  0
LINE
  5
557
100
AcDbEntity
  8
0
100
AcDbLine
 62
     0
 10
96.9409
 20
74.6471
 30
0.0
 11
96.1552
 21
74.9473
 31
0.0
  0
LINE
  5
558
100
AcDbEntity
  8
0
100
AcDbLine
 62
     0
 10
96.1552
 20
74.9473
 30
0.0
 11
95.414
 21
75.256
 31
0.0
  0
LINE
  5
559
100
AcDbEntity
  8
0
100
AcDbLine
 62
     0
 10
95.414
 20
75.256
 30
0.0
 11
94.7194
 21
75.5745
 31
0.0
  0
LINE
  5
55a
100
AcDbEntity
  8
0
100
AcDbLine
 62
     0
 10
94.7194
 20
75.5745
 30
0.0
 11
94.0689
 21
75.9008
 31
0.0
  0
LINE
  5
55b
100
AcDbEntity
  8
0
100
AcDbLine
 62
     0
 10
94.0689
 20
75.9008
 30
0.0
 11
93.4681
 21
76.236
 31
0.0
  0
LINE
  5
55c
100
AcDbEntity
  8
0
100
AcDbLine
 62
     0
 10
93.4681
 20
76.236
 30
0.0
 11
92.9157
 21
76.5761
 31
0.0
  0
LINE
  5
55d
100
AcDbEntity
  8
0
100
AcDbLine
 62
     0
 10
92.9157
 20
76.5761
 30
0.0
 11
92.4126
 21
76.9235
 31
0.0
  0
LINE
  5
55e
100
AcDbEntity
  8
0
100
AcDbLine
 62
     0
 10
92.4126
 20
76.9235
 30
0.0
 11
91.9593
 21
77.2777
 31
0.0
  0
LINE
  5
55f
100
AcDbEntity
  8
0
100
AcDbLine
 62
     0
 10
91.9593
 20
77.2777
 30
0.0
 11
91.5582
 21
77.6358
 31
0.0
  0
LINE
  5
560
100
AcDbEntity
  8
0
100
AcDbLine
 62
     0
 10
91.5582
 20
77.6358
 30
0.0
 11
91.2096
 21
77.9985
 31
0.0
  0
LINE
  5
561
100
AcDbEntity
  8
0
100
AcDbLine
 62
     0
 10
91.2096
 20
77.9985
 30
0.0
 11
90.9133
 21
78.3664
 31
0.0
  0
LINE
  5
562
100
AcDbEntity
  8
0
100
AcDbLine
 62
     0
 10
90.9133
 20
78.3664
 30
0.0
 11
90.6695
 21
78.7358
 31
0.0
  0
LINE
  5
563
100
AcDbEntity
  8
0
100
AcDbLine
 62
     0
 10
90.6695
 20
78.7358
 30
0.0
 11
90.4804
 21
79.109
 31
0.0
  0
LINE
  5
564
100
AcDbEntity
  8
0
100
AcDbLine
 62
     0
 10
90.4804
 20
79.109
 30
0.0
 11
90.3443
 21
79.484
 31
0.0
  0
LINE
  5
565
100
AcDbEntity
  8
0
100
AcDbLine
 62
     0
 10
90.3443
 20
79.484
 30
0.0
 11
90.2628
 21
79.8601
 31
0.0
  0
LINE
  5
566
100
AcDbEntity
  8
0
100
AcDbLine
 62
     0
 10
90.2628
 20
79.8601
 30
0.0
 11
90.2353
 21
80.2375
 31
0.0
  0
LINE
  5
567
100
AcDbEntity
  8
0
100
AcDbLine
 62
     0
 10
90.2353
 20
80.2375
 30
0.0
 11
81.2366
 21
80.2375
 31
0.0
  0
LINE
  5
568
100
AcDbEntity
  8
0
100
AcDbLine
 62
     0
 10
81.2366
 20
80.2375
 30
0.0
 11
81.2366
 21
72.2383
 31
0.0
  0
LINE
  5
569
100
AcDbEntity
  8
0
100
AcDbLine
 62
     0
 10
81.2366
 20
72.2383
 30
0.0
 11
84.2366
 21
72.2383
 31
0.0
  0
LINE
  5
56a
100
AcDbEntity
  8
0
100
AcDbLine
 62
     0
 10
84.2366
 20
72.2383
 30
0.0
 11
84.2366
 21
62.2406
 31
0.0
  0
LINE
  5
56b
100
AcDbEntity
  8
0
100
AcDbLine
 62
     0
 10
84.2366
 20
62.2406
 30
0.0
 11
81.2366
 21
62.2406
 31
0.0
  0
LINE
  5
56c
100
AcDbEntity
  8
0
100
AcDbLine
 62
     0
 10
81.2366
 20
62.2406
 30
0.0
 11
81.2366
 21
54.241
 31
0.0
  0
LINE
  5
56d
100
AcDbEntity
  8
0
100
AcDbLine
 62
     0
 10
81.2366
 20
54.241
 30
0.0
 11
84.2366
 21
54.241
 31
0.0
  0
LINE
  5
56e
100
AcDbEntity
  8
0
100
AcDbLine
 62
     0
 10
84.2366
 20
54.241
 30
0.0
 11
84.2366
 21
44.2433
 31
0.0
  0
LINE
  5
56f
100
AcDbEntity
  8
0
100
AcDbLine
 62
     0
 10
84.2366
 20
44.2433
 30
0.0
 11
81.2366
 21
44.2433
 31
0.0
  0
LINE
  5
570
100
AcDbEntity
  8
0
100
AcDbLine
 62
     0
 10
81.2366
 20
44.2433
 30
0.0
 11
81.2366
 21
36.2437
 31
0.0
  0
LINE
  5
571
100
AcDbEntity
  8
0
100
AcDbLine
 62
     0
 10
81.2366
 20
36.2437
 30
0.0
 11
84.2366
 21
36.2437
 31
0.0
  0
LINE
  5
572
100
AcDbEntity
  8
0
100
AcDbLine
 62
     0
 10
84.2366
 20
36.2437
 30
0.0
 11
84.2366
 21
26.2461
 31
0.0
  0
LINE
  5
573
100
AcDbEntity
  8
0
100
AcDbLine
 62
     0
 10
84.2366
 20
26.2461
 30
0.0
 11
81.2366
 21
26.2461
 31
0.0
  0
LINE
  5
574
100
AcDbEntity
  8
0
100
AcDbLine
 62
     0
 10
81.2366
 20
26.2461
 30
0.0
 11
81.2366
 21
18.2466
 31
0.0
  0
LINE
  5
575
100
AcDbEntity
  8
0
100
AcDbLine
 62
     0
 10
81.2366
 20
18.2466
 30
0.0
 11
84.2366
 21
18.2466
 31
0.0
  0
LINE
  5
576
100
AcDbEntity
  8
0
100
AcDbLine
 62
     0
 10
84.2366
 20
18.2466
 30
0.0
 11
84.2366
 21
8.24893
 31
0.0
  0
LINE
  5
577
100
AcDbEntity
  8
0
100
AcDbLine
 62
     0
 10
84.2366
 20
8.24893
 30
0.0
 11
81.2366
 21
8.24893
 31
0.0
  0
LINE
  5
578
100
AcDbEntity
  8
0
100
AcDbLine
 62
     0
 10
81.2366
 20
8.24893
 30
0.0
 11
81.2366
 21
0.249425
 31
0.0
  0
LINE
  5
579
100
AcDbEntity
  8
0
100
AcDbLine
 62
     0
 10
81.2366
 20
0.249425
 30
0.0
 11
161.225
 21
0.249425
 31
0.0
  0
LINE
  5
57a
100
AcDbEntity
  8
0
100
AcDbLine
 62
     0
 10
161.225
 20
0.249425
 30
0.0
 11
161.225
 21
8.24893
 31
0.0
  0
LINE
  5
57b
100
AcDbEntity
  8
0
100
AcDbLine
 62
     0
 10
125.23
 20
65.2392
 30
0.0
 11
125.23
 21
68.2392
 31
0.0
  0
LINE
  5
57c
100
AcDbEntity
  8
0
100
AcDbLine
 62
     0
 10
125.23
 20
68.2392
 30
0.0
 11
135.228
 21
68.2392
 31
0.0
  0
LINE
  5
57d
100
AcDbEntity
  8
0
100
AcDbLine
 62
     0
 10
135.228
 20
68.2392
 30
0.0
 11
135.228
 21
65.2392
 31
0.0
  0
LINE
  5
57e
100
AcDbEntity
  8
0
100
AcDbLine
 62
     0
 10
135.228
 20
65.2392
 30
0.0
 11
125.23
 21
65.2392
 31
0.0
  0
LINE
  5
57f
100
AcDbEntity
  8
0
100
AcDbLine
 62
     0
 10
89.2362
 20
65.2392
 30
0.0
 11
89.2362
 21
68.2392
 31
0.0
  0
LINE
  5
580
100
AcDbEntity
  8
0
100
AcDbLine
 62
     0
 10
89.2362
 20
68.2392
 30
0.0
 11
99.2339
 21
68.2392
 31
0.0
  0
LINE
  5
581
100
AcDbEntity
  8
0
100
AcDbLine
 62
     0
 10
99.2339
 20
68.2392
 30
0.0
 11
99.2339
 21
65.2392
 31
0.0
  0
LINE
  5
582
100
AcDbEntity
  8
0
100
AcDbLine
 62
     0
 10
99.2339
 20
65.2392
 30
0.0
 11
89.2362
 21
65.2392
 31
0.0
  0
LINE
  5
583
100
AcDbEntity
  8
0
100
AcDbLine
 62
     0
 10
107.234
 20
65.2392
 30
0.0
 11
107.234
 21
68.2392
 31
0.0
  0
LINE
  5
584
100
AcDbEntity
  8
0
100
AcDbLine
 62
     0
 10
107.234
 20
68.2392
 30
0.0
 11
117.231
 21
68.2392
 31
0.0
  0
LINE
  5
585
100
AcDbEntity
  8
0
100
AcDbLine
 62
     0
 10
117.231
 20
68.2392
 30
0.0
 11
117.231
 21
65.2392
 31
0.0
  0
LINE
  5
586
100
AcDbEntity
  8
0
100
AcDbLine
 62
     0
 10
117.231
 20
65.2392
 30
0.0
 11
107.234
 21
65.2392
 31
0.0
  0
LINE
  5
587
100
AcDbEntity
  8
0
100
AcDbLine
 62
     0
 10
143.228
 20
65.2392
 30
0.0
 11
143.228
 21
68.2392
 31
0.0
  0
LINE
  5
588
100
AcDbEntity
  8
0
100
AcDbLine
 62
     0
 10
143.228
 20
68.2392
 30
0.0
 11
153.225
 21
68.2392
 31
0.0
  0
LINE
  5
589
100
AcDbEntity
  8
0
100
AcDbLine
 62
     0
 10
153.225
 20
68.2392
 30
0.0
 11
153.225
 21
65.2392
 31
0.0
  0
LINE
  5
58a
100
AcDbEntity
  8
0
100
AcDbLine
 62
     0
 10
153.225
 20
65.2392
 30
0.0
 11
143.228
 21
65.2392
 31
0.0
  0
ENDSEC
  0
SECTION
  2
OBJECTS
  0
DICTIONARY
  5
C
330
0
100
AcDbDictionary
  3
ACAD_GROUP
350
D
  3
ACAD_LAYOUT
350
1A
  3
ACAD_MLINESTYLE
350
17
  3
ACAD_PLOTSETTINGS
350
19
  3
ACAD_PLOTSTYLENAME
350
E
  3
ACDBHEADERROUNDTRIPXREC
350
2F
  0
DICTIONARY
  5
52
330
1F
100
AcDbDictionary
280
     1
  3
ACAD_LAYOUTSELFREF
360
53
  0
DICTIONARY
  5
50
330
1B
100
AcDbDictionary
280
     1
  3
ACAD_LAYOUTSELFREF
360
51
  0
DICTIONARY
  5
D
102
{ACAD_REACTORS
330
C
102
}
330
C
100
AcDbDictionary
  0
DICTIONARY
  5
1A
102
{ACAD_REACTORS
330
C
102
}
330
C
100
AcDbDictionary
  0
DICTIONARY
  5
17
102
{ACAD_REACTORS
330
C
102
}
330
C
100
AcDbDictionary
  3
STANDARD
350
18
  0
DICTIONARY
  5
19
102
{ACAD_REACTORS
330
C
102
}
330
C
100
AcDbDictionary
  0
ACDBDICTIONARYWDFLT
  5
E
102
{ACAD_REACTORS
330
C
102
}
330
C
100
AcDbDictionary
281
     1
  3
Normal
350
F
100
AcDbDictionaryWithDefault
340
F
  0
DICTIONARY
  5
2F
102
{ACAD_REACTORS
330
C
102
}
330
C
100
AcDbDictionary
  3
CEPSNTYPE
350
39
  3
DIMSTYLEDATA
350
3D
  3
FINGERPRINTGUID
350
3A
  3
HYPERLINKBASE
350
32
  3
INSUNITS
350
38
  3
LAYOUTDICT
350
34
  3
LWETCUNION
350
37
  3
PLOTSETDICT
350
35
  3
PLOTSTYLNAMDICT
350
36
  3
PSVPSCALE
350
3C
  3
PUCSBASE
350
40
  3
PUCSORGBACK
350
46
  3
PUCSORGBOTTOM
350
42
  3
PUCSORGFRONT
350
45
  3
PUCSORGLEFT
350
43
  3
PUCSORGRIGHT
350
44
  3
PUCSORGTOP
350
41
  3
PUCSORTHOREF
350
3E
  3
PUCSORTHOVIEW
350
3F
  3
STYLESHEET
350
33
  3
TSTACKALIGN
350
30
  3
TSTACKSIZE
350
31
  3
UCSBASE
350
49
  3
UCSORGBACK
350
4F
  3
UCSORGBOTTOM
350
4B
  3
UCSORGFRONT
350
4E
  3
UCSORGLEFT
350
4C
  3
UCSORGRIGHT
350
4D
  3
UCSORGTOP
350
4A
  3
UCSORTHOREF
350
47
  3
UCSORTHOVIEW
350
48
  3
VERSIONGUID
350
3B
  0
XRECORD
  5
53
102
{ACAD_REACTORS
330
52
102
}
330
52
100
AcDbXrecord
340
1F
  0
XRECORD
  5
51
102
{ACAD_REACTORS
330
50
102
}
330
50
100
AcDbXrecord
340
1B
  0
MLINESTYLE
  5
18
102
{ACAD_REACTORS
330
17
102
}
330
17
100
AcDbMlineStyle
  2
STANDARD
 70
     0
  3

 62
   256
 51
90.0
 52
90.0
 71
     2
 49
0.5
 62
   256
  6
BYLAYER
 49
-0.5
 62
   256
  6
BYLAYER
  0
ACDBPLACEHOLDER
  5
F
102
{ACAD_REACTORS
330
E
102
}
330
E
100
AcDbPlaceHolder
280
     0
  0
XRECORD
  5
39
102
{ACAD_REACTORS
330
2F
102
}
330
2F
100
AcDbXrecord
 90
        0
  0
XRECORD
  5
3D
102
{ACAD_REACTORS
330
2F
102
}
330
2F
100
AcDbXrecord
1000
DSTYLE
1002
{
1070
   278
 70
    44
1002
}
  0
XRECORD
  5
3A
102
{ACAD_REACTORS
330
2F
102
}
330
2F
100
AcDbXrecord
  1
{705446A6-11D0-4548-8F8C-A97DCA50327D}
  0
XRECORD
  5
32
102
{ACAD_REACTORS
330
2F
102
}
330
2F
100
AcDbXrecord
  1

  0
XRECORD
  5
38
102
{ACAD_REACTORS
330
2F
102
}
330
2F
100
AcDbXrecord
 90
        4
  0
XRECORD
  5
34
102
{ACAD_REACTORS
330
2F
102
}
330
2F
100
AcDbXrecord
340
1A
  0
XRECORD
  5
37
102
{ACAD_REACTORS
330
2F
102
}
330
2F
100
AcDbXrecord
 90
    10781
  0
XRECORD
  5
35
102
{ACAD_REACTORS
330
2F
102
}
330
2F
100
AcDbXrecord
340
19
  0
XRECORD
  5
36
102
{ACAD_REACTORS
330
2F
102
}
330
2F
100
AcDbXrecord
340
E
  0
XRECORD
  5
3C
102
{ACAD_REACTORS
330
2F
102
}
330
2F
100
AcDbXrecord
 40
0.0
  0
XRECORD
  5
40
102
{ACAD_REACTORS
330
2F
102
}
330
2F
100
AcDbXrecord
340
0
  0
XRECORD
  5
46
102
{ACAD_REACTORS
330
2F
102
}
330
2F
100
AcDbXrecord
 10
0.0
 20
0.0
 30
0.0
  0
XRECORD
  5
42
102
{ACAD_REACTORS
330
2F
102
}
330
2F
100
AcDbXrecord
 10
0.0
 20
0.0
 30
0.0
  0
XRECORD
  5
45
102
{ACAD_REACTORS
330
2F
102
}
330
2F
100
AcDbXrecord
 10
0.0
 20
0.0
 30
0.0
  0
XRECORD
  5
43
102
{ACAD_REACTORS
330
2F
102
}
330
2F
100
AcDbXrecord
 10
0.0
 20
0.0
 30
0.0
  0
XRECORD
  5
44
102
{ACAD_REACTORS
330
2F
102
}
330
2F
100
AcDbXrecord
 10
0.0
 20
0.0
 30
0.0
  0
XRECORD
  5
41
102
{ACAD_REACTORS
330
2F
102
}
330
2F
100
AcDbXrecord
 10
0.0
 20
0.0
 30
0.0
  0
XRECORD
  5
3E
102
{ACAD_REACTORS
330
2F
102
}
330
2F
100
AcDbXrecord
340
0
  0
XRECORD
  5
3F
102
{ACAD_REACTORS
330
2F
102
}
330
2F
100
AcDbXrecord
 70
     0
  0
XRECORD
  5
33
102
{ACAD_REACTORS
330
2F
102
}
330
2F
100
AcDbXrecord
  1

  0
XRECORD
  5
30
102
{ACAD_REACTORS
330
2F
102
}
330
2F
100
AcDbXrecord
 90
        1
  0
XRECORD
  5
31
102
{ACAD_REACTORS
330
2F
102
}
330
2F
100
AcDbXrecord
 90
       70
  0
XRECORD
  5
49
102
{ACAD_REACTORS
330
2F
102
}
330
2F
100
AcDbXrecord
340
0
  0
XRECORD
  5
4F
102
{ACAD_REACTORS
330
2F
102
}
330
2F
100
AcDbXrecord
 10
0.0
 20
0.0
 30
0.0
  0
XRECORD
  5
4B
102
{ACAD_REACTORS
330
2F
102
}
330
2F
100
AcDbXrecord
 10
0.0
 20
0.0
 30
0.0
  0
XRECORD
  5
4E
102
{ACAD_REACTORS
330
2F
102
}
330
2F
100
AcDbXrecord
 10
0.0
 20
0.0
 30
0.0
  0
XRECORD
  5
4C
102
{ACAD_REACTORS
330
2F
102
}
330
2F
100
AcDbXrecord
 10
0.0
 20
0.0
 30
0.0
  0
XRECORD
  5
4D
102
{ACAD_REACTORS
330
2F
102
}
330
2F
100
AcDbXrecord
 10
0.0
 20
0.0
 30
0.0
  0
XRECORD
  5
4A
102
{ACAD_REACTORS
330
2F
102
}
330
2F
100
AcDbXrecord
 10
0.0
 20
0.0
 30
0.0
  0
XRECORD
  5
47
102
{ACAD_REACTORS
330
2F
102
}
330
2F
100
AcDbXrecord
340
0
  0
XRECORD
  5
48
102
{ACAD_REACTORS
330
2F
102
}
330
2F
100
AcDbXrecord
 70
     0
  0
XRECORD
  5
3B
102
{ACAD_REACTORS
330
2F
102
}
330
2F
100
AcDbXrecord
  1
{33328E3A-B6B8-4979-86B7-D70DEC2867C2}
  0
ENDSEC
  0
EOF
