<?xml version="1.0" encoding="UTF-8" standalone="no"?>
<!-- Created with Inkscape (http://www.inkscape.org/) -->

<svg
   xmlns:dc="http://purl.org/dc/elements/1.1/"
   xmlns:cc="http://creativecommons.org/ns#"
   xmlns:rdf="http://www.w3.org/1999/02/22-rdf-syntax-ns#"
   xmlns:svg="http://www.w3.org/2000/svg"
   xmlns="http://www.w3.org/2000/svg"
   xmlns:sodipodi="http://sodipodi.sourceforge.net/DTD/sodipodi-0.dtd"
   xmlns:inkscape="http://www.inkscape.org/namespaces/inkscape"
   width="210mm"
   height="297mm"
   viewBox="0 0 210 297"
   version="1.1"
   id="svg2211"
   inkscape:version="0.92.2 5c3e80d, 2017-08-06"
   sodipodi:docname="hingetest.svg">
  <defs
     id="defs2205" />
  <sodipodi:namedview
     id="base"
     pagecolor="#ffffff"
     bordercolor="#666666"
     borderopacity="1.0"
     inkscape:pageopacity="0.0"
     inkscape:pageshadow="2"
     inkscape:zoom="5.6"
     inkscape:cx="253.05994"
     inkscape:cy="593.35628"
     inkscape:document-units="mm"
     inkscape:current-layer="layer1"
     showgrid="false"
     inkscape:window-width="1920"
     inkscape:window-height="1051"
     inkscape:window-x="0"
     inkscape:window-y="0"
     inkscape:window-maximized="1" />
  <metadata
     id="metadata2208">
    <rdf:RDF>
      <cc:Work
         rdf:about="">
        <dc:format>image/svg+xml</dc:format>
        <dc:type
           rdf:resource="http://purl.org/dc/dcmitype/StillImage" />
        <dc:title></dc:title>
      </cc:Work>
    </rdf:RDF>
  </metadata>
  <g
     inkscape:label="Layer 1"
     inkscape:groupmode="layer"
     id="layer1">
    <path
       id="path4538"
       d="m 51.006942,135.62846 c 0,0 32.945818,1.5e-4 32.945818,1.5e-4"
       style="fill:none;stroke:#ff0000;stroke-width:0.14111112"
       inkscape:connector-curvature="0" />
    <path
       id="path4540"
       d="m 51.006942,134.05396 c 0,0 32.945818,1.5e-4 32.945818,1.5e-4"
       style="fill:none;stroke:#ff0000;stroke-width:0.141;stroke-miterlimit:4;stroke-dasharray:none"
       inkscape:connector-curvature="0" />
    <path
       id="path4542"
       d="m 51.006942,137.20258 c 0,0 32.945818,1.5e-4 32.945818,1.5e-4"
       style="fill:none;stroke:#ff0000;stroke-width:0.14111112"
       inkscape:connector-curvature="0" />
    <path
       id="path4556"
       d="m 49.226071,134.8414 c 0,0 16.918052,7e-5 16.918052,7e-5"
       style="fill:none;stroke:#ff0000;stroke-width:0.14111112"
       inkscape:connector-curvature="0" />
    <path
       id="path4558"
       d="m 49.226071,136.41544 c 0,0 16.918052,7e-5 16.918052,7e-5"
       style="fill:none;stroke:#ff0000;stroke-width:0.14111112"
       inkscape:connector-curvature="0" />
    <path
       id="path4568"
       d="m 69.173936,136.41551 c 0,0 16.918427,0 16.918427,0"
       style="fill:none;stroke:#ff0000;stroke-width:0.14111112"
       inkscape:connector-curvature="0" />
    <path
       id="path4570"
       d="m 69.173936,134.84147 c 0,0 16.918427,0 16.918427,0"
       style="fill:none;stroke:#ff0000;stroke-width:0.14111112"
       inkscape:connector-curvature="0" />
    <rect
       style="fill:none;stroke:#000000;stroke-width:0.14696121;stroke-miterlimit:4;stroke-dasharray:none;stroke-opacity:1"
       id="rect2830"
       width="36.872498"
       height="10.486115"
       x="49.215942"
       y="131.0518" />
    <path
       id="path4542-3"
       d="m 51.005463,138.69074 c 0,0 32.945818,1.5e-4 32.945818,1.5e-4"
       style="fill:none;stroke:#ff0000;stroke-width:0.14111112"
       inkscape:connector-curvature="0" />
    <path
       id="path4558-6"
       d="m 49.224592,137.9036 c 0,0 16.918053,7e-5 16.918053,7e-5"
       style="fill:none;stroke:#ff0000;stroke-width:0.14111112"
       inkscape:connector-curvature="0" />
    <path
       id="path4568-7"
       d="m 69.172457,137.90367 c 0,0 16.918428,0 16.918428,0"
       style="fill:none;stroke:#ff0000;stroke-width:0.14111112"
       inkscape:connector-curvature="0" />
  </g>
</svg>
