  0
SECTION
  2
HEADER
  9
$ACADVER
  1
AC1014
  9
$EXTMIN
 10
70.16401489310567
 20
112.369642808922
 30
0.0
  9
$EXTMAX
 10
277.0834797641999
 20
227.1366601424358
 30
0.0
  9
$HANDSEED
  5
56
  9
$MEASUREMENT
 70
1
  0
ENDSEC
  0
SECTION
  2
TABLES
  0
TABLE
  2
VPORT
  5
8
330
0
100
AcDbSymbolTable
 70
     4
  0
VPORT
  5
2E
330
8
100
AcDbSymbolTableRecord
100
AcDbViewportTableRecord
  2
*ACTIVE
 70
     0
 10
0.0
 20
0.0
 11
1.0
 21
1.0
 12
209.9999999999999
 22
148.4999999999999
 13
0.0
 23
0.0
 14
10.0
 24
10.0
 15
10.0
 25
10.0
 16
0.0
 26
0.0
 36
1.0
 17
0.0
 27
0.0
 37
0.0
 40
340.9950045922664
 41
1.239944521497919
 42
50.0
 43
0.0
 44
0.0
 50
0.0
 51
0.0
 71
     0
 72
   100
 73
     1
 74
     3
 75
     0
 76
     0
 77
     0
 78
     0
  0
ENDTAB
  0
TABLE
  2
LTYPE
  5
5
330
0
100
AcDbSymbolTable
 70
     1
  0
LTYPE
  5
14
330
5
100
AcDbSymbolTableRecord
100
AcDbLinetypeTableRecord
  2
BYBLOCK
 70
     0
  3

 72
    65
 73
     0
 40
0.0
  0
LTYPE
  5
15
330
5
100
AcDbSymbolTableRecord
100
AcDbLinetypeTableRecord
  2
BYLAYER
 70
     0
  3

 72
    65
 73
     0
 40
0.0
  0
LTYPE
  5
16
330
5
100
AcDbSymbolTableRecord
100
AcDbLinetypeTableRecord
  2
CONTINUOUS
 70
     0
  3
Solid line
 72
    65
 73
     0
 40
0.0
  0
ENDTAB
  0
TABLE
  2
LAYER
  5
2
330
0
100
AcDbSymbolTable
 70
1
  0
LAYER
  5
10
330
2
100
AcDbSymbolTableRecord
100
AcDbLayerTableRecord
  2
0
 70
     0
 62
     7
  6
CONTINUOUS
  0
ENDTAB
  0
TABLE
  2
STYLE
  5
3
330
0
100
AcDbSymbolTable
 70
     1
  0
STYLE
  5
11
330
3
100
AcDbSymbolTableRecord
100
AcDbTextStyleTableRecord
  2
STANDARD
 70
     0
 40
0.0
 41
1.0
 50
0.0
 71
     0
 42
2.5
  3
txt
  4

  0
ENDTAB
  0
TABLE
  2
VIEW
  5
6
330
0
100
AcDbSymbolTable
 70
     0
  0
ENDTAB
  0
TABLE
  2
UCS
  5
7
330
0
100
AcDbSymbolTable
 70
     0
  0
ENDTAB
  0
TABLE
  2
APPID
  5
9
330
0
100
AcDbSymbolTable
 70
     2
  0
APPID
  5
12
330
9
100
AcDbSymbolTableRecord
100
AcDbRegAppTableRecord
  2
ACAD
 70
     0
  0
APPID
  5
2B
330
9
100
AcDbSymbolTableRecord
100
AcDbRegAppTableRecord
  2
URBANX
 70
     0
  0
ENDTAB
  0
TABLE
  2
DIMSTYLE
  5
A
330
0
100
AcDbSymbolTable
 70
     1
  0
DIMSTYLE
105
27
330
A
100
AcDbSymbolTableRecord
100
AcDbDimStyleTableRecord
  2
ISO-25
 70
     0
  3

  4

  5

  6

  7

 40
1.0
 41
2.5
 42
0.625
 43
3.75
 44
1.25
 45
0.0
 46
0.0
 47
0.0
 48
0.0
140
2.5
141
2.5
142
0.0
143
0.03937007874016
144
1.0
145
0.0
146
1.0
147
0.625
 71
     0
 72
     0
 73
     0
 74
     0
 75
     0
 76
     0
 77
     1
 78
     8
170
     0
171
     3
172
     1
173
     0
174
     0
175
     0
176
     0
177
     0
178
     0
270
     2
271
     2
272
     2
273
     2
274
     3
340
11
275
     0
280
     0
281
     0
282
     0
283
     0
284
     8
285
     0
286
     0
287
     3
288
     0
  0
ENDTAB
  0
TABLE
  2
BLOCK_RECORD
  5
1
330
0
100
AcDbSymbolTable
 70
     1
  0
BLOCK_RECORD
  5
1F
102
{ACAD_XDICTIONARY
360
52
102
}
330
1
100
AcDbSymbolTableRecord
100
AcDbBlockTableRecord
  2
*MODEL_SPACE
  0
BLOCK_RECORD
  5
1B
102
{ACAD_XDICTIONARY
360
50
102
}
330
1
100
AcDbSymbolTableRecord
100
AcDbBlockTableRecord
  2
*PAPER_SPACE
  0
ENDTAB
  0
ENDSEC
  0
SECTION
  2
BLOCKS
  0
BLOCK
  5
20
330
1F
100
AcDbEntity
  8
0
100
AcDbBlockBegin
  2
*MODEL_SPACE
 70
     0
 10
0.0
 20
0.0
 30
0.0
  3
*MODEL_SPACE
  1

  0
ENDBLK
  5
21
330
1F
100
AcDbEntity
  8
0
100
AcDbBlockEnd
  0
BLOCK
  5
1C
330
1B
100
AcDbEntity
 67
     1
  8
0
100
AcDbBlockBegin
  2
*PAPER_SPACE
  1

  0
ENDBLK
  5
1D
330
1B
100
AcDbEntity
 67
     1
  8
0
100
AcDbBlockEnd
  0
ENDSEC
  0
SECTION
  2
ENTITIES
  0
LINE
  5
ff
100
AcDbEntity
  8
0
100
AcDbLine
 62
     3
 10
15.2452
 20
5.75469
 30
0.0
 11
1.09968
 21
5.75469
 31
0.0
  0
LINE
  5
100
100
AcDbEntity
  8
0
100
AcDbLine
 62
     3
 10
1.09968
 20
17.0711
 30
0.0
 11
15.2383
 21
17.0711
 31
0.0
  0
LINE
  5
101
100
AcDbEntity
  8
0
100
AcDbLine
 62
     3
 10
1.09968
 20
14.242
 30
0.0
 11
15.2383
 21
14.242
 31
0.0
  0
LINE
  5
102
100
AcDbEntity
  8
0
100
AcDbLine
 62
     3
 10
1.09968
 20
11.4129
 30
0.0
 11
15.2383
 21
11.4129
 31
0.0
  0
LINE
  5
103
100
AcDbEntity
  8
0
100
AcDbLine
 62
     3
 10
1.09968
 20
8.58379
 30
0.0
 11
15.2383
 21
8.58379
 31
0.0
  0
LINE
  5
104
100
AcDbEntity
  8
0
100
AcDbLine
 62
     3
 10
3.92465
 20
5.75744
 30
0.0
 11
3.92465
 21
19.8961
 31
0.0
  0
LINE
  5
105
100
AcDbEntity
  8
0
100
AcDbLine
 62
     3
 10
6.75513
 20
5.75744
 30
0.0
 11
6.75513
 21
19.8961
 31
0.0
  0
LINE
  5
106
100
AcDbEntity
  8
0
100
AcDbLine
 62
     3
 10
9.58289
 20
5.75744
 30
0.0
 11
9.58289
 21
19.8961
 31
0.0
  0
LINE
  5
107
100
AcDbEntity
  8
0
100
AcDbLine
 62
     3
 10
12.412
 20
5.75744
 30
0.0
 11
12.412
 21
19.8961
 31
0.0
  0
LINE
  5
108
100
AcDbEntity
  8
0
100
AcDbLine
 62
     3
 10
15.2452
 20
19.9003
 30
0.0
 11
15.2452
 21
0.124024
 31
0.0
  0
LINE
  5
109
100
AcDbEntity
  8
0
100
AcDbLine
 62
     4
 10
0.103353
 20
20.8966
 30
0.0
 11
20.8966
 21
20.8966
 31
0.0
  0
LINE
  5
10a
100
AcDbEntity
  8
0
100
AcDbLine
 62
     4
 10
20.8966
 20
20.8966
 30
0.0
 11
20.8966
 21
0.103353
 31
0.0
  0
LINE
  5
10b
100
AcDbEntity
  8
0
100
AcDbLine
 62
     4
 10
20.8966
 20
0.103353
 30
0.0
 11
0.103353
 21
0.103353
 31
0.0
  0
LINE
  5
10c
100
AcDbEntity
  8
0
100
AcDbLine
 62
     4
 10
0.103353
 20
0.103353
 30
0.0
 11
0.103353
 21
20.8966
 31
0.0
  0
LINE
  5
10d
100
AcDbEntity
  8
0
100
AcDbLine
 62
     0
 10
9.57873
 20
14.3123
 30
0.0
 11
12.2783
 21
14.3123
 31
0.0
  0
LINE
  5
10e
100
AcDbEntity
  8
0
100
AcDbLine
 62
     0
 10
12.2783
 20
14.3123
 30
0.0
 11
12.2783
 21
17.0753
 31
0.0
  0
LINE
  5
10f
100
AcDbEntity
  8
0
100
AcDbLine
 62
     0
 10
12.2783
 20
17.0753
 30
0.0
 11
9.57873
 21
17.0753
 31
0.0
  0
LINE
  5
110
100
AcDbEntity
  8
0
100
AcDbLine
 62
     0
 10
9.57873
 20
17.0753
 30
0.0
 11
9.57873
 21
14.3123
 31
0.0
  0
LINE
  5
111
100
AcDbEntity
  8
0
100
AcDbLine
 62
     0
 10
10.2099
 20
14.5176
 30
0.0
 11
10.3987
 21
14.9751
 31
0.0
  0
LINE
  5
112
100
AcDbEntity
  8
0
100
AcDbLine
 62
     0
 10
10.3987
 20
14.9751
 30
0.0
 11
10.5489
 21
14.9751
 31
0.0
  0
SPLINE
  5
113
100
AcDbEntity
  8
0
100
AcDbSpline
210
0.0
220
0.0
230
1.0
 62
     0
 70
     0
 71
     3
 72
     8
 73
4
 40
0.0
 40
0.0
 40
0.0
 40
0.0
 40
1.0
 40
1.0
 40
1.0
 40
1.0
 10
10.5489
 20
14.9751
 30
0.0
 10
10.5144
 20
15.0206
 30
0.0
 10
10.4938
 20
15.0771
 30
0.0
 10
10.4938
 20
15.1378
 30
0.0
  0
LINE
  5
114
100
AcDbEntity
  8
0
100
AcDbLine
 62
     0
 10
10.4938
 20
15.1378
 30
0.0
 11
10.4938
 21
15.9811
 31
0.0
  0
SPLINE
  5
115
100
AcDbEntity
  8
0
100
AcDbSpline
210
0.0
220
0.0
230
1.0
 62
     0
 70
     0
 71
     3
 72
     8
 73
4
 40
0.0
 40
0.0
 40
0.0
 40
0.0
 40
1.0
 40
1.0
 40
1.0
 40
1.0
 10
10.4938
 20
15.9811
 30
0.0
 10
10.4938
 20
16.0789
 30
0.0
 10
10.5447
 20
16.163
 30
0.0
 10
10.6219
 20
16.2112
 30
0.0
  0
SPLINE
  5
116
100
AcDbEntity
  8
0
100
AcDbSpline
210
0.0
220
0.0
230
1.0
 62
     0
 70
     0
 71
     3
 72
     8
 73
4
 40
0.0
 40
0.0
 40
0.0
 40
0.0
 40
1.0
 40
1.0
 40
1.0
 40
1.0
 10
10.6219
 20
16.2112
 30
0.0
 10
10.5351
 20
16.2815
 30
0.0
 10
10.4786
 20
16.3862
 30
0.0
 10
10.4786
 20
16.5062
 30
0.0
  0
SPLINE
  5
117
100
AcDbEntity
  8
0
100
AcDbSpline
210
0.0
220
0.0
230
1.0
 62
     0
 70
     0
 71
     3
 72
     8
 73
4
 40
0.0
 40
0.0
 40
0.0
 40
0.0
 40
1.0
 40
1.0
 40
1.0
 40
1.0
 10
10.4786
 20
16.5062
 30
0.0
 10
10.4786
 20
16.7156
 30
0.0
 10
10.6481
 20
16.8851
 30
0.0
 10
10.8575
 20
16.8851
 30
0.0
  0
SPLINE
  5
118
100
AcDbEntity
  8
0
100
AcDbSpline
210
0.0
220
0.0
230
1.0
 62
     0
 70
     0
 71
     3
 72
     8
 73
4
 40
0.0
 40
0.0
 40
0.0
 40
0.0
 40
1.0
 40
1.0
 40
1.0
 40
1.0
 10
10.8575
 20
16.8851
 30
0.0
 10
11.067
 20
16.8851
 30
0.0
 10
11.2365
 20
16.7156
 30
0.0
 10
11.2365
 20
16.5062
 30
0.0
  0
SPLINE
  5
119
100
AcDbEntity
  8
0
100
AcDbSpline
210
0.0
220
0.0
230
1.0
 62
     0
 70
     0
 71
     3
 72
     8
 73
4
 40
0.0
 40
0.0
 40
0.0
 40
0.0
 40
1.0
 40
1.0
 40
1.0
 40
1.0
 10
11.2365
 20
16.5062
 30
0.0
 10
11.2365
 20
16.3862
 30
0.0
 10
11.1786
 20
16.2815
 30
0.0
 10
11.0918
 20
16.2112
 30
0.0
  0
SPLINE
  5
11a
100
AcDbEntity
  8
0
100
AcDbSpline
210
0.0
220
0.0
230
1.0
 62
     0
 70
     0
 71
     3
 72
     8
 73
4
 40
0.0
 40
0.0
 40
0.0
 40
0.0
 40
1.0
 40
1.0
 40
1.0
 40
1.0
 10
11.0918
 20
16.2112
 30
0.0
 10
11.169
 20
16.163
 30
0.0
 10
11.22
 20
16.0776
 30
0.0
 10
11.22
 20
15.9811
 30
0.0
  0
LINE
  5
11b
100
AcDbEntity
  8
0
100
AcDbLine
 62
     0
 10
11.22
 20
15.9811
 30
0.0
 11
11.22
 21
15.1378
 31
0.0
  0
SPLINE
  5
11c
100
AcDbEntity
  8
0
100
AcDbSpline
210
0.0
220
0.0
230
1.0
 62
     0
 70
     0
 71
     3
 72
     8
 73
4
 40
0.0
 40
0.0
 40
0.0
 40
0.0
 40
1.0
 40
1.0
 40
1.0
 40
1.0
 10
11.22
 20
15.1378
 30
0.0
 10
11.22
 20
15.0771
 30
0.0
 10
11.1993
 20
15.0206
 30
0.0
 10
11.1649
 20
14.9751
 30
0.0
  0
LINE
  5
11d
100
AcDbEntity
  8
0
100
AcDbLine
 62
     0
 10
11.1649
 20
14.9751
 30
0.0
 11
11.3151
 21
14.9751
 31
0.0
  0
LINE
  5
11e
100
AcDbEntity
  8
0
100
AcDbLine
 62
     0
 10
11.3151
 20
14.9751
 30
0.0
 11
11.5052
 21
14.5176
 31
0.0
  0
LINE
  5
11f
100
AcDbEntity
  8
0
100
AcDbLine
 62
     0
 10
11.5052
 20
14.5176
 30
0.0
 11
10.2099
 21
14.5176
 31
0.0
  0
LINE
  5
120
100
AcDbEntity
  8
0
100
AcDbLine
 62
     0
 10
8.23376
 20
19.1382
 30
0.0
 11
8.3385
 21
18.9012
 31
0.0
  0
LINE
  5
121
100
AcDbEntity
  8
0
100
AcDbLine
 62
     0
 10
8.3385
 20
18.9012
 30
0.0
 11
8.38951
 21
18.7854
 31
0.0
  0
LINE
  5
122
100
AcDbEntity
  8
0
100
AcDbLine
 62
     0
 10
8.38951
 20
18.7854
 30
0.0
 11
8.51489
 21
18.7992
 31
0.0
  0
LINE
  5
123
100
AcDbEntity
  8
0
100
AcDbLine
 62
     0
 10
8.51489
 20
18.7992
 30
0.0
 11
8.77397
 21
18.8268
 31
0.0
  0
LINE
  5
124
100
AcDbEntity
  8
0
100
AcDbLine
 62
     0
 10
8.77397
 20
18.8268
 30
0.0
 11
8.61963
 21
18.6173
 31
0.0
  0
LINE
  5
125
100
AcDbEntity
  8
0
100
AcDbLine
 62
     0
 10
8.61963
 20
18.6173
 30
0.0
 11
8.54523
 21
18.5153
 31
0.0
  0
LINE
  5
126
100
AcDbEntity
  8
0
100
AcDbLine
 62
     0
 10
8.54523
 20
18.5153
 30
0.0
 11
8.61963
 21
18.4133
 31
0.0
  0
LINE
  5
127
100
AcDbEntity
  8
0
100
AcDbLine
 62
     0
 10
8.61963
 20
18.4133
 30
0.0
 11
8.77397
 21
18.2039
 31
0.0
  0
LINE
  5
128
100
AcDbEntity
  8
0
100
AcDbLine
 62
     0
 10
8.77397
 20
18.2039
 30
0.0
 11
8.51489
 21
18.2314
 31
0.0
  0
LINE
  5
129
100
AcDbEntity
  8
0
100
AcDbLine
 62
     0
 10
8.51489
 20
18.2314
 30
0.0
 11
8.38951
 21
18.2452
 31
0.0
  0
LINE
  5
12a
100
AcDbEntity
  8
0
100
AcDbLine
 62
     0
 10
8.38951
 20
18.2452
 30
0.0
 11
8.3385
 21
18.1295
 31
0.0
  0
LINE
  5
12b
100
AcDbEntity
  8
0
100
AcDbLine
 62
     0
 10
8.3385
 20
18.1295
 30
0.0
 11
8.23376
 21
17.8911
 31
0.0
  0
LINE
  5
12c
100
AcDbEntity
  8
0
100
AcDbLine
 62
     0
 10
8.23376
 20
17.8911
 30
0.0
 11
8.12906
 21
18.1295
 31
0.0
  0
LINE
  5
12d
100
AcDbEntity
  8
0
100
AcDbLine
 62
     0
 10
8.12906
 20
18.1295
 30
0.0
 11
8.07805
 21
18.2452
 31
0.0
  0
LINE
  5
12e
100
AcDbEntity
  8
0
100
AcDbLine
 62
     0
 10
8.07805
 20
18.2452
 30
0.0
 11
7.95267
 21
18.2314
 31
0.0
  0
LINE
  5
12f
100
AcDbEntity
  8
0
100
AcDbLine
 62
     0
 10
7.95267
 20
18.2314
 30
0.0
 11
7.69359
 21
18.2039
 31
0.0
  0
LINE
  5
130
100
AcDbEntity
  8
0
100
AcDbLine
 62
     0
 10
7.69359
 20
18.2039
 30
0.0
 11
7.84655
 21
18.4133
 31
0.0
  0
LINE
  5
131
100
AcDbEntity
  8
0
100
AcDbLine
 62
     0
 10
7.84655
 20
18.4133
 30
0.0
 11
7.92095
 21
18.5153
 31
0.0
  0
LINE
  5
132
100
AcDbEntity
  8
0
100
AcDbLine
 62
     0
 10
7.92095
 20
18.5153
 30
0.0
 11
7.84655
 21
18.6173
 31
0.0
  0
LINE
  5
133
100
AcDbEntity
  8
0
100
AcDbLine
 62
     0
 10
7.84655
 20
18.6173
 30
0.0
 11
7.69359
 21
18.8268
 31
0.0
  0
LINE
  5
134
100
AcDbEntity
  8
0
100
AcDbLine
 62
     0
 10
7.69359
 20
18.8268
 30
0.0
 11
7.95267
 21
18.7992
 31
0.0
  0
LINE
  5
135
100
AcDbEntity
  8
0
100
AcDbLine
 62
     0
 10
7.95267
 20
18.7992
 30
0.0
 11
8.07805
 21
18.7854
 31
0.0
  0
LINE
  5
136
100
AcDbEntity
  8
0
100
AcDbLine
 62
     0
 10
8.07805
 20
18.7854
 30
0.0
 11
8.12906
 21
18.9012
 31
0.0
  0
LINE
  5
137
100
AcDbEntity
  8
0
100
AcDbLine
 62
     0
 10
8.12906
 20
18.9012
 30
0.0
 11
8.23376
 21
19.1382
 31
0.0
  0
LINE
  5
138
100
AcDbEntity
  8
0
100
AcDbLine
 62
     0
 10
8.23376
 20
19.6687
 30
0.0
 11
7.94575
 21
19.0142
 31
0.0
  0
LINE
  5
139
100
AcDbEntity
  8
0
100
AcDbLine
 62
     0
 10
7.94575
 20
19.0142
 30
0.0
 11
7.2347
 21
19.0913
 31
0.0
  0
LINE
  5
13a
100
AcDbEntity
  8
0
100
AcDbLine
 62
     0
 10
7.2347
 20
19.0913
 30
0.0
 11
7.65637
 21
18.5153
 31
0.0
  0
LINE
  5
13b
100
AcDbEntity
  8
0
100
AcDbLine
 62
     0
 10
7.65637
 20
18.5153
 30
0.0
 11
7.2347
 21
17.9379
 31
0.0
  0
LINE
  5
13c
100
AcDbEntity
  8
0
100
AcDbLine
 62
     0
 10
7.2347
 20
17.9379
 30
0.0
 11
7.94575
 21
18.0151
 31
0.0
  0
LINE
  5
13d
100
AcDbEntity
  8
0
100
AcDbLine
 62
     0
 10
7.94575
 20
18.0151
 30
0.0
 11
8.23376
 21
17.3619
 31
0.0
  0
LINE
  5
13e
100
AcDbEntity
  8
0
100
AcDbLine
 62
     0
 10
8.23376
 20
17.3619
 30
0.0
 11
8.52181
 21
18.0151
 31
0.0
  0
LINE
  5
13f
100
AcDbEntity
  8
0
100
AcDbLine
 62
     0
 10
8.52181
 20
18.0151
 30
0.0
 11
9.23286
 21
17.9379
 31
0.0
  0
LINE
  5
140
100
AcDbEntity
  8
0
100
AcDbLine
 62
     0
 10
9.23286
 20
17.9379
 30
0.0
 11
8.80981
 21
18.5153
 31
0.0
  0
LINE
  5
141
100
AcDbEntity
  8
0
100
AcDbLine
 62
     0
 10
8.80981
 20
18.5153
 30
0.0
 11
9.23286
 21
19.0913
 31
0.0
  0
LINE
  5
142
100
AcDbEntity
  8
0
100
AcDbLine
 62
     0
 10
9.23286
 20
19.0913
 30
0.0
 11
8.52181
 21
19.0142
 31
0.0
  0
LINE
  5
143
100
AcDbEntity
  8
0
100
AcDbLine
 62
     0
 10
8.52181
 20
19.0142
 30
0.0
 11
8.23376
 21
19.6687
 31
0.0
  0
LINE
  5
144
100
AcDbEntity
  8
0
100
AcDbLine
 62
     0
 10
1.12034
 20
16.1037
 30
0.0
 11
2.07532
 21
17.0587
 31
0.0
  0
LINE
  5
145
100
AcDbEntity
  8
0
100
AcDbLine
 62
     0
 10
2.07532
 20
17.0587
 30
0.0
 11
1.14102
 21
17.0587
 31
0.0
  0
LINE
  5
146
100
AcDbEntity
  8
0
100
AcDbLine
 62
     0
 10
1.14102
 20
17.0587
 30
0.0
 11
1.12034
 21
16.1037
 31
0.0
  0
LINE
  5
147
100
AcDbEntity
  8
0
100
AcDbLine
 62
     0
 10
3.87643
 20
15.2742
 30
0.0
 11
2.92144
 21
14.3192
 31
0.0
  0
LINE
  5
148
100
AcDbEntity
  8
0
100
AcDbLine
 62
     0
 10
2.92144
 20
14.3192
 30
0.0
 11
3.85576
 21
14.3192
 31
0.0
  0
LINE
  5
149
100
AcDbEntity
  8
0
100
AcDbLine
 62
     0
 10
3.85576
 20
14.3192
 30
0.0
 11
3.87643
 21
15.2742
 31
0.0
  0
SPLINE
  5
14a
100
AcDbEntity
  8
0
100
AcDbSpline
210
0.0
220
0.0
230
1.0
 62
     0
 70
     0
 71
     3
 72
     8
 73
4
 40
0.0
 40
0.0
 40
0.0
 40
0.0
 40
1.0
 40
1.0
 40
1.0
 40
1.0
 10
8.70783
 20
15.689
 30
0.0
 10
8.70783
 20
15.4271
 30
0.0
 10
8.49559
 20
15.2149
 30
0.0
 10
8.23376
 20
15.2149
 30
0.0
  0
SPLINE
  5
14b
100
AcDbEntity
  8
0
100
AcDbSpline
210
0.0
220
0.0
230
1.0
 62
     0
 70
     0
 71
     3
 72
     8
 73
4
 40
0.0
 40
0.0
 40
0.0
 40
0.0
 40
1.0
 40
1.0
 40
1.0
 40
1.0
 10
8.23376
 20
15.2149
 30
0.0
 10
7.97197
 20
15.2149
 30
0.0
 10
7.75974
 20
15.4271
 30
0.0
 10
7.75974
 20
15.689
 30
0.0
  0
SPLINE
  5
14c
100
AcDbEntity
  8
0
100
AcDbSpline
210
0.0
220
0.0
230
1.0
 62
     0
 70
     0
 71
     3
 72
     8
 73
4
 40
0.0
 40
0.0
 40
0.0
 40
0.0
 40
1.0
 40
1.0
 40
1.0
 40
1.0
 10
7.75974
 20
15.689
 30
0.0
 10
7.75974
 20
15.9508
 30
0.0
 10
7.97197
 20
16.163
 30
0.0
 10
8.23376
 20
16.163
 30
0.0
  0
SPLINE
  5
14d
100
AcDbEntity
  8
0
100
AcDbSpline
210
0.0
220
0.0
230
1.0
 62
     0
 70
     0
 71
     3
 72
     8
 73
4
 40
0.0
 40
0.0
 40
0.0
 40
0.0
 40
1.0
 40
1.0
 40
1.0
 40
1.0
 10
8.23376
 20
16.163
 30
0.0
 10
8.49559
 20
16.163
 30
0.0
 10
8.70783
 20
15.9508
 30
0.0
 10
8.70783
 20
15.689
 30
0.0
  0
SPLINE
  5
14e
100
AcDbEntity
  8
0
100
AcDbSpline
210
0.0
220
0.0
230
1.0
 62
     0
 70
     0
 71
     3
 72
     8
 73
4
 40
0.0
 40
0.0
 40
0.0
 40
0.0
 40
1.0
 40
1.0
 40
1.0
 40
1.0
 10
11.8801
 20
18.5153
 30
0.0
 10
11.8801
 20
17.9917
 30
0.0
 10
11.457
 20
17.5672
 30
0.0
 10
10.9334
 20
17.5672
 30
0.0
  0
SPLINE
  5
14f
100
AcDbEntity
  8
0
100
AcDbSpline
210
0.0
220
0.0
230
1.0
 62
     0
 70
     0
 71
     3
 72
     8
 73
4
 40
0.0
 40
0.0
 40
0.0
 40
0.0
 40
1.0
 40
1.0
 40
1.0
 40
1.0
 10
10.9334
 20
17.5672
 30
0.0
 10
10.4097
 20
17.5672
 30
0.0
 10
9.98664
 20
17.9917
 30
0.0
 10
9.98664
 20
18.5153
 30
0.0
  0
SPLINE
  5
150
100
AcDbEntity
  8
0
100
AcDbSpline
210
0.0
220
0.0
230
1.0
 62
     0
 70
     0
 71
     3
 72
     8
 73
4
 40
0.0
 40
0.0
 40
0.0
 40
0.0
 40
1.0
 40
1.0
 40
1.0
 40
1.0
 10
9.98664
 20
18.5153
 30
0.0
 10
9.98664
 20
19.0376
 30
0.0
 10
10.4097
 20
19.462
 30
0.0
 10
10.9334
 20
19.462
 30
0.0
  0
SPLINE
  5
151
100
AcDbEntity
  8
0
100
AcDbSpline
210
0.0
220
0.0
230
1.0
 62
     0
 70
     0
 71
     3
 72
     8
 73
4
 40
0.0
 40
0.0
 40
0.0
 40
0.0
 40
1.0
 40
1.0
 40
1.0
 40
1.0
 10
10.9334
 20
19.462
 30
0.0
 10
11.457
 20
19.462
 30
0.0
 10
11.8801
 20
19.0376
 30
0.0
 10
11.8801
 20
18.5153
 30
0.0
  0
LINE
  5
152
100
AcDbEntity
  8
0
100
AcDbLine
 62
     0
 10
14.2462
 20
17.7891
 30
0.0
 11
14.0973
 21
17.7891
 31
0.0
  0
SPLINE
  5
153
100
AcDbEntity
  8
0
100
AcDbSpline
210
0.0
220
0.0
230
1.0
 62
     0
 70
     0
 71
     3
 72
     8
 73
4
 40
0.0
 40
0.0
 40
0.0
 40
0.0
 40
1.0
 40
1.0
 40
1.0
 40
1.0
 10
14.0973
 20
17.7891
 30
0.0
 10
14.1304
 20
17.8346
 30
0.0
 10
14.1525
 20
17.8897
 30
0.0
 10
14.1525
 20
17.9517
 30
0.0
  0
LINE
  5
154
100
AcDbEntity
  8
0
100
AcDbLine
 62
     0
 10
14.1525
 20
17.9517
 30
0.0
 11
14.1525
 21
18.795
 31
0.0
  0
SPLINE
  5
155
100
AcDbEntity
  8
0
100
AcDbSpline
210
0.0
220
0.0
230
1.0
 62
     0
 70
     0
 71
     3
 72
     8
 73
4
 40
0.0
 40
0.0
 40
0.0
 40
0.0
 40
1.0
 40
1.0
 40
1.0
 40
1.0
 10
14.1525
 20
18.795
 30
0.0
 10
14.1525
 20
18.8915
 30
0.0
 10
14.1001
 20
18.977
 30
0.0
 10
14.0229
 20
19.0252
 30
0.0
  0
SPLINE
  5
156
100
AcDbEntity
  8
0
100
AcDbSpline
210
0.0
220
0.0
230
1.0
 62
     0
 70
     0
 71
     3
 72
     8
 73
4
 40
0.0
 40
0.0
 40
0.0
 40
0.0
 40
1.0
 40
1.0
 40
1.0
 40
1.0
 10
14.0229
 20
19.0252
 30
0.0
 10
14.1111
 20
19.0941
 30
0.0
 10
14.1676
 20
19.2002
 30
0.0
 10
14.1676
 20
19.3201
 30
0.0
  0
SPLINE
  5
157
100
AcDbEntity
  8
0
100
AcDbSpline
210
0.0
220
0.0
230
1.0
 62
     0
 70
     0
 71
     3
 72
     8
 73
4
 40
0.0
 40
0.0
 40
0.0
 40
0.0
 40
1.0
 40
1.0
 40
1.0
 40
1.0
 10
14.1676
 20
19.3201
 30
0.0
 10
14.1676
 20
19.5296
 30
0.0
 10
13.9981
 20
19.699
 30
0.0
 10
13.7886
 20
19.699
 30
0.0
  0
SPLINE
  5
158
100
AcDbEntity
  8
0
100
AcDbSpline
210
0.0
220
0.0
230
1.0
 62
     0
 70
     0
 71
     3
 72
     8
 73
4
 40
0.0
 40
0.0
 40
0.0
 40
0.0
 40
1.0
 40
1.0
 40
1.0
 40
1.0
 10
13.7886
 20
19.699
 30
0.0
 10
13.5792
 20
19.699
 30
0.0
 10
13.4097
 20
19.5296
 30
0.0
 10
13.4097
 20
19.3201
 30
0.0
  0
SPLINE
  5
159
100
AcDbEntity
  8
0
100
AcDbSpline
210
0.0
220
0.0
230
1.0
 62
     0
 70
     0
 71
     3
 72
     8
 73
4
 40
0.0
 40
0.0
 40
0.0
 40
0.0
 40
1.0
 40
1.0
 40
1.0
 40
1.0
 10
13.4097
 20
19.3201
 30
0.0
 10
13.4097
 20
19.2002
 30
0.0
 10
13.4662
 20
19.0941
 30
0.0
 10
13.5544
 20
19.0252
 30
0.0
  0
SPLINE
  5
15a
100
AcDbEntity
  8
0
100
AcDbSpline
210
0.0
220
0.0
230
1.0
 62
     0
 70
     0
 71
     3
 72
     8
 73
4
 40
0.0
 40
0.0
 40
0.0
 40
0.0
 40
1.0
 40
1.0
 40
1.0
 40
1.0
 10
13.5544
 20
19.0252
 30
0.0
 10
13.4772
 20
18.977
 30
0.0
 10
13.4249
 20
18.8915
 30
0.0
 10
13.4249
 20
18.795
 30
0.0
  0
LINE
  5
15b
100
AcDbEntity
  8
0
100
AcDbLine
 62
     0
 10
13.4249
 20
18.795
 30
0.0
 11
13.4249
 21
17.9517
 31
0.0
  0
SPLINE
  5
15c
100
AcDbEntity
  8
0
100
AcDbSpline
210
0.0
220
0.0
230
1.0
 62
     0
 70
     0
 71
     3
 72
     8
 73
4
 40
0.0
 40
0.0
 40
0.0
 40
0.0
 40
1.0
 40
1.0
 40
1.0
 40
1.0
 10
13.4249
 20
17.9517
 30
0.0
 10
13.4249
 20
17.8897
 30
0.0
 10
13.4469
 20
17.8346
 30
0.0
 10
13.48
 20
17.7891
 30
0.0
  0
LINE
  5
15d
100
AcDbEntity
  8
0
100
AcDbLine
 62
     0
 10
13.48
 20
17.7891
 30
0.0
 11
13.3312
 21
17.7891
 31
0.0
  0
LINE
  5
15e
100
AcDbEntity
  8
0
100
AcDbLine
 62
     0
 10
13.3312
 20
17.7891
 30
0.0
 11
13.141
 21
17.3316
 31
0.0
  0
LINE
  5
15f
100
AcDbEntity
  8
0
100
AcDbLine
 62
     0
 10
13.141
 20
17.3316
 30
0.0
 11
14.4363
 21
17.3316
 31
0.0
  0
LINE
  5
160
100
AcDbEntity
  8
0
100
AcDbLine
 62
     0
 10
14.4363
 20
17.3316
 30
0.0
 11
14.2462
 21
17.7891
 31
0.0
  0
LINE
  5
161
100
AcDbEntity
  8
0
100
AcDbLine
 62
     0
 10
12.8295
 20
16.6481
 30
0.0
 11
14.7478
 21
16.6481
 31
0.0
  0
LINE
  5
162
100
AcDbEntity
  8
0
100
AcDbLine
 62
     0
 10
14.7478
 20
16.6481
 30
0.0
 11
14.7478
 21
14.7298
 31
0.0
  0
LINE
  5
163
100
AcDbEntity
  8
0
100
AcDbLine
 62
     0
 10
14.7478
 20
14.7298
 30
0.0
 11
12.8295
 21
14.7298
 31
0.0
  0
LINE
  5
164
100
AcDbEntity
  8
0
100
AcDbLine
 62
     0
 10
12.8295
 20
14.7298
 30
0.0
 11
12.8295
 21
16.6481
 31
0.0
  0
LINE
  5
165
100
AcDbEntity
  8
0
100
AcDbLine
 62
     0
 10
3.55533
 20
11.909
 30
0.0
 11
2.47633
 21
12.6945
 31
0.0
  0
LINE
  5
166
100
AcDbEntity
  8
0
100
AcDbLine
 62
     0
 10
2.47633
 20
12.6945
 30
0.0
 11
1.39595
 21
11.909
 31
0.0
  0
LINE
  5
167
100
AcDbEntity
  8
0
100
AcDbLine
 62
     0
 10
1.39595
 20
11.909
 30
0.0
 11
1.39595
 21
12.8929
 31
0.0
  0
LINE
  5
168
100
AcDbEntity
  8
0
100
AcDbLine
 62
     0
 10
1.39595
 20
12.8929
 30
0.0
 11
2.47633
 21
13.6784
 31
0.0
  0
LINE
  5
169
100
AcDbEntity
  8
0
100
AcDbLine
 62
     0
 10
2.47633
 20
13.6784
 30
0.0
 11
3.55533
 21
12.8929
 31
0.0
  0
LINE
  5
16a
100
AcDbEntity
  8
0
100
AcDbLine
 62
     0
 10
3.55533
 20
12.8929
 30
0.0
 11
3.55533
 21
11.909
 31
0.0
  0
SPLINE
  5
16b
100
AcDbEntity
  8
0
100
AcDbSpline
210
0.0
220
0.0
230
1.0
 62
     0
 70
     0
 71
     3
 72
     8
 73
4
 40
0.0
 40
0.0
 40
0.0
 40
0.0
 40
1.0
 40
1.0
 40
1.0
 40
1.0
 10
6.46987
 20
15.7896
 30
0.0
 10
6.47404
 20
16.0418
 30
0.0
 10
6.43682
 20
16.3229
 30
0.0
 10
6.3693
 20
16.429
 30
0.0
  0
SPLINE
  5
16c
100
AcDbEntity
  8
0
100
AcDbSpline
210
0.0
220
0.0
230
1.0
 62
     0
 70
     0
 71
     3
 72
     8
 73
4
 40
0.0
 40
0.0
 40
0.0
 40
0.0
 40
1.0
 40
1.0
 40
1.0
 40
1.0
 10
6.3693
 20
16.429
 30
0.0
 10
6.09092
 20
16.8603
 30
0.0
 10
5.30821
 20
17.0105
 30
0.0
 10
4.7873
 20
16.7321
 30
0.0
  0
SPLINE
  5
16d
100
AcDbEntity
  8
0
100
AcDbSpline
210
0.0
220
0.0
230
1.0
 62
     0
 70
     0
 71
     3
 72
     8
 73
4
 40
0.0
 40
0.0
 40
0.0
 40
0.0
 40
1.0
 40
1.0
 40
1.0
 40
1.0
 10
4.7873
 20
16.7321
 30
0.0
 10
4.62608
 20
16.6453
 30
0.0
 10
4.44556
 20
16.4965
 30
0.0
 10
4.3863
 20
16.4
 30
0.0
  0
SPLINE
  5
16e
100
AcDbEntity
  8
0
100
AcDbSpline
210
0.0
220
0.0
230
1.0
 62
     0
 70
     0
 71
     3
 72
     8
 73
4
 40
0.0
 40
0.0
 40
0.0
 40
0.0
 40
1.0
 40
1.0
 40
1.0
 40
1.0
 10
4.3863
 20
16.4
 30
0.0
 10
4.26226
 20
16.2002
 30
0.0
 10
4.24296
 20
15.7262
 30
0.0
 10
4.34633
 20
15.4285
 30
0.0
  0
SPLINE
  5
16f
100
AcDbEntity
  8
0
100
AcDbSpline
210
0.0
220
0.0
230
1.0
 62
     0
 70
     0
 71
     3
 72
     8
 73
4
 40
0.0
 40
0.0
 40
0.0
 40
0.0
 40
1.0
 40
1.0
 40
1.0
 40
1.0
 10
4.34633
 20
15.4285
 30
0.0
 10
4.42076
 20
15.2149
 30
0.0
 10
4.57232
 20
15.1005
 30
0.0
 10
4.94993
 20
15.0482
 30
0.0
  0
SPLINE
  5
170
100
AcDbEntity
  8
0
100
AcDbSpline
210
0.0
220
0.0
230
1.0
 62
     0
 70
     0
 71
     3
 72
     8
 73
4
 40
0.0
 40
0.0
 40
0.0
 40
0.0
 40
1.0
 40
1.0
 40
1.0
 40
1.0
 10
4.94993
 20
15.0482
 30
0.0
 10
4.96919
 20
15.0454
 30
0.0
 10
4.94852
 20
14.9793
 30
0.0
 10
4.96919
 20
14.9738
 30
0.0
  0
SPLINE
  5
171
100
AcDbEntity
  8
0
100
AcDbSpline
210
0.0
220
0.0
230
1.0
 62
     0
 70
     0
 71
     3
 72
     8
 73
4
 40
0.0
 40
0.0
 40
0.0
 40
0.0
 40
1.0
 40
1.0
 40
1.0
 40
1.0
 10
4.96919
 20
14.9738
 30
0.0
 10
5.06568
 20
14.9462
 30
0.0
 10
5.27787
 20
14.9421
 30
0.0
 10
5.38812
 20
14.9393
 30
0.0
  0
SPLINE
  5
172
100
AcDbEntity
  8
0
100
AcDbSpline
210
0.0
220
0.0
230
1.0
 62
     0
 70
     0
 71
     3
 72
     8
 73
4
 40
0.0
 40
0.0
 40
0.0
 40
0.0
 40
1.0
 40
1.0
 40
1.0
 40
1.0
 10
5.38812
 20
14.9393
 30
0.0
 10
5.5397
 20
14.9352
 30
0.0
 10
5.70234
 20
14.9283
 30
0.0
 10
5.82221
 20
14.9614
 30
0.0
  0
SPLINE
  5
173
100
AcDbEntity
  8
0
100
AcDbSpline
210
0.0
220
0.0
230
1.0
 62
     0
 70
     0
 71
     3
 72
     8
 73
4
 40
0.0
 40
0.0
 40
0.0
 40
0.0
 40
1.0
 40
1.0
 40
1.0
 40
1.0
 10
5.82221
 20
14.9614
 30
0.0
 10
5.84013
 20
14.9669
 30
0.0
 10
5.82083
 20
15.0399
 30
0.0
 10
5.83875
 20
15.0427
 30
0.0
  0
SPLINE
  5
174
100
AcDbEntity
  8
0
100
AcDbSpline
210
0.0
220
0.0
230
1.0
 62
     0
 70
     0
 71
     3
 72
     8
 73
4
 40
0.0
 40
0.0
 40
0.0
 40
0.0
 40
1.0
 40
1.0
 40
1.0
 40
1.0
 10
5.83875
 20
15.0427
 30
0.0
 10
6.13914
 20
15.1005
 30
0.0
 10
6.34037
 20
15.2273
 30
0.0
 10
6.41615
 20
15.4134
 30
0.0
  0
SPLINE
  5
175
100
AcDbEntity
  8
0
100
AcDbSpline
210
0.0
220
0.0
230
1.0
 62
     0
 70
     0
 71
     3
 72
     8
 73
4
 40
0.0
 40
0.0
 40
0.0
 40
0.0
 40
1.0
 40
1.0
 40
1.0
 40
1.0
 10
6.41615
 20
15.4134
 30
0.0
 10
6.44924
 20
15.4988
 30
0.0
 10
6.46712
 20
15.6393
 30
0.0
 10
6.46987
 20
15.7896
 30
0.0
  0
LINE
  5
176
100
AcDbEntity
  8
0
100
AcDbLine
 62
     0
 10
6.46987
 20
15.7896
 30
0.0
 11
6.46987
 21
15.7896
 31
0.0
  0
SPLINE
  5
177
100
AcDbEntity
  8
0
100
AcDbSpline
210
0.0
220
0.0
230
1.0
 62
     0
 70
     0
 71
     3
 72
     8
 73
4
 40
0.0
 40
0.0
 40
0.0
 40
0.0
 40
1.0
 40
1.0
 40
1.0
 40
1.0
 10
6.07025
 20
15.8185
 30
0.0
 10
6.07025
 20
15.8089
 30
0.0
 10
6.06887
 20
15.7978
 30
0.0
 10
6.0675
 20
15.7868
 30
0.0
  0
SPLINE
  5
178
100
AcDbEntity
  8
0
100
AcDbSpline
210
0.0
220
0.0
230
1.0
 62
     0
 70
     0
 71
     3
 72
     8
 73
4
 40
0.0
 40
0.0
 40
0.0
 40
0.0
 40
1.0
 40
1.0
 40
1.0
 40
1.0
 10
6.0675
 20
15.7868
 30
0.0
 10
6.05095
 20
15.6683
 30
0.0
 10
6.01102
 20
15.649
 30
0.0
 10
5.82496
 20
15.6641
 30
0.0
  0
SPLINE
  5
179
100
AcDbEntity
  8
0
100
AcDbSpline
210
0.0
220
0.0
230
1.0
 62
     0
 70
     0
 71
     3
 72
     8
 73
4
 40
0.0
 40
0.0
 40
0.0
 40
0.0
 40
1.0
 40
1.0
 40
1.0
 40
1.0
 10
5.82496
 20
15.6641
 30
0.0
 10
5.70234
 20
15.6738
 30
0.0
 10
5.57967
 20
15.7179
 30
0.0
 10
5.55212
 20
15.7606
 30
0.0
  0
SPLINE
  5
17a
100
AcDbEntity
  8
0
100
AcDbSpline
210
0.0
220
0.0
230
1.0
 62
     0
 70
     0
 71
     3
 72
     8
 73
4
 40
0.0
 40
0.0
 40
0.0
 40
0.0
 40
1.0
 40
1.0
 40
1.0
 40
1.0
 10
5.55212
 20
15.7606
 30
0.0
 10
5.46118
 20
15.9026
 30
0.0
 10
5.49698
 20
15.9977
 30
0.0
 10
5.65549
 20
16.0376
 30
0.0
  0
SPLINE
  5
17b
100
AcDbEntity
  8
0
100
AcDbSpline
210
0.0
220
0.0
230
1.0
 62
     0
 70
     0
 71
     3
 72
     8
 73
4
 40
0.0
 40
0.0
 40
0.0
 40
0.0
 40
1.0
 40
1.0
 40
1.0
 40
1.0
 10
5.65549
 20
16.0376
 30
0.0
 10
5.8608
 20
16.0886
 30
0.0
 10
6.06474
 20
15.9756
 30
0.0
 10
6.07025
 20
15.8185
 30
0.0
  0
LINE
  5
17c
100
AcDbEntity
  8
0
100
AcDbLine
 62
     0
 10
6.07025
 20
15.8185
 30
0.0
 11
6.07025
 21
15.8185
 31
0.0
  0
LINE
  5
17d
100
AcDbEntity
  8
0
100
AcDbLine
 62
     0
 10
5.82083
 20
14.7946
 30
0.0
 11
4.94993
 21
14.8167
 31
0.0
  0
SPLINE
  5
17e
100
AcDbEntity
  8
0
100
AcDbSpline
210
0.0
220
0.0
230
1.0
 62
     0
 70
     0
 71
     3
 72
     8
 73
4
 40
0.0
 40
0.0
 40
0.0
 40
0.0
 40
1.0
 40
1.0
 40
1.0
 40
1.0
 10
4.94993
 20
14.8167
 30
0.0
 10
4.94993
 20
14.8167
 30
0.0
 10
4.93476
 20
14.672
 30
0.0
 10
4.97748
 20
14.6237
 30
0.0
  0
SPLINE
  5
17f
100
AcDbEntity
  8
0
100
AcDbSpline
210
0.0
220
0.0
230
1.0
 62
     0
 70
     0
 71
     3
 72
     8
 73
4
 40
0.0
 40
0.0
 40
0.0
 40
0.0
 40
1.0
 40
1.0
 40
1.0
 40
1.0
 10
4.97748
 20
14.6237
 30
0.0
 10
5.06843
 20
14.519
 30
0.0
 10
5.23794
 20
14.508
 30
0.0
 10
5.37573
 20
14.5066
 30
0.0
  0
SPLINE
  5
180
100
AcDbEntity
  8
0
100
AcDbSpline
210
0.0
220
0.0
230
1.0
 62
     0
 70
     0
 71
     3
 72
     8
 73
4
 40
0.0
 40
0.0
 40
0.0
 40
0.0
 40
1.0
 40
1.0
 40
1.0
 40
1.0
 10
5.37573
 20
14.5066
 30
0.0
 10
5.52457
 20
14.5066
 30
0.0
 10
5.73952
 20
14.4818
 30
0.0
 10
5.80566
 20
14.6293
 30
0.0
  0
SPLINE
  5
181
100
AcDbEntity
  8
0
100
AcDbSpline
210
0.0
220
0.0
230
1.0
 62
     0
 70
     0
 71
     3
 72
     8
 73
4
 40
0.0
 40
0.0
 40
0.0
 40
0.0
 40
1.0
 40
1.0
 40
1.0
 40
1.0
 10
5.80566
 20
14.6293
 30
0.0
 10
5.82909
 20
14.6816
 30
0.0
 10
5.82083
 20
14.7946
 30
0.0
 10
5.82083
 20
14.7946
 30
0.0
  0
LINE
  5
182
100
AcDbEntity
  8
0
100
AcDbLine
 62
     0
 10
5.82083
 20
14.7946
 30
0.0
 11
5.82083
 21
14.7946
 31
0.0
  0
SPLINE
  5
183
100
AcDbEntity
  8
0
100
AcDbSpline
210
0.0
220
0.0
230
1.0
 62
     0
 70
     0
 71
     3
 72
     8
 73
4
 40
0.0
 40
0.0
 40
0.0
 40
0.0
 40
1.0
 40
1.0
 40
1.0
 40
1.0
 10
5.24207
 20
15.8626
 30
0.0
 10
5.24207
 20
15.7262
 30
0.0
 10
5.1635
 20
15.6807
 30
0.0
 10
4.89066
 20
15.66
 30
0.0
  0
SPLINE
  5
184
100
AcDbEntity
  8
0
100
AcDbSpline
210
0.0
220
0.0
230
1.0
 62
     0
 70
     0
 71
     3
 72
     8
 73
4
 40
0.0
 40
0.0
 40
0.0
 40
0.0
 40
1.0
 40
1.0
 40
1.0
 40
1.0
 10
4.89066
 20
15.66
 30
0.0
 10
4.67981
 20
15.6435
 30
0.0
 10
4.61229
 20
15.8144
 30
0.0
 10
4.768
 20
15.9701
 30
0.0
  0
SPLINE
  5
185
100
AcDbEntity
  8
0
100
AcDbSpline
210
0.0
220
0.0
230
1.0
 62
     0
 70
     0
 71
     3
 72
     8
 73
4
 40
0.0
 40
0.0
 40
0.0
 40
0.0
 40
1.0
 40
1.0
 40
1.0
 40
1.0
 10
4.768
 20
15.9701
 30
0.0
 10
4.93476
 20
16.1355
 30
0.0
 10
5.24207
 20
16.0666
 30
0.0
 10
5.24207
 20
15.8626
 30
0.0
  0
LINE
  5
186
100
AcDbEntity
  8
0
100
AcDbLine
 62
     0
 10
5.24207
 20
15.8626
 30
0.0
 11
5.24207
 21
15.8626
 31
0.0
  0
SPLINE
  5
187
100
AcDbEntity
  8
0
100
AcDbSpline
210
0.0
220
0.0
230
1.0
 62
     0
 70
     0
 71
     3
 72
     8
 73
4
 40
0.0
 40
0.0
 40
0.0
 40
0.0
 40
1.0
 40
1.0
 40
1.0
 40
1.0
 10
2.47633
 20
19.0376
 30
0.0
 10
2.18695
 20
19.0376
 30
0.0
 10
1.95268
 20
18.8033
 30
0.0
 10
1.95268
 20
18.5153
 30
0.0
  0
SPLINE
  5
188
100
AcDbEntity
  8
0
100
AcDbSpline
210
0.0
220
0.0
230
1.0
 62
     0
 70
     0
 71
     3
 72
     8
 73
4
 40
0.0
 40
0.0
 40
0.0
 40
0.0
 40
1.0
 40
1.0
 40
1.0
 40
1.0
 10
1.95268
 20
18.5153
 30
0.0
 10
1.95268
 20
18.2259
 30
0.0
 10
2.18695
 20
17.9917
 30
0.0
 10
2.47633
 20
17.9917
 30
0.0
  0
SPLINE
  5
189
100
AcDbEntity
  8
0
100
AcDbSpline
210
0.0
220
0.0
230
1.0
 62
     0
 70
     0
 71
     3
 72
     8
 73
4
 40
0.0
 40
0.0
 40
0.0
 40
0.0
 40
1.0
 40
1.0
 40
1.0
 40
1.0
 10
2.47633
 20
17.9917
 30
0.0
 10
2.76435
 20
17.9917
 30
0.0
 10
2.99999
 20
18.2259
 30
0.0
 10
2.99999
 20
18.5153
 30
0.0
  0
SPLINE
  5
18a
100
AcDbEntity
  8
0
100
AcDbSpline
210
0.0
220
0.0
230
1.0
 62
     0
 70
     0
 71
     3
 72
     8
 73
4
 40
0.0
 40
0.0
 40
0.0
 40
0.0
 40
1.0
 40
1.0
 40
1.0
 40
1.0
 10
2.99999
 20
18.5153
 30
0.0
 10
2.99999
 20
18.8033
 30
0.0
 10
2.76435
 20
19.0376
 30
0.0
 10
2.47633
 20
19.0376
 30
0.0
  0
LINE
  5
18b
100
AcDbEntity
  8
0
100
AcDbLine
 62
     0
 10
2.47633
 20
19.0376
 30
0.0
 11
2.47633
 21
19.0376
 31
0.0
  0
SPLINE
  5
18c
100
AcDbEntity
  8
0
100
AcDbSpline
210
0.0
220
0.0
230
1.0
 62
     0
 70
     0
 71
     3
 72
     8
 73
4
 40
0.0
 40
0.0
 40
0.0
 40
0.0
 40
1.0
 40
1.0
 40
1.0
 40
1.0
 10
2.47633
 20
18.824
 30
0.0
 10
2.64721
 20
18.824
 30
0.0
 10
2.78501
 20
18.6862
 30
0.0
 10
2.78501
 20
18.5153
 30
0.0
  0
SPLINE
  5
18d
100
AcDbEntity
  8
0
100
AcDbSpline
210
0.0
220
0.0
230
1.0
 62
     0
 70
     0
 71
     3
 72
     8
 73
4
 40
0.0
 40
0.0
 40
0.0
 40
0.0
 40
1.0
 40
1.0
 40
1.0
 40
1.0
 10
2.78501
 20
18.5153
 30
0.0
 10
2.78501
 20
18.3444
 30
0.0
 10
2.64721
 20
18.2053
 30
0.0
 10
2.47633
 20
18.2053
 30
0.0
  0
SPLINE
  5
18e
100
AcDbEntity
  8
0
100
AcDbSpline
210
0.0
220
0.0
230
1.0
 62
     0
 70
     0
 71
     3
 72
     8
 73
4
 40
0.0
 40
0.0
 40
0.0
 40
0.0
 40
1.0
 40
1.0
 40
1.0
 40
1.0
 10
2.47633
 20
18.2053
 30
0.0
 10
2.30546
 20
18.2053
 30
0.0
 10
2.16765
 20
18.3431
 30
0.0
 10
2.16765
 20
18.5153
 30
0.0
  0
SPLINE
  5
18f
100
AcDbEntity
  8
0
100
AcDbSpline
210
0.0
220
0.0
230
1.0
 62
     0
 70
     0
 71
     3
 72
     8
 73
4
 40
0.0
 40
0.0
 40
0.0
 40
0.0
 40
1.0
 40
1.0
 40
1.0
 40
1.0
 10
2.16765
 20
18.5153
 30
0.0
 10
2.16765
 20
18.6862
 30
0.0
 10
2.30546
 20
18.824
 30
0.0
 10
2.47633
 20
18.824
 30
0.0
  0
LINE
  5
190
100
AcDbEntity
  8
0
100
AcDbLine
 62
     0
 10
2.47633
 20
18.824
 30
0.0
 11
2.47633
 21
18.824
 31
0.0
  0
SPLINE
  5
191
100
AcDbEntity
  8
0
100
AcDbSpline
210
0.0
220
0.0
230
1.0
 62
     0
 70
     0
 71
     3
 72
     8
 73
4
 40
0.0
 40
0.0
 40
0.0
 40
0.0
 40
1.0
 40
1.0
 40
1.0
 40
1.0
 10
5.37436
 20
19.5943
 30
0.0
 10
4.77905
 20
19.5943
 30
0.0
 10
4.29398
 20
19.1106
 30
0.0
 10
4.29398
 20
18.5153
 30
0.0
  0
SPLINE
  5
192
100
AcDbEntity
  8
0
100
AcDbSpline
210
0.0
220
0.0
230
1.0
 62
     0
 70
     0
 71
     3
 72
     8
 73
4
 40
0.0
 40
0.0
 40
0.0
 40
0.0
 40
1.0
 40
1.0
 40
1.0
 40
1.0
 10
4.29398
 20
18.5153
 30
0.0
 10
4.29398
 20
17.9186
 30
0.0
 10
4.77905
 20
17.4349
 30
0.0
 10
5.37436
 20
17.4349
 30
0.0
  0
SPLINE
  5
193
100
AcDbEntity
  8
0
100
AcDbSpline
210
0.0
220
0.0
230
1.0
 62
     0
 70
     0
 71
     3
 72
     8
 73
4
 40
0.0
 40
0.0
 40
0.0
 40
0.0
 40
1.0
 40
1.0
 40
1.0
 40
1.0
 10
5.37436
 20
17.4349
 30
0.0
 10
5.96967
 20
17.4349
 30
0.0
 10
6.45474
 20
17.9186
 30
0.0
 10
6.45474
 20
18.5153
 30
0.0
  0
SPLINE
  5
194
100
AcDbEntity
  8
0
100
AcDbSpline
210
0.0
220
0.0
230
1.0
 62
     0
 70
     0
 71
     3
 72
     8
 73
4
 40
0.0
 40
0.0
 40
0.0
 40
0.0
 40
1.0
 40
1.0
 40
1.0
 40
1.0
 10
6.45474
 20
18.5153
 30
0.0
 10
6.45474
 20
19.1106
 30
0.0
 10
5.96967
 20
19.5943
 30
0.0
 10
5.37436
 20
19.5943
 30
0.0
  0
LINE
  5
195
100
AcDbEntity
  8
0
100
AcDbLine
 62
     0
 10
5.37436
 20
19.5943
 30
0.0
 11
5.37436
 21
19.5943
 31
0.0
  0
SPLINE
  5
196
100
AcDbEntity
  8
0
100
AcDbSpline
210
0.0
220
0.0
230
1.0
 62
     0
 70
     0
 71
     3
 72
     8
 73
4
 40
0.0
 40
0.0
 40
0.0
 40
0.0
 40
1.0
 40
1.0
 40
1.0
 40
1.0
 10
5.37436
 20
19.3408
 30
0.0
 10
5.83188
 20
19.3408
 30
0.0
 10
6.20116
 20
18.9714
 30
0.0
 10
6.20116
 20
18.5153
 30
0.0
  0
SPLINE
  5
197
100
AcDbEntity
  8
0
100
AcDbSpline
210
0.0
220
0.0
230
1.0
 62
     0
 70
     0
 71
     3
 72
     8
 73
4
 40
0.0
 40
0.0
 40
0.0
 40
0.0
 40
1.0
 40
1.0
 40
1.0
 40
1.0
 10
6.20116
 20
18.5153
 30
0.0
 10
6.20116
 20
18.0578
 30
0.0
 10
5.83188
 20
17.6899
 30
0.0
 10
5.37436
 20
17.6899
 30
0.0
  0
SPLINE
  5
198
100
AcDbEntity
  8
0
100
AcDbSpline
210
0.0
220
0.0
230
1.0
 62
     0
 70
     0
 71
     3
 72
     8
 73
4
 40
0.0
 40
0.0
 40
0.0
 40
0.0
 40
1.0
 40
1.0
 40
1.0
 40
1.0
 10
5.37436
 20
17.6899
 30
0.0
 10
4.91822
 20
17.6899
 30
0.0
 10
4.54889
 20
18.0578
 30
0.0
 10
4.54889
 20
18.5153
 30
0.0
  0
SPLINE
  5
199
100
AcDbEntity
  8
0
100
AcDbSpline
210
0.0
220
0.0
230
1.0
 62
     0
 70
     0
 71
     3
 72
     8
 73
4
 40
0.0
 40
0.0
 40
0.0
 40
0.0
 40
1.0
 40
1.0
 40
1.0
 40
1.0
 10
4.54889
 20
18.5153
 30
0.0
 10
4.54889
 20
18.9714
 30
0.0
 10
4.91822
 20
19.3408
 30
0.0
 10
5.37436
 20
19.3408
 30
0.0
  0
LINE
  5
19a
100
AcDbEntity
  8
0
100
AcDbLine
 62
     0
 10
5.37436
 20
19.3408
 30
0.0
 11
5.37436
 21
19.3408
 31
0.0
  0
LINE
  5
19b
100
AcDbEntity
  8
0
100
AcDbLine
 62
     0
 10
4.71565
 20
13.4524
 30
0.0
 11
5.93245
 21
13.1272
 31
0.0
  0
LINE
  5
19c
100
AcDbEntity
  8
0
100
AcDbLine
 62
     0
 10
5.93245
 20
13.1272
 30
0.0
 11
5.04088
 21
12.237
 31
0.0
  0
LINE
  5
19d
100
AcDbEntity
  8
0
100
AcDbLine
 62
     0
 10
5.04088
 20
12.237
 30
0.0
 11
4.71565
 21
13.4524
 31
0.0
  0
LINE
  5
19e
100
AcDbEntity
  8
0
100
AcDbLine
 62
     0
 10
4.43727
 20
13.7308
 30
0.0
 11
4.93889
 21
11.8567
 31
0.0
  0
LINE
  5
19f
100
AcDbEntity
  8
0
100
AcDbLine
 62
     0
 10
4.93889
 20
11.8567
 30
0.0
 11
6.31141
 21
13.2292
 31
0.0
  0
LINE
  5
1a0
100
AcDbEntity
  8
0
100
AcDbLine
 62
     0
 10
6.31141
 20
13.2292
 30
0.0
 11
4.43727
 21
13.7308
 31
0.0
  0
LINE
  5
1a1
100
AcDbEntity
  8
0
100
AcDbLine
 62
     0
 10
11.5631
 20
12.1502
 30
0.0
 11
10.9334
 21
13.2416
 31
0.0
  0
LINE
  5
1a2
100
AcDbEntity
  8
0
100
AcDbLine
 62
     0
 10
10.9334
 20
13.2416
 30
0.0
 11
10.3036
 21
12.1502
 31
0.0
  0
LINE
  5
1a3
100
AcDbEntity
  8
0
100
AcDbLine
 62
     0
 10
10.3036
 20
12.1502
 30
0.0
 11
11.5631
 21
12.1502
 31
0.0
  0
LINE
  5
1a4
100
AcDbEntity
  8
0
100
AcDbLine
 62
     0
 10
11.9035
 20
11.9531
 30
0.0
 11
9.96322
 21
11.9545
 31
0.0
  0
LINE
  5
1a5
100
AcDbEntity
  8
0
100
AcDbLine
 62
     0
 10
9.96322
 20
11.9545
 30
0.0
 11
10.9334
 21
13.6343
 31
0.0
  0
LINE
  5
1a6
100
AcDbEntity
  8
0
100
AcDbLine
 62
     0
 10
10.9334
 20
13.6343
 30
0.0
 11
11.9035
 21
11.9531
 31
0.0
  0
LINE
  5
1a7
100
AcDbEntity
  8
0
100
AcDbLine
 62
     0
 10
8.89247
 20
13.4524
 30
0.0
 11
8.56728
 21
12.237
 31
0.0
  0
LINE
  5
1a8
100
AcDbEntity
  8
0
100
AcDbLine
 62
     0
 10
8.56728
 20
12.237
 30
0.0
 11
7.67704
 21
13.1272
 31
0.0
  0
LINE
  5
1a9
100
AcDbEntity
  8
0
100
AcDbLine
 62
     0
 10
7.67704
 20
13.1272
 30
0.0
 11
8.89247
 21
13.4524
 31
0.0
  0
LINE
  5
1aa
100
AcDbEntity
  8
0
100
AcDbLine
 62
     0
 10
9.17085
 20
13.7308
 30
0.0
 11
7.29671
 21
13.2292
 31
0.0
  0
LINE
  5
1ab
100
AcDbEntity
  8
0
100
AcDbLine
 62
     0
 10
7.29671
 20
13.2292
 30
0.0
 11
8.66923
 21
11.8567
 31
0.0
  0
LINE
  5
1ac
100
AcDbEntity
  8
0
100
AcDbLine
 62
     0
 10
8.66923
 20
11.8567
 30
0.0
 11
9.17085
 21
13.7308
 31
0.0
  0
LINE
  5
1ad
100
AcDbEntity
  8
0
100
AcDbLine
 62
     0
 10
3.1185
 20
10.5944
 30
0.0
 11
2.02847
 21
9.9646
 31
0.0
  0
LINE
  5
1ae
100
AcDbEntity
  8
0
100
AcDbLine
 62
     0
 10
2.02847
 20
9.9646
 30
0.0
 11
3.1185
 21
9.33482
 31
0.0
  0
LINE
  5
1af
100
AcDbEntity
  8
0
100
AcDbLine
 62
     0
 10
3.1185
 20
9.33482
 30
0.0
 11
3.1185
 21
10.5944
 31
0.0
  0
LINE
  5
1b0
100
AcDbEntity
  8
0
100
AcDbLine
 62
     0
 10
3.31556
 20
10.9347
 30
0.0
 11
3.31556
 21
8.99446
 31
0.0
  0
LINE
  5
1b1
100
AcDbEntity
  8
0
100
AcDbLine
 62
     0
 10
3.31556
 20
8.99446
 30
0.0
 11
1.63573
 21
9.9646
 31
0.0
  0
LINE
  5
1b2
100
AcDbEntity
  8
0
100
AcDbLine
 62
     0
 10
1.63573
 20
9.9646
 30
0.0
 11
3.31556
 21
10.9347
 31
0.0
  0
LINE
  5
1b3
100
AcDbEntity
  8
0
100
AcDbLine
 62
     0
 10
4.73082
 20
9.33482
 30
0.0
 11
5.82221
 21
9.9646
 31
0.0
  0
LINE
  5
1b4
100
AcDbEntity
  8
0
100
AcDbLine
 62
     0
 10
5.82221
 20
9.9646
 30
0.0
 11
4.73082
 21
10.5944
 31
0.0
  0
LINE
  5
1b5
100
AcDbEntity
  8
0
100
AcDbLine
 62
     0
 10
4.73082
 20
10.5944
 30
0.0
 11
4.73082
 21
9.33482
 31
0.0
  0
LINE
  5
1b6
100
AcDbEntity
  8
0
100
AcDbLine
 62
     0
 10
4.53513
 20
8.99446
 30
0.0
 11
4.53513
 21
10.9347
 31
0.0
  0
LINE
  5
1b7
100
AcDbEntity
  8
0
100
AcDbLine
 62
     0
 10
4.53513
 20
10.9347
 30
0.0
 11
6.21496
 21
9.9646
 31
0.0
  0
LINE
  5
1b8
100
AcDbEntity
  8
0
100
AcDbLine
 62
     0
 10
6.21496
 20
9.9646
 30
0.0
 11
4.53513
 21
8.99446
 31
0.0
  0
LINE
  5
1b9
100
AcDbEntity
  8
0
100
AcDbLine
 62
     0
 10
7.57509
 20
9.30589
 30
0.0
 11
8.79052
 21
9.63112
 31
0.0
  0
LINE
  5
1ba
100
AcDbEntity
  8
0
100
AcDbLine
 62
     0
 10
8.79052
 20
9.63112
 30
0.0
 11
7.90028
 21
10.5227
 31
0.0
  0
LINE
  5
1bb
100
AcDbEntity
  8
0
100
AcDbLine
 62
     0
 10
7.90028
 20
10.5227
 30
0.0
 11
7.57509
 21
9.30589
 31
0.0
  0
LINE
  5
1bc
100
AcDbEntity
  8
0
100
AcDbLine
 62
     0
 10
7.29671
 20
9.02751
 30
0.0
 11
7.79833
 21
10.9016
 31
0.0
  0
LINE
  5
1bd
100
AcDbEntity
  8
0
100
AcDbLine
 62
     0
 10
7.79833
 20
10.9016
 30
0.0
 11
9.17085
 21
9.5305
 31
0.0
  0
LINE
  5
1be
100
AcDbEntity
  8
0
100
AcDbLine
 62
     0
 10
9.17085
 20
9.5305
 30
0.0
 11
7.29671
 21
9.02751
 31
0.0
  0
LINE
  5
1bf
100
AcDbEntity
  8
0
100
AcDbLine
 62
     0
 10
11.5631
 20
10.6081
 30
0.0
 11
10.9334
 21
9.51812
 31
0.0
  0
LINE
  5
1c0
100
AcDbEntity
  8
0
100
AcDbLine
 62
     0
 10
10.9334
 20
9.51812
 30
0.0
 11
10.3036
 21
10.6081
 31
0.0
  0
LINE
  5
1c1
100
AcDbEntity
  8
0
100
AcDbLine
 62
     0
 10
10.3036
 20
10.6081
 30
0.0
 11
11.5631
 21
10.6081
 31
0.0
  0
LINE
  5
1c2
100
AcDbEntity
  8
0
100
AcDbLine
 62
     0
 10
11.9035
 20
10.8052
 30
0.0
 11
9.96322
 21
10.8052
 31
0.0
  0
LINE
  5
1c3
100
AcDbEntity
  8
0
100
AcDbLine
 62
     0
 10
9.96322
 20
10.8052
 30
0.0
 11
10.9334
 21
9.12537
 31
0.0
  0
LINE
  5
1c4
100
AcDbEntity
  8
0
100
AcDbLine
 62
     0
 10
10.9334
 20
9.12537
 30
0.0
 11
11.9035
 21
10.8052
 31
0.0
  0
LINE
  5
1c5
100
AcDbEntity
  8
0
100
AcDbLine
 62
     0
 10
14.4473
 20
9.30589
 30
0.0
 11
14.1222
 21
10.5213
 31
0.0
  0
LINE
  5
1c6
100
AcDbEntity
  8
0
100
AcDbLine
 62
     0
 10
14.1222
 20
10.5213
 30
0.0
 11
13.2319
 21
9.63112
 31
0.0
  0
LINE
  5
1c7
100
AcDbEntity
  8
0
100
AcDbLine
 62
     0
 10
13.2319
 20
9.63112
 30
0.0
 11
14.4473
 21
9.30589
 31
0.0
  0
LINE
  5
1c8
100
AcDbEntity
  8
0
100
AcDbLine
 62
     0
 10
14.7257
 20
9.02892
 30
0.0
 11
12.8516
 21
9.5305
 31
0.0
  0
LINE
  5
1c9
100
AcDbEntity
  8
0
100
AcDbLine
 62
     0
 10
12.8516
 20
9.5305
 30
0.0
 11
14.2241
 21
10.9016
 31
0.0
  0
LINE
  5
1ca
100
AcDbEntity
  8
0
100
AcDbLine
 62
     0
 10
14.2241
 20
10.9016
 30
0.0
 11
14.7257
 21
9.02892
 31
0.0
  0
LINE
  5
1cb
100
AcDbEntity
  8
0
100
AcDbLine
 62
     0
 10
14.7257
 20
13.2292
 30
0.0
 11
12.8516
 21
13.7308
 31
0.0
  0
LINE
  5
1cc
100
AcDbEntity
  8
0
100
AcDbLine
 62
     0
 10
12.8516
 20
13.7308
 30
0.0
 11
13.3546
 21
11.8567
 31
0.0
  0
LINE
  5
1cd
100
AcDbEntity
  8
0
100
AcDbLine
 62
     0
 10
13.3546
 20
11.8567
 30
0.0
 11
14.7257
 21
13.2292
 31
0.0
  0
LINE
  5
1ce
100
AcDbEntity
  8
0
100
AcDbLine
 62
     0
 10
3.4451
 20
6.28661
 30
0.0
 11
1.5062
 21
6.28661
 31
0.0
  0
LINE
  5
1cf
100
AcDbEntity
  8
0
100
AcDbLine
 62
     0
 10
1.5062
 20
6.28661
 30
0.0
 11
2.47633
 21
7.96643
 31
0.0
  0
LINE
  5
1d0
100
AcDbEntity
  8
0
100
AcDbLine
 62
     0
 10
2.47633
 20
7.96643
 30
0.0
 11
3.4451
 21
6.28661
 31
0.0
  0
LINE
  5
1d1
100
AcDbEntity
  8
0
100
AcDbLine
 62
     0
 10
5.80983
 20
6.19016
 30
0.0
 11
6.31141
 21
8.06429
 31
0.0
  0
LINE
  5
1d2
100
AcDbEntity
  8
0
100
AcDbLine
 62
     0
 10
6.31141
 20
8.06429
 30
0.0
 11
4.43727
 21
7.5613
 31
0.0
  0
LINE
  5
1d3
100
AcDbEntity
  8
0
100
AcDbLine
 62
     0
 10
4.43727
 20
7.5613
 30
0.0
 11
5.80983
 21
6.19016
 31
0.0
  0
LINE
  5
1d4
100
AcDbEntity
  8
0
100
AcDbLine
 62
     0
 10
9.07302
 20
8.09734
 30
0.0
 11
9.07302
 21
6.15707
 31
0.0
  0
LINE
  5
1d5
100
AcDbEntity
  8
0
100
AcDbLine
 62
     0
 10
9.07302
 20
6.15707
 30
0.0
 11
7.39316
 21
7.1272
 31
0.0
  0
LINE
  5
1d6
100
AcDbEntity
  8
0
100
AcDbLine
 62
     0
 10
7.39316
 20
7.1272
 30
0.0
 11
9.07302
 21
8.09734
 31
0.0
  0
LINE
  5
1d7
100
AcDbEntity
  8
0
100
AcDbLine
 62
     0
 10
10.0928
 20
8.09734
 30
0.0
 11
10.0941
 21
6.15707
 31
0.0
  0
LINE
  5
1d8
100
AcDbEntity
  8
0
100
AcDbLine
 62
     0
 10
10.0941
 20
6.15707
 30
0.0
 11
11.774
 21
7.1272
 31
0.0
  0
LINE
  5
1d9
100
AcDbEntity
  8
0
100
AcDbLine
 62
     0
 10
11.774
 20
7.1272
 30
0.0
 11
10.0928
 21
8.09734
 31
0.0
  0
LINE
  5
1da
100
AcDbEntity
  8
0
100
AcDbLine
 62
     0
 10
14.7257
 20
6.69177
 30
0.0
 11
12.8516
 21
6.19016
 31
0.0
  0
LINE
  5
1db
100
AcDbEntity
  8
0
100
AcDbLine
 62
     0
 10
12.8516
 20
6.19016
 30
0.0
 11
13.3546
 21
8.06429
 31
0.0
  0
LINE
  5
1dc
100
AcDbEntity
  8
0
100
AcDbLine
 62
     0
 10
13.3546
 20
8.06429
 30
0.0
 11
14.7257
 21
6.69177
 31
0.0
  0
LINE
  5
1dd
100
AcDbEntity
  8
0
100
AcDbLine
 62
     0
 10
3.4451
 20
4.67431
 30
0.0
 11
1.5062
 21
4.67431
 31
0.0
  0
LINE
  5
1de
100
AcDbEntity
  8
0
100
AcDbLine
 62
     0
 10
1.5062
 20
4.67431
 30
0.0
 11
2.47633
 21
2.99448
 31
0.0
  0
LINE
  5
1df
100
AcDbEntity
  8
0
100
AcDbLine
 62
     0
 10
2.47633
 20
2.99448
 30
0.0
 11
3.4451
 21
4.67431
 31
0.0
  0
LINE
  5
1e0
100
AcDbEntity
  8
0
100
AcDbLine
 62
     0
 10
5.80983
 20
4.77213
 30
0.0
 11
6.31141
 21
2.89801
 31
0.0
  0
LINE
  5
1e1
100
AcDbEntity
  8
0
100
AcDbLine
 62
     0
 10
6.31141
 20
2.89801
 30
0.0
 11
4.43727
 21
3.39962
 31
0.0
  0
LINE
  5
1e2
100
AcDbEntity
  8
0
100
AcDbLine
 62
     0
 10
4.43727
 20
3.39962
 30
0.0
 11
5.80983
 21
4.77213
 31
0.0
  0
LINE
  5
1e3
100
AcDbEntity
  8
0
100
AcDbLine
 62
     3
 10
41.2101
 20
5.78362
 30
0.0
 11
27.0661
 21
5.78362
 31
0.0
  0
LINE
  5
1e4
100
AcDbEntity
  8
0
100
AcDbLine
 62
     3
 10
27.0661
 20
17.1001
 30
0.0
 11
41.2048
 21
17.1001
 31
0.0
  0
LINE
  5
1e5
100
AcDbEntity
  8
0
100
AcDbLine
 62
     3
 10
27.0661
 20
14.271
 30
0.0
 11
41.2048
 21
14.271
 31
0.0
  0
LINE
  5
1e6
100
AcDbEntity
  8
0
100
AcDbLine
 62
     3
 10
27.0661
 20
11.4419
 30
0.0
 11
41.2048
 21
11.4419
 31
0.0
  0
LINE
  5
1e7
100
AcDbEntity
  8
0
100
AcDbLine
 62
     3
 10
27.0661
 20
8.61275
 30
0.0
 11
41.2048
 21
8.61275
 31
0.0
  0
LINE
  5
1e8
100
AcDbEntity
  8
0
100
AcDbLine
 62
     3
 10
29.891
 20
5.78637
 30
0.0
 11
29.891
 21
19.9251
 31
0.0
  0
LINE
  5
1e9
100
AcDbEntity
  8
0
100
AcDbLine
 62
     3
 10
32.7201
 20
5.78637
 30
0.0
 11
32.7201
 21
19.9251
 31
0.0
  0
LINE
  5
1ea
100
AcDbEntity
  8
0
100
AcDbLine
 62
     3
 10
35.5494
 20
5.78637
 30
0.0
 11
35.5494
 21
19.9251
 31
0.0
  0
LINE
  5
1eb
100
AcDbEntity
  8
0
100
AcDbLine
 62
     3
 10
38.3783
 20
5.78637
 30
0.0
 11
38.3783
 21
19.9251
 31
0.0
  0
LINE
  5
1ec
100
AcDbEntity
  8
0
100
AcDbLine
 62
     3
 10
41.2101
 20
19.9292
 30
0.0
 11
41.2101
 21
0.152962
 31
0.0
  0
LINE
  5
1ed
100
AcDbEntity
  8
0
100
AcDbLine
 62
     4
 10
26.5672
 20
20.4281
 30
0.0
 11
46.8658
 21
20.4281
 31
0.0
  0
LINE
  5
1ee
100
AcDbEntity
  8
0
100
AcDbLine
 62
     4
 10
46.8658
 20
20.4281
 30
0.0
 11
46.8658
 21
0.129536
 31
0.0
  0
LINE
  5
1ef
100
AcDbEntity
  8
0
100
AcDbLine
 62
     4
 10
46.8658
 20
0.129536
 30
0.0
 11
26.5672
 21
0.129536
 31
0.0
  0
LINE
  5
1f0
100
AcDbEntity
  8
0
100
AcDbLine
 62
     4
 10
26.5672
 20
0.129536
 30
0.0
 11
26.5672
 21
20.4281
 31
0.0
  0
LINE
  5
1f1
100
AcDbEntity
  8
0
100
AcDbLine
 62
     0
 10
35.5438
 20
14.3412
 30
0.0
 11
38.2446
 21
14.3412
 31
0.0
  0
LINE
  5
1f2
100
AcDbEntity
  8
0
100
AcDbLine
 62
     0
 10
38.2446
 20
14.3412
 30
0.0
 11
38.2446
 21
17.1042
 31
0.0
  0
LINE
  5
1f3
100
AcDbEntity
  8
0
100
AcDbLine
 62
     0
 10
38.2446
 20
17.1042
 30
0.0
 11
35.5438
 21
17.1042
 31
0.0
  0
LINE
  5
1f4
100
AcDbEntity
  8
0
100
AcDbLine
 62
     0
 10
35.5438
 20
17.1042
 30
0.0
 11
35.5438
 21
14.3412
 31
0.0
  0
LINE
  5
1f5
100
AcDbEntity
  8
0
100
AcDbLine
 62
     0
 10
36.1763
 20
14.5466
 30
0.0
 11
36.365
 21
15.0041
 31
0.0
  0
LINE
  5
1f6
100
AcDbEntity
  8
0
100
AcDbLine
 62
     0
 10
36.365
 20
15.0041
 30
0.0
 11
36.5153
 21
15.0041
 31
0.0
  0
SPLINE
  5
1f7
100
AcDbEntity
  8
0
100
AcDbSpline
210
0.0
220
0.0
230
1.0
 62
     0
 70
     0
 71
     3
 72
     8
 73
4
 40
0.0
 40
0.0
 40
0.0
 40
0.0
 40
1.0
 40
1.0
 40
1.0
 40
1.0
 10
36.5153
 20
15.0041
 30
0.0
 10
36.4808
 20
15.0496
 30
0.0
 10
36.4603
 20
15.1061
 30
0.0
 10
36.4603
 20
15.1667
 30
0.0
  0
LINE
  5
1f8
100
AcDbEntity
  8
0
100
AcDbLine
 62
     0
 10
36.4603
 20
15.1667
 30
0.0
 11
36.4603
 21
16.01
 31
0.0
  0
SPLINE
  5
1f9
100
AcDbEntity
  8
0
100
AcDbSpline
210
0.0
220
0.0
230
1.0
 62
     0
 70
     0
 71
     3
 72
     8
 73
4
 40
0.0
 40
0.0
 40
0.0
 40
0.0
 40
1.0
 40
1.0
 40
1.0
 40
1.0
 10
36.4603
 20
16.01
 30
0.0
 10
36.4603
 20
16.1079
 30
0.0
 10
36.5111
 20
16.1919
 30
0.0
 10
36.5883
 20
16.2402
 30
0.0
  0
SPLINE
  5
1fa
100
AcDbEntity
  8
0
100
AcDbSpline
210
0.0
220
0.0
230
1.0
 62
     0
 70
     0
 71
     3
 72
     8
 73
4
 40
0.0
 40
0.0
 40
0.0
 40
0.0
 40
1.0
 40
1.0
 40
1.0
 40
1.0
 10
36.5883
 20
16.2402
 30
0.0
 10
36.5016
 20
16.3105
 30
0.0
 10
36.4437
 20
16.4166
 30
0.0
 10
36.4437
 20
16.5365
 30
0.0
  0
SPLINE
  5
1fb
100
AcDbEntity
  8
0
100
AcDbSpline
210
0.0
220
0.0
230
1.0
 62
     0
 70
     0
 71
     3
 72
     8
 73
4
 40
0.0
 40
0.0
 40
0.0
 40
0.0
 40
1.0
 40
1.0
 40
1.0
 40
1.0
 10
36.4437
 20
16.5365
 30
0.0
 10
36.4437
 20
16.7445
 30
0.0
 10
36.6145
 20
16.9154
 30
0.0
 10
36.8226
 20
16.9154
 30
0.0
  0
SPLINE
  5
1fc
100
AcDbEntity
  8
0
100
AcDbSpline
210
0.0
220
0.0
230
1.0
 62
     0
 70
     0
 71
     3
 72
     8
 73
4
 40
0.0
 40
0.0
 40
0.0
 40
0.0
 40
1.0
 40
1.0
 40
1.0
 40
1.0
 10
36.8226
 20
16.9154
 30
0.0
 10
37.0321
 20
16.9154
 30
0.0
 10
37.2015
 20
16.7445
 30
0.0
 10
37.2015
 20
16.5365
 30
0.0
  0
SPLINE
  5
1fd
100
AcDbEntity
  8
0
100
AcDbSpline
210
0.0
220
0.0
230
1.0
 62
     0
 70
     0
 71
     3
 72
     8
 73
4
 40
0.0
 40
0.0
 40
0.0
 40
0.0
 40
1.0
 40
1.0
 40
1.0
 40
1.0
 10
37.2015
 20
16.5365
 30
0.0
 10
37.2015
 20
16.4166
 30
0.0
 10
37.145
 20
16.3105
 30
0.0
 10
37.0582
 20
16.2402
 30
0.0
  0
SPLINE
  5
1fe
100
AcDbEntity
  8
0
100
AcDbSpline
210
0.0
220
0.0
230
1.0
 62
     0
 70
     0
 71
     3
 72
     8
 73
4
 40
0.0
 40
0.0
 40
0.0
 40
0.0
 40
1.0
 40
1.0
 40
1.0
 40
1.0
 10
37.0582
 20
16.2402
 30
0.0
 10
37.1355
 20
16.1919
 30
0.0
 10
37.1863
 20
16.1079
 30
0.0
 10
37.1863
 20
16.01
 30
0.0
  0
LINE
  5
1ff
100
AcDbEntity
  8
0
100
AcDbLine
 62
     0
 10
37.1863
 20
16.01
 30
0.0
 11
37.1863
 21
15.1667
 31
0.0
  0
SPLINE
  5
200
100
AcDbEntity
  8
0
100
AcDbSpline
210
0.0
220
0.0
230
1.0
 62
     0
 70
     0
 71
     3
 72
     8
 73
4
 40
0.0
 40
0.0
 40
0.0
 40
0.0
 40
1.0
 40
1.0
 40
1.0
 40
1.0
 10
37.1863
 20
15.1667
 30
0.0
 10
37.1863
 20
15.1061
 30
0.0
 10
37.1658
 20
15.0496
 30
0.0
 10
37.1313
 20
15.0041
 30
0.0
  0
LINE
  5
201
100
AcDbEntity
  8
0
100
AcDbLine
 62
     0
 10
37.1313
 20
15.0041
 30
0.0
 11
37.2816
 21
15.0041
 31
0.0
  0
LINE
  5
202
100
AcDbEntity
  8
0
100
AcDbLine
 62
     0
 10
37.2816
 20
15.0041
 30
0.0
 11
37.4703
 21
14.5466
 31
0.0
  0
LINE
  5
203
100
AcDbEntity
  8
0
100
AcDbLine
 62
     0
 10
37.4703
 20
14.5466
 30
0.0
 11
36.1763
 21
14.5466
 31
0.0
  0
LINE
  5
204
100
AcDbEntity
  8
0
100
AcDbLine
 62
     0
 10
34.2001
 20
19.1671
 30
0.0
 11
34.3049
 21
18.9301
 31
0.0
  0
LINE
  5
205
100
AcDbEntity
  8
0
100
AcDbLine
 62
     0
 10
34.3049
 20
18.9301
 30
0.0
 11
34.3559
 21
18.8143
 31
0.0
  0
LINE
  5
206
100
AcDbEntity
  8
0
100
AcDbLine
 62
     0
 10
34.3559
 20
18.8143
 30
0.0
 11
34.4813
 21
18.8281
 31
0.0
  0
LINE
  5
207
100
AcDbEntity
  8
0
100
AcDbLine
 62
     0
 10
34.4813
 20
18.8281
 30
0.0
 11
34.739
 21
18.8557
 31
0.0
  0
LINE
  5
208
100
AcDbEntity
  8
0
100
AcDbLine
 62
     0
 10
34.739
 20
18.8557
 30
0.0
 11
34.586
 21
18.6462
 31
0.0
  0
LINE
  5
209
100
AcDbEntity
  8
0
100
AcDbLine
 62
     0
 10
34.586
 20
18.6462
 30
0.0
 11
34.5116
 21
18.5443
 31
0.0
  0
LINE
  5
20a
100
AcDbEntity
  8
0
100
AcDbLine
 62
     0
 10
34.5116
 20
18.5443
 30
0.0
 11
34.586
 21
18.4423
 31
0.0
  0
LINE
  5
20b
100
AcDbEntity
  8
0
100
AcDbLine
 62
     0
 10
34.586
 20
18.4423
 30
0.0
 11
34.739
 21
18.2328
 31
0.0
  0
LINE
  5
20c
100
AcDbEntity
  8
0
100
AcDbLine
 62
     0
 10
34.739
 20
18.2328
 30
0.0
 11
34.4813
 21
18.2604
 31
0.0
  0
LINE
  5
20d
100
AcDbEntity
  8
0
100
AcDbLine
 62
     0
 10
34.4813
 20
18.2604
 30
0.0
 11
34.3559
 21
18.2742
 31
0.0
  0
LINE
  5
20e
100
AcDbEntity
  8
0
100
AcDbLine
 62
     0
 10
34.3559
 20
18.2742
 30
0.0
 11
34.3049
 21
18.1584
 31
0.0
  0
LINE
  5
20f
100
AcDbEntity
  8
0
100
AcDbLine
 62
     0
 10
34.3049
 20
18.1584
 30
0.0
 11
34.2001
 21
17.92
 31
0.0
  0
LINE
  5
210
100
AcDbEntity
  8
0
100
AcDbLine
 62
     0
 10
34.2001
 20
17.92
 30
0.0
 11
34.094
 21
18.1584
 31
0.0
  0
LINE
  5
211
100
AcDbEntity
  8
0
100
AcDbLine
 62
     0
 10
34.094
 20
18.1584
 30
0.0
 11
34.0431
 21
18.2742
 31
0.0
  0
LINE
  5
212
100
AcDbEntity
  8
0
100
AcDbLine
 62
     0
 10
34.0431
 20
18.2742
 30
0.0
 11
33.9176
 21
18.2604
 31
0.0
  0
LINE
  5
213
100
AcDbEntity
  8
0
100
AcDbLine
 62
     0
 10
33.9176
 20
18.2604
 30
0.0
 11
33.66
 21
18.2328
 31
0.0
  0
LINE
  5
214
100
AcDbEntity
  8
0
100
AcDbLine
 62
     0
 10
33.66
 20
18.2328
 30
0.0
 11
33.8129
 21
18.4423
 31
0.0
  0
LINE
  5
215
100
AcDbEntity
  8
0
100
AcDbLine
 62
     0
 10
33.8129
 20
18.4423
 30
0.0
 11
33.8873
 21
18.5443
 31
0.0
  0
LINE
  5
216
100
AcDbEntity
  8
0
100
AcDbLine
 62
     0
 10
33.8873
 20
18.5443
 30
0.0
 11
33.8129
 21
18.6462
 31
0.0
  0
LINE
  5
217
100
AcDbEntity
  8
0
100
AcDbLine
 62
     0
 10
33.8129
 20
18.6462
 30
0.0
 11
33.66
 21
18.8557
 31
0.0
  0
LINE
  5
218
100
AcDbEntity
  8
0
100
AcDbLine
 62
     0
 10
33.66
 20
18.8557
 30
0.0
 11
33.9176
 21
18.8281
 31
0.0
  0
LINE
  5
219
100
AcDbEntity
  8
0
100
AcDbLine
 62
     0
 10
33.9176
 20
18.8281
 30
0.0
 11
34.0431
 21
18.8143
 31
0.0
  0
LINE
  5
21a
100
AcDbEntity
  8
0
100
AcDbLine
 62
     0
 10
34.0431
 20
18.8143
 30
0.0
 11
34.094
 21
18.9301
 31
0.0
  0
LINE
  5
21b
100
AcDbEntity
  8
0
100
AcDbLine
 62
     0
 10
34.094
 20
18.9301
 30
0.0
 11
34.2001
 21
19.1671
 31
0.0
  0
LINE
  5
21c
100
AcDbEntity
  8
0
100
AcDbLine
 62
     0
 10
34.1988
 20
19.6977
 30
0.0
 11
33.9108
 21
19.0445
 31
0.0
  0
LINE
  5
21d
100
AcDbEntity
  8
0
100
AcDbLine
 62
     0
 10
33.9108
 20
19.0445
 30
0.0
 11
33.2011
 21
19.1203
 31
0.0
  0
LINE
  5
21e
100
AcDbEntity
  8
0
100
AcDbLine
 62
     0
 10
33.2011
 20
19.1203
 30
0.0
 11
33.6228
 21
18.5443
 31
0.0
  0
LINE
  5
21f
100
AcDbEntity
  8
0
100
AcDbLine
 62
     0
 10
33.6228
 20
18.5443
 30
0.0
 11
33.2011
 21
17.9669
 31
0.0
  0
LINE
  5
220
100
AcDbEntity
  8
0
100
AcDbLine
 62
     0
 10
33.2011
 20
17.9669
 30
0.0
 11
33.9108
 21
18.044
 31
0.0
  0
LINE
  5
221
100
AcDbEntity
  8
0
100
AcDbLine
 62
     0
 10
33.9108
 20
18.044
 30
0.0
 11
34.1988
 21
17.3909
 31
0.0
  0
LINE
  5
222
100
AcDbEntity
  8
0
100
AcDbLine
 62
     0
 10
34.1988
 20
17.3909
 30
0.0
 11
34.4882
 21
18.044
 31
0.0
  0
LINE
  5
223
100
AcDbEntity
  8
0
100
AcDbLine
 62
     0
 10
34.4882
 20
18.044
 30
0.0
 11
35.1978
 21
17.9669
 31
0.0
  0
LINE
  5
224
100
AcDbEntity
  8
0
100
AcDbLine
 62
     0
 10
35.1978
 20
17.9669
 30
0.0
 11
34.7762
 21
18.5443
 31
0.0
  0
LINE
  5
225
100
AcDbEntity
  8
0
100
AcDbLine
 62
     0
 10
34.7762
 20
18.5443
 30
0.0
 11
35.1978
 21
19.1203
 31
0.0
  0
LINE
  5
226
100
AcDbEntity
  8
0
100
AcDbLine
 62
     0
 10
35.1978
 20
19.1203
 30
0.0
 11
34.4882
 21
19.0445
 31
0.0
  0
LINE
  5
227
100
AcDbEntity
  8
0
100
AcDbLine
 62
     0
 10
34.4882
 20
19.0445
 30
0.0
 11
34.1988
 21
19.6977
 31
0.0
  0
LINE
  5
228
100
AcDbEntity
  8
0
100
AcDbLine
 62
     0
 10
27.0867
 20
16.1327
 30
0.0
 11
28.0417
 21
17.0877
 31
0.0
  0
LINE
  5
229
100
AcDbEntity
  8
0
100
AcDbLine
 62
     0
 10
28.0417
 20
17.0877
 30
0.0
 11
27.1074
 21
17.0877
 31
0.0
  0
LINE
  5
22a
100
AcDbEntity
  8
0
100
AcDbLine
 62
     0
 10
27.1074
 20
17.0877
 30
0.0
 11
27.0867
 21
16.1327
 31
0.0
  0
LINE
  5
22b
100
AcDbEntity
  8
0
100
AcDbLine
 62
     0
 10
29.8428
 20
15.3031
 30
0.0
 11
28.8878
 21
14.3481
 31
0.0
  0
LINE
  5
22c
100
AcDbEntity
  8
0
100
AcDbLine
 62
     0
 10
28.8878
 20
14.3481
 30
0.0
 11
29.8221
 21
14.3481
 31
0.0
  0
LINE
  5
22d
100
AcDbEntity
  8
0
100
AcDbLine
 62
     0
 10
29.8221
 20
14.3481
 30
0.0
 11
29.8428
 21
15.3031
 31
0.0
  0
SPLINE
  5
22e
100
AcDbEntity
  8
0
100
AcDbSpline
210
0.0
220
0.0
230
1.0
 62
     0
 70
     0
 71
     3
 72
     8
 73
4
 40
0.0
 40
0.0
 40
0.0
 40
0.0
 40
1.0
 40
1.0
 40
1.0
 40
1.0
 10
34.6728
 20
15.7179
 30
0.0
 10
34.6728
 20
15.4575
 30
0.0
 10
34.4606
 20
15.2452
 30
0.0
 10
34.1988
 20
15.2452
 30
0.0
  0
SPLINE
  5
22f
100
AcDbEntity
  8
0
100
AcDbSpline
210
0.0
220
0.0
230
1.0
 62
     0
 70
     0
 71
     3
 72
     8
 73
4
 40
0.0
 40
0.0
 40
0.0
 40
0.0
 40
1.0
 40
1.0
 40
1.0
 40
1.0
 10
34.1988
 20
15.2452
 30
0.0
 10
33.9383
 20
15.2452
 30
0.0
 10
33.7261
 20
15.4575
 30
0.0
 10
33.7261
 20
15.7179
 30
0.0
  0
SPLINE
  5
230
100
AcDbEntity
  8
0
100
AcDbSpline
210
0.0
220
0.0
230
1.0
 62
     0
 70
     0
 71
     3
 72
     8
 73
4
 40
0.0
 40
0.0
 40
0.0
 40
0.0
 40
1.0
 40
1.0
 40
1.0
 40
1.0
 10
33.7261
 20
15.7179
 30
0.0
 10
33.7261
 20
15.9797
 30
0.0
 10
33.9383
 20
16.1919
 30
0.0
 10
34.1988
 20
16.1919
 30
0.0
  0
SPLINE
  5
231
100
AcDbEntity
  8
0
100
AcDbSpline
210
0.0
220
0.0
230
1.0
 62
     0
 70
     0
 71
     3
 72
     8
 73
4
 40
0.0
 40
0.0
 40
0.0
 40
0.0
 40
1.0
 40
1.0
 40
1.0
 40
1.0
 10
34.1988
 20
16.1919
 30
0.0
 10
34.4606
 20
16.1919
 30
0.0
 10
34.6728
 20
15.9797
 30
0.0
 10
34.6728
 20
15.7179
 30
0.0
  0
SPLINE
  5
232
100
AcDbEntity
  8
0
100
AcDbSpline
210
0.0
220
0.0
230
1.0
 62
     0
 70
     0
 71
     3
 72
     8
 73
4
 40
0.0
 40
0.0
 40
0.0
 40
0.0
 40
1.0
 40
1.0
 40
1.0
 40
1.0
 10
37.8464
 20
18.5443
 30
0.0
 10
37.8464
 20
18.0206
 30
0.0
 10
37.422
 20
17.5975
 30
0.0
 10
36.8998
 20
17.5975
 30
0.0
  0
SPLINE
  5
233
100
AcDbEntity
  8
0
100
AcDbSpline
210
0.0
220
0.0
230
1.0
 62
     0
 70
     0
 71
     3
 72
     8
 73
4
 40
0.0
 40
0.0
 40
0.0
 40
0.0
 40
1.0
 40
1.0
 40
1.0
 40
1.0
 10
36.8998
 20
17.5975
 30
0.0
 10
36.376
 20
17.5975
 30
0.0
 10
35.9516
 20
18.0206
 30
0.0
 10
35.9516
 20
18.5443
 30
0.0
  0
SPLINE
  5
234
100
AcDbEntity
  8
0
100
AcDbSpline
210
0.0
220
0.0
230
1.0
 62
     0
 70
     0
 71
     3
 72
     8
 73
4
 40
0.0
 40
0.0
 40
0.0
 40
0.0
 40
1.0
 40
1.0
 40
1.0
 40
1.0
 10
35.9516
 20
18.5443
 30
0.0
 10
35.9516
 20
19.0679
 30
0.0
 10
36.376
 20
19.491
 30
0.0
 10
36.8998
 20
19.491
 30
0.0
  0
SPLINE
  5
235
100
AcDbEntity
  8
0
100
AcDbSpline
210
0.0
220
0.0
230
1.0
 62
     0
 70
     0
 71
     3
 72
     8
 73
4
 40
0.0
 40
0.0
 40
0.0
 40
0.0
 40
1.0
 40
1.0
 40
1.0
 40
1.0
 10
36.8998
 20
19.491
 30
0.0
 10
37.422
 20
19.491
 30
0.0
 10
37.8464
 20
19.0679
 30
0.0
 10
37.8464
 20
18.5443
 30
0.0
  0
LINE
  5
236
100
AcDbEntity
  8
0
100
AcDbLine
 62
     0
 10
40.2124
 20
17.818
 30
0.0
 11
40.0625
 21
17.818
 31
0.0
  0
SPLINE
  5
237
100
AcDbEntity
  8
0
100
AcDbSpline
210
0.0
220
0.0
230
1.0
 62
     0
 70
     0
 71
     3
 72
     8
 73
4
 40
0.0
 40
0.0
 40
0.0
 40
0.0
 40
1.0
 40
1.0
 40
1.0
 40
1.0
 10
40.0625
 20
17.818
 30
0.0
 10
40.0967
 20
17.8635
 30
0.0
 10
40.1175
 20
17.9186
 30
0.0
 10
40.1175
 20
17.9807
 30
0.0
  0
LINE
  5
238
100
AcDbEntity
  8
0
100
AcDbLine
 62
     0
 10
40.1175
 20
17.9807
 30
0.0
 11
40.1175
 21
18.824
 31
0.0
  0
SPLINE
  5
239
100
AcDbEntity
  8
0
100
AcDbSpline
210
0.0
220
0.0
230
1.0
 62
     0
 70
     0
 71
     3
 72
     8
 73
4
 40
0.0
 40
0.0
 40
0.0
 40
0.0
 40
1.0
 40
1.0
 40
1.0
 40
1.0
 10
40.1175
 20
18.824
 30
0.0
 10
40.1175
 20
18.9205
 30
0.0
 10
40.0664
 20
19.0059
 30
0.0
 10
39.9891
 20
19.0541
 30
0.0
  0
SPLINE
  5
23a
100
AcDbEntity
  8
0
100
AcDbSpline
210
0.0
220
0.0
230
1.0
 62
     0
 70
     0
 71
     3
 72
     8
 73
4
 40
0.0
 40
0.0
 40
0.0
 40
0.0
 40
1.0
 40
1.0
 40
1.0
 40
1.0
 10
39.9891
 20
19.0541
 30
0.0
 10
40.0763
 20
19.123
 30
0.0
 10
40.1341
 20
19.2291
 30
0.0
 10
40.1341
 20
19.349
 30
0.0
  0
SPLINE
  5
23b
100
AcDbEntity
  8
0
100
AcDbSpline
210
0.0
220
0.0
230
1.0
 62
     0
 70
     0
 71
     3
 72
     8
 73
4
 40
0.0
 40
0.0
 40
0.0
 40
0.0
 40
1.0
 40
1.0
 40
1.0
 40
1.0
 10
40.1341
 20
19.349
 30
0.0
 10
40.1341
 20
19.5585
 30
0.0
 10
39.9644
 20
19.728
 30
0.0
 10
39.7549
 20
19.728
 30
0.0
  0
SPLINE
  5
23c
100
AcDbEntity
  8
0
100
AcDbSpline
210
0.0
220
0.0
230
1.0
 62
     0
 70
     0
 71
     3
 72
     8
 73
4
 40
0.0
 40
0.0
 40
0.0
 40
0.0
 40
1.0
 40
1.0
 40
1.0
 40
1.0
 10
39.7549
 20
19.728
 30
0.0
 10
39.5457
 20
19.728
 30
0.0
 10
39.376
 20
19.5585
 30
0.0
 10
39.376
 20
19.349
 30
0.0
  0
SPLINE
  5
23d
100
AcDbEntity
  8
0
100
AcDbSpline
210
0.0
220
0.0
230
1.0
 62
     0
 70
     0
 71
     3
 72
     8
 73
4
 40
0.0
 40
0.0
 40
0.0
 40
0.0
 40
1.0
 40
1.0
 40
1.0
 40
1.0
 10
39.376
 20
19.349
 30
0.0
 10
39.376
 20
19.2291
 30
0.0
 10
39.4324
 20
19.123
 30
0.0
 10
39.5192
 20
19.0541
 30
0.0
  0
SPLINE
  5
23e
100
AcDbEntity
  8
0
100
AcDbSpline
210
0.0
220
0.0
230
1.0
 62
     0
 70
     0
 71
     3
 72
     8
 73
4
 40
0.0
 40
0.0
 40
0.0
 40
0.0
 40
1.0
 40
1.0
 40
1.0
 40
1.0
 10
39.5192
 20
19.0541
 30
0.0
 10
39.4437
 20
19.0059
 30
0.0
 10
39.3912
 20
18.9205
 30
0.0
 10
39.3912
 20
18.824
 30
0.0
  0
LINE
  5
23f
100
AcDbEntity
  8
0
100
AcDbLine
 62
     0
 10
39.3912
 20
18.824
 30
0.0
 11
39.3912
 21
17.9807
 31
0.0
  0
SPLINE
  5
240
100
AcDbEntity
  8
0
100
AcDbSpline
210
0.0
220
0.0
230
1.0
 62
     0
 70
     0
 71
     3
 72
     8
 73
4
 40
0.0
 40
0.0
 40
0.0
 40
0.0
 40
1.0
 40
1.0
 40
1.0
 40
1.0
 10
39.3912
 20
17.9807
 30
0.0
 10
39.3912
 20
17.9186
 30
0.0
 10
39.412
 20
17.8635
 30
0.0
 10
39.4462
 20
17.818
 30
0.0
  0
LINE
  5
241
100
AcDbEntity
  8
0
100
AcDbLine
 62
     0
 10
39.4462
 20
17.818
 30
0.0
 11
39.2963
 21
17.818
 31
0.0
  0
LINE
  5
242
100
AcDbEntity
  8
0
100
AcDbLine
 62
     0
 10
39.2963
 20
17.818
 30
0.0
 11
39.1072
 21
17.3605
 31
0.0
  0
LINE
  5
243
100
AcDbEntity
  8
0
100
AcDbLine
 62
     0
 10
39.1072
 20
17.3605
 30
0.0
 11
40.4012
 21
17.3605
 31
0.0
  0
LINE
  5
244
100
AcDbEntity
  8
0
100
AcDbLine
 62
     0
 10
40.4012
 20
17.3605
 30
0.0
 11
40.2124
 21
17.818
 31
0.0
  0
LINE
  5
245
100
AcDbEntity
  8
0
100
AcDbLine
 62
     0
 10
38.7946
 20
16.6784
 30
0.0
 11
40.7141
 21
16.6784
 31
0.0
  0
LINE
  5
246
100
AcDbEntity
  8
0
100
AcDbLine
 62
     0
 10
40.7141
 20
16.6784
 30
0.0
 11
40.7141
 21
14.7588
 31
0.0
  0
LINE
  5
247
100
AcDbEntity
  8
0
100
AcDbLine
 62
     0
 10
40.7141
 20
14.7588
 30
0.0
 11
38.7946
 21
14.7588
 31
0.0
  0
LINE
  5
248
100
AcDbEntity
  8
0
100
AcDbLine
 62
     0
 10
38.7946
 20
14.7588
 30
0.0
 11
38.7946
 21
16.6784
 31
0.0
  0
LINE
  5
249
100
AcDbEntity
  8
0
100
AcDbLine
 62
     0
 10
29.5217
 20
11.9379
 30
0.0
 11
28.4413
 21
12.7234
 31
0.0
  0
LINE
  5
24a
100
AcDbEntity
  8
0
100
AcDbLine
 62
     0
 10
28.4413
 20
12.7234
 30
0.0
 11
27.3623
 21
11.9379
 31
0.0
  0
LINE
  5
24b
100
AcDbEntity
  8
0
100
AcDbLine
 62
     0
 10
27.3623
 20
11.9379
 30
0.0
 11
27.3623
 21
12.9219
 31
0.0
  0
LINE
  5
24c
100
AcDbEntity
  8
0
100
AcDbLine
 62
     0
 10
27.3623
 20
12.9219
 30
0.0
 11
28.4413
 21
13.7074
 31
0.0
  0
LINE
  5
24d
100
AcDbEntity
  8
0
100
AcDbLine
 62
     0
 10
28.4413
 20
13.7074
 30
0.0
 11
29.5217
 21
12.9219
 31
0.0
  0
LINE
  5
24e
100
AcDbEntity
  8
0
100
AcDbLine
 62
     0
 10
29.5217
 20
12.9219
 30
0.0
 11
29.5217
 21
11.9379
 31
0.0
  0
SPLINE
  5
24f
100
AcDbEntity
  8
0
100
AcDbSpline
210
0.0
220
0.0
230
1.0
 62
     0
 70
     0
 71
     3
 72
     8
 73
4
 40
0.0
 40
0.0
 40
0.0
 40
0.0
 40
1.0
 40
1.0
 40
1.0
 40
1.0
 10
32.4363
 20
15.8199
 30
0.0
 10
32.4404
 20
16.0707
 30
0.0
 10
32.4032
 20
16.3518
 30
0.0
 10
32.3343
 20
16.4579
 30
0.0
  0
SPLINE
  5
250
100
AcDbEntity
  8
0
100
AcDbSpline
210
0.0
220
0.0
230
1.0
 62
     0
 70
     0
 71
     3
 72
     8
 73
4
 40
0.0
 40
0.0
 40
0.0
 40
0.0
 40
1.0
 40
1.0
 40
1.0
 40
1.0
 10
32.3343
 20
16.4579
 30
0.0
 10
32.0559
 20
16.8892
 30
0.0
 10
31.2746
 20
17.0394
 30
0.0
 10
30.7537
 20
16.7611
 30
0.0
  0
SPLINE
  5
251
100
AcDbEntity
  8
0
100
AcDbSpline
210
0.0
220
0.0
230
1.0
 62
     0
 70
     0
 71
     3
 72
     8
 73
4
 40
0.0
 40
0.0
 40
0.0
 40
0.0
 40
1.0
 40
1.0
 40
1.0
 40
1.0
 10
30.7537
 20
16.7611
 30
0.0
 10
30.5925
 20
16.6743
 30
0.0
 10
30.4119
 20
16.5255
 30
0.0
 10
30.3527
 20
16.429
 30
0.0
  0
SPLINE
  5
252
100
AcDbEntity
  8
0
100
AcDbSpline
210
0.0
220
0.0
230
1.0
 62
     0
 70
     0
 71
     3
 72
     8
 73
4
 40
0.0
 40
0.0
 40
0.0
 40
0.0
 40
1.0
 40
1.0
 40
1.0
 40
1.0
 10
30.3527
 20
16.429
 30
0.0
 10
30.2273
 20
16.2292
 30
0.0
 10
30.208
 20
15.7551
 30
0.0
 10
30.3127
 20
15.4575
 30
0.0
  0
SPLINE
  5
253
100
AcDbEntity
  8
0
100
AcDbSpline
210
0.0
220
0.0
230
1.0
 62
     0
 70
     0
 71
     3
 72
     8
 73
4
 40
0.0
 40
0.0
 40
0.0
 40
0.0
 40
1.0
 40
1.0
 40
1.0
 40
1.0
 10
30.3127
 20
15.4575
 30
0.0
 10
30.3871
 20
15.2438
 30
0.0
 10
30.5387
 20
15.1295
 30
0.0
 10
30.9163
 20
15.0771
 30
0.0
  0
SPLINE
  5
254
100
AcDbEntity
  8
0
100
AcDbSpline
210
0.0
220
0.0
230
1.0
 62
     0
 70
     0
 71
     3
 72
     8
 73
4
 40
0.0
 40
0.0
 40
0.0
 40
0.0
 40
1.0
 40
1.0
 40
1.0
 40
1.0
 10
30.9163
 20
15.0771
 30
0.0
 10
30.9356
 20
15.0744
 30
0.0
 10
30.9135
 20
15.0082
 30
0.0
 10
30.9342
 20
15.0027
 30
0.0
  0
SPLINE
  5
255
100
AcDbEntity
  8
0
100
AcDbSpline
210
0.0
220
0.0
230
1.0
 62
     0
 70
     0
 71
     3
 72
     8
 73
4
 40
0.0
 40
0.0
 40
0.0
 40
0.0
 40
1.0
 40
1.0
 40
1.0
 40
1.0
 10
30.9342
 20
15.0027
 30
0.0
 10
31.0307
 20
14.9751
 30
0.0
 10
31.2429
 20
14.971
 30
0.0
 10
31.3531
 20
14.9683
 30
0.0
  0
SPLINE
  5
256
100
AcDbEntity
  8
0
100
AcDbSpline
210
0.0
220
0.0
230
1.0
 62
     0
 70
     0
 71
     3
 72
     8
 73
4
 40
0.0
 40
0.0
 40
0.0
 40
0.0
 40
1.0
 40
1.0
 40
1.0
 40
1.0
 10
31.3531
 20
14.9683
 30
0.0
 10
31.5061
 20
14.9655
 30
0.0
 10
31.6673
 20
14.9572
 30
0.0
 10
31.7872
 20
14.9903
 30
0.0
  0
SPLINE
  5
257
100
AcDbEntity
  8
0
100
AcDbSpline
210
0.0
220
0.0
230
1.0
 62
     0
 70
     0
 71
     3
 72
     8
 73
4
 40
0.0
 40
0.0
 40
0.0
 40
0.0
 40
1.0
 40
1.0
 40
1.0
 40
1.0
 10
31.7872
 20
14.9903
 30
0.0
 10
31.8065
 20
14.9958
 30
0.0
 10
31.7872
 20
15.0688
 30
0.0
 10
31.8051
 20
15.0716
 30
0.0
  0
SPLINE
  5
258
100
AcDbEntity
  8
0
100
AcDbSpline
210
0.0
220
0.0
230
1.0
 62
     0
 70
     0
 71
     3
 72
     8
 73
4
 40
0.0
 40
0.0
 40
0.0
 40
0.0
 40
1.0
 40
1.0
 40
1.0
 40
1.0
 10
31.8051
 20
15.0716
 30
0.0
 10
32.1055
 20
15.1295
 30
0.0
 10
32.3067
 20
15.2563
 30
0.0
 10
32.3812
 20
15.4423
 30
0.0
  0
SPLINE
  5
259
100
AcDbEntity
  8
0
100
AcDbSpline
210
0.0
220
0.0
230
1.0
 62
     0
 70
     0
 71
     3
 72
     8
 73
4
 40
0.0
 40
0.0
 40
0.0
 40
0.0
 40
1.0
 40
1.0
 40
1.0
 40
1.0
 10
32.3812
 20
15.4423
 30
0.0
 10
32.4156
 20
15.5277
 30
0.0
 10
32.4335
 20
15.6683
 30
0.0
 10
32.4363
 20
15.8199
 30
0.0
  0
LINE
  5
25a
100
AcDbEntity
  8
0
100
AcDbLine
 62
     0
 10
32.4363
 20
15.8199
 30
0.0
 11
32.4363
 21
15.8199
 31
0.0
  0
SPLINE
  5
25b
100
AcDbEntity
  8
0
100
AcDbSpline
210
0.0
220
0.0
230
1.0
 62
     0
 70
     0
 71
     3
 72
     8
 73
4
 40
0.0
 40
0.0
 40
0.0
 40
0.0
 40
1.0
 40
1.0
 40
1.0
 40
1.0
 10
32.0353
 20
15.8474
 30
0.0
 10
32.0353
 20
15.8378
 30
0.0
 10
32.0353
 20
15.8268
 30
0.0
 10
32.0339
 20
15.8157
 30
0.0
  0
SPLINE
  5
25c
100
AcDbEntity
  8
0
100
AcDbSpline
210
0.0
220
0.0
230
1.0
 62
     0
 70
     0
 71
     3
 72
     8
 73
4
 40
0.0
 40
0.0
 40
0.0
 40
0.0
 40
1.0
 40
1.0
 40
1.0
 40
1.0
 10
32.0339
 20
15.8157
 30
0.0
 10
32.0173
 20
15.6986
 30
0.0
 10
31.9774
 20
15.6779
 30
0.0
 10
31.79
 20
15.6931
 30
0.0
  0
SPLINE
  5
25d
100
AcDbEntity
  8
0
100
AcDbSpline
210
0.0
220
0.0
230
1.0
 62
     0
 70
     0
 71
     3
 72
     8
 73
4
 40
0.0
 40
0.0
 40
0.0
 40
0.0
 40
1.0
 40
1.0
 40
1.0
 40
1.0
 10
31.79
 20
15.6931
 30
0.0
 10
31.6673
 20
15.7041
 30
0.0
 10
31.5447
 20
15.7468
 30
0.0
 10
31.5171
 20
15.7896
 30
0.0
  0
SPLINE
  5
25e
100
AcDbEntity
  8
0
100
AcDbSpline
210
0.0
220
0.0
230
1.0
 62
     0
 70
     0
 71
     3
 72
     8
 73
4
 40
0.0
 40
0.0
 40
0.0
 40
0.0
 40
1.0
 40
1.0
 40
1.0
 40
1.0
 10
31.5171
 20
15.7896
 30
0.0
 10
31.4275
 20
15.9315
 30
0.0
 10
31.4634
 20
16.0266
 30
0.0
 10
31.6205
 20
16.0666
 30
0.0
  0
SPLINE
  5
25f
100
AcDbEntity
  8
0
100
AcDbSpline
210
0.0
220
0.0
230
1.0
 62
     0
 70
     0
 71
     3
 72
     8
 73
4
 40
0.0
 40
0.0
 40
0.0
 40
0.0
 40
1.0
 40
1.0
 40
1.0
 40
1.0
 10
31.6205
 20
16.0666
 30
0.0
 10
31.8272
 20
16.1175
 30
0.0
 10
32.0311
 20
16.0059
 30
0.0
 10
32.0353
 20
15.8474
 30
0.0
  0
LINE
  5
260
100
AcDbEntity
  8
0
100
AcDbLine
 62
     0
 10
32.0353
 20
15.8474
 30
0.0
 11
32.0353
 21
15.8474
 31
0.0
  0
LINE
  5
261
100
AcDbEntity
  8
0
100
AcDbLine
 62
     0
 10
31.7872
 20
14.8235
 30
0.0
 11
30.9163
 21
14.8456
 31
0.0
  0
SPLINE
  5
262
100
AcDbEntity
  8
0
100
AcDbSpline
210
0.0
220
0.0
230
1.0
 62
     0
 70
     0
 71
     3
 72
     8
 73
4
 40
0.0
 40
0.0
 40
0.0
 40
0.0
 40
1.0
 40
1.0
 40
1.0
 40
1.0
 10
30.9163
 20
14.8456
 30
0.0
 10
30.9163
 20
14.8456
 30
0.0
 10
30.9011
 20
14.7023
 30
0.0
 10
30.9438
 20
14.6527
 30
0.0
  0
SPLINE
  5
263
100
AcDbEntity
  8
0
100
AcDbSpline
210
0.0
220
0.0
230
1.0
 62
     0
 70
     0
 71
     3
 72
     8
 73
4
 40
0.0
 40
0.0
 40
0.0
 40
0.0
 40
1.0
 40
1.0
 40
1.0
 40
1.0
 10
30.9438
 20
14.6527
 30
0.0
 10
31.0334
 20
14.548
 30
0.0
 10
31.2043
 20
14.5369
 30
0.0
 10
31.3421
 20
14.5355
 30
0.0
  0
SPLINE
  5
264
100
AcDbEntity
  8
0
100
AcDbSpline
210
0.0
220
0.0
230
1.0
 62
     0
 70
     0
 71
     3
 72
     8
 73
4
 40
0.0
 40
0.0
 40
0.0
 40
0.0
 40
1.0
 40
1.0
 40
1.0
 40
1.0
 10
31.3421
 20
14.5355
 30
0.0
 10
31.4909
 20
14.5355
 30
0.0
 10
31.7045
 20
14.5107
 30
0.0
 10
31.772
 20
14.6596
 30
0.0
  0
SPLINE
  5
265
100
AcDbEntity
  8
0
100
AcDbSpline
210
0.0
220
0.0
230
1.0
 62
     0
 70
     0
 71
     3
 72
     8
 73
4
 40
0.0
 40
0.0
 40
0.0
 40
0.0
 40
1.0
 40
1.0
 40
1.0
 40
1.0
 10
31.772
 20
14.6596
 30
0.0
 10
31.7955
 20
14.7106
 30
0.0
 10
31.7872
 20
14.8235
 30
0.0
 10
31.7872
 20
14.8235
 30
0.0
  0
LINE
  5
266
100
AcDbEntity
  8
0
100
AcDbLine
 62
     0
 10
31.7872
 20
14.8235
 30
0.0
 11
31.7872
 21
14.8235
 31
0.0
  0
SPLINE
  5
267
100
AcDbEntity
  8
0
100
AcDbSpline
210
0.0
220
0.0
230
1.0
 62
     0
 70
     0
 71
     3
 72
     8
 73
4
 40
0.0
 40
0.0
 40
0.0
 40
0.0
 40
1.0
 40
1.0
 40
1.0
 40
1.0
 10
31.2084
 20
15.8915
 30
0.0
 10
31.2084
 20
15.7551
 30
0.0
 10
31.1285
 20
15.7097
 30
0.0
 10
30.8571
 20
15.689
 30
0.0
  0
SPLINE
  5
268
100
AcDbEntity
  8
0
100
AcDbSpline
210
0.0
220
0.0
230
1.0
 62
     0
 70
     0
 71
     3
 72
     8
 73
4
 40
0.0
 40
0.0
 40
0.0
 40
0.0
 40
1.0
 40
1.0
 40
1.0
 40
1.0
 10
30.8571
 20
15.689
 30
0.0
 10
30.6462
 20
15.6724
 30
0.0
 10
30.5787
 20
15.8433
 30
0.0
 10
30.7344
 20
15.999
 30
0.0
  0
SPLINE
  5
269
100
AcDbEntity
  8
0
100
AcDbSpline
210
0.0
220
0.0
230
1.0
 62
     0
 70
     0
 71
     3
 72
     8
 73
4
 40
0.0
 40
0.0
 40
0.0
 40
0.0
 40
1.0
 40
1.0
 40
1.0
 40
1.0
 10
30.7344
 20
15.999
 30
0.0
 10
30.9011
 20
16.1644
 30
0.0
 10
31.2084
 20
16.0955
 30
0.0
 10
31.2084
 20
15.8915
 30
0.0
  0
LINE
  5
26a
100
AcDbEntity
  8
0
100
AcDbLine
 62
     0
 10
31.2084
 20
15.8915
 30
0.0
 11
31.2084
 21
15.8915
 31
0.0
  0
SPLINE
  5
26b
100
AcDbEntity
  8
0
100
AcDbSpline
210
0.0
220
0.0
230
1.0
 62
     0
 70
     0
 71
     3
 72
     8
 73
4
 40
0.0
 40
0.0
 40
0.0
 40
0.0
 40
1.0
 40
1.0
 40
1.0
 40
1.0
 10
28.4427
 20
19.0679
 30
0.0
 10
28.1533
 20
19.0679
 30
0.0
 10
27.919
 20
18.8323
 30
0.0
 10
27.919
 20
18.5443
 30
0.0
  0
SPLINE
  5
26c
100
AcDbEntity
  8
0
100
AcDbSpline
210
0.0
220
0.0
230
1.0
 62
     0
 70
     0
 71
     3
 72
     8
 73
4
 40
0.0
 40
0.0
 40
0.0
 40
0.0
 40
1.0
 40
1.0
 40
1.0
 40
1.0
 10
27.919
 20
18.5443
 30
0.0
 10
27.919
 20
18.2549
 30
0.0
 10
28.1533
 20
18.0206
 30
0.0
 10
28.4427
 20
18.0206
 30
0.0
  0
SPLINE
  5
26d
100
AcDbEntity
  8
0
100
AcDbSpline
210
0.0
220
0.0
230
1.0
 62
     0
 70
     0
 71
     3
 72
     8
 73
4
 40
0.0
 40
0.0
 40
0.0
 40
0.0
 40
1.0
 40
1.0
 40
1.0
 40
1.0
 10
28.4427
 20
18.0206
 30
0.0
 10
28.7307
 20
18.0206
 30
0.0
 10
28.965
 20
18.2549
 30
0.0
 10
28.965
 20
18.5443
 30
0.0
  0
SPLINE
  5
26e
100
AcDbEntity
  8
0
100
AcDbSpline
210
0.0
220
0.0
230
1.0
 62
     0
 70
     0
 71
     3
 72
     8
 73
4
 40
0.0
 40
0.0
 40
0.0
 40
0.0
 40
1.0
 40
1.0
 40
1.0
 40
1.0
 10
28.965
 20
18.5443
 30
0.0
 10
28.965
 20
18.8323
 30
0.0
 10
28.7307
 20
19.0679
 30
0.0
 10
28.4427
 20
19.0679
 30
0.0
  0
LINE
  5
26f
100
AcDbEntity
  8
0
100
AcDbLine
 62
     0
 10
28.4427
 20
19.0679
 30
0.0
 11
28.4427
 21
19.0679
 31
0.0
  0
SPLINE
  5
270
100
AcDbEntity
  8
0
100
AcDbSpline
210
0.0
220
0.0
230
1.0
 62
     0
 70
     0
 71
     3
 72
     8
 73
4
 40
0.0
 40
0.0
 40
0.0
 40
0.0
 40
1.0
 40
1.0
 40
1.0
 40
1.0
 10
28.4427
 20
18.8529
 30
0.0
 10
28.6136
 20
18.8529
 30
0.0
 10
28.7514
 20
18.7151
 30
0.0
 10
28.7514
 20
18.5443
 30
0.0
  0
SPLINE
  5
271
100
AcDbEntity
  8
0
100
AcDbSpline
210
0.0
220
0.0
230
1.0
 62
     0
 70
     0
 71
     3
 72
     8
 73
4
 40
0.0
 40
0.0
 40
0.0
 40
0.0
 40
1.0
 40
1.0
 40
1.0
 40
1.0
 10
28.7514
 20
18.5443
 30
0.0
 10
28.7514
 20
18.3734
 30
0.0
 10
28.6136
 20
18.2342
 30
0.0
 10
28.4427
 20
18.2342
 30
0.0
  0
SPLINE
  5
272
100
AcDbEntity
  8
0
100
AcDbSpline
210
0.0
220
0.0
230
1.0
 62
     0
 70
     0
 71
     3
 72
     8
 73
4
 40
0.0
 40
0.0
 40
0.0
 40
0.0
 40
1.0
 40
1.0
 40
1.0
 40
1.0
 10
28.4427
 20
18.2342
 30
0.0
 10
28.2704
 20
18.2342
 30
0.0
 10
28.1327
 20
18.3734
 30
0.0
 10
28.1327
 20
18.5443
 30
0.0
  0
SPLINE
  5
273
100
AcDbEntity
  8
0
100
AcDbSpline
210
0.0
220
0.0
230
1.0
 62
     0
 70
     0
 71
     3
 72
     8
 73
4
 40
0.0
 40
0.0
 40
0.0
 40
0.0
 40
1.0
 40
1.0
 40
1.0
 40
1.0
 10
28.1327
 20
18.5443
 30
0.0
 10
28.1327
 20
18.7151
 30
0.0
 10
28.2704
 20
18.8529
 30
0.0
 10
28.4427
 20
18.8529
 30
0.0
  0
LINE
  5
274
100
AcDbEntity
  8
0
100
AcDbLine
 62
     0
 10
28.4427
 20
18.8529
 30
0.0
 11
28.4427
 21
18.8529
 31
0.0
  0
SPLINE
  5
275
100
AcDbEntity
  8
0
100
AcDbSpline
210
0.0
220
0.0
230
1.0
 62
     0
 70
     0
 71
     3
 72
     8
 73
4
 40
0.0
 40
0.0
 40
0.0
 40
0.0
 40
1.0
 40
1.0
 40
1.0
 40
1.0
 10
31.3407
 20
19.6246
 30
0.0
 10
30.7454
 20
19.6246
 30
0.0
 10
30.2603
 20
19.1396
 30
0.0
 10
30.2603
 20
18.5443
 30
0.0
  0
SPLINE
  5
276
100
AcDbEntity
  8
0
100
AcDbSpline
210
0.0
220
0.0
230
1.0
 62
     0
 70
     0
 71
     3
 72
     8
 73
4
 40
0.0
 40
0.0
 40
0.0
 40
0.0
 40
1.0
 40
1.0
 40
1.0
 40
1.0
 10
30.2603
 20
18.5443
 30
0.0
 10
30.2603
 20
17.9476
 30
0.0
 10
30.7454
 20
17.4639
 30
0.0
 10
31.3407
 20
17.4639
 30
0.0
  0
SPLINE
  5
277
100
AcDbEntity
  8
0
100
AcDbSpline
210
0.0
220
0.0
230
1.0
 62
     0
 70
     0
 71
     3
 72
     8
 73
4
 40
0.0
 40
0.0
 40
0.0
 40
0.0
 40
1.0
 40
1.0
 40
1.0
 40
1.0
 10
31.3407
 20
17.4639
 30
0.0
 10
31.936
 20
17.4639
 30
0.0
 10
32.4211
 20
17.9476
 30
0.0
 10
32.4211
 20
18.5443
 30
0.0
  0
SPLINE
  5
278
100
AcDbEntity
  8
0
100
AcDbSpline
210
0.0
220
0.0
230
1.0
 62
     0
 70
     0
 71
     3
 72
     8
 73
4
 40
0.0
 40
0.0
 40
0.0
 40
0.0
 40
1.0
 40
1.0
 40
1.0
 40
1.0
 10
32.4211
 20
18.5443
 30
0.0
 10
32.4211
 20
19.1396
 30
0.0
 10
31.936
 20
19.6246
 30
0.0
 10
31.3407
 20
19.6246
 30
0.0
  0
LINE
  5
279
100
AcDbEntity
  8
0
100
AcDbLine
 62
     0
 10
31.3407
 20
19.6246
 30
0.0
 11
31.3407
 21
19.6246
 31
0.0
  0
SPLINE
  5
27a
100
AcDbEntity
  8
0
100
AcDbSpline
210
0.0
220
0.0
230
1.0
 62
     0
 70
     0
 71
     3
 72
     8
 73
4
 40
0.0
 40
0.0
 40
0.0
 40
0.0
 40
1.0
 40
1.0
 40
1.0
 40
1.0
 10
31.3407
 20
19.3697
 30
0.0
 10
31.7982
 20
19.3697
 30
0.0
 10
32.1662
 20
19.0004
 30
0.0
 10
32.1662
 20
18.5443
 30
0.0
  0
SPLINE
  5
27b
100
AcDbEntity
  8
0
100
AcDbSpline
210
0.0
220
0.0
230
1.0
 62
     0
 70
     0
 71
     3
 72
     8
 73
4
 40
0.0
 40
0.0
 40
0.0
 40
0.0
 40
1.0
 40
1.0
 40
1.0
 40
1.0
 10
32.1662
 20
18.5443
 30
0.0
 10
32.1662
 20
18.0867
 30
0.0
 10
31.7982
 20
17.7202
 30
0.0
 10
31.3407
 20
17.7202
 30
0.0
  0
SPLINE
  5
27c
100
AcDbEntity
  8
0
100
AcDbSpline
210
0.0
220
0.0
230
1.0
 62
     0
 70
     0
 71
     3
 72
     8
 73
4
 40
0.0
 40
0.0
 40
0.0
 40
0.0
 40
1.0
 40
1.0
 40
1.0
 40
1.0
 10
31.3407
 20
17.7202
 30
0.0
 10
30.8832
 20
17.7202
 30
0.0
 10
30.5139
 20
18.0867
 30
0.0
 10
30.5139
 20
18.5443
 30
0.0
  0
SPLINE
  5
27d
100
AcDbEntity
  8
0
100
AcDbSpline
210
0.0
220
0.0
230
1.0
 62
     0
 70
     0
 71
     3
 72
     8
 73
4
 40
0.0
 40
0.0
 40
0.0
 40
0.0
 40
1.0
 40
1.0
 40
1.0
 40
1.0
 10
30.5139
 20
18.5443
 30
0.0
 10
30.5139
 20
19.0004
 30
0.0
 10
30.8832
 20
19.3697
 30
0.0
 10
31.3407
 20
19.3697
 30
0.0
  0
LINE
  5
27e
100
AcDbEntity
  8
0
100
AcDbLine
 62
     0
 10
31.3407
 20
19.3697
 30
0.0
 11
31.3407
 21
19.3697
 31
0.0
  0
LINE
  5
27f
100
AcDbEntity
  8
0
100
AcDbLine
 62
     0
 10
30.682
 20
13.4827
 30
0.0
 11
31.8975
 21
13.1561
 31
0.0
  0
LINE
  5
280
100
AcDbEntity
  8
0
100
AcDbLine
 62
     0
 10
31.8975
 20
13.1561
 30
0.0
 11
31.0072
 21
12.2659
 31
0.0
  0
LINE
  5
281
100
AcDbEntity
  8
0
100
AcDbLine
 62
     0
 10
31.0072
 20
12.2659
 30
0.0
 11
30.682
 21
13.4827
 31
0.0
  0
LINE
  5
282
100
AcDbEntity
  8
0
100
AcDbLine
 62
     0
 10
30.4037
 20
13.7597
 30
0.0
 11
30.9053
 21
11.8856
 31
0.0
  0
LINE
  5
283
100
AcDbEntity
  8
0
100
AcDbLine
 62
     0
 10
30.9053
 20
11.8856
 30
0.0
 11
32.2778
 21
13.2581
 31
0.0
  0
LINE
  5
284
100
AcDbEntity
  8
0
100
AcDbLine
 62
     0
 10
32.2778
 20
13.2581
 30
0.0
 11
30.4037
 21
13.7597
 31
0.0
  0
LINE
  5
285
100
AcDbEntity
  8
0
100
AcDbLine
 62
     0
 10
37.5281
 20
12.1791
 30
0.0
 11
36.8998
 21
13.2705
 31
0.0
  0
LINE
  5
286
100
AcDbEntity
  8
0
100
AcDbLine
 62
     0
 10
36.8998
 20
13.2705
 30
0.0
 11
36.2701
 21
12.1791
 31
0.0
  0
LINE
  5
287
100
AcDbEntity
  8
0
100
AcDbLine
 62
     0
 10
36.2701
 20
12.1791
 30
0.0
 11
37.5281
 21
12.1791
 31
0.0
  0
LINE
  5
288
100
AcDbEntity
  8
0
100
AcDbLine
 62
     0
 10
37.8686
 20
11.9834
 30
0.0
 11
35.9297
 21
11.9834
 31
0.0
  0
LINE
  5
289
100
AcDbEntity
  8
0
100
AcDbLine
 62
     0
 10
35.9297
 20
11.9834
 30
0.0
 11
36.8998
 21
13.6633
 31
0.0
  0
LINE
  5
28a
100
AcDbEntity
  8
0
100
AcDbLine
 62
     0
 10
36.8998
 20
13.6633
 30
0.0
 11
37.8686
 21
11.9834
 31
0.0
  0
LINE
  5
28b
100
AcDbEntity
  8
0
100
AcDbLine
 62
     0
 10
34.8589
 20
13.4813
 30
0.0
 11
34.5323
 21
12.2659
 31
0.0
  0
LINE
  5
28c
100
AcDbEntity
  8
0
100
AcDbLine
 62
     0
 10
34.5323
 20
12.2659
 30
0.0
 11
33.6421
 21
13.1561
 31
0.0
  0
LINE
  5
28d
100
AcDbEntity
  8
0
100
AcDbLine
 62
     0
 10
33.6421
 20
13.1561
 30
0.0
 11
34.8589
 21
13.4813
 31
0.0
  0
LINE
  5
28e
100
AcDbEntity
  8
0
100
AcDbLine
 62
     0
 10
35.1359
 20
13.7597
 30
0.0
 11
33.2631
 21
13.2581
 31
0.0
  0
LINE
  5
28f
100
AcDbEntity
  8
0
100
AcDbLine
 62
     0
 10
33.2631
 20
13.2581
 30
0.0
 11
34.6342
 21
11.887
 31
0.0
  0
LINE
  5
290
100
AcDbEntity
  8
0
100
AcDbLine
 62
     0
 10
34.6342
 20
11.887
 30
0.0
 11
35.1359
 21
13.7597
 31
0.0
  0
LINE
  5
291
100
AcDbEntity
  8
0
100
AcDbLine
 62
     0
 10
29.0849
 20
10.6233
 30
0.0
 11
27.9949
 21
9.99352
 31
0.0
  0
LINE
  5
292
100
AcDbEntity
  8
0
100
AcDbLine
 62
     0
 10
27.9949
 20
9.99352
 30
0.0
 11
29.0849
 21
9.36378
 31
0.0
  0
LINE
  5
293
100
AcDbEntity
  8
0
100
AcDbLine
 62
     0
 10
29.0849
 20
9.36378
 30
0.0
 11
29.0849
 21
10.6233
 31
0.0
  0
LINE
  5
294
100
AcDbEntity
  8
0
100
AcDbLine
 62
     0
 10
29.2819
 20
10.9637
 30
0.0
 11
29.2819
 21
9.02476
 31
0.0
  0
LINE
  5
295
100
AcDbEntity
  8
0
100
AcDbLine
 62
     0
 10
29.2819
 20
9.02476
 30
0.0
 11
27.6021
 21
9.99352
 31
0.0
  0
LINE
  5
296
100
AcDbEntity
  8
0
100
AcDbLine
 62
     0
 10
27.6021
 20
9.99352
 30
0.0
 11
29.2819
 21
10.9637
 31
0.0
  0
LINE
  5
297
100
AcDbEntity
  8
0
100
AcDbLine
 62
     0
 10
30.6972
 20
9.36516
 30
0.0
 11
31.7872
 21
9.99352
 31
0.0
  0
LINE
  5
298
100
AcDbEntity
  8
0
100
AcDbLine
 62
     0
 10
31.7872
 20
9.99352
 30
0.0
 11
30.6972
 21
10.6233
 31
0.0
  0
LINE
  5
299
100
AcDbEntity
  8
0
100
AcDbLine
 62
     0
 10
30.6972
 20
10.6233
 30
0.0
 11
30.6972
 21
9.36516
 31
0.0
  0
LINE
  5
29a
100
AcDbEntity
  8
0
100
AcDbLine
 62
     0
 10
30.5001
 20
9.02476
 30
0.0
 11
30.5015
 21
10.9637
 31
0.0
  0
LINE
  5
29b
100
AcDbEntity
  8
0
100
AcDbLine
 62
     0
 10
30.5015
 20
10.9637
 30
0.0
 11
32.1813
 21
9.99352
 31
0.0
  0
LINE
  5
29c
100
AcDbEntity
  8
0
100
AcDbLine
 62
     0
 10
32.1813
 20
9.99352
 30
0.0
 11
30.5001
 21
9.02476
 31
0.0
  0
LINE
  5
29d
100
AcDbEntity
  8
0
100
AcDbLine
 62
     0
 10
33.5401
 20
9.33482
 30
0.0
 11
34.7569
 21
9.66004
 31
0.0
  0
LINE
  5
29e
100
AcDbEntity
  8
0
100
AcDbLine
 62
     0
 10
34.7569
 20
9.66004
 30
0.0
 11
33.8667
 21
10.5517
 31
0.0
  0
LINE
  5
29f
100
AcDbEntity
  8
0
100
AcDbLine
 62
     0
 10
33.8667
 20
10.5517
 30
0.0
 11
33.5401
 21
9.33482
 31
0.0
  0
LINE
  5
2a0
100
AcDbEntity
  8
0
100
AcDbLine
 62
     0
 10
33.2631
 20
9.05785
 30
0.0
 11
33.7647
 21
10.9306
 31
0.0
  0
LINE
  5
2a1
100
AcDbEntity
  8
0
100
AcDbLine
 62
     0
 10
33.7647
 20
10.9306
 30
0.0
 11
35.1359
 21
9.55947
 31
0.0
  0
LINE
  5
2a2
100
AcDbEntity
  8
0
100
AcDbLine
 62
     0
 10
35.1359
 20
9.55947
 30
0.0
 11
33.2631
 21
9.05785
 31
0.0
  0
LINE
  5
2a3
100
AcDbEntity
  8
0
100
AcDbLine
 62
     0
 10
37.5281
 20
10.6371
 30
0.0
 11
36.8998
 21
9.54705
 31
0.0
  0
LINE
  5
2a4
100
AcDbEntity
  8
0
100
AcDbLine
 62
     0
 10
36.8998
 20
9.54705
 30
0.0
 11
36.2701
 21
10.6371
 31
0.0
  0
LINE
  5
2a5
100
AcDbEntity
  8
0
100
AcDbLine
 62
     0
 10
36.2701
 20
10.6371
 30
0.0
 11
37.5281
 21
10.6371
 31
0.0
  0
LINE
  5
2a6
100
AcDbEntity
  8
0
100
AcDbLine
 62
     0
 10
37.8686
 20
10.8341
 30
0.0
 11
35.9297
 21
10.8341
 31
0.0
  0
LINE
  5
2a7
100
AcDbEntity
  8
0
100
AcDbLine
 62
     0
 10
35.9297
 20
10.8341
 30
0.0
 11
36.8998
 21
9.1543
 31
0.0
  0
LINE
  5
2a8
100
AcDbEntity
  8
0
100
AcDbLine
 62
     0
 10
36.8998
 20
9.1543
 30
0.0
 11
37.8686
 21
10.8341
 31
0.0
  0
LINE
  5
2a9
100
AcDbEntity
  8
0
100
AcDbLine
 62
     0
 10
40.4139
 20
9.33482
 30
0.0
 11
40.0886
 21
10.5517
 31
0.0
  0
LINE
  5
2aa
100
AcDbEntity
  8
0
100
AcDbLine
 62
     0
 10
40.0886
 20
10.5517
 30
0.0
 11
39.1968
 21
9.66142
 31
0.0
  0
LINE
  5
2ab
100
AcDbEntity
  8
0
100
AcDbLine
 62
     0
 10
39.1968
 20
9.66142
 30
0.0
 11
40.4139
 21
9.33482
 31
0.0
  0
LINE
  5
2ac
100
AcDbEntity
  8
0
100
AcDbLine
 62
     0
 10
40.6922
 20
9.05785
 30
0.0
 11
38.8179
 21
9.55947
 31
0.0
  0
LINE
  5
2ad
100
AcDbEntity
  8
0
100
AcDbLine
 62
     0
 10
38.8179
 20
9.55947
 30
0.0
 11
40.1891
 21
10.9306
 31
0.0
  0
LINE
  5
2ae
100
AcDbEntity
  8
0
100
AcDbLine
 62
     0
 10
40.1891
 20
10.9306
 30
0.0
 11
40.6922
 21
9.05785
 31
0.0
  0
LINE
  5
2af
100
AcDbEntity
  8
0
100
AcDbLine
 62
     0
 10
40.6922
 20
13.2581
 30
0.0
 11
38.8179
 21
13.7597
 31
0.0
  0
LINE
  5
2b0
100
AcDbEntity
  8
0
100
AcDbLine
 62
     0
 10
38.8179
 20
13.7597
 30
0.0
 11
39.3196
 21
11.8856
 31
0.0
  0
LINE
  5
2b1
100
AcDbEntity
  8
0
100
AcDbLine
 62
     0
 10
39.3196
 20
11.8856
 30
0.0
 11
40.6922
 21
13.2581
 31
0.0
  0
LINE
  5
2b2
100
AcDbEntity
  8
0
100
AcDbLine
 62
     0
 10
29.4115
 20
6.31553
 30
0.0
 11
27.4712
 21
6.31694
 31
0.0
  0
LINE
  5
2b3
100
AcDbEntity
  8
0
100
AcDbLine
 62
     0
 10
27.4712
 20
6.31694
 30
0.0
 11
28.4413
 21
7.99677
 31
0.0
  0
LINE
  5
2b4
100
AcDbEntity
  8
0
100
AcDbLine
 62
     0
 10
28.4413
 20
7.99677
 30
0.0
 11
29.4115
 21
6.31553
 31
0.0
  0
LINE
  5
2b5
100
AcDbEntity
  8
0
100
AcDbLine
 62
     0
 10
31.7762
 20
6.21908
 30
0.0
 11
32.2778
 21
8.09322
 31
0.0
  0
LINE
  5
2b6
100
AcDbEntity
  8
0
100
AcDbLine
 62
     0
 10
32.2778
 20
8.09322
 30
0.0
 11
30.4037
 21
7.59023
 31
0.0
  0
LINE
  5
2b7
100
AcDbEntity
  8
0
100
AcDbLine
 62
     0
 10
30.4037
 20
7.59023
 30
0.0
 11
31.7762
 21
6.21908
 31
0.0
  0
LINE
  5
2b8
100
AcDbEntity
  8
0
100
AcDbLine
 62
     0
 10
35.0394
 20
8.12631
 30
0.0
 11
35.0394
 21
6.18603
 31
0.0
  0
LINE
  5
2b9
100
AcDbEntity
  8
0
100
AcDbLine
 62
     0
 10
35.0394
 20
6.18603
 30
0.0
 11
33.3595
 21
7.15617
 31
0.0
  0
LINE
  5
2ba
100
AcDbEntity
  8
0
100
AcDbLine
 62
     0
 10
33.3595
 20
7.15617
 30
0.0
 11
35.0394
 21
8.12631
 31
0.0
  0
LINE
  5
2bb
100
AcDbEntity
  8
0
100
AcDbLine
 62
     0
 10
36.0592
 20
8.12631
 30
0.0
 11
36.0592
 21
6.18603
 31
0.0
  0
LINE
  5
2bc
100
AcDbEntity
  8
0
100
AcDbLine
 62
     0
 10
36.0592
 20
6.18603
 30
0.0
 11
37.7391
 21
7.15617
 31
0.0
  0
LINE
  5
2bd
100
AcDbEntity
  8
0
100
AcDbLine
 62
     0
 10
37.7391
 20
7.15617
 30
0.0
 11
36.0592
 21
8.12631
 31
0.0
  0
LINE
  5
2be
100
AcDbEntity
  8
0
100
AcDbLine
 62
     0
 10
40.6922
 20
6.7207
 30
0.0
 11
38.8179
 21
6.21908
 31
0.0
  0
LINE
  5
2bf
100
AcDbEntity
  8
0
100
AcDbLine
 62
     0
 10
38.8179
 20
6.21908
 30
0.0
 11
39.3196
 21
8.09322
 31
0.0
  0
LINE
  5
2c0
100
AcDbEntity
  8
0
100
AcDbLine
 62
     0
 10
39.3196
 20
8.09322
 30
0.0
 11
40.6922
 21
6.7207
 31
0.0
  0
LINE
  5
2c1
100
AcDbEntity
  8
0
100
AcDbLine
 62
     0
 10
29.4115
 20
4.70461
 30
0.0
 11
27.4712
 21
4.70323
 31
0.0
  0
LINE
  5
2c2
100
AcDbEntity
  8
0
100
AcDbLine
 62
     0
 10
27.4712
 20
4.70323
 30
0.0
 11
28.4413
 21
3.02341
 31
0.0
  0
LINE
  5
2c3
100
AcDbEntity
  8
0
100
AcDbLine
 62
     0
 10
28.4413
 20
3.02341
 30
0.0
 11
29.4115
 21
4.70461
 31
0.0
  0
LINE
  5
2c4
100
AcDbEntity
  8
0
100
AcDbLine
 62
     0
 10
31.7762
 20
4.80109
 30
0.0
 11
32.2778
 21
2.92695
 31
0.0
  0
LINE
  5
2c5
100
AcDbEntity
  8
0
100
AcDbLine
 62
     0
 10
32.2778
 20
2.92695
 30
0.0
 11
30.4037
 21
3.42994
 31
0.0
  0
LINE
  5
2c6
100
AcDbEntity
  8
0
100
AcDbLine
 62
     0
 10
30.4037
 20
3.42994
 30
0.0
 11
31.7762
 21
4.80109
 31
0.0
  0
ENDSEC
  0
SECTION
  2
OBJECTS
  0
DICTIONARY
  5
C
330
0
100
AcDbDictionary
  3
ACAD_GROUP
350
D
  3
ACAD_LAYOUT
350
1A
  3
ACAD_MLINESTYLE
350
17
  3
ACAD_PLOTSETTINGS
350
19
  3
ACAD_PLOTSTYLENAME
350
E
  3
ACDBHEADERROUNDTRIPXREC
350
2F
  0
DICTIONARY
  5
52
330
1F
100
AcDbDictionary
280
     1
  3
ACAD_LAYOUTSELFREF
360
53
  0
DICTIONARY
  5
50
330
1B
100
AcDbDictionary
280
     1
  3
ACAD_LAYOUTSELFREF
360
51
  0
DICTIONARY
  5
D
102
{ACAD_REACTORS
330
C
102
}
330
C
100
AcDbDictionary
  0
DICTIONARY
  5
1A
102
{ACAD_REACTORS
330
C
102
}
330
C
100
AcDbDictionary
  0
DICTIONARY
  5
17
102
{ACAD_REACTORS
330
C
102
}
330
C
100
AcDbDictionary
  3
STANDARD
350
18
  0
DICTIONARY
  5
19
102
{ACAD_REACTORS
330
C
102
}
330
C
100
AcDbDictionary
  0
ACDBDICTIONARYWDFLT
  5
E
102
{ACAD_REACTORS
330
C
102
}
330
C
100
AcDbDictionary
281
     1
  3
Normal
350
F
100
AcDbDictionaryWithDefault
340
F
  0
DICTIONARY
  5
2F
102
{ACAD_REACTORS
330
C
102
}
330
C
100
AcDbDictionary
  3
CEPSNTYPE
350
39
  3
DIMSTYLEDATA
350
3D
  3
FINGERPRINTGUID
350
3A
  3
HYPERLINKBASE
350
32
  3
INSUNITS
350
38
  3
LAYOUTDICT
350
34
  3
LWETCUNION
350
37
  3
PLOTSETDICT
350
35
  3
PLOTSTYLNAMDICT
350
36
  3
PSVPSCALE
350
3C
  3
PUCSBASE
350
40
  3
PUCSORGBACK
350
46
  3
PUCSORGBOTTOM
350
42
  3
PUCSORGFRONT
350
45
  3
PUCSORGLEFT
350
43
  3
PUCSORGRIGHT
350
44
  3
PUCSORGTOP
350
41
  3
PUCSORTHOREF
350
3E
  3
PUCSORTHOVIEW
350
3F
  3
STYLESHEET
350
33
  3
TSTACKALIGN
350
30
  3
TSTACKSIZE
350
31
  3
UCSBASE
350
49
  3
UCSORGBACK
350
4F
  3
UCSORGBOTTOM
350
4B
  3
UCSORGFRONT
350
4E
  3
UCSORGLEFT
350
4C
  3
UCSORGRIGHT
350
4D
  3
UCSORGTOP
350
4A
  3
UCSORTHOREF
350
47
  3
UCSORTHOVIEW
350
48
  3
VERSIONGUID
350
3B
  0
XRECORD
  5
53
102
{ACAD_REACTORS
330
52
102
}
330
52
100
AcDbXrecord
340
1F
  0
XRECORD
  5
51
102
{ACAD_REACTORS
330
50
102
}
330
50
100
AcDbXrecord
340
1B
  0
MLINESTYLE
  5
18
102
{ACAD_REACTORS
330
17
102
}
330
17
100
AcDbMlineStyle
  2
STANDARD
 70
     0
  3

 62
   256
 51
90.0
 52
90.0
 71
     2
 49
0.5
 62
   256
  6
BYLAYER
 49
-0.5
 62
   256
  6
BYLAYER
  0
ACDBPLACEHOLDER
  5
F
102
{ACAD_REACTORS
330
E
102
}
330
E
100
AcDbPlaceHolder
280
     0
  0
XRECORD
  5
39
102
{ACAD_REACTORS
330
2F
102
}
330
2F
100
AcDbXrecord
 90
        0
  0
XRECORD
  5
3D
102
{ACAD_REACTORS
330
2F
102
}
330
2F
100
AcDbXrecord
1000
DSTYLE
1002
{
1070
   278
 70
    44
1002
}
  0
XRECORD
  5
3A
102
{ACAD_REACTORS
330
2F
102
}
330
2F
100
AcDbXrecord
  1
{705446A6-11D0-4548-8F8C-A97DCA50327D}
  0
XRECORD
  5
32
102
{ACAD_REACTORS
330
2F
102
}
330
2F
100
AcDbXrecord
  1

  0
XRECORD
  5
38
102
{ACAD_REACTORS
330
2F
102
}
330
2F
100
AcDbXrecord
 90
        4
  0
XRECORD
  5
34
102
{ACAD_REACTORS
330
2F
102
}
330
2F
100
AcDbXrecord
340
1A
  0
XRECORD
  5
37
102
{ACAD_REACTORS
330
2F
102
}
330
2F
100
AcDbXrecord
 90
    10781
  0
XRECORD
  5
35
102
{ACAD_REACTORS
330
2F
102
}
330
2F
100
AcDbXrecord
340
19
  0
XRECORD
  5
36
102
{ACAD_REACTORS
330
2F
102
}
330
2F
100
AcDbXrecord
340
E
  0
XRECORD
  5
3C
102
{ACAD_REACTORS
330
2F
102
}
330
2F
100
AcDbXrecord
 40
0.0
  0
XRECORD
  5
40
102
{ACAD_REACTORS
330
2F
102
}
330
2F
100
AcDbXrecord
340
0
  0
XRECORD
  5
46
102
{ACAD_REACTORS
330
2F
102
}
330
2F
100
AcDbXrecord
 10
0.0
 20
0.0
 30
0.0
  0
XRECORD
  5
42
102
{ACAD_REACTORS
330
2F
102
}
330
2F
100
AcDbXrecord
 10
0.0
 20
0.0
 30
0.0
  0
XRECORD
  5
45
102
{ACAD_REACTORS
330
2F
102
}
330
2F
100
AcDbXrecord
 10
0.0
 20
0.0
 30
0.0
  0
XRECORD
  5
43
102
{ACAD_REACTORS
330
2F
102
}
330
2F
100
AcDbXrecord
 10
0.0
 20
0.0
 30
0.0
  0
XRECORD
  5
44
102
{ACAD_REACTORS
330
2F
102
}
330
2F
100
AcDbXrecord
 10
0.0
 20
0.0
 30
0.0
  0
XRECORD
  5
41
102
{ACAD_REACTORS
330
2F
102
}
330
2F
100
AcDbXrecord
 10
0.0
 20
0.0
 30
0.0
  0
XRECORD
  5
3E
102
{ACAD_REACTORS
330
2F
102
}
330
2F
100
AcDbXrecord
340
0
  0
XRECORD
  5
3F
102
{ACAD_REACTORS
330
2F
102
}
330
2F
100
AcDbXrecord
 70
     0
  0
XRECORD
  5
33
102
{ACAD_REACTORS
330
2F
102
}
330
2F
100
AcDbXrecord
  1

  0
XRECORD
  5
30
102
{ACAD_REACTORS
330
2F
102
}
330
2F
100
AcDbXrecord
 90
        1
  0
XRECORD
  5
31
102
{ACAD_REACTORS
330
2F
102
}
330
2F
100
AcDbXrecord
 90
       70
  0
XRECORD
  5
49
102
{ACAD_REACTORS
330
2F
102
}
330
2F
100
AcDbXrecord
340
0
  0
XRECORD
  5
4F
102
{ACAD_REACTORS
330
2F
102
}
330
2F
100
AcDbXrecord
 10
0.0
 20
0.0
 30
0.0
  0
XRECORD
  5
4B
102
{ACAD_REACTORS
330
2F
102
}
330
2F
100
AcDbXrecord
 10
0.0
 20
0.0
 30
0.0
  0
XRECORD
  5
4E
102
{ACAD_REACTORS
330
2F
102
}
330
2F
100
AcDbXrecord
 10
0.0
 20
0.0
 30
0.0
  0
XRECORD
  5
4C
102
{ACAD_REACTORS
330
2F
102
}
330
2F
100
AcDbXrecord
 10
0.0
 20
0.0
 30
0.0
  0
XRECORD
  5
4D
102
{ACAD_REACTORS
330
2F
102
}
330
2F
100
AcDbXrecord
 10
0.0
 20
0.0
 30
0.0
  0
XRECORD
  5
4A
102
{ACAD_REACTORS
330
2F
102
}
330
2F
100
AcDbXrecord
 10
0.0
 20
0.0
 30
0.0
  0
XRECORD
  5
47
102
{ACAD_REACTORS
330
2F
102
}
330
2F
100
AcDbXrecord
340
0
  0
XRECORD
  5
48
102
{ACAD_REACTORS
330
2F
102
}
330
2F
100
AcDbXrecord
 70
     0
  0
XRECORD
  5
3B
102
{ACAD_REACTORS
330
2F
102
}
330
2F
100
AcDbXrecord
  1
{33328E3A-B6B8-4979-86B7-D70DEC2867C2}
  0
ENDSEC
  0
EOF
