  0
SECTION
  2
HEADER
  9
$ACADVER
  1
AC1014
  9
$EXTMIN
 10
70.16401489310567
 20
112.369642808922
 30
0.0
  9
$EXTMAX
 10
277.0834797641999
 20
227.1366601424358
 30
0.0
  9
$HANDSEED
  5
56
  9
$MEASUREMENT
 70
1
  0
ENDSEC
  0
SECTION
  2
TABLES
  0
TABLE
  2
VPORT
  5
8
330
0
100
AcDbSymbolTable
 70
     4
  0
VPORT
  5
2E
330
8
100
AcDbSymbolTableRecord
100
AcDbViewportTableRecord
  2
*ACTIVE
 70
     0
 10
0.0
 20
0.0
 11
1.0
 21
1.0
 12
209.9999999999999
 22
148.4999999999999
 13
0.0
 23
0.0
 14
10.0
 24
10.0
 15
10.0
 25
10.0
 16
0.0
 26
0.0
 36
1.0
 17
0.0
 27
0.0
 37
0.0
 40
340.9950045922664
 41
1.239944521497919
 42
50.0
 43
0.0
 44
0.0
 50
0.0
 51
0.0
 71
     0
 72
   100
 73
     1
 74
     3
 75
     0
 76
     0
 77
     0
 78
     0
  0
ENDTAB
  0
TABLE
  2
LTYPE
  5
5
330
0
100
AcDbSymbolTable
 70
     1
  0
LTYPE
  5
14
330
5
100
AcDbSymbolTableRecord
100
AcDbLinetypeTableRecord
  2
BYBLOCK
 70
     0
  3

 72
    65
 73
     0
 40
0.0
  0
LTYPE
  5
15
330
5
100
AcDbSymbolTableRecord
100
AcDbLinetypeTableRecord
  2
BYLAYER
 70
     0
  3

 72
    65
 73
     0
 40
0.0
  0
LTYPE
  5
16
330
5
100
AcDbSymbolTableRecord
100
AcDbLinetypeTableRecord
  2
CONTINUOUS
 70
     0
  3
Solid line
 72
    65
 73
     0
 40
0.0
  0
ENDTAB
  0
TABLE
  2
LAYER
  5
2
330
0
100
AcDbSymbolTable
 70
1
  0
LAYER
  5
10
330
2
100
AcDbSymbolTableRecord
100
AcDbLayerTableRecord
  2
0
 70
     0
 62
     7
  6
CONTINUOUS
  0
ENDTAB
  0
TABLE
  2
STYLE
  5
3
330
0
100
AcDbSymbolTable
 70
     1
  0
STYLE
  5
11
330
3
100
AcDbSymbolTableRecord
100
AcDbTextStyleTableRecord
  2
STANDARD
 70
     0
 40
0.0
 41
1.0
 50
0.0
 71
     0
 42
2.5
  3
txt
  4

  0
ENDTAB
  0
TABLE
  2
VIEW
  5
6
330
0
100
AcDbSymbolTable
 70
     0
  0
ENDTAB
  0
TABLE
  2
UCS
  5
7
330
0
100
AcDbSymbolTable
 70
     0
  0
ENDTAB
  0
TABLE
  2
APPID
  5
9
330
0
100
AcDbSymbolTable
 70
     2
  0
APPID
  5
12
330
9
100
AcDbSymbolTableRecord
100
AcDbRegAppTableRecord
  2
ACAD
 70
     0
  0
APPID
  5
2B
330
9
100
AcDbSymbolTableRecord
100
AcDbRegAppTableRecord
  2
URBANX
 70
     0
  0
ENDTAB
  0
TABLE
  2
DIMSTYLE
  5
A
330
0
100
AcDbSymbolTable
 70
     1
  0
DIMSTYLE
105
27
330
A
100
AcDbSymbolTableRecord
100
AcDbDimStyleTableRecord
  2
ISO-25
 70
     0
  3

  4

  5

  6

  7

 40
1.0
 41
2.5
 42
0.625
 43
3.75
 44
1.25
 45
0.0
 46
0.0
 47
0.0
 48
0.0
140
2.5
141
2.5
142
0.0
143
0.03937007874016
144
1.0
145
0.0
146
1.0
147
0.625
 71
     0
 72
     0
 73
     0
 74
     0
 75
     0
 76
     0
 77
     1
 78
     8
170
     0
171
     3
172
     1
173
     0
174
     0
175
     0
176
     0
177
     0
178
     0
270
     2
271
     2
272
     2
273
     2
274
     3
340
11
275
     0
280
     0
281
     0
282
     0
283
     0
284
     8
285
     0
286
     0
287
     3
288
     0
  0
ENDTAB
  0
TABLE
  2
BLOCK_RECORD
  5
1
330
0
100
AcDbSymbolTable
 70
     1
  0
BLOCK_RECORD
  5
1F
102
{ACAD_XDICTIONARY
360
52
102
}
330
1
100
AcDbSymbolTableRecord
100
AcDbBlockTableRecord
  2
*MODEL_SPACE
  0
BLOCK_RECORD
  5
1B
102
{ACAD_XDICTIONARY
360
50
102
}
330
1
100
AcDbSymbolTableRecord
100
AcDbBlockTableRecord
  2
*PAPER_SPACE
  0
ENDTAB
  0
ENDSEC
  0
SECTION
  2
BLOCKS
  0
BLOCK
  5
20
330
1F
100
AcDbEntity
  8
0
100
AcDbBlockBegin
  2
*MODEL_SPACE
 70
     0
 10
0.0
 20
0.0
 30
0.0
  3
*MODEL_SPACE
  1

  0
ENDBLK
  5
21
330
1F
100
AcDbEntity
  8
0
100
AcDbBlockEnd
  0
BLOCK
  5
1C
330
1B
100
AcDbEntity
 67
     1
  8
0
100
AcDbBlockBegin
  2
*PAPER_SPACE
  1

  0
ENDBLK
  5
1D
330
1B
100
AcDbEntity
 67
     1
  8
0
100
AcDbBlockEnd
  0
ENDSEC
  0
SECTION
  2
ENTITIES
  0
SPLINE
  5
ff
100
AcDbEntity
  8
0
100
AcDbSpline
210
0.0
220
0.0
230
1.0
 62
     4
 70
     0
 71
     3
 72
     8
 73
4
 40
0.0
 40
0.0
 40
0.0
 40
0.0
 40
1.0
 40
1.0
 40
1.0
 40
1.0
 10
110.672
 20
28.5061
 30
0.0
 10
110.672
 20
16.7638
 30
0.0
 10
101.152
 20
7.24574
 30
0.0
 10
89.4098
 20
7.24574
 30
0.0
  0
SPLINE
  5
100
100
AcDbEntity
  8
0
100
AcDbSpline
210
0.0
220
0.0
230
1.0
 62
     4
 70
     0
 71
     3
 72
     8
 73
4
 40
0.0
 40
0.0
 40
0.0
 40
0.0
 40
1.0
 40
1.0
 40
1.0
 40
1.0
 10
89.4098
 20
7.24574
 30
0.0
 10
77.6676
 20
7.24574
 30
0.0
 10
68.1482
 20
16.7638
 30
0.0
 10
68.1482
 20
28.5061
 30
0.0
  0
SPLINE
  5
101
100
AcDbEntity
  8
0
100
AcDbSpline
210
0.0
220
0.0
230
1.0
 62
     4
 70
     0
 71
     3
 72
     8
 73
4
 40
0.0
 40
0.0
 40
0.0
 40
0.0
 40
1.0
 40
1.0
 40
1.0
 40
1.0
 10
68.1482
 20
28.5061
 30
0.0
 10
68.1482
 20
40.2484
 30
0.0
 10
77.6676
 20
49.7678
 30
0.0
 10
89.4098
 20
49.7678
 30
0.0
  0
SPLINE
  5
102
100
AcDbEntity
  8
0
100
AcDbSpline
210
0.0
220
0.0
230
1.0
 62
     4
 70
     0
 71
     3
 72
     8
 73
4
 40
0.0
 40
0.0
 40
0.0
 40
0.0
 40
1.0
 40
1.0
 40
1.0
 40
1.0
 10
89.4098
 20
49.7678
 30
0.0
 10
101.152
 20
49.7678
 30
0.0
 10
110.672
 20
40.2484
 30
0.0
 10
110.672
 20
28.5061
 30
0.0
  0
LINE
  5
103
100
AcDbEntity
  8
0
100
AcDbLine
 62
     4
 10
110.672
 20
28.5061
 30
0.0
 11
110.672
 21
28.5061
 31
0.0
  0
SPLINE
  5
104
100
AcDbEntity
  8
0
100
AcDbSpline
210
0.0
220
0.0
230
1.0
 62
     4
 70
     0
 71
     3
 72
     8
 73
4
 40
0.0
 40
0.0
 40
0.0
 40
0.0
 40
1.0
 40
1.0
 40
1.0
 40
1.0
 10
117.155
 20
28.5061
 30
0.0
 10
117.155
 20
13.1837
 30
0.0
 10
104.734
 20
0.760677
 30
0.0
 10
89.4098
 20
0.760677
 30
0.0
  0
SPLINE
  5
105
100
AcDbEntity
  8
0
100
AcDbSpline
210
0.0
220
0.0
230
1.0
 62
     4
 70
     0
 71
     3
 72
     8
 73
4
 40
0.0
 40
0.0
 40
0.0
 40
0.0
 40
1.0
 40
1.0
 40
1.0
 40
1.0
 10
89.4098
 20
0.760677
 30
0.0
 10
74.0862
 20
0.760677
 30
0.0
 10
61.6645
 20
13.1837
 30
0.0
 10
61.6645
 20
28.5061
 30
0.0
  0
SPLINE
  5
106
100
AcDbEntity
  8
0
100
AcDbSpline
210
0.0
220
0.0
230
1.0
 62
     4
 70
     0
 71
     3
 72
     8
 73
4
 40
0.0
 40
0.0
 40
0.0
 40
0.0
 40
1.0
 40
1.0
 40
1.0
 40
1.0
 10
61.6645
 20
28.5061
 30
0.0
 10
61.6645
 20
43.8298
 30
0.0
 10
74.0862
 20
56.2515
 30
0.0
 10
89.4098
 20
56.2515
 30
0.0
  0
SPLINE
  5
107
100
AcDbEntity
  8
0
100
AcDbSpline
210
0.0
220
0.0
230
1.0
 62
     4
 70
     0
 71
     3
 72
     8
 73
4
 40
0.0
 40
0.0
 40
0.0
 40
0.0
 40
1.0
 40
1.0
 40
1.0
 40
1.0
 10
89.4098
 20
56.2515
 30
0.0
 10
104.734
 20
56.2515
 30
0.0
 10
117.155
 20
43.8298
 30
0.0
 10
117.155
 20
28.5061
 30
0.0
  0
LINE
  5
108
100
AcDbEntity
  8
0
100
AcDbLine
 62
     4
 10
117.155
 20
28.5061
 30
0.0
 11
117.155
 21
28.5061
 31
0.0
  0
SPLINE
  5
109
100
AcDbEntity
  8
0
100
AcDbSpline
210
0.0
220
0.0
230
1.0
 62
     4
 70
     0
 71
     3
 72
     8
 73
4
 40
0.0
 40
0.0
 40
0.0
 40
0.0
 40
1.0
 40
1.0
 40
1.0
 40
1.0
 10
55.7459
 20
28.2952
 30
0.0
 10
55.7459
 20
12.9715
 30
0.0
 10
43.3229
 20
0.549836
 30
0.0
 10
28.0004
 20
0.549836
 30
0.0
  0
SPLINE
  5
10a
100
AcDbEntity
  8
0
100
AcDbSpline
210
0.0
220
0.0
230
1.0
 62
     4
 70
     0
 71
     3
 72
     8
 73
4
 40
0.0
 40
0.0
 40
0.0
 40
0.0
 40
1.0
 40
1.0
 40
1.0
 40
1.0
 10
28.0004
 20
0.549836
 30
0.0
 10
12.6766
 20
0.549836
 30
0.0
 10
0.254937
 20
12.9715
 30
0.0
 10
0.254937
 20
28.2952
 30
0.0
  0
SPLINE
  5
10b
100
AcDbEntity
  8
0
100
AcDbSpline
210
0.0
220
0.0
230
1.0
 62
     4
 70
     0
 71
     3
 72
     8
 73
4
 40
0.0
 40
0.0
 40
0.0
 40
0.0
 40
1.0
 40
1.0
 40
1.0
 40
1.0
 10
0.254937
 20
28.2952
 30
0.0
 10
0.254937
 20
43.6192
 30
0.0
 10
12.6766
 20
56.0405
 30
0.0
 10
28.0004
 20
56.0405
 30
0.0
  0
SPLINE
  5
10c
100
AcDbEntity
  8
0
100
AcDbSpline
210
0.0
220
0.0
230
1.0
 62
     4
 70
     0
 71
     3
 72
     8
 73
4
 40
0.0
 40
0.0
 40
0.0
 40
0.0
 40
1.0
 40
1.0
 40
1.0
 40
1.0
 10
28.0004
 20
56.0405
 30
0.0
 10
43.3229
 20
56.0405
 30
0.0
 10
55.7459
 20
43.6192
 30
0.0
 10
55.7459
 20
28.2952
 30
0.0
  0
LINE
  5
10d
100
AcDbEntity
  8
0
100
AcDbLine
 62
     4
 10
55.7459
 20
28.2952
 30
0.0
 11
55.7459
 21
28.2952
 31
0.0
  0
LINE
  5
10e
100
AcDbEntity
  8
0
100
AcDbLine
 62
     4
 10
0.759298
 20
82.3433
 30
0.0
 11
157.426
 21
82.3433
 31
0.0
  0
LINE
  5
10f
100
AcDbEntity
  8
0
100
AcDbLine
 62
     4
 10
157.426
 20
82.3433
 30
0.0
 11
157.426
 21
62.7574
 31
0.0
  0
LINE
  5
110
100
AcDbEntity
  8
0
100
AcDbLine
 62
     4
 10
157.426
 20
62.7574
 30
0.0
 11
0.759298
 21
62.7574
 31
0.0
  0
LINE
  5
111
100
AcDbEntity
  8
0
100
AcDbLine
 62
     4
 10
0.759298
 20
62.7574
 30
0.0
 11
0.759298
 21
82.3433
 31
0.0
  0
LINE
  5
112
100
AcDbEntity
  8
0
100
AcDbLine
 62
     4
 10
0.759298
 20
82.3433
 30
0.0
 11
0.759298
 21
74.0502
 31
0.0
  0
LINE
  5
113
100
AcDbEntity
  8
0
100
AcDbLine
 62
     4
 10
0.759298
 20
71.0501
 30
0.0
 11
0.759298
 21
62.7574
 31
0.0
  0
LINE
  5
114
100
AcDbEntity
  8
0
100
AcDbLine
 62
     4
 10
3.77169
 20
82.3433
 30
0.0
 11
3.77169
 21
74.0502
 31
0.0
  0
LINE
  5
115
100
AcDbEntity
  8
0
100
AcDbLine
 62
     4
 10
3.77169
 20
71.0501
 30
0.0
 11
3.77169
 21
62.7574
 31
0.0
  0
LINE
  5
116
100
AcDbEntity
  8
0
100
AcDbLine
 62
     4
 10
6.78409
 20
82.3433
 30
0.0
 11
6.78409
 21
74.0502
 31
0.0
  0
LINE
  5
117
100
AcDbEntity
  8
0
100
AcDbLine
 62
     4
 10
6.78409
 20
71.0501
 30
0.0
 11
6.78409
 21
62.7574
 31
0.0
  0
LINE
  5
118
100
AcDbEntity
  8
0
100
AcDbLine
 62
     4
 10
9.79784
 20
82.3433
 30
0.0
 11
9.79784
 21
74.0502
 31
0.0
  0
LINE
  5
119
100
AcDbEntity
  8
0
100
AcDbLine
 62
     4
 10
9.79784
 20
71.0501
 30
0.0
 11
9.79784
 21
62.7574
 31
0.0
  0
LINE
  5
11a
100
AcDbEntity
  8
0
100
AcDbLine
 62
     4
 10
12.8102
 20
82.3433
 30
0.0
 11
12.8102
 21
74.0502
 31
0.0
  0
LINE
  5
11b
100
AcDbEntity
  8
0
100
AcDbLine
 62
     4
 10
12.8102
 20
71.0501
 30
0.0
 11
12.8102
 21
62.7574
 31
0.0
  0
LINE
  5
11c
100
AcDbEntity
  8
0
100
AcDbLine
 62
     4
 10
15.8226
 20
82.3433
 30
0.0
 11
15.8226
 21
74.0502
 31
0.0
  0
LINE
  5
11d
100
AcDbEntity
  8
0
100
AcDbLine
 62
     4
 10
15.8226
 20
71.0501
 30
0.0
 11
15.8226
 21
62.7574
 31
0.0
  0
LINE
  5
11e
100
AcDbEntity
  8
0
100
AcDbLine
 62
     4
 10
18.8364
 20
82.3433
 30
0.0
 11
18.8364
 21
74.0502
 31
0.0
  0
LINE
  5
11f
100
AcDbEntity
  8
0
100
AcDbLine
 62
     4
 10
18.8364
 20
71.0501
 30
0.0
 11
18.8364
 21
62.7574
 31
0.0
  0
LINE
  5
120
100
AcDbEntity
  8
0
100
AcDbLine
 62
     4
 10
21.8488
 20
82.3433
 30
0.0
 11
21.8488
 21
74.0502
 31
0.0
  0
LINE
  5
121
100
AcDbEntity
  8
0
100
AcDbLine
 62
     4
 10
21.8488
 20
71.0501
 30
0.0
 11
21.8488
 21
62.7574
 31
0.0
  0
LINE
  5
122
100
AcDbEntity
  8
0
100
AcDbLine
 62
     4
 10
24.8612
 20
82.3433
 30
0.0
 11
24.8612
 21
74.0502
 31
0.0
  0
LINE
  5
123
100
AcDbEntity
  8
0
100
AcDbLine
 62
     4
 10
24.8612
 20
71.0501
 30
0.0
 11
24.8612
 21
62.7574
 31
0.0
  0
LINE
  5
124
100
AcDbEntity
  8
0
100
AcDbLine
 62
     4
 10
27.8749
 20
82.3433
 30
0.0
 11
27.8749
 21
74.0502
 31
0.0
  0
LINE
  5
125
100
AcDbEntity
  8
0
100
AcDbLine
 62
     4
 10
27.8749
 20
71.0501
 30
0.0
 11
27.8749
 21
62.7574
 31
0.0
  0
LINE
  5
126
100
AcDbEntity
  8
0
100
AcDbLine
 62
     4
 10
30.8874
 20
82.3433
 30
0.0
 11
30.8874
 21
74.0502
 31
0.0
  0
LINE
  5
127
100
AcDbEntity
  8
0
100
AcDbLine
 62
     4
 10
30.8874
 20
71.0501
 30
0.0
 11
30.8874
 21
62.7574
 31
0.0
  0
LINE
  5
128
100
AcDbEntity
  8
0
100
AcDbLine
 62
     4
 10
33.8998
 20
82.3433
 30
0.0
 11
33.8998
 21
74.0502
 31
0.0
  0
LINE
  5
129
100
AcDbEntity
  8
0
100
AcDbLine
 62
     4
 10
33.8998
 20
71.0501
 30
0.0
 11
33.8998
 21
62.7574
 31
0.0
  0
LINE
  5
12a
100
AcDbEntity
  8
0
100
AcDbLine
 62
     4
 10
36.9122
 20
82.3433
 30
0.0
 11
36.9122
 21
74.0502
 31
0.0
  0
LINE
  5
12b
100
AcDbEntity
  8
0
100
AcDbLine
 62
     4
 10
36.9122
 20
71.0501
 30
0.0
 11
36.9122
 21
62.7574
 31
0.0
  0
LINE
  5
12c
100
AcDbEntity
  8
0
100
AcDbLine
 62
     4
 10
39.926
 20
82.3433
 30
0.0
 11
39.926
 21
74.0502
 31
0.0
  0
LINE
  5
12d
100
AcDbEntity
  8
0
100
AcDbLine
 62
     4
 10
39.926
 20
71.0501
 30
0.0
 11
39.926
 21
62.7574
 31
0.0
  0
LINE
  5
12e
100
AcDbEntity
  8
0
100
AcDbLine
 62
     4
 10
42.9383
 20
82.3433
 30
0.0
 11
42.9383
 21
74.0502
 31
0.0
  0
LINE
  5
12f
100
AcDbEntity
  8
0
100
AcDbLine
 62
     4
 10
42.9383
 20
71.0501
 30
0.0
 11
42.9383
 21
62.7574
 31
0.0
  0
LINE
  5
130
100
AcDbEntity
  8
0
100
AcDbLine
 62
     4
 10
45.9507
 20
82.3433
 30
0.0
 11
45.9507
 21
74.0502
 31
0.0
  0
LINE
  5
131
100
AcDbEntity
  8
0
100
AcDbLine
 62
     4
 10
45.9507
 20
71.0501
 30
0.0
 11
45.9507
 21
62.7574
 31
0.0
  0
LINE
  5
132
100
AcDbEntity
  8
0
100
AcDbLine
 62
     4
 10
48.9645
 20
82.3433
 30
0.0
 11
48.9645
 21
74.0502
 31
0.0
  0
LINE
  5
133
100
AcDbEntity
  8
0
100
AcDbLine
 62
     4
 10
48.9645
 20
71.0501
 30
0.0
 11
48.9645
 21
62.7574
 31
0.0
  0
LINE
  5
134
100
AcDbEntity
  8
0
100
AcDbLine
 62
     4
 10
51.9769
 20
82.3433
 30
0.0
 11
51.9769
 21
74.0502
 31
0.0
  0
LINE
  5
135
100
AcDbEntity
  8
0
100
AcDbLine
 62
     4
 10
51.9769
 20
71.0501
 30
0.0
 11
51.9769
 21
62.7574
 31
0.0
  0
LINE
  5
136
100
AcDbEntity
  8
0
100
AcDbLine
 62
     4
 10
54.9892
 20
82.3433
 30
0.0
 11
54.9892
 21
74.0502
 31
0.0
  0
LINE
  5
137
100
AcDbEntity
  8
0
100
AcDbLine
 62
     4
 10
54.9892
 20
71.0501
 30
0.0
 11
54.9892
 21
62.7574
 31
0.0
  0
LINE
  5
138
100
AcDbEntity
  8
0
100
AcDbLine
 62
     4
 10
58.003
 20
82.3433
 30
0.0
 11
58.003
 21
74.0502
 31
0.0
  0
LINE
  5
139
100
AcDbEntity
  8
0
100
AcDbLine
 62
     4
 10
58.003
 20
71.0501
 30
0.0
 11
58.003
 21
62.7574
 31
0.0
  0
LINE
  5
13a
100
AcDbEntity
  8
0
100
AcDbLine
 62
     4
 10
61.0154
 20
82.3433
 30
0.0
 11
61.0154
 21
74.0502
 31
0.0
  0
LINE
  5
13b
100
AcDbEntity
  8
0
100
AcDbLine
 62
     4
 10
61.0154
 20
71.0501
 30
0.0
 11
61.0154
 21
62.7574
 31
0.0
  0
LINE
  5
13c
100
AcDbEntity
  8
0
100
AcDbLine
 62
     4
 10
64.0278
 20
82.3433
 30
0.0
 11
64.0278
 21
74.0502
 31
0.0
  0
LINE
  5
13d
100
AcDbEntity
  8
0
100
AcDbLine
 62
     4
 10
64.0278
 20
71.0501
 30
0.0
 11
64.0278
 21
62.7574
 31
0.0
  0
LINE
  5
13e
100
AcDbEntity
  8
0
100
AcDbLine
 62
     4
 10
67.0415
 20
82.3433
 30
0.0
 11
67.0415
 21
74.0502
 31
0.0
  0
LINE
  5
13f
100
AcDbEntity
  8
0
100
AcDbLine
 62
     4
 10
67.0415
 20
71.0501
 30
0.0
 11
67.0415
 21
62.7574
 31
0.0
  0
LINE
  5
140
100
AcDbEntity
  8
0
100
AcDbLine
 62
     4
 10
70.0539
 20
82.3433
 30
0.0
 11
70.0539
 21
74.0502
 31
0.0
  0
LINE
  5
141
100
AcDbEntity
  8
0
100
AcDbLine
 62
     4
 10
70.0539
 20
71.0501
 30
0.0
 11
70.0539
 21
62.7574
 31
0.0
  0
LINE
  5
142
100
AcDbEntity
  8
0
100
AcDbLine
 62
     4
 10
73.0663
 20
82.3433
 30
0.0
 11
73.0663
 21
74.0502
 31
0.0
  0
LINE
  5
143
100
AcDbEntity
  8
0
100
AcDbLine
 62
     4
 10
73.0663
 20
71.0501
 30
0.0
 11
73.0663
 21
62.7574
 31
0.0
  0
LINE
  5
144
100
AcDbEntity
  8
0
100
AcDbLine
 62
     4
 10
76.0786
 20
82.3433
 30
0.0
 11
76.0786
 21
74.0502
 31
0.0
  0
LINE
  5
145
100
AcDbEntity
  8
0
100
AcDbLine
 62
     4
 10
76.0786
 20
71.0501
 30
0.0
 11
76.0786
 21
62.7574
 31
0.0
  0
LINE
  5
146
100
AcDbEntity
  8
0
100
AcDbLine
 62
     4
 10
79.0924
 20
82.3433
 30
0.0
 11
79.0924
 21
74.0502
 31
0.0
  0
LINE
  5
147
100
AcDbEntity
  8
0
100
AcDbLine
 62
     4
 10
79.0924
 20
71.0501
 30
0.0
 11
79.0924
 21
62.7574
 31
0.0
  0
LINE
  5
148
100
AcDbEntity
  8
0
100
AcDbLine
 62
     4
 10
82.1048
 20
82.3433
 30
0.0
 11
82.1048
 21
74.0502
 31
0.0
  0
LINE
  5
149
100
AcDbEntity
  8
0
100
AcDbLine
 62
     4
 10
82.1048
 20
71.0501
 30
0.0
 11
82.1048
 21
62.7574
 31
0.0
  0
LINE
  5
14a
100
AcDbEntity
  8
0
100
AcDbLine
 62
     4
 10
85.1172
 20
82.3433
 30
0.0
 11
85.1172
 21
74.0502
 31
0.0
  0
LINE
  5
14b
100
AcDbEntity
  8
0
100
AcDbLine
 62
     4
 10
85.1172
 20
71.0501
 30
0.0
 11
85.1172
 21
62.7574
 31
0.0
  0
LINE
  5
14c
100
AcDbEntity
  8
0
100
AcDbLine
 62
     4
 10
88.1309
 20
82.3433
 30
0.0
 11
88.1309
 21
74.0502
 31
0.0
  0
LINE
  5
14d
100
AcDbEntity
  8
0
100
AcDbLine
 62
     4
 10
88.1309
 20
71.0501
 30
0.0
 11
88.1309
 21
62.7574
 31
0.0
  0
LINE
  5
14e
100
AcDbEntity
  8
0
100
AcDbLine
 62
     4
 10
91.1433
 20
82.3433
 30
0.0
 11
91.1433
 21
74.0502
 31
0.0
  0
LINE
  5
14f
100
AcDbEntity
  8
0
100
AcDbLine
 62
     4
 10
91.1433
 20
71.0501
 30
0.0
 11
91.1433
 21
62.7574
 31
0.0
  0
LINE
  5
150
100
AcDbEntity
  8
0
100
AcDbLine
 62
     4
 10
94.1557
 20
82.3433
 30
0.0
 11
94.1557
 21
74.0502
 31
0.0
  0
LINE
  5
151
100
AcDbEntity
  8
0
100
AcDbLine
 62
     4
 10
94.1557
 20
71.0501
 30
0.0
 11
94.1557
 21
62.7574
 31
0.0
  0
LINE
  5
152
100
AcDbEntity
  8
0
100
AcDbLine
 62
     4
 10
97.1695
 20
82.3433
 30
0.0
 11
97.1695
 21
74.0502
 31
0.0
  0
LINE
  5
153
100
AcDbEntity
  8
0
100
AcDbLine
 62
     4
 10
97.1695
 20
71.0501
 30
0.0
 11
97.1695
 21
62.7574
 31
0.0
  0
LINE
  5
154
100
AcDbEntity
  8
0
100
AcDbLine
 62
     4
 10
100.182
 20
82.3433
 30
0.0
 11
100.182
 21
74.0502
 31
0.0
  0
LINE
  5
155
100
AcDbEntity
  8
0
100
AcDbLine
 62
     4
 10
100.182
 20
71.0501
 30
0.0
 11
100.182
 21
62.7574
 31
0.0
  0
LINE
  5
156
100
AcDbEntity
  8
0
100
AcDbLine
 62
     4
 10
103.195
 20
82.3433
 30
0.0
 11
103.195
 21
74.0502
 31
0.0
  0
LINE
  5
157
100
AcDbEntity
  8
0
100
AcDbLine
 62
     4
 10
103.195
 20
71.0501
 30
0.0
 11
103.195
 21
62.7574
 31
0.0
  0
LINE
  5
158
100
AcDbEntity
  8
0
100
AcDbLine
 62
     4
 10
106.208
 20
82.3433
 30
0.0
 11
106.208
 21
74.0502
 31
0.0
  0
LINE
  5
159
100
AcDbEntity
  8
0
100
AcDbLine
 62
     4
 10
106.208
 20
71.0501
 30
0.0
 11
106.208
 21
62.7574
 31
0.0
  0
LINE
  5
15a
100
AcDbEntity
  8
0
100
AcDbLine
 62
     4
 10
109.221
 20
82.3433
 30
0.0
 11
109.221
 21
74.0502
 31
0.0
  0
LINE
  5
15b
100
AcDbEntity
  8
0
100
AcDbLine
 62
     4
 10
109.221
 20
71.0501
 30
0.0
 11
109.221
 21
62.7574
 31
0.0
  0
LINE
  5
15c
100
AcDbEntity
  8
0
100
AcDbLine
 62
     4
 10
112.233
 20
82.3433
 30
0.0
 11
112.233
 21
74.0502
 31
0.0
  0
LINE
  5
15d
100
AcDbEntity
  8
0
100
AcDbLine
 62
     4
 10
112.233
 20
71.0501
 30
0.0
 11
112.233
 21
62.7574
 31
0.0
  0
LINE
  5
15e
100
AcDbEntity
  8
0
100
AcDbLine
 62
     4
 10
115.245
 20
82.3433
 30
0.0
 11
115.245
 21
74.0502
 31
0.0
  0
LINE
  5
15f
100
AcDbEntity
  8
0
100
AcDbLine
 62
     4
 10
115.245
 20
71.0501
 30
0.0
 11
115.245
 21
62.7574
 31
0.0
  0
LINE
  5
160
100
AcDbEntity
  8
0
100
AcDbLine
 62
     4
 10
118.259
 20
82.3433
 30
0.0
 11
118.259
 21
74.0502
 31
0.0
  0
LINE
  5
161
100
AcDbEntity
  8
0
100
AcDbLine
 62
     4
 10
118.259
 20
71.0501
 30
0.0
 11
118.259
 21
62.7574
 31
0.0
  0
LINE
  5
162
100
AcDbEntity
  8
0
100
AcDbLine
 62
     4
 10
121.272
 20
82.3433
 30
0.0
 11
121.272
 21
74.0502
 31
0.0
  0
LINE
  5
163
100
AcDbEntity
  8
0
100
AcDbLine
 62
     4
 10
121.272
 20
71.0501
 30
0.0
 11
121.272
 21
62.7574
 31
0.0
  0
LINE
  5
164
100
AcDbEntity
  8
0
100
AcDbLine
 62
     4
 10
124.284
 20
82.3433
 30
0.0
 11
124.284
 21
74.0502
 31
0.0
  0
LINE
  5
165
100
AcDbEntity
  8
0
100
AcDbLine
 62
     4
 10
124.284
 20
71.0501
 30
0.0
 11
124.284
 21
62.7574
 31
0.0
  0
LINE
  5
166
100
AcDbEntity
  8
0
100
AcDbLine
 62
     4
 10
127.298
 20
82.3433
 30
0.0
 11
127.298
 21
74.0502
 31
0.0
  0
LINE
  5
167
100
AcDbEntity
  8
0
100
AcDbLine
 62
     4
 10
127.298
 20
71.0501
 30
0.0
 11
127.298
 21
62.7574
 31
0.0
  0
LINE
  5
168
100
AcDbEntity
  8
0
100
AcDbLine
 62
     4
 10
130.31
 20
82.3433
 30
0.0
 11
130.31
 21
74.0502
 31
0.0
  0
LINE
  5
169
100
AcDbEntity
  8
0
100
AcDbLine
 62
     4
 10
130.31
 20
71.0501
 30
0.0
 11
130.31
 21
62.7574
 31
0.0
  0
LINE
  5
16a
100
AcDbEntity
  8
0
100
AcDbLine
 62
     4
 10
133.322
 20
82.3433
 30
0.0
 11
133.322
 21
74.0502
 31
0.0
  0
LINE
  5
16b
100
AcDbEntity
  8
0
100
AcDbLine
 62
     4
 10
133.322
 20
71.0501
 30
0.0
 11
133.322
 21
62.7574
 31
0.0
  0
LINE
  5
16c
100
AcDbEntity
  8
0
100
AcDbLine
 62
     4
 10
136.336
 20
82.3433
 30
0.0
 11
136.336
 21
74.0502
 31
0.0
  0
LINE
  5
16d
100
AcDbEntity
  8
0
100
AcDbLine
 62
     4
 10
136.336
 20
71.0501
 30
0.0
 11
136.336
 21
62.7574
 31
0.0
  0
LINE
  5
16e
100
AcDbEntity
  8
0
100
AcDbLine
 62
     4
 10
139.349
 20
82.3433
 30
0.0
 11
139.349
 21
74.0502
 31
0.0
  0
LINE
  5
16f
100
AcDbEntity
  8
0
100
AcDbLine
 62
     4
 10
139.349
 20
71.0501
 30
0.0
 11
139.349
 21
62.7574
 31
0.0
  0
LINE
  5
170
100
AcDbEntity
  8
0
100
AcDbLine
 62
     4
 10
142.361
 20
82.3433
 30
0.0
 11
142.361
 21
74.0502
 31
0.0
  0
LINE
  5
171
100
AcDbEntity
  8
0
100
AcDbLine
 62
     4
 10
142.361
 20
71.0501
 30
0.0
 11
142.361
 21
62.7574
 31
0.0
  0
LINE
  5
172
100
AcDbEntity
  8
0
100
AcDbLine
 62
     4
 10
145.375
 20
82.3433
 30
0.0
 11
145.375
 21
74.0502
 31
0.0
  0
LINE
  5
173
100
AcDbEntity
  8
0
100
AcDbLine
 62
     4
 10
145.375
 20
71.0501
 30
0.0
 11
145.375
 21
62.7574
 31
0.0
  0
LINE
  5
174
100
AcDbEntity
  8
0
100
AcDbLine
 62
     4
 10
148.387
 20
82.3433
 30
0.0
 11
148.387
 21
74.0502
 31
0.0
  0
LINE
  5
175
100
AcDbEntity
  8
0
100
AcDbLine
 62
     4
 10
148.387
 20
71.0501
 30
0.0
 11
148.387
 21
62.7574
 31
0.0
  0
LINE
  5
176
100
AcDbEntity
  8
0
100
AcDbLine
 62
     4
 10
151.4
 20
82.3433
 30
0.0
 11
151.4
 21
74.0502
 31
0.0
  0
LINE
  5
177
100
AcDbEntity
  8
0
100
AcDbLine
 62
     4
 10
151.4
 20
71.0501
 30
0.0
 11
151.4
 21
62.7574
 31
0.0
  0
LINE
  5
178
100
AcDbEntity
  8
0
100
AcDbLine
 62
     4
 10
154.412
 20
82.3433
 30
0.0
 11
154.412
 21
74.0502
 31
0.0
  0
LINE
  5
179
100
AcDbEntity
  8
0
100
AcDbLine
 62
     4
 10
154.412
 20
71.0501
 30
0.0
 11
154.412
 21
62.7574
 31
0.0
  0
LINE
  5
17a
100
AcDbEntity
  8
0
100
AcDbLine
 62
     4
 10
157.426
 20
82.3433
 30
0.0
 11
157.426
 21
74.0502
 31
0.0
  0
LINE
  5
17b
100
AcDbEntity
  8
0
100
AcDbLine
 62
     4
 10
157.426
 20
71.0501
 30
0.0
 11
157.426
 21
62.7574
 31
0.0
  0
LINE
  5
17c
100
AcDbEntity
  8
0
100
AcDbLine
 62
     4
 10
2.2655
 20
79.3433
 30
0.0
 11
2.2655
 21
65.7571
 31
0.0
  0
LINE
  5
17d
100
AcDbEntity
  8
0
100
AcDbLine
 62
     4
 10
5.27787
 20
79.3433
 30
0.0
 11
5.27787
 21
65.7571
 31
0.0
  0
LINE
  5
17e
100
AcDbEntity
  8
0
100
AcDbLine
 62
     4
 10
8.29165
 20
79.3433
 30
0.0
 11
8.29165
 21
65.7571
 31
0.0
  0
LINE
  5
17f
100
AcDbEntity
  8
0
100
AcDbLine
 62
     4
 10
11.3041
 20
79.3433
 30
0.0
 11
11.3041
 21
65.7571
 31
0.0
  0
LINE
  5
180
100
AcDbEntity
  8
0
100
AcDbLine
 62
     4
 10
14.3164
 20
79.3433
 30
0.0
 11
14.3164
 21
65.7571
 31
0.0
  0
LINE
  5
181
100
AcDbEntity
  8
0
100
AcDbLine
 62
     4
 10
17.3288
 20
79.3433
 30
0.0
 11
17.3288
 21
65.7571
 31
0.0
  0
LINE
  5
182
100
AcDbEntity
  8
0
100
AcDbLine
 62
     4
 10
20.3426
 20
79.3433
 30
0.0
 11
20.3426
 21
65.7571
 31
0.0
  0
LINE
  5
183
100
AcDbEntity
  8
0
100
AcDbLine
 62
     4
 10
23.355
 20
79.3433
 30
0.0
 11
23.355
 21
65.7571
 31
0.0
  0
LINE
  5
184
100
AcDbEntity
  8
0
100
AcDbLine
 62
     4
 10
26.3674
 20
79.3433
 30
0.0
 11
26.3674
 21
65.7571
 31
0.0
  0
LINE
  5
185
100
AcDbEntity
  8
0
100
AcDbLine
 62
     4
 10
29.3812
 20
79.3433
 30
0.0
 11
29.3812
 21
65.7571
 31
0.0
  0
LINE
  5
186
100
AcDbEntity
  8
0
100
AcDbLine
 62
     4
 10
32.3935
 20
79.3433
 30
0.0
 11
32.3935
 21
65.7571
 31
0.0
  0
LINE
  5
187
100
AcDbEntity
  8
0
100
AcDbLine
 62
     4
 10
35.4058
 20
79.3433
 30
0.0
 11
35.4058
 21
65.7571
 31
0.0
  0
LINE
  5
188
100
AcDbEntity
  8
0
100
AcDbLine
 62
     4
 10
38.4196
 20
79.3433
 30
0.0
 11
38.4196
 21
65.7571
 31
0.0
  0
LINE
  5
189
100
AcDbEntity
  8
0
100
AcDbLine
 62
     4
 10
41.432
 20
79.3433
 30
0.0
 11
41.432
 21
65.7571
 31
0.0
  0
LINE
  5
18a
100
AcDbEntity
  8
0
100
AcDbLine
 62
     4
 10
44.4444
 20
79.3433
 30
0.0
 11
44.4444
 21
65.7571
 31
0.0
  0
LINE
  5
18b
100
AcDbEntity
  8
0
100
AcDbLine
 62
     4
 10
47.4581
 20
79.3433
 30
0.0
 11
47.4581
 21
65.7571
 31
0.0
  0
LINE
  5
18c
100
AcDbEntity
  8
0
100
AcDbLine
 62
     4
 10
50.4705
 20
79.3433
 30
0.0
 11
50.4705
 21
65.7571
 31
0.0
  0
LINE
  5
18d
100
AcDbEntity
  8
0
100
AcDbLine
 62
     4
 10
53.4829
 20
79.3433
 30
0.0
 11
53.4829
 21
65.7571
 31
0.0
  0
LINE
  5
18e
100
AcDbEntity
  8
0
100
AcDbLine
 62
     4
 10
56.4956
 20
79.3433
 30
0.0
 11
56.4956
 21
65.7571
 31
0.0
  0
LINE
  5
18f
100
AcDbEntity
  8
0
100
AcDbLine
 62
     4
 10
59.5094
 20
79.3433
 30
0.0
 11
59.5094
 21
65.7571
 31
0.0
  0
LINE
  5
190
100
AcDbEntity
  8
0
100
AcDbLine
 62
     4
 10
62.5217
 20
79.3433
 30
0.0
 11
62.5217
 21
65.7571
 31
0.0
  0
LINE
  5
191
100
AcDbEntity
  8
0
100
AcDbLine
 62
     4
 10
65.5341
 20
79.3433
 30
0.0
 11
65.5341
 21
65.7571
 31
0.0
  0
LINE
  5
192
100
AcDbEntity
  8
0
100
AcDbLine
 62
     4
 10
68.5479
 20
79.3433
 30
0.0
 11
68.5479
 21
65.7571
 31
0.0
  0
LINE
  5
193
100
AcDbEntity
  8
0
100
AcDbLine
 62
     4
 10
71.5603
 20
79.3433
 30
0.0
 11
71.5603
 21
65.7571
 31
0.0
  0
LINE
  5
194
100
AcDbEntity
  8
0
100
AcDbLine
 62
     4
 10
74.5726
 20
79.3433
 30
0.0
 11
74.5726
 21
65.7571
 31
0.0
  0
LINE
  5
195
100
AcDbEntity
  8
0
100
AcDbLine
 62
     4
 10
77.5864
 20
79.3433
 30
0.0
 11
77.5864
 21
65.7571
 31
0.0
  0
LINE
  5
196
100
AcDbEntity
  8
0
100
AcDbLine
 62
     4
 10
80.5988
 20
79.3433
 30
0.0
 11
80.5988
 21
65.7571
 31
0.0
  0
LINE
  5
197
100
AcDbEntity
  8
0
100
AcDbLine
 62
     4
 10
83.6112
 20
79.3433
 30
0.0
 11
83.6112
 21
65.7571
 31
0.0
  0
LINE
  5
198
100
AcDbEntity
  8
0
100
AcDbLine
 62
     4
 10
86.6249
 20
79.3433
 30
0.0
 11
86.6249
 21
65.7571
 31
0.0
  0
LINE
  5
199
100
AcDbEntity
  8
0
100
AcDbLine
 62
     4
 10
89.6373
 20
79.3433
 30
0.0
 11
89.6373
 21
65.7571
 31
0.0
  0
LINE
  5
19a
100
AcDbEntity
  8
0
100
AcDbLine
 62
     4
 10
92.6497
 20
79.3433
 30
0.0
 11
92.6497
 21
65.7571
 31
0.0
  0
LINE
  5
19b
100
AcDbEntity
  8
0
100
AcDbLine
 62
     4
 10
95.662
 20
79.3433
 30
0.0
 11
95.662
 21
65.7571
 31
0.0
  0
LINE
  5
19c
100
AcDbEntity
  8
0
100
AcDbLine
 62
     4
 10
98.6758
 20
79.3433
 30
0.0
 11
98.6758
 21
65.7571
 31
0.0
  0
LINE
  5
19d
100
AcDbEntity
  8
0
100
AcDbLine
 62
     4
 10
101.688
 20
79.3433
 30
0.0
 11
101.688
 21
65.7571
 31
0.0
  0
LINE
  5
19e
100
AcDbEntity
  8
0
100
AcDbLine
 62
     4
 10
104.701
 20
79.3433
 30
0.0
 11
104.701
 21
65.7571
 31
0.0
  0
LINE
  5
19f
100
AcDbEntity
  8
0
100
AcDbLine
 62
     4
 10
107.714
 20
79.3433
 30
0.0
 11
107.714
 21
65.7571
 31
0.0
  0
LINE
  5
1a0
100
AcDbEntity
  8
0
100
AcDbLine
 62
     4
 10
110.727
 20
79.3433
 30
0.0
 11
110.727
 21
65.7571
 31
0.0
  0
LINE
  5
1a1
100
AcDbEntity
  8
0
100
AcDbLine
 62
     4
 10
113.739
 20
79.3433
 30
0.0
 11
113.739
 21
65.7571
 31
0.0
  0
LINE
  5
1a2
100
AcDbEntity
  8
0
100
AcDbLine
 62
     4
 10
116.753
 20
79.3433
 30
0.0
 11
116.753
 21
65.7571
 31
0.0
  0
LINE
  5
1a3
100
AcDbEntity
  8
0
100
AcDbLine
 62
     4
 10
119.765
 20
79.3433
 30
0.0
 11
119.765
 21
65.7571
 31
0.0
  0
LINE
  5
1a4
100
AcDbEntity
  8
0
100
AcDbLine
 62
     4
 10
122.778
 20
79.3433
 30
0.0
 11
122.778
 21
65.7571
 31
0.0
  0
LINE
  5
1a5
100
AcDbEntity
  8
0
100
AcDbLine
 62
     4
 10
125.791
 20
79.3433
 30
0.0
 11
125.791
 21
65.7571
 31
0.0
  0
LINE
  5
1a6
100
AcDbEntity
  8
0
100
AcDbLine
 62
     4
 10
128.804
 20
79.3433
 30
0.0
 11
128.804
 21
65.7571
 31
0.0
  0
LINE
  5
1a7
100
AcDbEntity
  8
0
100
AcDbLine
 62
     4
 10
131.816
 20
79.3433
 30
0.0
 11
131.816
 21
65.7571
 31
0.0
  0
LINE
  5
1a8
100
AcDbEntity
  8
0
100
AcDbLine
 62
     4
 10
134.828
 20
79.3433
 30
0.0
 11
134.828
 21
65.7571
 31
0.0
  0
LINE
  5
1a9
100
AcDbEntity
  8
0
100
AcDbLine
 62
     4
 10
137.842
 20
79.3433
 30
0.0
 11
137.842
 21
65.7571
 31
0.0
  0
LINE
  5
1aa
100
AcDbEntity
  8
0
100
AcDbLine
 62
     4
 10
140.855
 20
79.3433
 30
0.0
 11
140.855
 21
65.7571
 31
0.0
  0
LINE
  5
1ab
100
AcDbEntity
  8
0
100
AcDbLine
 62
     4
 10
143.867
 20
79.3433
 30
0.0
 11
143.867
 21
65.7571
 31
0.0
  0
LINE
  5
1ac
100
AcDbEntity
  8
0
100
AcDbLine
 62
     4
 10
146.881
 20
79.3433
 30
0.0
 11
146.881
 21
65.7571
 31
0.0
  0
LINE
  5
1ad
100
AcDbEntity
  8
0
100
AcDbLine
 62
     4
 10
149.894
 20
79.3433
 30
0.0
 11
149.894
 21
65.7571
 31
0.0
  0
LINE
  5
1ae
100
AcDbEntity
  8
0
100
AcDbLine
 62
     4
 10
152.906
 20
79.3433
 30
0.0
 11
152.906
 21
65.7571
 31
0.0
  0
LINE
  5
1af
100
AcDbEntity
  8
0
100
AcDbLine
 62
     4
 10
155.92
 20
79.3433
 30
0.0
 11
155.92
 21
65.7571
 31
0.0
  0
SPLINE
  5
1b0
100
AcDbEntity
  8
0
100
AcDbSpline
210
0.0
220
0.0
230
1.0
 62
     1
 70
     0
 71
     3
 72
     8
 73
4
 40
0.0
 40
0.0
 40
0.0
 40
0.0
 40
1.0
 40
1.0
 40
1.0
 40
1.0
 10
53.6981
 20
28.2952
 30
0.0
 10
53.6981
 20
14.1029
 30
0.0
 10
42.1929
 20
2.5976
 30
0.0
 10
28.0004
 20
2.5976
 30
0.0
  0
SPLINE
  5
1b1
100
AcDbEntity
  8
0
100
AcDbSpline
210
0.0
220
0.0
230
1.0
 62
     1
 70
     0
 71
     3
 72
     8
 73
4
 40
0.0
 40
0.0
 40
0.0
 40
0.0
 40
1.0
 40
1.0
 40
1.0
 40
1.0
 10
28.0004
 20
2.5976
 30
0.0
 10
13.8079
 20
2.5976
 30
0.0
 10
2.30132
 20
14.1029
 30
0.0
 10
2.30132
 20
28.2952
 30
0.0
  0
SPLINE
  5
1b2
100
AcDbEntity
  8
0
100
AcDbSpline
210
0.0
220
0.0
230
1.0
 62
     1
 70
     0
 71
     3
 72
     8
 73
4
 40
0.0
 40
0.0
 40
0.0
 40
0.0
 40
1.0
 40
1.0
 40
1.0
 40
1.0
 10
2.30132
 20
28.2952
 30
0.0
 10
2.30132
 20
42.4879
 30
0.0
 10
13.8079
 20
53.993
 30
0.0
 10
28.0004
 20
53.993
 30
0.0
  0
SPLINE
  5
1b3
100
AcDbEntity
  8
0
100
AcDbSpline
210
0.0
220
0.0
230
1.0
 62
     1
 70
     0
 71
     3
 72
     8
 73
4
 40
0.0
 40
0.0
 40
0.0
 40
0.0
 40
1.0
 40
1.0
 40
1.0
 40
1.0
 10
28.0004
 20
53.993
 30
0.0
 10
42.1929
 20
53.993
 30
0.0
 10
53.6981
 20
42.4879
 30
0.0
 10
53.6981
 20
28.2952
 30
0.0
  0
LINE
  5
1b4
100
AcDbEntity
  8
0
100
AcDbLine
 62
     1
 10
53.6981
 20
28.2952
 30
0.0
 11
53.6981
 21
28.2952
 31
0.0
  0
SPLINE
  5
1b5
100
AcDbEntity
  8
0
100
AcDbSpline
210
0.0
220
0.0
230
1.0
 62
     1
 70
     0
 71
     3
 72
     8
 73
4
 40
0.0
 40
0.0
 40
0.0
 40
0.0
 40
1.0
 40
1.0
 40
1.0
 40
1.0
 10
51.4533
 20
28.2952
 30
0.0
 10
51.4533
 20
15.3431
 30
0.0
 10
40.9526
 20
4.84244
 30
0.0
 10
28.0004
 20
4.84244
 30
0.0
  0
SPLINE
  5
1b6
100
AcDbEntity
  8
0
100
AcDbSpline
210
0.0
220
0.0
230
1.0
 62
     1
 70
     0
 71
     3
 72
     8
 73
4
 40
0.0
 40
0.0
 40
0.0
 40
0.0
 40
1.0
 40
1.0
 40
1.0
 40
1.0
 10
28.0004
 20
4.84244
 30
0.0
 10
15.0468
 20
4.84244
 30
0.0
 10
4.54752
 20
15.3431
 30
0.0
 10
4.54752
 20
28.2952
 30
0.0
  0
SPLINE
  5
1b7
100
AcDbEntity
  8
0
100
AcDbSpline
210
0.0
220
0.0
230
1.0
 62
     1
 70
     0
 71
     3
 72
     8
 73
4
 40
0.0
 40
0.0
 40
0.0
 40
0.0
 40
1.0
 40
1.0
 40
1.0
 40
1.0
 10
4.54752
 20
28.2952
 30
0.0
 10
4.54752
 20
41.2475
 30
0.0
 10
15.0468
 20
51.7483
 30
0.0
 10
28.0004
 20
51.7483
 30
0.0
  0
SPLINE
  5
1b8
100
AcDbEntity
  8
0
100
AcDbSpline
210
0.0
220
0.0
230
1.0
 62
     1
 70
     0
 71
     3
 72
     8
 73
4
 40
0.0
 40
0.0
 40
0.0
 40
0.0
 40
1.0
 40
1.0
 40
1.0
 40
1.0
 10
28.0004
 20
51.7483
 30
0.0
 10
40.9526
 20
51.7483
 30
0.0
 10
51.4533
 20
41.2475
 30
0.0
 10
51.4533
 20
28.2952
 30
0.0
  0
LINE
  5
1b9
100
AcDbEntity
  8
0
100
AcDbLine
 62
     1
 10
51.4533
 20
28.2952
 30
0.0
 11
51.4533
 21
28.2952
 31
0.0
  0
SPLINE
  5
1ba
100
AcDbEntity
  8
0
100
AcDbSpline
210
0.0
220
0.0
230
1.0
 62
     1
 70
     0
 71
     3
 72
     8
 73
4
 40
0.0
 40
0.0
 40
0.0
 40
0.0
 40
1.0
 40
1.0
 40
1.0
 40
1.0
 10
115.108
 20
28.5061
 30
0.0
 10
115.108
 20
14.3137
 30
0.0
 10
103.602
 20
2.80844
 30
0.0
 10
89.4098
 20
2.80844
 30
0.0
  0
SPLINE
  5
1bb
100
AcDbEntity
  8
0
100
AcDbSpline
210
0.0
220
0.0
230
1.0
 62
     1
 70
     0
 71
     3
 72
     8
 73
4
 40
0.0
 40
0.0
 40
0.0
 40
0.0
 40
1.0
 40
1.0
 40
1.0
 40
1.0
 10
89.4098
 20
2.80844
 30
0.0
 10
75.2175
 20
2.80844
 30
0.0
 10
63.7124
 20
14.3137
 30
0.0
 10
63.7124
 20
28.5061
 30
0.0
  0
SPLINE
  5
1bc
100
AcDbEntity
  8
0
100
AcDbSpline
210
0.0
220
0.0
230
1.0
 62
     1
 70
     0
 71
     3
 72
     8
 73
4
 40
0.0
 40
0.0
 40
0.0
 40
0.0
 40
1.0
 40
1.0
 40
1.0
 40
1.0
 10
63.7124
 20
28.5061
 30
0.0
 10
63.7124
 20
42.6985
 30
0.0
 10
75.2175
 20
54.205
 30
0.0
 10
89.4098
 20
54.205
 30
0.0
  0
SPLINE
  5
1bd
100
AcDbEntity
  8
0
100
AcDbSpline
210
0.0
220
0.0
230
1.0
 62
     1
 70
     0
 71
     3
 72
     8
 73
4
 40
0.0
 40
0.0
 40
0.0
 40
0.0
 40
1.0
 40
1.0
 40
1.0
 40
1.0
 10
89.4098
 20
54.205
 30
0.0
 10
103.602
 20
54.205
 30
0.0
 10
115.108
 20
42.6985
 30
0.0
 10
115.108
 20
28.5061
 30
0.0
  0
LINE
  5
1be
100
AcDbEntity
  8
0
100
AcDbLine
 62
     1
 10
115.108
 20
28.5061
 30
0.0
 11
115.108
 21
28.5061
 31
0.0
  0
SPLINE
  5
1bf
100
AcDbEntity
  8
0
100
AcDbSpline
210
0.0
220
0.0
230
1.0
 62
     1
 70
     0
 71
     3
 72
     8
 73
4
 40
0.0
 40
0.0
 40
0.0
 40
0.0
 40
1.0
 40
1.0
 40
1.0
 40
1.0
 10
112.863
 20
28.5061
 30
0.0
 10
112.863
 20
15.5539
 30
0.0
 10
102.362
 20
5.05326
 30
0.0
 10
89.4098
 20
5.05326
 30
0.0
  0
SPLINE
  5
1c0
100
AcDbEntity
  8
0
100
AcDbSpline
210
0.0
220
0.0
230
1.0
 62
     1
 70
     0
 71
     3
 72
     8
 73
4
 40
0.0
 40
0.0
 40
0.0
 40
0.0
 40
1.0
 40
1.0
 40
1.0
 40
1.0
 10
89.4098
 20
5.05326
 30
0.0
 10
76.4575
 20
5.05326
 30
0.0
 10
65.9571
 20
15.5539
 30
0.0
 10
65.9571
 20
28.5061
 30
0.0
  0
SPLINE
  5
1c1
100
AcDbEntity
  8
0
100
AcDbSpline
210
0.0
220
0.0
230
1.0
 62
     1
 70
     0
 71
     3
 72
     8
 73
4
 40
0.0
 40
0.0
 40
0.0
 40
0.0
 40
1.0
 40
1.0
 40
1.0
 40
1.0
 10
65.9571
 20
28.5061
 30
0.0
 10
65.9571
 20
41.4595
 30
0.0
 10
76.4575
 20
51.9589
 30
0.0
 10
89.4098
 20
51.9589
 30
0.0
  0
SPLINE
  5
1c2
100
AcDbEntity
  8
0
100
AcDbSpline
210
0.0
220
0.0
230
1.0
 62
     1
 70
     0
 71
     3
 72
     8
 73
4
 40
0.0
 40
0.0
 40
0.0
 40
0.0
 40
1.0
 40
1.0
 40
1.0
 40
1.0
 10
89.4098
 20
51.9589
 30
0.0
 10
102.362
 20
51.9589
 30
0.0
 10
112.863
 20
41.4595
 30
0.0
 10
112.863
 20
28.5061
 30
0.0
  0
LINE
  5
1c3
100
AcDbEntity
  8
0
100
AcDbLine
 62
     1
 10
112.863
 20
28.5061
 30
0.0
 11
112.863
 21
28.5061
 31
0.0
  0
ENDSEC
  0
SECTION
  2
OBJECTS
  0
DICTIONARY
  5
C
330
0
100
AcDbDictionary
  3
ACAD_GROUP
350
D
  3
ACAD_LAYOUT
350
1A
  3
ACAD_MLINESTYLE
350
17
  3
ACAD_PLOTSETTINGS
350
19
  3
ACAD_PLOTSTYLENAME
350
E
  3
ACDBHEADERROUNDTRIPXREC
350
2F
  0
DICTIONARY
  5
52
330
1F
100
AcDbDictionary
280
     1
  3
ACAD_LAYOUTSELFREF
360
53
  0
DICTIONARY
  5
50
330
1B
100
AcDbDictionary
280
     1
  3
ACAD_LAYOUTSELFREF
360
51
  0
DICTIONARY
  5
D
102
{ACAD_REACTORS
330
C
102
}
330
C
100
AcDbDictionary
  0
DICTIONARY
  5
1A
102
{ACAD_REACTORS
330
C
102
}
330
C
100
AcDbDictionary
  0
DICTIONARY
  5
17
102
{ACAD_REACTORS
330
C
102
}
330
C
100
AcDbDictionary
  3
STANDARD
350
18
  0
DICTIONARY
  5
19
102
{ACAD_REACTORS
330
C
102
}
330
C
100
AcDbDictionary
  0
ACDBDICTIONARYWDFLT
  5
E
102
{ACAD_REACTORS
330
C
102
}
330
C
100
AcDbDictionary
281
     1
  3
Normal
350
F
100
AcDbDictionaryWithDefault
340
F
  0
DICTIONARY
  5
2F
102
{ACAD_REACTORS
330
C
102
}
330
C
100
AcDbDictionary
  3
CEPSNTYPE
350
39
  3
DIMSTYLEDATA
350
3D
  3
FINGERPRINTGUID
350
3A
  3
HYPERLINKBASE
350
32
  3
INSUNITS
350
38
  3
LAYOUTDICT
350
34
  3
LWETCUNION
350
37
  3
PLOTSETDICT
350
35
  3
PLOTSTYLNAMDICT
350
36
  3
PSVPSCALE
350
3C
  3
PUCSBASE
350
40
  3
PUCSORGBACK
350
46
  3
PUCSORGBOTTOM
350
42
  3
PUCSORGFRONT
350
45
  3
PUCSORGLEFT
350
43
  3
PUCSORGRIGHT
350
44
  3
PUCSORGTOP
350
41
  3
PUCSORTHOREF
350
3E
  3
PUCSORTHOVIEW
350
3F
  3
STYLESHEET
350
33
  3
TSTACKALIGN
350
30
  3
TSTACKSIZE
350
31
  3
UCSBASE
350
49
  3
UCSORGBACK
350
4F
  3
UCSORGBOTTOM
350
4B
  3
UCSORGFRONT
350
4E
  3
UCSORGLEFT
350
4C
  3
UCSORGRIGHT
350
4D
  3
UCSORGTOP
350
4A
  3
UCSORTHOREF
350
47
  3
UCSORTHOVIEW
350
48
  3
VERSIONGUID
350
3B
  0
XRECORD
  5
53
102
{ACAD_REACTORS
330
52
102
}
330
52
100
AcDbXrecord
340
1F
  0
XRECORD
  5
51
102
{ACAD_REACTORS
330
50
102
}
330
50
100
AcDbXrecord
340
1B
  0
MLINESTYLE
  5
18
102
{ACAD_REACTORS
330
17
102
}
330
17
100
AcDbMlineStyle
  2
STANDARD
 70
     0
  3

 62
   256
 51
90.0
 52
90.0
 71
     2
 49
0.5
 62
   256
  6
BYLAYER
 49
-0.5
 62
   256
  6
BYLAYER
  0
ACDBPLACEHOLDER
  5
F
102
{ACAD_REACTORS
330
E
102
}
330
E
100
AcDbPlaceHolder
280
     0
  0
XRECORD
  5
39
102
{ACAD_REACTORS
330
2F
102
}
330
2F
100
AcDbXrecord
 90
        0
  0
XRECORD
  5
3D
102
{ACAD_REACTORS
330
2F
102
}
330
2F
100
AcDbXrecord
1000
DSTYLE
1002
{
1070
   278
 70
    44
1002
}
  0
XRECORD
  5
3A
102
{ACAD_REACTORS
330
2F
102
}
330
2F
100
AcDbXrecord
  1
{705446A6-11D0-4548-8F8C-A97DCA50327D}
  0
XRECORD
  5
32
102
{ACAD_REACTORS
330
2F
102
}
330
2F
100
AcDbXrecord
  1

  0
XRECORD
  5
38
102
{ACAD_REACTORS
330
2F
102
}
330
2F
100
AcDbXrecord
 90
        4
  0
XRECORD
  5
34
102
{ACAD_REACTORS
330
2F
102
}
330
2F
100
AcDbXrecord
340
1A
  0
XRECORD
  5
37
102
{ACAD_REACTORS
330
2F
102
}
330
2F
100
AcDbXrecord
 90
    10781
  0
XRECORD
  5
35
102
{ACAD_REACTORS
330
2F
102
}
330
2F
100
AcDbXrecord
340
19
  0
XRECORD
  5
36
102
{ACAD_REACTORS
330
2F
102
}
330
2F
100
AcDbXrecord
340
E
  0
XRECORD
  5
3C
102
{ACAD_REACTORS
330
2F
102
}
330
2F
100
AcDbXrecord
 40
0.0
  0
XRECORD
  5
40
102
{ACAD_REACTORS
330
2F
102
}
330
2F
100
AcDbXrecord
340
0
  0
XRECORD
  5
46
102
{ACAD_REACTORS
330
2F
102
}
330
2F
100
AcDbXrecord
 10
0.0
 20
0.0
 30
0.0
  0
XRECORD
  5
42
102
{ACAD_REACTORS
330
2F
102
}
330
2F
100
AcDbXrecord
 10
0.0
 20
0.0
 30
0.0
  0
XRECORD
  5
45
102
{ACAD_REACTORS
330
2F
102
}
330
2F
100
AcDbXrecord
 10
0.0
 20
0.0
 30
0.0
  0
XRECORD
  5
43
102
{ACAD_REACTORS
330
2F
102
}
330
2F
100
AcDbXrecord
 10
0.0
 20
0.0
 30
0.0
  0
XRECORD
  5
44
102
{ACAD_REACTORS
330
2F
102
}
330
2F
100
AcDbXrecord
 10
0.0
 20
0.0
 30
0.0
  0
XRECORD
  5
41
102
{ACAD_REACTORS
330
2F
102
}
330
2F
100
AcDbXrecord
 10
0.0
 20
0.0
 30
0.0
  0
XRECORD
  5
3E
102
{ACAD_REACTORS
330
2F
102
}
330
2F
100
AcDbXrecord
340
0
  0
XRECORD
  5
3F
102
{ACAD_REACTORS
330
2F
102
}
330
2F
100
AcDbXrecord
 70
     0
  0
XRECORD
  5
33
102
{ACAD_REACTORS
330
2F
102
}
330
2F
100
AcDbXrecord
  1

  0
XRECORD
  5
30
102
{ACAD_REACTORS
330
2F
102
}
330
2F
100
AcDbXrecord
 90
        1
  0
XRECORD
  5
31
102
{ACAD_REACTORS
330
2F
102
}
330
2F
100
AcDbXrecord
 90
       70
  0
XRECORD
  5
49
102
{ACAD_REACTORS
330
2F
102
}
330
2F
100
AcDbXrecord
340
0
  0
XRECORD
  5
4F
102
{ACAD_REACTORS
330
2F
102
}
330
2F
100
AcDbXrecord
 10
0.0
 20
0.0
 30
0.0
  0
XRECORD
  5
4B
102
{ACAD_REACTORS
330
2F
102
}
330
2F
100
AcDbXrecord
 10
0.0
 20
0.0
 30
0.0
  0
XRECORD
  5
4E
102
{ACAD_REACTORS
330
2F
102
}
330
2F
100
AcDbXrecord
 10
0.0
 20
0.0
 30
0.0
  0
XRECORD
  5
4C
102
{ACAD_REACTORS
330
2F
102
}
330
2F
100
AcDbXrecord
 10
0.0
 20
0.0
 30
0.0
  0
XRECORD
  5
4D
102
{ACAD_REACTORS
330
2F
102
}
330
2F
100
AcDbXrecord
 10
0.0
 20
0.0
 30
0.0
  0
XRECORD
  5
4A
102
{ACAD_REACTORS
330
2F
102
}
330
2F
100
AcDbXrecord
 10
0.0
 20
0.0
 30
0.0
  0
XRECORD
  5
47
102
{ACAD_REACTORS
330
2F
102
}
330
2F
100
AcDbXrecord
340
0
  0
XRECORD
  5
48
102
{ACAD_REACTORS
330
2F
102
}
330
2F
100
AcDbXrecord
 70
     0
  0
XRECORD
  5
3B
102
{ACAD_REACTORS
330
2F
102
}
330
2F
100
AcDbXrecord
  1
{33328E3A-B6B8-4979-86B7-D70DEC2867C2}
  0
ENDSEC
  0
EOF
