<?xml version="1.0" encoding="UTF-8" standalone="no"?>
<!-- Created with Inkscape (http://www.inkscape.org/) -->

<svg
   xmlns:dc="http://purl.org/dc/elements/1.1/"
   xmlns:cc="http://creativecommons.org/ns#"
   xmlns:rdf="http://www.w3.org/1999/02/22-rdf-syntax-ns#"
   xmlns:svg="http://www.w3.org/2000/svg"
   xmlns="http://www.w3.org/2000/svg"
   xmlns:sodipodi="http://sodipodi.sourceforge.net/DTD/sodipodi-0.dtd"
   xmlns:inkscape="http://www.inkscape.org/namespaces/inkscape"
   width="210mm"
   height="297mm"
   viewBox="0 0 210 297"
   version="1.1"
   id="svg8"
   inkscape:version="0.92.2 5c3e80d, 2017-08-06"
   sodipodi:docname="circularbox.svg">
  <sodipodi:namedview
     id="base"
     pagecolor="#ffffff"
     bordercolor="#666666"
     borderopacity="1.0"
     inkscape:pageopacity="0.0"
     inkscape:pageshadow="2"
     inkscape:zoom="1.5091049"
     inkscape:cx="249.96437"
     inkscape:cy="928.53442"
     inkscape:document-units="mm"
     inkscape:current-layer="layer1"
     showgrid="false"
     inkscape:window-width="1920"
     inkscape:window-height="1051"
     inkscape:window-x="0"
     inkscape:window-y="0"
     inkscape:window-maximized="1"
     showguides="true"
     inkscape:guide-bbox="true" />
  <defs
     id="defs2">
    <marker
       inkscape:isstock="true"
       style="overflow:visible"
       id="marker3723"
       refX="0.0"
       refY="0.0"
       orient="auto"
       inkscape:stockid="Arrow1Lstart">
      <path
         transform="scale(0.8) translate(12.5,0)"
         style="fill-rule:evenodd;stroke:#000000;stroke-width:1pt;stroke-opacity:1;fill:#000000;fill-opacity:1"
         d="M 0.0,0.0 L 5.0,-5.0 L -12.5,0.0 L 5.0,5.0 L 0.0,0.0 z "
         id="path3721" />
    </marker>
    <marker
       inkscape:isstock="true"
       style="overflow:visible"
       id="marker3683"
       refX="0.0"
       refY="0.0"
       orient="auto"
       inkscape:stockid="Arrow1Lstart">
      <path
         transform="scale(0.8) translate(12.5,0)"
         style="fill-rule:evenodd;stroke:#000000;stroke-width:1pt;stroke-opacity:1;fill:#000000;fill-opacity:1"
         d="M 0.0,0.0 L 5.0,-5.0 L -12.5,0.0 L 5.0,5.0 L 0.0,0.0 z "
         id="path3681" />
    </marker>
    <marker
       inkscape:isstock="true"
       style="overflow:visible"
       id="marker3649"
       refX="0.0"
       refY="0.0"
       orient="auto"
       inkscape:stockid="Arrow1Lstart">
      <path
         transform="scale(0.8) translate(12.5,0)"
         style="fill-rule:evenodd;stroke:#000000;stroke-width:1pt;stroke-opacity:1;fill:#000000;fill-opacity:1"
         d="M 0.0,0.0 L 5.0,-5.0 L -12.5,0.0 L 5.0,5.0 L 0.0,0.0 z "
         id="path3647" />
    </marker>
    <marker
       inkscape:isstock="true"
       style="overflow:visible"
       id="marker3621"
       refX="0.0"
       refY="0.0"
       orient="auto"
       inkscape:stockid="Arrow1Lstart">
      <path
         transform="scale(0.8) translate(12.5,0)"
         style="fill-rule:evenodd;stroke:#000000;stroke-width:1pt;stroke-opacity:1;fill:#000000;fill-opacity:1"
         d="M 0.0,0.0 L 5.0,-5.0 L -12.5,0.0 L 5.0,5.0 L 0.0,0.0 z "
         id="path3619" />
    </marker>
    <marker
       inkscape:isstock="true"
       style="overflow:visible"
       id="marker3599"
       refX="0.0"
       refY="0.0"
       orient="auto"
       inkscape:stockid="Arrow1Lstart">
      <path
         transform="scale(0.8) translate(12.5,0)"
         style="fill-rule:evenodd;stroke:#000000;stroke-width:1pt;stroke-opacity:1;fill:#000000;fill-opacity:1"
         d="M 0.0,0.0 L 5.0,-5.0 L -12.5,0.0 L 5.0,5.0 L 0.0,0.0 z "
         id="path3597" />
    </marker>
    <marker
       inkscape:isstock="true"
       style="overflow:visible"
       id="Arrow1Lstart"
       refX="0.0"
       refY="0.0"
       orient="auto"
       inkscape:stockid="Arrow1Lstart">
      <path
         transform="scale(0.8) translate(12.5,0)"
         style="fill-rule:evenodd;stroke:#000000;stroke-width:1pt;stroke-opacity:1;fill:#000000;fill-opacity:1"
         d="M 0.0,0.0 L 5.0,-5.0 L -12.5,0.0 L 5.0,5.0 L 0.0,0.0 z "
         id="path3315" />
    </marker>
  </defs>
  <metadata
     id="metadata5">
    <rdf:RDF>
      <cc:Work
         rdf:about="">
        <dc:format>image/svg+xml</dc:format>
        <dc:type
           rdf:resource="http://purl.org/dc/dcmitype/StillImage" />
        <dc:title></dc:title>
      </cc:Work>
    </rdf:RDF>
  </metadata>
  <g
     id="layer1"
     inkscape:groupmode="layer"
     inkscape:label="Layer 1">
    <ellipse
       ry="24.751173"
       rx="24.751175"
       cy="67.675499"
       cx="93.638512"
       id="path815-3"
       style="fill:none;fill-opacity:1;stroke:#ff0000;stroke-width:0.5;stroke-miterlimit:4;stroke-dasharray:none;stroke-dashoffset:0;stroke-opacity:1" />
    <ellipse
       ry="22.276052"
       rx="22.276054"
       cy="67.675499"
       cx="93.638512"
       id="path815-3-7"
       style="fill:none;fill-opacity:1;stroke:#00ffff;stroke-width:0.5;stroke-miterlimit:4;stroke-dasharray:none;stroke-dashoffset:0;stroke-opacity:1" />
    <ellipse
       ry="27.226288"
       rx="27.22629"
       cy="67.675499"
       cx="93.638512"
       id="path815-3-5"
       style="fill:none;fill-opacity:1;stroke:#00ffff;stroke-width:0.5;stroke-miterlimit:4;stroke-dasharray:none;stroke-dashoffset:0;stroke-opacity:1" />
    <ellipse
       ry="24.751179"
       rx="24.750006"
       cy="67.757439"
       cx="32.882751"
       id="path815-3-56"
       style="fill:none;fill-opacity:1;stroke:#ff0000;stroke-width:0.49998826;stroke-miterlimit:4;stroke-dasharray:none;stroke-dashoffset:0;stroke-opacity:1" />
    <ellipse
       ry="27.226288"
       rx="27.22629"
       cy="67.757439"
       cx="32.883926"
       id="path815-3-5-9"
       style="fill:none;fill-opacity:1;stroke:#00ffff;stroke-width:0.5;stroke-miterlimit:4;stroke-dasharray:none;stroke-dashoffset:0;stroke-opacity:1" />
    <g
       id="g1544"
       transform="rotate(-90,-27.101524,74.947462)">
      <rect
         style="fill:none;fill-opacity:1;stroke:#00ffff;stroke-width:0.41331735;stroke-miterlimit:4;stroke-dasharray:none;stroke-dashoffset:0;stroke-opacity:1"
         id="rect817"
         width="156.66632"
         height="19.586683"
         x="107.06886"
         y="-37.743767"
         transform="rotate(90)" />
      <path
         inkscape:connector-curvature="0"
         d="m 37.743778,107.06886 h -8.293354 m -3,0 h -8.29334 m 19.586694,3.01282 h -8.293354 m -3,0 h -8.29334 m 19.586694,3.01281 h -8.293354 m -3,0 h -8.29334 m 19.586694,3.01282 h -8.293354 m -3,0 h -8.29334 m 19.586694,3.01281 h -8.293354 m -3,0 h -8.29334 m 19.586694,3.01282 h -8.293354 m -3,0 h -8.29334 m 19.586694,3.01281 h -8.293354 m -3,0 h -8.29334 m 19.586694,3.01281 h -8.293354 m -3,0 h -8.29334 m 19.586694,3.01282 h -8.293354 m -3,0 h -8.29334 m 19.586694,3.01281 h -8.293354 m -3,0 h -8.29334 m 19.586694,3.01281 h -8.293354 m -3,0 h -8.29334 m 19.586694,3.01282 h -8.293354 m -3,0 h -8.29334 m 19.586694,3.01281 h -8.293354 m -3,0 h -8.29334 m 19.586694,3.01282 h -8.293354 m -3,0 h -8.29334 m 19.586694,3.01281 h -8.293354 m -3,0 h -8.29334 m 19.586694,3.01281 h -8.293354 m -3,0 h -8.29334 m 19.586694,3.01282 h -8.293354 m -3,0 h -8.29334 m 19.586694,3.01281 h -8.293354 m -3,0 h -8.29334 m 19.586694,3.01282 h -8.293354 m -3,0 h -8.29334 m 19.586694,3.01281 h -8.293354 m -3,0 h -8.29334 m 19.586694,3.01281 h -8.293354 m -3,0 h -8.29334 m 19.586694,3.01282 h -8.293354 m -3,0 h -8.29334 m 19.586694,3.01281 h -8.293354 m -3,0 h -8.29334 m 19.586694,3.01281 h -8.293354 m -3,0 h -8.29334 m 19.586694,3.01282 h -8.293354 m -3,0 h -8.29334 m 19.586694,3.01281 h -8.293354 m -3,0 h -8.29334 m 19.586694,3.01282 h -8.293354 m -3,0 h -8.29334 m 19.586694,3.01281 h -8.293354 m -3,0 h -8.29334 m 19.586694,3.01282 h -8.293354 m -3,0 h -8.29334 m 19.586694,3.01281 h -8.293354 m -3,0 h -8.29334 m 19.586694,3.01281 h -8.293354 m -3,0 h -8.29334 m 19.586694,3.01282 h -8.293354 m -3,0 h -8.29334 m 19.586694,3.01281 h -8.293354 m -3,0 h -8.29334 m 19.586694,3.01282 h -8.293354 m -3,0 h -8.29334 m 19.586694,3.01281 h -8.293354 m -3,0 h -8.29334 m 19.586694,3.01281 h -8.293354 m -3,0 h -8.29334 m 19.586694,3.01282 h -8.293354 m -3,0 h -8.29334 m 19.586694,3.01281 h -8.293354 m -3,0 h -8.29334 m 19.586694,3.01282 h -8.293354 m -3,0 h -8.29334 m 19.586694,3.01281 h -8.293354 m -3,0 h -8.29334 m 19.586694,3.01281 h -8.293354 m -3,0 h -8.29334 m 19.586694,3.01282 h -8.293354 m -3,0 h -8.29334 m 19.586694,3.01281 h -8.293354 m -3,0 h -8.29334 m 19.586694,3.01281 h -8.293354 m -3,0 h -8.29334 m 19.586694,3.01282 h -8.293354 m -3,0 h -8.29334 m 19.586694,3.01281 h -8.293354 m -3,0 h -8.29334 m 19.586694,3.01282 h -8.293354 m -3,0 h -8.29334 m 19.586694,3.01281 h -8.293354 m -3,0 h -8.29334 m 19.586694,3.01281 h -8.293354 m -3,0 h -8.29334 m 19.586694,3.01282 h -8.293354 m -3,0 h -8.29334 m 19.586694,3.01281 h -8.293354 m -3,0 h -8.29334 m 19.586694,3.01282 h -8.293354 m -3,0 h -8.29334 m 19.586694,3.01281 h -8.293354 m -3,0 h -8.29334 M 34.743778,108.57527 H 21.157084 m 13.586694,3.01282 H 21.157084 m 13.586694,3.01281 H 21.157084 m 13.586694,3.01281 H 21.157084 m 13.586694,3.01282 H 21.157084 m 13.586694,3.01281 H 21.157084 m 13.586694,3.01282 H 21.157084 m 13.586694,3.01281 H 21.157084 m 13.586694,3.01281 H 21.157084 m 13.586694,3.01282 H 21.157084 m 13.586694,3.01281 H 21.157084 m 13.586694,3.01282 H 21.157084 m 13.586694,3.01281 H 21.157084 m 13.586694,3.01281 H 21.157084 m 13.586694,3.01282 H 21.157084 m 13.586694,3.01281 H 21.157084 m 13.586694,3.01281 H 21.157084 m 13.586694,3.01282 H 21.157084 m 13.586694,3.01281 H 21.157084 m 13.586694,3.01282 H 21.157084 m 13.586694,3.01281 H 21.157084 m 13.586694,3.01281 H 21.157084 m 13.586694,3.01282 H 21.157084 m 13.586694,3.01281 H 21.157084 m 13.586694,3.01282 H 21.157084 m 13.586694,3.01281 H 21.157084 m 13.586694,3.01281 H 21.157084 m 13.586694,3.01282 H 21.157084 m 13.586694,3.01281 H 21.157084 m 13.586694,3.01282 H 21.157084 m 13.586694,3.01281 H 21.157084 m 13.586694,3.01282 H 21.157084 m 13.586694,3.01281 H 21.157084 m 13.586694,3.01281 H 21.157084 m 13.586694,3.01282 H 21.157084 m 13.586694,3.01281 H 21.157084 m 13.586694,3.01281 H 21.157084 m 13.586694,3.01282 H 21.157084 m 13.586694,3.01281 H 21.157084 m 13.586694,3.01282 H 21.157084 m 13.586694,3.01281 H 21.157084 m 13.586694,3.01281 H 21.157084 m 13.586694,3.01282 H 21.157084 m 13.586694,3.01281 H 21.157084 m 13.586694,3.01282 H 21.157084 m 13.586694,3.01281 H 21.157084 m 13.586694,3.01281 H 21.157084 m 13.586694,3.01282 H 21.157084 m 13.586694,3.01281 H 21.157084 m 13.586694,3.01281 H 21.157084 m 13.586694,3.01282 H 21.157084 m 13.586694,3.01281 H 21.157084"
         style="fill:none;stroke:#00ffff;stroke-width:0.1"
         id="path1506">
        <desc
           id="desc1504">Hinge cut parameters: actual(requested)
cut length: 13.59 mm (19.00 mm)
gap length: 3.00 mm (3.00 mm)
separation distance: 1.51 mm (1.50 mm)</desc>
      </path>
    </g>
  </g>
</svg>
