  0
SECTION
  2
HEADER
  9
$ACADVER
  1
AC1014
  9
$EXTMIN
 10
70.16401489310567
 20
112.369642808922
 30
0.0
  9
$EXTMAX
 10
277.0834797641999
 20
227.1366601424358
 30
0.0
  9
$HANDSEED
  5
56
  9
$MEASUREMENT
 70
1
  0
ENDSEC
  0
SECTION
  2
TABLES
  0
TABLE
  2
VPORT
  5
8
330
0
100
AcDbSymbolTable
 70
     4
  0
VPORT
  5
2E
330
8
100
AcDbSymbolTableRecord
100
AcDbViewportTableRecord
  2
*ACTIVE
 70
     0
 10
0.0
 20
0.0
 11
1.0
 21
1.0
 12
209.9999999999999
 22
148.4999999999999
 13
0.0
 23
0.0
 14
10.0
 24
10.0
 15
10.0
 25
10.0
 16
0.0
 26
0.0
 36
1.0
 17
0.0
 27
0.0
 37
0.0
 40
340.9950045922664
 41
1.239944521497919
 42
50.0
 43
0.0
 44
0.0
 50
0.0
 51
0.0
 71
     0
 72
   100
 73
     1
 74
     3
 75
     0
 76
     0
 77
     0
 78
     0
  0
ENDTAB
  0
TABLE
  2
LTYPE
  5
5
330
0
100
AcDbSymbolTable
 70
     1
  0
LTYPE
  5
14
330
5
100
AcDbSymbolTableRecord
100
AcDbLinetypeTableRecord
  2
BYBLOCK
 70
     0
  3

 72
    65
 73
     0
 40
0.0
  0
LTYPE
  5
15
330
5
100
AcDbSymbolTableRecord
100
AcDbLinetypeTableRecord
  2
BYLAYER
 70
     0
  3

 72
    65
 73
     0
 40
0.0
  0
LTYPE
  5
16
330
5
100
AcDbSymbolTableRecord
100
AcDbLinetypeTableRecord
  2
CONTINUOUS
 70
     0
  3
Solid line
 72
    65
 73
     0
 40
0.0
  0
ENDTAB
  0
TABLE
  2
LAYER
  5
2
330
0
100
AcDbSymbolTable
 70
1
  0
LAYER
  5
10
330
2
100
AcDbSymbolTableRecord
100
AcDbLayerTableRecord
  2
0
 70
     0
 62
     7
  6
CONTINUOUS
  0
ENDTAB
  0
TABLE
  2
STYLE
  5
3
330
0
100
AcDbSymbolTable
 70
     1
  0
STYLE
  5
11
330
3
100
AcDbSymbolTableRecord
100
AcDbTextStyleTableRecord
  2
STANDARD
 70
     0
 40
0.0
 41
1.0
 50
0.0
 71
     0
 42
2.5
  3
txt
  4

  0
ENDTAB
  0
TABLE
  2
VIEW
  5
6
330
0
100
AcDbSymbolTable
 70
     0
  0
ENDTAB
  0
TABLE
  2
UCS
  5
7
330
0
100
AcDbSymbolTable
 70
     0
  0
ENDTAB
  0
TABLE
  2
APPID
  5
9
330
0
100
AcDbSymbolTable
 70
     2
  0
APPID
  5
12
330
9
100
AcDbSymbolTableRecord
100
AcDbRegAppTableRecord
  2
ACAD
 70
     0
  0
APPID
  5
2B
330
9
100
AcDbSymbolTableRecord
100
AcDbRegAppTableRecord
  2
URBANX
 70
     0
  0
ENDTAB
  0
TABLE
  2
DIMSTYLE
  5
A
330
0
100
AcDbSymbolTable
 70
     1
  0
DIMSTYLE
105
27
330
A
100
AcDbSymbolTableRecord
100
AcDbDimStyleTableRecord
  2
ISO-25
 70
     0
  3

  4

  5

  6

  7

 40
1.0
 41
2.5
 42
0.625
 43
3.75
 44
1.25
 45
0.0
 46
0.0
 47
0.0
 48
0.0
140
2.5
141
2.5
142
0.0
143
0.03937007874016
144
1.0
145
0.0
146
1.0
147
0.625
 71
     0
 72
     0
 73
     0
 74
     0
 75
     0
 76
     0
 77
     1
 78
     8
170
     0
171
     3
172
     1
173
     0
174
     0
175
     0
176
     0
177
     0
178
     0
270
     2
271
     2
272
     2
273
     2
274
     3
340
11
275
     0
280
     0
281
     0
282
     0
283
     0
284
     8
285
     0
286
     0
287
     3
288
     0
  0
ENDTAB
  0
TABLE
  2
BLOCK_RECORD
  5
1
330
0
100
AcDbSymbolTable
 70
     1
  0
BLOCK_RECORD
  5
1F
102
{ACAD_XDICTIONARY
360
52
102
}
330
1
100
AcDbSymbolTableRecord
100
AcDbBlockTableRecord
  2
*MODEL_SPACE
  0
BLOCK_RECORD
  5
1B
102
{ACAD_XDICTIONARY
360
50
102
}
330
1
100
AcDbSymbolTableRecord
100
AcDbBlockTableRecord
  2
*PAPER_SPACE
  0
ENDTAB
  0
ENDSEC
  0
SECTION
  2
BLOCKS
  0
BLOCK
  5
20
330
1F
100
AcDbEntity
  8
0
100
AcDbBlockBegin
  2
*MODEL_SPACE
 70
     0
 10
0.0
 20
0.0
 30
0.0
  3
*MODEL_SPACE
  1

  0
ENDBLK
  5
21
330
1F
100
AcDbEntity
  8
0
100
AcDbBlockEnd
  0
BLOCK
  5
1C
330
1B
100
AcDbEntity
 67
     1
  8
0
100
AcDbBlockBegin
  2
*PAPER_SPACE
  1

  0
ENDBLK
  5
1D
330
1B
100
AcDbEntity
 67
     1
  8
0
100
AcDbBlockEnd
  0
ENDSEC
  0
SECTION
  2
ENTITIES
  0
LINE
  5
ff
100
AcDbEntity
  8
0
100
AcDbLine
 62
     3
 10
14.7161
 20
6.42027
 30
0.0
 11
0.570509
 21
6.42027
 31
0.0
  0
LINE
  5
100
100
AcDbEntity
  8
0
100
AcDbLine
 62
     3
 10
0.570509
 20
17.7367
 30
0.0
 11
14.7092
 21
17.7367
 31
0.0
  0
LINE
  5
101
100
AcDbEntity
  8
0
100
AcDbLine
 62
     3
 10
0.570509
 20
14.909
 30
0.0
 11
14.7092
 21
14.909
 31
0.0
  0
LINE
  5
102
100
AcDbEntity
  8
0
100
AcDbLine
 62
     3
 10
0.570509
 20
12.0785
 30
0.0
 11
14.7092
 21
12.0785
 31
0.0
  0
LINE
  5
103
100
AcDbEntity
  8
0
100
AcDbLine
 62
     3
 10
0.570509
 20
9.25079
 30
0.0
 11
14.7092
 21
9.25079
 31
0.0
  0
LINE
  5
104
100
AcDbEntity
  8
0
100
AcDbLine
 62
     3
 10
3.39549
 20
6.4244
 30
0.0
 11
3.39549
 21
20.5631
 31
0.0
  0
LINE
  5
105
100
AcDbEntity
  8
0
100
AcDbLine
 62
     3
 10
6.22459
 20
6.4244
 30
0.0
 11
6.22459
 21
20.5631
 31
0.0
  0
LINE
  5
106
100
AcDbEntity
  8
0
100
AcDbLine
 62
     3
 10
9.05372
 20
6.4244
 30
0.0
 11
9.05372
 21
20.5631
 31
0.0
  0
LINE
  5
107
100
AcDbEntity
  8
0
100
AcDbLine
 62
     3
 10
11.8828
 20
6.4244
 30
0.0
 11
11.8828
 21
20.5631
 31
0.0
  0
LINE
  5
108
100
AcDbEntity
  8
0
100
AcDbLine
 62
     3
 10
14.7161
 20
20.5659
 30
0.0
 11
14.7161
 21
0.790995
 31
0.0
  0
LINE
  5
109
100
AcDbEntity
  8
0
100
AcDbLine
 62
     4
 10
0.103353
 20
21.0633
 30
0.0
 11
20.8966
 21
21.0633
 31
0.0
  0
LINE
  5
10a
100
AcDbEntity
  8
0
100
AcDbLine
 62
     4
 10
20.8966
 20
21.0633
 30
0.0
 11
20.8966
 21
0.270095
 31
0.0
  0
LINE
  5
10b
100
AcDbEntity
  8
0
100
AcDbLine
 62
     4
 10
20.8966
 20
0.270095
 30
0.0
 11
0.103353
 21
0.270095
 31
0.0
  0
LINE
  5
10c
100
AcDbEntity
  8
0
100
AcDbLine
 62
     4
 10
0.103353
 20
0.270095
 30
0.0
 11
0.103353
 21
21.0633
 31
0.0
  0
LINE
  5
10d
100
AcDbEntity
  8
0
100
AcDbLine
 62
     0
 10
9.04956
 20
14.9793
 30
0.0
 11
11.7492
 21
14.9793
 31
0.0
  0
LINE
  5
10e
100
AcDbEntity
  8
0
100
AcDbLine
 62
     0
 10
11.7492
 20
14.9793
 30
0.0
 11
11.7492
 21
17.7423
 31
0.0
  0
LINE
  5
10f
100
AcDbEntity
  8
0
100
AcDbLine
 62
     0
 10
11.7492
 20
17.7423
 30
0.0
 11
9.04956
 21
17.7423
 31
0.0
  0
LINE
  5
110
100
AcDbEntity
  8
0
100
AcDbLine
 62
     0
 10
9.04956
 20
17.7423
 30
0.0
 11
9.04956
 21
14.9793
 31
0.0
  0
LINE
  5
111
100
AcDbEntity
  8
0
100
AcDbLine
 62
     0
 10
9.68072
 20
15.1846
 30
0.0
 11
9.86952
 21
15.6421
 31
0.0
  0
LINE
  5
112
100
AcDbEntity
  8
0
100
AcDbLine
 62
     0
 10
9.86952
 20
15.6421
 30
0.0
 11
10.0197
 21
15.6421
 31
0.0
  0
SPLINE
  5
113
100
AcDbEntity
  8
0
100
AcDbSpline
210
0.0
220
0.0
230
1.0
 62
     0
 70
     0
 71
     3
 72
     8
 73
4
 40
0.0
 40
0.0
 40
0.0
 40
0.0
 40
1.0
 40
1.0
 40
1.0
 40
1.0
 10
10.0197
 20
15.6421
 30
0.0
 10
9.98527
 20
15.6876
 30
0.0
 10
9.9646
 20
15.7427
 30
0.0
 10
9.9646
 20
15.8047
 30
0.0
  0
LINE
  5
114
100
AcDbEntity
  8
0
100
AcDbLine
 62
     0
 10
9.9646
 20
15.8047
 30
0.0
 11
9.9646
 21
16.6481
 31
0.0
  0
SPLINE
  5
115
100
AcDbEntity
  8
0
100
AcDbSpline
210
0.0
220
0.0
230
1.0
 62
     0
 70
     0
 71
     3
 72
     8
 73
4
 40
0.0
 40
0.0
 40
0.0
 40
0.0
 40
1.0
 40
1.0
 40
1.0
 40
1.0
 10
9.9646
 20
16.6481
 30
0.0
 10
9.9646
 20
16.7445
 30
0.0
 10
10.0156
 20
16.83
 30
0.0
 10
10.0928
 20
16.8782
 30
0.0
  0
SPLINE
  5
116
100
AcDbEntity
  8
0
100
AcDbSpline
210
0.0
220
0.0
230
1.0
 62
     0
 70
     0
 71
     3
 72
     8
 73
4
 40
0.0
 40
0.0
 40
0.0
 40
0.0
 40
1.0
 40
1.0
 40
1.0
 40
1.0
 10
10.0928
 20
16.8782
 30
0.0
 10
10.0059
 20
16.9485
 30
0.0
 10
9.94943
 20
17.0532
 30
0.0
 10
9.94943
 20
17.1731
 30
0.0
  0
SPLINE
  5
117
100
AcDbEntity
  8
0
100
AcDbSpline
210
0.0
220
0.0
230
1.0
 62
     0
 70
     0
 71
     3
 72
     8
 73
4
 40
0.0
 40
0.0
 40
0.0
 40
0.0
 40
1.0
 40
1.0
 40
1.0
 40
1.0
 10
9.94943
 20
17.1731
 30
0.0
 10
9.94943
 20
17.3826
 30
0.0
 10
10.1189
 20
17.5521
 30
0.0
 10
10.3284
 20
17.5521
 30
0.0
  0
SPLINE
  5
118
100
AcDbEntity
  8
0
100
AcDbSpline
210
0.0
220
0.0
230
1.0
 62
     0
 70
     0
 71
     3
 72
     8
 73
4
 40
0.0
 40
0.0
 40
0.0
 40
0.0
 40
1.0
 40
1.0
 40
1.0
 40
1.0
 10
10.3284
 20
17.5521
 30
0.0
 10
10.5379
 20
17.5521
 30
0.0
 10
10.7074
 20
17.3826
 30
0.0
 10
10.7074
 20
17.1731
 30
0.0
  0
SPLINE
  5
119
100
AcDbEntity
  8
0
100
AcDbSpline
210
0.0
220
0.0
230
1.0
 62
     0
 70
     0
 71
     3
 72
     8
 73
4
 40
0.0
 40
0.0
 40
0.0
 40
0.0
 40
1.0
 40
1.0
 40
1.0
 40
1.0
 10
10.7074
 20
17.1731
 30
0.0
 10
10.7074
 20
17.0532
 30
0.0
 10
10.6495
 20
16.9485
 30
0.0
 10
10.5627
 20
16.8782
 30
0.0
  0
SPLINE
  5
11a
100
AcDbEntity
  8
0
100
AcDbSpline
210
0.0
220
0.0
230
1.0
 62
     0
 70
     0
 71
     3
 72
     8
 73
4
 40
0.0
 40
0.0
 40
0.0
 40
0.0
 40
1.0
 40
1.0
 40
1.0
 40
1.0
 10
10.5627
 20
16.8782
 30
0.0
 10
10.6398
 20
16.83
 30
0.0
 10
10.6908
 20
16.7445
 30
0.0
 10
10.6908
 20
16.6481
 30
0.0
  0
LINE
  5
11b
100
AcDbEntity
  8
0
100
AcDbLine
 62
     0
 10
10.6908
 20
16.6481
 30
0.0
 11
10.6908
 21
15.8047
 31
0.0
  0
SPLINE
  5
11c
100
AcDbEntity
  8
0
100
AcDbSpline
210
0.0
220
0.0
230
1.0
 62
     0
 70
     0
 71
     3
 72
     8
 73
4
 40
0.0
 40
0.0
 40
0.0
 40
0.0
 40
1.0
 40
1.0
 40
1.0
 40
1.0
 10
10.6908
 20
15.8047
 30
0.0
 10
10.6908
 20
15.7427
 30
0.0
 10
10.6702
 20
15.6876
 30
0.0
 10
10.6357
 20
15.6421
 30
0.0
  0
LINE
  5
11d
100
AcDbEntity
  8
0
100
AcDbLine
 62
     0
 10
10.6357
 20
15.6421
 30
0.0
 11
10.7859
 21
15.6421
 31
0.0
  0
LINE
  5
11e
100
AcDbEntity
  8
0
100
AcDbLine
 62
     0
 10
10.7859
 20
15.6421
 30
0.0
 11
10.9761
 21
15.1846
 31
0.0
  0
LINE
  5
11f
100
AcDbEntity
  8
0
100
AcDbLine
 62
     0
 10
10.9761
 20
15.1846
 30
0.0
 11
9.68072
 21
15.1846
 31
0.0
  0
LINE
  5
120
100
AcDbEntity
  8
0
100
AcDbLine
 62
     0
 10
7.7046
 20
19.8052
 30
0.0
 11
7.80934
 21
19.5667
 31
0.0
  0
LINE
  5
121
100
AcDbEntity
  8
0
100
AcDbLine
 62
     0
 10
7.80934
 20
19.5667
 30
0.0
 11
7.86035
 21
19.4524
 31
0.0
  0
LINE
  5
122
100
AcDbEntity
  8
0
100
AcDbLine
 62
     0
 10
7.86035
 20
19.4524
 30
0.0
 11
7.98572
 21
19.4648
 31
0.0
  0
LINE
  5
123
100
AcDbEntity
  8
0
100
AcDbLine
 62
     0
 10
7.98572
 20
19.4648
 30
0.0
 11
8.24343
 21
19.4937
 31
0.0
  0
LINE
  5
124
100
AcDbEntity
  8
0
100
AcDbLine
 62
     0
 10
8.24343
 20
19.4937
 30
0.0
 11
8.09046
 21
19.2843
 31
0.0
  0
LINE
  5
125
100
AcDbEntity
  8
0
100
AcDbLine
 62
     0
 10
8.09046
 20
19.2843
 30
0.0
 11
8.01606
 21
19.1823
 31
0.0
  0
LINE
  5
126
100
AcDbEntity
  8
0
100
AcDbLine
 62
     0
 10
8.01606
 20
19.1823
 30
0.0
 11
8.09046
 21
19.0803
 31
0.0
  0
LINE
  5
127
100
AcDbEntity
  8
0
100
AcDbLine
 62
     0
 10
8.09046
 20
19.0803
 30
0.0
 11
8.24343
 21
18.8695
 31
0.0
  0
LINE
  5
128
100
AcDbEntity
  8
0
100
AcDbLine
 62
     0
 10
8.24343
 20
18.8695
 30
0.0
 11
7.98572
 21
18.8984
 31
0.0
  0
LINE
  5
129
100
AcDbEntity
  8
0
100
AcDbLine
 62
     0
 10
7.98572
 20
18.8984
 30
0.0
 11
7.86035
 21
18.9122
 31
0.0
  0
LINE
  5
12a
100
AcDbEntity
  8
0
100
AcDbLine
 62
     0
 10
7.86035
 20
18.9122
 30
0.0
 11
7.80934
 21
18.7965
 31
0.0
  0
LINE
  5
12b
100
AcDbEntity
  8
0
100
AcDbLine
 62
     0
 10
7.80934
 20
18.7965
 30
0.0
 11
7.7046
 21
18.5581
 31
0.0
  0
LINE
  5
12c
100
AcDbEntity
  8
0
100
AcDbLine
 62
     0
 10
7.7046
 20
18.5581
 30
0.0
 11
7.59989
 21
18.7965
 31
0.0
  0
LINE
  5
12d
100
AcDbEntity
  8
0
100
AcDbLine
 62
     0
 10
7.59989
 20
18.7965
 30
0.0
 11
7.54888
 21
18.9122
 31
0.0
  0
LINE
  5
12e
100
AcDbEntity
  8
0
100
AcDbLine
 62
     0
 10
7.54888
 20
18.9122
 30
0.0
 11
7.4235
 21
18.8984
 31
0.0
  0
LINE
  5
12f
100
AcDbEntity
  8
0
100
AcDbLine
 62
     0
 10
7.4235
 20
18.8984
 30
0.0
 11
7.16442
 21
18.8695
 31
0.0
  0
LINE
  5
130
100
AcDbEntity
  8
0
100
AcDbLine
 62
     0
 10
7.16442
 20
18.8695
 30
0.0
 11
7.31739
 21
19.0803
 31
0.0
  0
LINE
  5
131
100
AcDbEntity
  8
0
100
AcDbLine
 62
     0
 10
7.31739
 20
19.0803
 30
0.0
 11
7.39179
 21
19.1823
 31
0.0
  0
LINE
  5
132
100
AcDbEntity
  8
0
100
AcDbLine
 62
     0
 10
7.39179
 20
19.1823
 30
0.0
 11
7.31739
 21
19.2843
 31
0.0
  0
LINE
  5
133
100
AcDbEntity
  8
0
100
AcDbLine
 62
     0
 10
7.31739
 20
19.2843
 30
0.0
 11
7.16442
 21
19.4937
 31
0.0
  0
LINE
  5
134
100
AcDbEntity
  8
0
100
AcDbLine
 62
     0
 10
7.16442
 20
19.4937
 30
0.0
 11
7.4235
 21
19.4648
 31
0.0
  0
LINE
  5
135
100
AcDbEntity
  8
0
100
AcDbLine
 62
     0
 10
7.4235
 20
19.4648
 30
0.0
 11
7.54888
 21
19.4524
 31
0.0
  0
LINE
  5
136
100
AcDbEntity
  8
0
100
AcDbLine
 62
     0
 10
7.54888
 20
19.4524
 30
0.0
 11
7.59989
 21
19.5667
 31
0.0
  0
LINE
  5
137
100
AcDbEntity
  8
0
100
AcDbLine
 62
     0
 10
7.59989
 20
19.5667
 30
0.0
 11
7.7046
 21
19.8052
 31
0.0
  0
LINE
  5
138
100
AcDbEntity
  8
0
100
AcDbLine
 62
     0
 10
7.7046
 20
20.3357
 30
0.0
 11
7.41659
 21
19.6812
 31
0.0
  0
LINE
  5
139
100
AcDbEntity
  8
0
100
AcDbLine
 62
     0
 10
7.41659
 20
19.6812
 30
0.0
 11
6.70553
 21
19.7583
 31
0.0
  0
LINE
  5
13a
100
AcDbEntity
  8
0
100
AcDbLine
 62
     0
 10
6.70553
 20
19.7583
 30
0.0
 11
7.1272
 21
19.1823
 31
0.0
  0
LINE
  5
13b
100
AcDbEntity
  8
0
100
AcDbLine
 62
     0
 10
7.1272
 20
19.1823
 30
0.0
 11
6.70553
 21
18.6049
 31
0.0
  0
LINE
  5
13c
100
AcDbEntity
  8
0
100
AcDbLine
 62
     0
 10
6.70553
 20
18.6049
 30
0.0
 11
7.41659
 21
18.6821
 31
0.0
  0
LINE
  5
13d
100
AcDbEntity
  8
0
100
AcDbLine
 62
     0
 10
7.41659
 20
18.6821
 30
0.0
 11
7.7046
 21
18.0275
 31
0.0
  0
LINE
  5
13e
100
AcDbEntity
  8
0
100
AcDbLine
 62
     0
 10
7.7046
 20
18.0275
 30
0.0
 11
7.99264
 21
18.6821
 31
0.0
  0
LINE
  5
13f
100
AcDbEntity
  8
0
100
AcDbLine
 62
     0
 10
7.99264
 20
18.6821
 30
0.0
 11
8.7037
 21
18.6049
 31
0.0
  0
LINE
  5
140
100
AcDbEntity
  8
0
100
AcDbLine
 62
     0
 10
8.7037
 20
18.6049
 30
0.0
 11
8.28065
 21
19.1823
 31
0.0
  0
LINE
  5
141
100
AcDbEntity
  8
0
100
AcDbLine
 62
     0
 10
8.28065
 20
19.1823
 30
0.0
 11
8.7037
 21
19.7583
 31
0.0
  0
LINE
  5
142
100
AcDbEntity
  8
0
100
AcDbLine
 62
     0
 10
8.7037
 20
19.7583
 30
0.0
 11
7.99264
 21
19.6812
 31
0.0
  0
LINE
  5
143
100
AcDbEntity
  8
0
100
AcDbLine
 62
     0
 10
7.99264
 20
19.6812
 30
0.0
 11
7.7046
 21
20.3357
 31
0.0
  0
LINE
  5
144
100
AcDbEntity
  8
0
100
AcDbLine
 62
     0
 10
0.591178
 20
16.7707
 30
0.0
 11
1.54616
 21
17.7257
 31
0.0
  0
LINE
  5
145
100
AcDbEntity
  8
0
100
AcDbLine
 62
     0
 10
1.54616
 20
17.7257
 30
0.0
 11
0.611851
 21
17.7257
 31
0.0
  0
LINE
  5
146
100
AcDbEntity
  8
0
100
AcDbLine
 62
     0
 10
0.611851
 20
17.7257
 30
0.0
 11
0.591178
 21
16.7707
 31
0.0
  0
LINE
  5
147
100
AcDbEntity
  8
0
100
AcDbLine
 62
     0
 10
3.34725
 20
15.9411
 30
0.0
 11
2.39227
 21
14.9862
 31
0.0
  0
LINE
  5
148
100
AcDbEntity
  8
0
100
AcDbLine
 62
     0
 10
2.39227
 20
14.9862
 30
0.0
 11
3.32659
 21
14.9862
 31
0.0
  0
LINE
  5
149
100
AcDbEntity
  8
0
100
AcDbLine
 62
     0
 10
3.32659
 20
14.9862
 30
0.0
 11
3.34725
 21
15.9411
 31
0.0
  0
SPLINE
  5
14a
100
AcDbEntity
  8
0
100
AcDbSpline
210
0.0
220
0.0
230
1.0
 62
     0
 70
     0
 71
     3
 72
     8
 73
4
 40
0.0
 40
0.0
 40
0.0
 40
0.0
 40
1.0
 40
1.0
 40
1.0
 40
1.0
 10
8.17728
 20
16.3559
 30
0.0
 10
8.17728
 20
16.0941
 30
0.0
 10
7.96505
 20
15.8819
 30
0.0
 10
7.7046
 20
15.8819
 30
0.0
  0
SPLINE
  5
14b
100
AcDbEntity
  8
0
100
AcDbSpline
210
0.0
220
0.0
230
1.0
 62
     0
 70
     0
 71
     3
 72
     8
 73
4
 40
0.0
 40
0.0
 40
0.0
 40
0.0
 40
1.0
 40
1.0
 40
1.0
 40
1.0
 10
7.7046
 20
15.8819
 30
0.0
 10
7.4428
 20
15.8819
 30
0.0
 10
7.23057
 20
16.0941
 30
0.0
 10
7.23057
 20
16.3559
 30
0.0
  0
SPLINE
  5
14c
100
AcDbEntity
  8
0
100
AcDbSpline
210
0.0
220
0.0
230
1.0
 62
     0
 70
     0
 71
     3
 72
     8
 73
4
 40
0.0
 40
0.0
 40
0.0
 40
0.0
 40
1.0
 40
1.0
 40
1.0
 40
1.0
 10
7.23057
 20
16.3559
 30
0.0
 10
7.23057
 20
16.6178
 30
0.0
 10
7.4428
 20
16.83
 30
0.0
 10
7.7046
 20
16.83
 30
0.0
  0
SPLINE
  5
14d
100
AcDbEntity
  8
0
100
AcDbSpline
210
0.0
220
0.0
230
1.0
 62
     0
 70
     0
 71
     3
 72
     8
 73
4
 40
0.0
 40
0.0
 40
0.0
 40
0.0
 40
1.0
 40
1.0
 40
1.0
 40
1.0
 10
7.7046
 20
16.83
 30
0.0
 10
7.96505
 20
16.83
 30
0.0
 10
8.17728
 20
16.6178
 30
0.0
 10
8.17728
 20
16.3559
 30
0.0
  0
SPLINE
  5
14e
100
AcDbEntity
  8
0
100
AcDbSpline
210
0.0
220
0.0
230
1.0
 62
     0
 70
     0
 71
     3
 72
     8
 73
4
 40
0.0
 40
0.0
 40
0.0
 40
0.0
 40
1.0
 40
1.0
 40
1.0
 40
1.0
 10
11.3509
 20
19.1823
 30
0.0
 10
11.3509
 20
18.6586
 30
0.0
 10
10.9279
 20
18.2342
 30
0.0
 10
10.4042
 20
18.2342
 30
0.0
  0
SPLINE
  5
14f
100
AcDbEntity
  8
0
100
AcDbSpline
210
0.0
220
0.0
230
1.0
 62
     0
 70
     0
 71
     3
 72
     8
 73
4
 40
0.0
 40
0.0
 40
0.0
 40
0.0
 40
1.0
 40
1.0
 40
1.0
 40
1.0
 10
10.4042
 20
18.2342
 30
0.0
 10
9.88053
 20
18.2342
 30
0.0
 10
9.4561
 20
18.6586
 30
0.0
 10
9.4561
 20
19.1823
 30
0.0
  0
SPLINE
  5
150
100
AcDbEntity
  8
0
100
AcDbSpline
210
0.0
220
0.0
230
1.0
 62
     0
 70
     0
 71
     3
 72
     8
 73
4
 40
0.0
 40
0.0
 40
0.0
 40
0.0
 40
1.0
 40
1.0
 40
1.0
 40
1.0
 10
9.4561
 20
19.1823
 30
0.0
 10
9.4561
 20
19.7046
 30
0.0
 10
9.88053
 20
20.129
 30
0.0
 10
10.4042
 20
20.129
 30
0.0
  0
SPLINE
  5
151
100
AcDbEntity
  8
0
100
AcDbSpline
210
0.0
220
0.0
230
1.0
 62
     0
 70
     0
 71
     3
 72
     8
 73
4
 40
0.0
 40
0.0
 40
0.0
 40
0.0
 40
1.0
 40
1.0
 40
1.0
 40
1.0
 10
10.4042
 20
20.129
 30
0.0
 10
10.9279
 20
20.129
 30
0.0
 10
11.3509
 20
19.7046
 30
0.0
 10
11.3509
 20
19.1823
 30
0.0
  0
LINE
  5
152
100
AcDbEntity
  8
0
100
AcDbLine
 62
     0
 10
13.717
 20
18.4561
 30
0.0
 11
13.5682
 21
18.4561
 31
0.0
  0
SPLINE
  5
153
100
AcDbEntity
  8
0
100
AcDbSpline
210
0.0
220
0.0
230
1.0
 62
     0
 70
     0
 71
     3
 72
     8
 73
4
 40
0.0
 40
0.0
 40
0.0
 40
0.0
 40
1.0
 40
1.0
 40
1.0
 40
1.0
 10
13.5682
 20
18.4561
 30
0.0
 10
13.6012
 20
18.5015
 30
0.0
 10
13.6233
 20
18.5567
 30
0.0
 10
13.6233
 20
18.6173
 30
0.0
  0
LINE
  5
154
100
AcDbEntity
  8
0
100
AcDbLine
 62
     0
 10
13.6233
 20
18.6173
 30
0.0
 11
13.6233
 21
19.462
 31
0.0
  0
SPLINE
  5
155
100
AcDbEntity
  8
0
100
AcDbSpline
210
0.0
220
0.0
230
1.0
 62
     0
 70
     0
 71
     3
 72
     8
 73
4
 40
0.0
 40
0.0
 40
0.0
 40
0.0
 40
1.0
 40
1.0
 40
1.0
 40
1.0
 10
13.6233
 20
19.462
 30
0.0
 10
13.6233
 20
19.5585
 30
0.0
 10
13.5709
 20
19.6439
 30
0.0
 10
13.4938
 20
19.6922
 30
0.0
  0
SPLINE
  5
156
100
AcDbEntity
  8
0
100
AcDbSpline
210
0.0
220
0.0
230
1.0
 62
     0
 70
     0
 71
     3
 72
     8
 73
4
 40
0.0
 40
0.0
 40
0.0
 40
0.0
 40
1.0
 40
1.0
 40
1.0
 40
1.0
 10
13.4938
 20
19.6922
 30
0.0
 10
13.5819
 20
19.7611
 30
0.0
 10
13.6385
 20
19.8672
 30
0.0
 10
13.6385
 20
19.9871
 30
0.0
  0
SPLINE
  5
157
100
AcDbEntity
  8
0
100
AcDbSpline
210
0.0
220
0.0
230
1.0
 62
     0
 70
     0
 71
     3
 72
     8
 73
4
 40
0.0
 40
0.0
 40
0.0
 40
0.0
 40
1.0
 40
1.0
 40
1.0
 40
1.0
 10
13.6385
 20
19.9871
 30
0.0
 10
13.6385
 20
20.1965
 30
0.0
 10
13.4689
 20
20.366
 30
0.0
 10
13.2595
 20
20.366
 30
0.0
  0
SPLINE
  5
158
100
AcDbEntity
  8
0
100
AcDbSpline
210
0.0
220
0.0
230
1.0
 62
     0
 70
     0
 71
     3
 72
     8
 73
4
 40
0.0
 40
0.0
 40
0.0
 40
0.0
 40
1.0
 40
1.0
 40
1.0
 40
1.0
 10
13.2595
 20
20.366
 30
0.0
 10
13.05
 20
20.366
 30
0.0
 10
12.8805
 20
20.1965
 30
0.0
 10
12.8805
 20
19.9871
 30
0.0
  0
SPLINE
  5
159
100
AcDbEntity
  8
0
100
AcDbSpline
210
0.0
220
0.0
230
1.0
 62
     0
 70
     0
 71
     3
 72
     8
 73
4
 40
0.0
 40
0.0
 40
0.0
 40
0.0
 40
1.0
 40
1.0
 40
1.0
 40
1.0
 10
12.8805
 20
19.9871
 30
0.0
 10
12.8805
 20
19.8672
 30
0.0
 10
12.937
 20
19.7611
 30
0.0
 10
13.0252
 20
19.6922
 30
0.0
  0
SPLINE
  5
15a
100
AcDbEntity
  8
0
100
AcDbSpline
210
0.0
220
0.0
230
1.0
 62
     0
 70
     0
 71
     3
 72
     8
 73
4
 40
0.0
 40
0.0
 40
0.0
 40
0.0
 40
1.0
 40
1.0
 40
1.0
 40
1.0
 10
13.0252
 20
19.6922
 30
0.0
 10
12.948
 20
19.6439
 30
0.0
 10
12.8957
 20
19.5585
 30
0.0
 10
12.8957
 20
19.462
 30
0.0
  0
LINE
  5
15b
100
AcDbEntity
  8
0
100
AcDbLine
 62
     0
 10
12.8957
 20
19.462
 30
0.0
 11
12.8957
 21
18.6173
 31
0.0
  0
SPLINE
  5
15c
100
AcDbEntity
  8
0
100
AcDbSpline
210
0.0
220
0.0
230
1.0
 62
     0
 70
     0
 71
     3
 72
     8
 73
4
 40
0.0
 40
0.0
 40
0.0
 40
0.0
 40
1.0
 40
1.0
 40
1.0
 40
1.0
 10
12.8957
 20
18.6173
 30
0.0
 10
12.8957
 20
18.5567
 30
0.0
 10
12.9177
 20
18.5015
 30
0.0
 10
12.9508
 20
18.4561
 30
0.0
  0
LINE
  5
15d
100
AcDbEntity
  8
0
100
AcDbLine
 62
     0
 10
12.9508
 20
18.4561
 30
0.0
 11
12.802
 21
18.4561
 31
0.0
  0
LINE
  5
15e
100
AcDbEntity
  8
0
100
AcDbLine
 62
     0
 10
12.802
 20
18.4561
 30
0.0
 11
12.6118
 21
17.9972
 31
0.0
  0
LINE
  5
15f
100
AcDbEntity
  8
0
100
AcDbLine
 62
     0
 10
12.6118
 20
17.9972
 30
0.0
 11
13.9072
 21
17.9972
 31
0.0
  0
LINE
  5
160
100
AcDbEntity
  8
0
100
AcDbLine
 62
     0
 10
13.9072
 20
17.9972
 30
0.0
 11
13.717
 21
18.4561
 31
0.0
  0
LINE
  5
161
100
AcDbEntity
  8
0
100
AcDbLine
 62
     0
 10
12.3004
 20
17.315
 30
0.0
 11
14.2186
 21
17.315
 31
0.0
  0
LINE
  5
162
100
AcDbEntity
  8
0
100
AcDbLine
 62
     0
 10
14.2186
 20
17.315
 30
0.0
 11
14.2186
 21
15.3968
 31
0.0
  0
LINE
  5
163
100
AcDbEntity
  8
0
100
AcDbLine
 62
     0
 10
14.2186
 20
15.3968
 30
0.0
 11
12.3004
 21
15.3968
 31
0.0
  0
LINE
  5
164
100
AcDbEntity
  8
0
100
AcDbLine
 62
     0
 10
12.3004
 20
15.3968
 30
0.0
 11
12.3004
 21
17.315
 31
0.0
  0
LINE
  5
165
100
AcDbEntity
  8
0
100
AcDbLine
 62
     0
 10
3.02617
 20
12.576
 30
0.0
 11
1.94717
 21
13.3615
 31
0.0
  0
LINE
  5
166
100
AcDbEntity
  8
0
100
AcDbLine
 62
     0
 10
1.94717
 20
13.3615
 30
0.0
 11
0.866786
 21
12.576
 31
0.0
  0
LINE
  5
167
100
AcDbEntity
  8
0
100
AcDbLine
 62
     0
 10
0.866786
 20
12.576
 30
0.0
 11
0.866786
 21
13.5599
 31
0.0
  0
LINE
  5
168
100
AcDbEntity
  8
0
100
AcDbLine
 62
     0
 10
0.866786
 20
13.5599
 30
0.0
 11
1.94717
 21
14.3454
 31
0.0
  0
LINE
  5
169
100
AcDbEntity
  8
0
100
AcDbLine
 62
     0
 10
1.94717
 20
14.3454
 30
0.0
 11
3.02617
 21
13.5599
 31
0.0
  0
LINE
  5
16a
100
AcDbEntity
  8
0
100
AcDbLine
 62
     0
 10
3.02617
 20
13.5599
 30
0.0
 11
3.02617
 21
12.576
 31
0.0
  0
SPLINE
  5
16b
100
AcDbEntity
  8
0
100
AcDbSpline
210
0.0
220
0.0
230
1.0
 62
     0
 70
     0
 71
     3
 72
     8
 73
4
 40
0.0
 40
0.0
 40
0.0
 40
0.0
 40
1.0
 40
1.0
 40
1.0
 40
1.0
 10
5.94071
 20
16.4565
 30
0.0
 10
5.94487
 20
16.7087
 30
0.0
 10
5.90765
 20
16.9898
 30
0.0
 10
5.84013
 20
17.0946
 30
0.0
  0
SPLINE
  5
16c
100
AcDbEntity
  8
0
100
AcDbSpline
210
0.0
220
0.0
230
1.0
 62
     0
 70
     0
 71
     3
 72
     8
 73
4
 40
0.0
 40
0.0
 40
0.0
 40
0.0
 40
1.0
 40
1.0
 40
1.0
 40
1.0
 10
5.84013
 20
17.0946
 30
0.0
 10
5.56038
 20
17.5273
 30
0.0
 10
4.77905
 20
17.6775
 30
0.0
 10
4.25813
 20
17.3977
 30
0.0
  0
SPLINE
  5
16d
100
AcDbEntity
  8
0
100
AcDbSpline
210
0.0
220
0.0
230
1.0
 62
     0
 70
     0
 71
     3
 72
     8
 73
4
 40
0.0
 40
0.0
 40
0.0
 40
0.0
 40
1.0
 40
1.0
 40
1.0
 40
1.0
 10
4.25813
 20
17.3977
 30
0.0
 10
4.09691
 20
17.3123
 30
0.0
 10
3.9164
 20
17.1635
 30
0.0
 10
3.85713
 20
17.067
 30
0.0
  0
SPLINE
  5
16e
100
AcDbEntity
  8
0
100
AcDbSpline
210
0.0
220
0.0
230
1.0
 62
     0
 70
     0
 71
     3
 72
     8
 73
4
 40
0.0
 40
0.0
 40
0.0
 40
0.0
 40
1.0
 40
1.0
 40
1.0
 40
1.0
 10
3.85713
 20
17.067
 30
0.0
 10
3.73309
 20
16.8658
 30
0.0
 10
3.7138
 20
16.3932
 30
0.0
 10
3.81716
 20
16.0941
 30
0.0
  0
SPLINE
  5
16f
100
AcDbEntity
  8
0
100
AcDbSpline
210
0.0
220
0.0
230
1.0
 62
     0
 70
     0
 71
     3
 72
     8
 73
4
 40
0.0
 40
0.0
 40
0.0
 40
0.0
 40
1.0
 40
1.0
 40
1.0
 40
1.0
 10
3.81716
 20
16.0941
 30
0.0
 10
3.8916
 20
15.8805
 30
0.0
 10
4.04315
 20
15.7675
 30
0.0
 10
4.42076
 20
15.7152
 30
0.0
  0
SPLINE
  5
170
100
AcDbEntity
  8
0
100
AcDbSpline
210
0.0
220
0.0
230
1.0
 62
     0
 70
     0
 71
     3
 72
     8
 73
4
 40
0.0
 40
0.0
 40
0.0
 40
0.0
 40
1.0
 40
1.0
 40
1.0
 40
1.0
 10
4.42076
 20
15.7152
 30
0.0
 10
4.44003
 20
15.7124
 30
0.0
 10
4.41935
 20
15.6463
 30
0.0
 10
4.44003
 20
15.6393
 30
0.0
  0
SPLINE
  5
171
100
AcDbEntity
  8
0
100
AcDbSpline
210
0.0
220
0.0
230
1.0
 62
     0
 70
     0
 71
     3
 72
     8
 73
4
 40
0.0
 40
0.0
 40
0.0
 40
0.0
 40
1.0
 40
1.0
 40
1.0
 40
1.0
 10
4.44003
 20
15.6393
 30
0.0
 10
4.53651
 20
15.6132
 30
0.0
 10
4.74871
 20
15.6077
 30
0.0
 10
4.85895
 20
15.6049
 30
0.0
  0
SPLINE
  5
172
100
AcDbEntity
  8
0
100
AcDbSpline
210
0.0
220
0.0
230
1.0
 62
     0
 70
     0
 71
     3
 72
     8
 73
4
 40
0.0
 40
0.0
 40
0.0
 40
0.0
 40
1.0
 40
1.0
 40
1.0
 40
1.0
 10
4.85895
 20
15.6049
 30
0.0
 10
5.01054
 20
15.6022
 30
0.0
 10
5.17317
 20
15.5952
 30
0.0
 10
5.29304
 20
15.6283
 30
0.0
  0
SPLINE
  5
173
100
AcDbEntity
  8
0
100
AcDbSpline
210
0.0
220
0.0
230
1.0
 62
     0
 70
     0
 71
     3
 72
     8
 73
4
 40
0.0
 40
0.0
 40
0.0
 40
0.0
 40
1.0
 40
1.0
 40
1.0
 40
1.0
 10
5.29304
 20
15.6283
 30
0.0
 10
5.31096
 20
15.6338
 30
0.0
 10
5.29167
 20
15.7055
 30
0.0
 10
5.30959
 20
15.7097
 30
0.0
  0
SPLINE
  5
174
100
AcDbEntity
  8
0
100
AcDbSpline
210
0.0
220
0.0
230
1.0
 62
     0
 70
     0
 71
     3
 72
     8
 73
4
 40
0.0
 40
0.0
 40
0.0
 40
0.0
 40
1.0
 40
1.0
 40
1.0
 40
1.0
 10
5.30959
 20
15.7097
 30
0.0
 10
5.60998
 20
15.7661
 30
0.0
 10
5.8112
 20
15.8943
 30
0.0
 10
5.8856
 20
16.0803
 30
0.0
  0
SPLINE
  5
175
100
AcDbEntity
  8
0
100
AcDbSpline
210
0.0
220
0.0
230
1.0
 62
     0
 70
     0
 71
     3
 72
     8
 73
4
 40
0.0
 40
0.0
 40
0.0
 40
0.0
 40
1.0
 40
1.0
 40
1.0
 40
1.0
 10
5.8856
 20
16.0803
 30
0.0
 10
5.92007
 20
16.1658
 30
0.0
 10
5.93796
 20
16.3063
 30
0.0
 10
5.94071
 20
16.4565
 30
0.0
  0
LINE
  5
176
100
AcDbEntity
  8
0
100
AcDbLine
 62
     0
 10
5.94071
 20
16.4565
 30
0.0
 11
5.94071
 21
16.4565
 31
0.0
  0
SPLINE
  5
177
100
AcDbEntity
  8
0
100
AcDbSpline
210
0.0
220
0.0
230
1.0
 62
     0
 70
     0
 71
     3
 72
     8
 73
4
 40
0.0
 40
0.0
 40
0.0
 40
0.0
 40
1.0
 40
1.0
 40
1.0
 40
1.0
 10
5.54108
 20
16.4855
 30
0.0
 10
5.54108
 20
16.4744
 30
0.0
 10
5.5397
 20
16.4648
 30
0.0
 10
5.53833
 20
16.4538
 30
0.0
  0
SPLINE
  5
178
100
AcDbEntity
  8
0
100
AcDbSpline
210
0.0
220
0.0
230
1.0
 62
     0
 70
     0
 71
     3
 72
     8
 73
4
 40
0.0
 40
0.0
 40
0.0
 40
0.0
 40
1.0
 40
1.0
 40
1.0
 40
1.0
 10
5.53833
 20
16.4538
 30
0.0
 10
5.52178
 20
16.3353
 30
0.0
 10
5.48185
 20
16.316
 30
0.0
 10
5.29579
 20
16.3311
 30
0.0
  0
SPLINE
  5
179
100
AcDbEntity
  8
0
100
AcDbSpline
210
0.0
220
0.0
230
1.0
 62
     0
 70
     0
 71
     3
 72
     8
 73
4
 40
0.0
 40
0.0
 40
0.0
 40
0.0
 40
1.0
 40
1.0
 40
1.0
 40
1.0
 10
5.29579
 20
16.3311
 30
0.0
 10
5.17317
 20
16.3408
 30
0.0
 10
5.04913
 20
16.3849
 30
0.0
 10
5.02296
 20
16.4276
 30
0.0
  0
SPLINE
  5
17a
100
AcDbEntity
  8
0
100
AcDbSpline
210
0.0
220
0.0
230
1.0
 62
     0
 70
     0
 71
     3
 72
     8
 73
4
 40
0.0
 40
0.0
 40
0.0
 40
0.0
 40
1.0
 40
1.0
 40
1.0
 40
1.0
 10
5.02296
 20
16.4276
 30
0.0
 10
4.93201
 20
16.5695
 30
0.0
 10
4.96782
 20
16.6646
 30
0.0
 10
5.12632
 20
16.7032
 30
0.0
  0
SPLINE
  5
17b
100
AcDbEntity
  8
0
100
AcDbSpline
210
0.0
220
0.0
230
1.0
 62
     0
 70
     0
 71
     3
 72
     8
 73
4
 40
0.0
 40
0.0
 40
0.0
 40
0.0
 40
1.0
 40
1.0
 40
1.0
 40
1.0
 10
5.12632
 20
16.7032
 30
0.0
 10
5.33164
 20
16.7556
 30
0.0
 10
5.53558
 20
16.6426
 30
0.0
 10
5.5397
 20
16.4855
 30
0.0
  0
LINE
  5
17c
100
AcDbEntity
  8
0
100
AcDbLine
 62
     0
 10
5.5397
 20
16.4855
 30
0.0
 11
5.54108
 21
16.4855
 31
0.0
  0
LINE
  5
17d
100
AcDbEntity
  8
0
100
AcDbLine
 62
     0
 10
5.29167
 20
15.4616
 30
0.0
 11
4.42076
 21
15.4836
 31
0.0
  0
SPLINE
  5
17e
100
AcDbEntity
  8
0
100
AcDbSpline
210
0.0
220
0.0
230
1.0
 62
     0
 70
     0
 71
     3
 72
     8
 73
4
 40
0.0
 40
0.0
 40
0.0
 40
0.0
 40
1.0
 40
1.0
 40
1.0
 40
1.0
 10
4.42076
 20
15.4836
 30
0.0
 10
4.42076
 20
15.4836
 30
0.0
 10
4.40559
 20
15.339
 30
0.0
 10
4.44832
 20
15.2907
 30
0.0
  0
SPLINE
  5
17f
100
AcDbEntity
  8
0
100
AcDbSpline
210
0.0
220
0.0
230
1.0
 62
     0
 70
     0
 71
     3
 72
     8
 73
4
 40
0.0
 40
0.0
 40
0.0
 40
0.0
 40
1.0
 40
1.0
 40
1.0
 40
1.0
 10
4.44832
 20
15.2907
 30
0.0
 10
4.53926
 20
15.186
 30
0.0
 10
4.70877
 20
15.1736
 30
0.0
 10
4.84657
 20
15.1736
 30
0.0
  0
SPLINE
  5
180
100
AcDbEntity
  8
0
100
AcDbSpline
210
0.0
220
0.0
230
1.0
 62
     0
 70
     0
 71
     3
 72
     8
 73
4
 40
0.0
 40
0.0
 40
0.0
 40
0.0
 40
1.0
 40
1.0
 40
1.0
 40
1.0
 10
4.84657
 20
15.1736
 30
0.0
 10
4.9954
 20
15.1736
 30
0.0
 10
5.21035
 20
15.1488
 30
0.0
 10
5.2765
 20
15.2962
 30
0.0
  0
SPLINE
  5
181
100
AcDbEntity
  8
0
100
AcDbSpline
210
0.0
220
0.0
230
1.0
 62
     0
 70
     0
 71
     3
 72
     8
 73
4
 40
0.0
 40
0.0
 40
0.0
 40
0.0
 40
1.0
 40
1.0
 40
1.0
 40
1.0
 10
5.2765
 20
15.2962
 30
0.0
 10
5.29992
 20
15.3486
 30
0.0
 10
5.29167
 20
15.4616
 30
0.0
 10
5.29167
 20
15.4616
 30
0.0
  0
LINE
  5
182
100
AcDbEntity
  8
0
100
AcDbLine
 62
     0
 10
5.29167
 20
15.4616
 30
0.0
 11
5.29167
 21
15.4616
 31
0.0
  0
SPLINE
  5
183
100
AcDbEntity
  8
0
100
AcDbSpline
210
0.0
220
0.0
230
1.0
 62
     0
 70
     0
 71
     3
 72
     8
 73
4
 40
0.0
 40
0.0
 40
0.0
 40
0.0
 40
1.0
 40
1.0
 40
1.0
 40
1.0
 10
4.7129
 20
16.5296
 30
0.0
 10
4.7129
 20
16.3932
 30
0.0
 10
4.63434
 20
16.3477
 30
0.0
 10
4.3615
 20
16.327
 30
0.0
  0
SPLINE
  5
184
100
AcDbEntity
  8
0
100
AcDbSpline
210
0.0
220
0.0
230
1.0
 62
     0
 70
     0
 71
     3
 72
     8
 73
4
 40
0.0
 40
0.0
 40
0.0
 40
0.0
 40
1.0
 40
1.0
 40
1.0
 40
1.0
 10
4.3615
 20
16.327
 30
0.0
 10
4.15064
 20
16.3105
 30
0.0
 10
4.08312
 20
16.4799
 30
0.0
 10
4.23884
 20
16.6357
 30
0.0
  0
SPLINE
  5
185
100
AcDbEntity
  8
0
100
AcDbSpline
210
0.0
220
0.0
230
1.0
 62
     0
 70
     0
 71
     3
 72
     8
 73
4
 40
0.0
 40
0.0
 40
0.0
 40
0.0
 40
1.0
 40
1.0
 40
1.0
 40
1.0
 10
4.23884
 20
16.6357
 30
0.0
 10
4.40559
 20
16.8024
 30
0.0
 10
4.7129
 20
16.7335
 30
0.0
 10
4.7129
 20
16.5296
 30
0.0
  0
LINE
  5
186
100
AcDbEntity
  8
0
100
AcDbLine
 62
     0
 10
4.7129
 20
16.5296
 30
0.0
 11
4.7129
 21
16.5296
 31
0.0
  0
SPLINE
  5
187
100
AcDbEntity
  8
0
100
AcDbSpline
210
0.0
220
0.0
230
1.0
 62
     0
 70
     0
 71
     3
 72
     8
 73
4
 40
0.0
 40
0.0
 40
0.0
 40
0.0
 40
1.0
 40
1.0
 40
1.0
 40
1.0
 10
1.94717
 20
19.7046
 30
0.0
 10
1.65778
 20
19.7046
 30
0.0
 10
1.42351
 20
19.4703
 30
0.0
 10
1.42351
 20
19.1809
 30
0.0
  0
SPLINE
  5
188
100
AcDbEntity
  8
0
100
AcDbSpline
210
0.0
220
0.0
230
1.0
 62
     0
 70
     0
 71
     3
 72
     8
 73
4
 40
0.0
 40
0.0
 40
0.0
 40
0.0
 40
1.0
 40
1.0
 40
1.0
 40
1.0
 10
1.42351
 20
19.1809
 30
0.0
 10
1.42351
 20
18.8929
 30
0.0
 10
1.65778
 20
18.6586
 30
0.0
 10
1.94717
 20
18.6586
 30
0.0
  0
SPLINE
  5
189
100
AcDbEntity
  8
0
100
AcDbSpline
210
0.0
220
0.0
230
1.0
 62
     0
 70
     0
 71
     3
 72
     8
 73
4
 40
0.0
 40
0.0
 40
0.0
 40
0.0
 40
1.0
 40
1.0
 40
1.0
 40
1.0
 10
1.94717
 20
18.6586
 30
0.0
 10
2.23518
 20
18.6586
 30
0.0
 10
2.47082
 20
18.8929
 30
0.0
 10
2.47082
 20
19.1809
 30
0.0
  0
SPLINE
  5
18a
100
AcDbEntity
  8
0
100
AcDbSpline
210
0.0
220
0.0
230
1.0
 62
     0
 70
     0
 71
     3
 72
     8
 73
4
 40
0.0
 40
0.0
 40
0.0
 40
0.0
 40
1.0
 40
1.0
 40
1.0
 40
1.0
 10
2.47082
 20
19.1809
 30
0.0
 10
2.47082
 20
19.4703
 30
0.0
 10
2.23518
 20
19.7046
 30
0.0
 10
1.94717
 20
19.7046
 30
0.0
  0
LINE
  5
18b
100
AcDbEntity
  8
0
100
AcDbLine
 62
     0
 10
1.94717
 20
19.7046
 30
0.0
 11
1.94717
 21
19.7046
 31
0.0
  0
SPLINE
  5
18c
100
AcDbEntity
  8
0
100
AcDbSpline
210
0.0
220
0.0
230
1.0
 62
     0
 70
     0
 71
     3
 72
     8
 73
4
 40
0.0
 40
0.0
 40
0.0
 40
0.0
 40
1.0
 40
1.0
 40
1.0
 40
1.0
 10
1.94717
 20
19.491
 30
0.0
 10
2.11805
 20
19.491
 30
0.0
 10
2.25585
 20
19.3518
 30
0.0
 10
2.25585
 20
19.1809
 30
0.0
  0
SPLINE
  5
18d
100
AcDbEntity
  8
0
100
AcDbSpline
210
0.0
220
0.0
230
1.0
 62
     0
 70
     0
 71
     3
 72
     8
 73
4
 40
0.0
 40
0.0
 40
0.0
 40
0.0
 40
1.0
 40
1.0
 40
1.0
 40
1.0
 10
2.25585
 20
19.1809
 30
0.0
 10
2.25585
 20
19.01
 30
0.0
 10
2.11805
 20
18.8722
 30
0.0
 10
1.94717
 20
18.8722
 30
0.0
  0
SPLINE
  5
18e
100
AcDbEntity
  8
0
100
AcDbSpline
210
0.0
220
0.0
230
1.0
 62
     0
 70
     0
 71
     3
 72
     8
 73
4
 40
0.0
 40
0.0
 40
0.0
 40
0.0
 40
1.0
 40
1.0
 40
1.0
 40
1.0
 10
1.94717
 20
18.8722
 30
0.0
 10
1.77629
 20
18.8722
 30
0.0
 10
1.63711
 20
19.01
 30
0.0
 10
1.63711
 20
19.1809
 30
0.0
  0
SPLINE
  5
18f
100
AcDbEntity
  8
0
100
AcDbSpline
210
0.0
220
0.0
230
1.0
 62
     0
 70
     0
 71
     3
 72
     8
 73
4
 40
0.0
 40
0.0
 40
0.0
 40
0.0
 40
1.0
 40
1.0
 40
1.0
 40
1.0
 10
1.63711
 20
19.1809
 30
0.0
 10
1.63711
 20
19.3518
 30
0.0
 10
1.77629
 20
19.491
 30
0.0
 10
1.94717
 20
19.491
 30
0.0
  0
LINE
  5
190
100
AcDbEntity
  8
0
100
AcDbLine
 62
     0
 10
1.94717
 20
19.491
 30
0.0
 11
1.94717
 21
19.491
 31
0.0
  0
SPLINE
  5
191
100
AcDbEntity
  8
0
100
AcDbSpline
210
0.0
220
0.0
230
1.0
 62
     0
 70
     0
 71
     3
 72
     8
 73
4
 40
0.0
 40
0.0
 40
0.0
 40
0.0
 40
1.0
 40
1.0
 40
1.0
 40
1.0
 10
4.84519
 20
20.2613
 30
0.0
 10
4.24988
 20
20.2613
 30
0.0
 10
3.76481
 20
19.7776
 30
0.0
 10
3.76481
 20
19.1809
 30
0.0
  0
SPLINE
  5
192
100
AcDbEntity
  8
0
100
AcDbSpline
210
0.0
220
0.0
230
1.0
 62
     0
 70
     0
 71
     3
 72
     8
 73
4
 40
0.0
 40
0.0
 40
0.0
 40
0.0
 40
1.0
 40
1.0
 40
1.0
 40
1.0
 10
3.76481
 20
19.1809
 30
0.0
 10
3.76481
 20
18.5856
 30
0.0
 10
4.24988
 20
18.1019
 30
0.0
 10
4.84519
 20
18.1019
 30
0.0
  0
SPLINE
  5
193
100
AcDbEntity
  8
0
100
AcDbSpline
210
0.0
220
0.0
230
1.0
 62
     0
 70
     0
 71
     3
 72
     8
 73
4
 40
0.0
 40
0.0
 40
0.0
 40
0.0
 40
1.0
 40
1.0
 40
1.0
 40
1.0
 10
4.84519
 20
18.1019
 30
0.0
 10
5.4405
 20
18.1019
 30
0.0
 10
5.92557
 20
18.5856
 30
0.0
 10
5.92557
 20
19.1809
 30
0.0
  0
SPLINE
  5
194
100
AcDbEntity
  8
0
100
AcDbSpline
210
0.0
220
0.0
230
1.0
 62
     0
 70
     0
 71
     3
 72
     8
 73
4
 40
0.0
 40
0.0
 40
0.0
 40
0.0
 40
1.0
 40
1.0
 40
1.0
 40
1.0
 10
5.92557
 20
19.1809
 30
0.0
 10
5.92557
 20
19.7776
 30
0.0
 10
5.4405
 20
20.2613
 30
0.0
 10
4.84519
 20
20.2613
 30
0.0
  0
LINE
  5
195
100
AcDbEntity
  8
0
100
AcDbLine
 62
     0
 10
4.84519
 20
20.2613
 30
0.0
 11
4.84519
 21
20.2613
 31
0.0
  0
SPLINE
  5
196
100
AcDbEntity
  8
0
100
AcDbSpline
210
0.0
220
0.0
230
1.0
 62
     0
 70
     0
 71
     3
 72
     8
 73
4
 40
0.0
 40
0.0
 40
0.0
 40
0.0
 40
1.0
 40
1.0
 40
1.0
 40
1.0
 10
4.84519
 20
20.0077
 30
0.0
 10
5.30271
 20
20.0077
 30
0.0
 10
5.672
 20
19.6384
 30
0.0
 10
5.672
 20
19.1809
 30
0.0
  0
SPLINE
  5
197
100
AcDbEntity
  8
0
100
AcDbSpline
210
0.0
220
0.0
230
1.0
 62
     0
 70
     0
 71
     3
 72
     8
 73
4
 40
0.0
 40
0.0
 40
0.0
 40
0.0
 40
1.0
 40
1.0
 40
1.0
 40
1.0
 10
5.672
 20
19.1809
 30
0.0
 10
5.672
 20
18.7248
 30
0.0
 10
5.30271
 20
18.3569
 30
0.0
 10
4.84519
 20
18.3569
 30
0.0
  0
SPLINE
  5
198
100
AcDbEntity
  8
0
100
AcDbSpline
210
0.0
220
0.0
230
1.0
 62
     0
 70
     0
 71
     3
 72
     8
 73
4
 40
0.0
 40
0.0
 40
0.0
 40
0.0
 40
1.0
 40
1.0
 40
1.0
 40
1.0
 10
4.84519
 20
18.3569
 30
0.0
 10
4.38767
 20
18.3569
 30
0.0
 10
4.01973
 20
18.7248
 30
0.0
 10
4.01973
 20
19.1809
 30
0.0
  0
SPLINE
  5
199
100
AcDbEntity
  8
0
100
AcDbSpline
210
0.0
220
0.0
230
1.0
 62
     0
 70
     0
 71
     3
 72
     8
 73
4
 40
0.0
 40
0.0
 40
0.0
 40
0.0
 40
1.0
 40
1.0
 40
1.0
 40
1.0
 10
4.01973
 20
19.1809
 30
0.0
 10
4.01973
 20
19.6384
 30
0.0
 10
4.38767
 20
20.0077
 30
0.0
 10
4.84519
 20
20.0077
 30
0.0
  0
LINE
  5
19a
100
AcDbEntity
  8
0
100
AcDbLine
 62
     0
 10
4.84519
 20
20.0077
 30
0.0
 11
4.84519
 21
20.0077
 31
0.0
  0
LINE
  5
19b
100
AcDbEntity
  8
0
100
AcDbLine
 62
     0
 10
4.18648
 20
14.1194
 30
0.0
 11
5.40329
 21
13.7942
 31
0.0
  0
LINE
  5
19c
100
AcDbEntity
  8
0
100
AcDbLine
 62
     0
 10
5.40329
 20
13.7942
 30
0.0
 11
4.51171
 21
12.9039
 31
0.0
  0
LINE
  5
19d
100
AcDbEntity
  8
0
100
AcDbLine
 62
     0
 10
4.51171
 20
12.9039
 30
0.0
 11
4.18648
 21
14.1194
 31
0.0
  0
LINE
  5
19e
100
AcDbEntity
  8
0
100
AcDbLine
 62
     0
 10
3.90811
 20
14.3977
 30
0.0
 11
4.40972
 21
12.5236
 31
0.0
  0
LINE
  5
19f
100
AcDbEntity
  8
0
100
AcDbLine
 62
     0
 10
4.40972
 20
12.5236
 30
0.0
 11
5.78224
 21
13.8961
 31
0.0
  0
LINE
  5
1a0
100
AcDbEntity
  8
0
100
AcDbLine
 62
     0
 10
5.78224
 20
13.8961
 30
0.0
 11
3.90811
 21
14.3977
 31
0.0
  0
LINE
  5
1a1
100
AcDbEntity
  8
0
100
AcDbLine
 62
     0
 10
11.0339
 20
12.8171
 30
0.0
 11
10.4042
 21
13.9072
 31
0.0
  0
LINE
  5
1a2
100
AcDbEntity
  8
0
100
AcDbLine
 62
     0
 10
10.4042
 20
13.9072
 30
0.0
 11
9.77441
 21
12.8171
 31
0.0
  0
LINE
  5
1a3
100
AcDbEntity
  8
0
100
AcDbLine
 62
     0
 10
9.77441
 20
12.8171
 30
0.0
 11
11.0339
 21
12.8171
 31
0.0
  0
LINE
  5
1a4
100
AcDbEntity
  8
0
100
AcDbLine
 62
     0
 10
11.3743
 20
12.6201
 30
0.0
 11
9.43405
 21
12.6214
 31
0.0
  0
LINE
  5
1a5
100
AcDbEntity
  8
0
100
AcDbLine
 62
     0
 10
9.43405
 20
12.6214
 30
0.0
 11
10.4042
 21
14.2999
 31
0.0
  0
LINE
  5
1a6
100
AcDbEntity
  8
0
100
AcDbLine
 62
     0
 10
10.4042
 20
14.2999
 30
0.0
 11
11.3743
 21
12.6201
 31
0.0
  0
LINE
  5
1a7
100
AcDbEntity
  8
0
100
AcDbLine
 62
     0
 10
8.3633
 20
14.1194
 30
0.0
 11
8.03811
 21
12.9039
 31
0.0
  0
LINE
  5
1a8
100
AcDbEntity
  8
0
100
AcDbLine
 62
     0
 10
8.03811
 20
12.9039
 30
0.0
 11
7.14788
 21
13.7942
 31
0.0
  0
LINE
  5
1a9
100
AcDbEntity
  8
0
100
AcDbLine
 62
     0
 10
7.14788
 20
13.7942
 30
0.0
 11
8.3633
 21
14.1194
 31
0.0
  0
LINE
  5
1aa
100
AcDbEntity
  8
0
100
AcDbLine
 62
     0
 10
8.64168
 20
14.3977
 30
0.0
 11
6.76755
 21
13.8948
 31
0.0
  0
LINE
  5
1ab
100
AcDbEntity
  8
0
100
AcDbLine
 62
     0
 10
6.76755
 20
13.8948
 30
0.0
 11
8.14006
 21
12.5236
 31
0.0
  0
LINE
  5
1ac
100
AcDbEntity
  8
0
100
AcDbLine
 62
     0
 10
8.14006
 20
12.5236
 30
0.0
 11
8.64168
 21
14.3977
 31
0.0
  0
LINE
  5
1ad
100
AcDbEntity
  8
0
100
AcDbLine
 62
     0
 10
2.58933
 20
11.2613
 30
0.0
 11
1.49931
 21
10.6316
 31
0.0
  0
LINE
  5
1ae
100
AcDbEntity
  8
0
100
AcDbLine
 62
     0
 10
1.49931
 20
10.6316
 30
0.0
 11
2.58933
 21
10.0018
 31
0.0
  0
LINE
  5
1af
100
AcDbEntity
  8
0
100
AcDbLine
 62
     0
 10
2.58933
 20
10.0018
 30
0.0
 11
2.58933
 21
11.2613
 31
0.0
  0
LINE
  5
1b0
100
AcDbEntity
  8
0
100
AcDbLine
 62
     0
 10
2.78639
 20
11.6017
 30
0.0
 11
2.78639
 21
9.66142
 31
0.0
  0
LINE
  5
1b1
100
AcDbEntity
  8
0
100
AcDbLine
 62
     0
 10
2.78639
 20
9.66142
 30
0.0
 11
1.10657
 21
10.6316
 31
0.0
  0
LINE
  5
1b2
100
AcDbEntity
  8
0
100
AcDbLine
 62
     0
 10
1.10657
 20
10.6316
 30
0.0
 11
2.78639
 21
11.6017
 31
0.0
  0
LINE
  5
1b3
100
AcDbEntity
  8
0
100
AcDbLine
 62
     0
 10
4.20165
 20
10.0018
 30
0.0
 11
5.29304
 21
10.6316
 31
0.0
  0
LINE
  5
1b4
100
AcDbEntity
  8
0
100
AcDbLine
 62
     0
 10
5.29304
 20
10.6316
 30
0.0
 11
4.20165
 21
11.2613
 31
0.0
  0
LINE
  5
1b5
100
AcDbEntity
  8
0
100
AcDbLine
 62
     0
 10
4.20165
 20
11.2613
 30
0.0
 11
4.20165
 21
10.0018
 31
0.0
  0
LINE
  5
1b6
100
AcDbEntity
  8
0
100
AcDbLine
 62
     0
 10
4.00597
 20
9.66142
 30
0.0
 11
4.00597
 21
11.6017
 31
0.0
  0
LINE
  5
1b7
100
AcDbEntity
  8
0
100
AcDbLine
 62
     0
 10
4.00597
 20
11.6017
 30
0.0
 11
5.68579
 21
10.6316
 31
0.0
  0
LINE
  5
1b8
100
AcDbEntity
  8
0
100
AcDbLine
 62
     0
 10
5.68579
 20
10.6316
 30
0.0
 11
4.00597
 21
9.66142
 31
0.0
  0
LINE
  5
1b9
100
AcDbEntity
  8
0
100
AcDbLine
 62
     0
 10
7.04592
 20
9.97285
 30
0.0
 11
8.26135
 21
10.2981
 31
0.0
  0
LINE
  5
1ba
100
AcDbEntity
  8
0
100
AcDbLine
 62
     0
 10
8.26135
 20
10.2981
 30
0.0
 11
7.37112
 21
11.1883
 31
0.0
  0
LINE
  5
1bb
100
AcDbEntity
  8
0
100
AcDbLine
 62
     0
 10
7.37112
 20
11.1883
 30
0.0
 11
7.04592
 21
9.97285
 31
0.0
  0
LINE
  5
1bc
100
AcDbEntity
  8
0
100
AcDbLine
 62
     0
 10
6.76755
 20
9.69451
 30
0.0
 11
7.26916
 21
11.5686
 31
0.0
  0
LINE
  5
1bd
100
AcDbEntity
  8
0
100
AcDbLine
 62
     0
 10
7.26916
 20
11.5686
 30
0.0
 11
8.64168
 21
10.1961
 31
0.0
  0
LINE
  5
1be
100
AcDbEntity
  8
0
100
AcDbLine
 62
     0
 10
8.64168
 20
10.1961
 30
0.0
 11
6.76755
 21
9.69451
 31
0.0
  0
LINE
  5
1bf
100
AcDbEntity
  8
0
100
AcDbLine
 62
     0
 10
11.0339
 20
11.2751
 30
0.0
 11
10.4042
 21
10.1851
 31
0.0
  0
LINE
  5
1c0
100
AcDbEntity
  8
0
100
AcDbLine
 62
     0
 10
10.4042
 20
10.1851
 30
0.0
 11
9.77441
 21
11.2751
 31
0.0
  0
LINE
  5
1c1
100
AcDbEntity
  8
0
100
AcDbLine
 62
     0
 10
9.77441
 20
11.2751
 30
0.0
 11
11.0339
 21
11.2751
 31
0.0
  0
LINE
  5
1c2
100
AcDbEntity
  8
0
100
AcDbLine
 62
     0
 10
11.3743
 20
11.4722
 30
0.0
 11
9.43405
 21
11.4708
 31
0.0
  0
LINE
  5
1c3
100
AcDbEntity
  8
0
100
AcDbLine
 62
     0
 10
9.43405
 20
11.4708
 30
0.0
 11
10.4042
 21
9.79096
 31
0.0
  0
LINE
  5
1c4
100
AcDbEntity
  8
0
100
AcDbLine
 62
     0
 10
10.4042
 20
9.79096
 30
0.0
 11
11.3743
 21
11.4722
 31
0.0
  0
LINE
  5
1c5
100
AcDbEntity
  8
0
100
AcDbLine
 62
     0
 10
13.9182
 20
9.97285
 30
0.0
 11
13.593
 21
11.1883
 31
0.0
  0
LINE
  5
1c6
100
AcDbEntity
  8
0
100
AcDbLine
 62
     0
 10
13.593
 20
11.1883
 30
0.0
 11
12.7028
 21
10.2981
 31
0.0
  0
LINE
  5
1c7
100
AcDbEntity
  8
0
100
AcDbLine
 62
     0
 10
12.7028
 20
10.2981
 30
0.0
 11
13.9182
 21
9.97285
 31
0.0
  0
LINE
  5
1c8
100
AcDbEntity
  8
0
100
AcDbLine
 62
     0
 10
14.1966
 20
9.69451
 30
0.0
 11
12.3224
 21
10.1961
 31
0.0
  0
LINE
  5
1c9
100
AcDbEntity
  8
0
100
AcDbLine
 62
     0
 10
12.3224
 20
10.1961
 30
0.0
 11
13.6949
 21
11.5686
 31
0.0
  0
LINE
  5
1ca
100
AcDbEntity
  8
0
100
AcDbLine
 62
     0
 10
13.6949
 20
11.5686
 30
0.0
 11
14.1966
 21
9.69451
 31
0.0
  0
LINE
  5
1cb
100
AcDbEntity
  8
0
100
AcDbLine
 62
     0
 10
14.1966
 20
13.8961
 30
0.0
 11
12.3224
 21
14.3977
 31
0.0
  0
LINE
  5
1cc
100
AcDbEntity
  8
0
100
AcDbLine
 62
     0
 10
12.3224
 20
14.3977
 30
0.0
 11
12.8254
 21
12.5236
 31
0.0
  0
LINE
  5
1cd
100
AcDbEntity
  8
0
100
AcDbLine
 62
     0
 10
12.8254
 20
12.5236
 30
0.0
 11
14.1966
 21
13.8961
 31
0.0
  0
LINE
  5
1ce
100
AcDbEntity
  8
0
100
AcDbLine
 62
     0
 10
2.91593
 20
6.95357
 30
0.0
 11
0.977029
 21
6.95357
 31
0.0
  0
LINE
  5
1cf
100
AcDbEntity
  8
0
100
AcDbLine
 62
     0
 10
0.977029
 20
6.95357
 30
0.0
 11
1.94579
 21
8.63342
 31
0.0
  0
LINE
  5
1d0
100
AcDbEntity
  8
0
100
AcDbLine
 62
     0
 10
1.94579
 20
8.63342
 30
0.0
 11
2.91593
 21
6.95357
 31
0.0
  0
LINE
  5
1d1
100
AcDbEntity
  8
0
100
AcDbLine
 62
     0
 10
5.28066
 20
6.85712
 30
0.0
 11
5.78224
 21
8.72987
 31
0.0
  0
LINE
  5
1d2
100
AcDbEntity
  8
0
100
AcDbLine
 62
     0
 10
5.78224
 20
8.72987
 30
0.0
 11
3.90811
 21
8.22826
 31
0.0
  0
LINE
  5
1d3
100
AcDbEntity
  8
0
100
AcDbLine
 62
     0
 10
3.90811
 20
8.22826
 30
0.0
 11
5.28066
 21
6.85712
 31
0.0
  0
LINE
  5
1d4
100
AcDbEntity
  8
0
100
AcDbLine
 62
     0
 10
8.54385
 20
8.76293
 30
0.0
 11
8.54385
 21
6.82406
 31
0.0
  0
LINE
  5
1d5
100
AcDbEntity
  8
0
100
AcDbLine
 62
     0
 10
8.54385
 20
6.82406
 30
0.0
 11
6.864
 21
7.7942
 31
0.0
  0
LINE
  5
1d6
100
AcDbEntity
  8
0
100
AcDbLine
 62
     0
 10
6.864
 20
7.7942
 30
0.0
 11
8.54385
 21
8.76293
 31
0.0
  0
LINE
  5
1d7
100
AcDbEntity
  8
0
100
AcDbLine
 62
     0
 10
9.56359
 20
8.76293
 30
0.0
 11
9.56497
 21
6.82406
 31
0.0
  0
LINE
  5
1d8
100
AcDbEntity
  8
0
100
AcDbLine
 62
     0
 10
9.56497
 20
6.82406
 30
0.0
 11
11.2448
 21
7.7942
 31
0.0
  0
LINE
  5
1d9
100
AcDbEntity
  8
0
100
AcDbLine
 62
     0
 10
11.2448
 20
7.7942
 30
0.0
 11
9.56359
 21
8.76293
 31
0.0
  0
LINE
  5
1da
100
AcDbEntity
  8
0
100
AcDbLine
 62
     0
 10
14.1966
 20
7.35873
 30
0.0
 11
12.3224
 21
6.85712
 31
0.0
  0
LINE
  5
1db
100
AcDbEntity
  8
0
100
AcDbLine
 62
     0
 10
12.3224
 20
6.85712
 30
0.0
 11
12.8254
 21
8.72987
 31
0.0
  0
LINE
  5
1dc
100
AcDbEntity
  8
0
100
AcDbLine
 62
     0
 10
12.8254
 20
8.72987
 30
0.0
 11
14.1966
 21
7.35873
 31
0.0
  0
LINE
  5
1dd
100
AcDbEntity
  8
0
100
AcDbLine
 62
     0
 10
2.91593
 20
5.34127
 30
0.0
 11
0.977029
 21
5.34127
 31
0.0
  0
LINE
  5
1de
100
AcDbEntity
  8
0
100
AcDbLine
 62
     0
 10
0.977029
 20
5.34127
 30
0.0
 11
1.94579
 21
3.66145
 31
0.0
  0
LINE
  5
1df
100
AcDbEntity
  8
0
100
AcDbLine
 62
     0
 10
1.94579
 20
3.66145
 30
0.0
 11
2.91593
 21
5.34127
 31
0.0
  0
LINE
  5
1e0
100
AcDbEntity
  8
0
100
AcDbLine
 62
     0
 10
5.28066
 20
5.43775
 30
0.0
 11
5.78224
 21
3.565
 31
0.0
  0
LINE
  5
1e1
100
AcDbEntity
  8
0
100
AcDbLine
 62
     0
 10
5.78224
 20
3.565
 30
0.0
 11
3.90811
 21
4.06658
 31
0.0
  0
LINE
  5
1e2
100
AcDbEntity
  8
0
100
AcDbLine
 62
     0
 10
3.90811
 20
4.06658
 30
0.0
 11
5.28066
 21
5.43775
 31
0.0
  0
ENDSEC
  0
SECTION
  2
OBJECTS
  0
DICTIONARY
  5
C
330
0
100
AcDbDictionary
  3
ACAD_GROUP
350
D
  3
ACAD_LAYOUT
350
1A
  3
ACAD_MLINESTYLE
350
17
  3
ACAD_PLOTSETTINGS
350
19
  3
ACAD_PLOTSTYLENAME
350
E
  3
ACDBHEADERROUNDTRIPXREC
350
2F
  0
DICTIONARY
  5
52
330
1F
100
AcDbDictionary
280
     1
  3
ACAD_LAYOUTSELFREF
360
53
  0
DICTIONARY
  5
50
330
1B
100
AcDbDictionary
280
     1
  3
ACAD_LAYOUTSELFREF
360
51
  0
DICTIONARY
  5
D
102
{ACAD_REACTORS
330
C
102
}
330
C
100
AcDbDictionary
  0
DICTIONARY
  5
1A
102
{ACAD_REACTORS
330
C
102
}
330
C
100
AcDbDictionary
  0
DICTIONARY
  5
17
102
{ACAD_REACTORS
330
C
102
}
330
C
100
AcDbDictionary
  3
STANDARD
350
18
  0
DICTIONARY
  5
19
102
{ACAD_REACTORS
330
C
102
}
330
C
100
AcDbDictionary
  0
ACDBDICTIONARYWDFLT
  5
E
102
{ACAD_REACTORS
330
C
102
}
330
C
100
AcDbDictionary
281
     1
  3
Normal
350
F
100
AcDbDictionaryWithDefault
340
F
  0
DICTIONARY
  5
2F
102
{ACAD_REACTORS
330
C
102
}
330
C
100
AcDbDictionary
  3
CEPSNTYPE
350
39
  3
DIMSTYLEDATA
350
3D
  3
FINGERPRINTGUID
350
3A
  3
HYPERLINKBASE
350
32
  3
INSUNITS
350
38
  3
LAYOUTDICT
350
34
  3
LWETCUNION
350
37
  3
PLOTSETDICT
350
35
  3
PLOTSTYLNAMDICT
350
36
  3
PSVPSCALE
350
3C
  3
PUCSBASE
350
40
  3
PUCSORGBACK
350
46
  3
PUCSORGBOTTOM
350
42
  3
PUCSORGFRONT
350
45
  3
PUCSORGLEFT
350
43
  3
PUCSORGRIGHT
350
44
  3
PUCSORGTOP
350
41
  3
PUCSORTHOREF
350
3E
  3
PUCSORTHOVIEW
350
3F
  3
STYLESHEET
350
33
  3
TSTACKALIGN
350
30
  3
TSTACKSIZE
350
31
  3
UCSBASE
350
49
  3
UCSORGBACK
350
4F
  3
UCSORGBOTTOM
350
4B
  3
UCSORGFRONT
350
4E
  3
UCSORGLEFT
350
4C
  3
UCSORGRIGHT
350
4D
  3
UCSORGTOP
350
4A
  3
UCSORTHOREF
350
47
  3
UCSORTHOVIEW
350
48
  3
VERSIONGUID
350
3B
  0
XRECORD
  5
53
102
{ACAD_REACTORS
330
52
102
}
330
52
100
AcDbXrecord
340
1F
  0
XRECORD
  5
51
102
{ACAD_REACTORS
330
50
102
}
330
50
100
AcDbXrecord
340
1B
  0
MLINESTYLE
  5
18
102
{ACAD_REACTORS
330
17
102
}
330
17
100
AcDbMlineStyle
  2
STANDARD
 70
     0
  3

 62
   256
 51
90.0
 52
90.0
 71
     2
 49
0.5
 62
   256
  6
BYLAYER
 49
-0.5
 62
   256
  6
BYLAYER
  0
ACDBPLACEHOLDER
  5
F
102
{ACAD_REACTORS
330
E
102
}
330
E
100
AcDbPlaceHolder
280
     0
  0
XRECORD
  5
39
102
{ACAD_REACTORS
330
2F
102
}
330
2F
100
AcDbXrecord
 90
        0
  0
XRECORD
  5
3D
102
{ACAD_REACTORS
330
2F
102
}
330
2F
100
AcDbXrecord
1000
DSTYLE
1002
{
1070
   278
 70
    44
1002
}
  0
XRECORD
  5
3A
102
{ACAD_REACTORS
330
2F
102
}
330
2F
100
AcDbXrecord
  1
{705446A6-11D0-4548-8F8C-A97DCA50327D}
  0
XRECORD
  5
32
102
{ACAD_REACTORS
330
2F
102
}
330
2F
100
AcDbXrecord
  1

  0
XRECORD
  5
38
102
{ACAD_REACTORS
330
2F
102
}
330
2F
100
AcDbXrecord
 90
        4
  0
XRECORD
  5
34
102
{ACAD_REACTORS
330
2F
102
}
330
2F
100
AcDbXrecord
340
1A
  0
XRECORD
  5
37
102
{ACAD_REACTORS
330
2F
102
}
330
2F
100
AcDbXrecord
 90
    10781
  0
XRECORD
  5
35
102
{ACAD_REACTORS
330
2F
102
}
330
2F
100
AcDbXrecord
340
19
  0
XRECORD
  5
36
102
{ACAD_REACTORS
330
2F
102
}
330
2F
100
AcDbXrecord
340
E
  0
XRECORD
  5
3C
102
{ACAD_REACTORS
330
2F
102
}
330
2F
100
AcDbXrecord
 40
0.0
  0
XRECORD
  5
40
102
{ACAD_REACTORS
330
2F
102
}
330
2F
100
AcDbXrecord
340
0
  0
XRECORD
  5
46
102
{ACAD_REACTORS
330
2F
102
}
330
2F
100
AcDbXrecord
 10
0.0
 20
0.0
 30
0.0
  0
XRECORD
  5
42
102
{ACAD_REACTORS
330
2F
102
}
330
2F
100
AcDbXrecord
 10
0.0
 20
0.0
 30
0.0
  0
XRECORD
  5
45
102
{ACAD_REACTORS
330
2F
102
}
330
2F
100
AcDbXrecord
 10
0.0
 20
0.0
 30
0.0
  0
XRECORD
  5
43
102
{ACAD_REACTORS
330
2F
102
}
330
2F
100
AcDbXrecord
 10
0.0
 20
0.0
 30
0.0
  0
XRECORD
  5
44
102
{ACAD_REACTORS
330
2F
102
}
330
2F
100
AcDbXrecord
 10
0.0
 20
0.0
 30
0.0
  0
XRECORD
  5
41
102
{ACAD_REACTORS
330
2F
102
}
330
2F
100
AcDbXrecord
 10
0.0
 20
0.0
 30
0.0
  0
XRECORD
  5
3E
102
{ACAD_REACTORS
330
2F
102
}
330
2F
100
AcDbXrecord
340
0
  0
XRECORD
  5
3F
102
{ACAD_REACTORS
330
2F
102
}
330
2F
100
AcDbXrecord
 70
     0
  0
XRECORD
  5
33
102
{ACAD_REACTORS
330
2F
102
}
330
2F
100
AcDbXrecord
  1

  0
XRECORD
  5
30
102
{ACAD_REACTORS
330
2F
102
}
330
2F
100
AcDbXrecord
 90
        1
  0
XRECORD
  5
31
102
{ACAD_REACTORS
330
2F
102
}
330
2F
100
AcDbXrecord
 90
       70
  0
XRECORD
  5
49
102
{ACAD_REACTORS
330
2F
102
}
330
2F
100
AcDbXrecord
340
0
  0
XRECORD
  5
4F
102
{ACAD_REACTORS
330
2F
102
}
330
2F
100
AcDbXrecord
 10
0.0
 20
0.0
 30
0.0
  0
XRECORD
  5
4B
102
{ACAD_REACTORS
330
2F
102
}
330
2F
100
AcDbXrecord
 10
0.0
 20
0.0
 30
0.0
  0
XRECORD
  5
4E
102
{ACAD_REACTORS
330
2F
102
}
330
2F
100
AcDbXrecord
 10
0.0
 20
0.0
 30
0.0
  0
XRECORD
  5
4C
102
{ACAD_REACTORS
330
2F
102
}
330
2F
100
AcDbXrecord
 10
0.0
 20
0.0
 30
0.0
  0
XRECORD
  5
4D
102
{ACAD_REACTORS
330
2F
102
}
330
2F
100
AcDbXrecord
 10
0.0
 20
0.0
 30
0.0
  0
XRECORD
  5
4A
102
{ACAD_REACTORS
330
2F
102
}
330
2F
100
AcDbXrecord
 10
0.0
 20
0.0
 30
0.0
  0
XRECORD
  5
47
102
{ACAD_REACTORS
330
2F
102
}
330
2F
100
AcDbXrecord
340
0
  0
XRECORD
  5
48
102
{ACAD_REACTORS
330
2F
102
}
330
2F
100
AcDbXrecord
 70
     0
  0
XRECORD
  5
3B
102
{ACAD_REACTORS
330
2F
102
}
330
2F
100
AcDbXrecord
  1
{33328E3A-B6B8-4979-86B7-D70DEC2867C2}
  0
ENDSEC
  0
EOF
